<svg xmlns="http://www.w3.org/2000/svg" xmlns:xlink="http://www.w3.org/1999/xlink" contentStyleType="text/css" data-diagram-type="ACTIVITY" height="430px" preserveAspectRatio="none" style="width:385px;height:430px;background:#FAFAFA;" version="1.1" viewBox="0 0 385 430" width="385px" zoomAndPan="magnify"><?plantuml 1.2026.4?><defs/><g><rect fill="#FAFAFA" height="430" style="stroke:none;stroke-width:1;" width="385" x="0" y="0"/><ellipse cx="292.6548" cy="25" fill="#000000" rx="10" ry="10" style="stroke:#222222;stroke-width:1;"/><rect fill="#C9DFEE" height="45.6094" rx="7" ry="7" style="stroke:#000000;stroke-width:0.5;" width="145.4849" x="219.9124" y="55"/><text fill="#000000" font-family="Helvetica" font-size="11" lengthAdjust="spacing" textLength="125.4849" x="229.9124" y="75.2104">Instanciar Coordinador</text><text fill="#000000" font-family="Helvetica" font-size="11" lengthAdjust="spacing" textLength="122.896" x="231.2068" y="88.0151">de IA con Caso de Uso</text><path d="M23.2446,119.207 L23.2446,167.6211 A0,0 0 0 0 23.2446,167.6211 L215.0293,167.6211 A0,0 0 0 0 215.0293,167.6211 L215.0293,147.4141 L235.0293,143.4141 L215.0293,139.4141 L215.0293,129.207 L205.0293,119.207 L23.2446,119.207 A0,0 0 0 0 23.2446,119.207" fill="#FFF8E1" style="stroke:#C9B05E;stroke-width:0.5;"/><path d="M205.0293,119.207 L205.0293,129.207 L215.0293,129.207 L205.0293,119.207" fill="#FFF8E1" style="stroke:#C9B05E;stroke-width:0.5;"/><text fill="#3A2E0A" font-family="Helvetica" font-size="11" lengthAdjust="spacing" textLength="170.7847" x="29.2446" y="134.4175">Se desarrolla en el sub-modelo</text><text fill="#3A2E0A" font-family="Helvetica" font-size="11" lengthAdjust="spacing" textLength="128.3745" x="50.4497" y="147.2222">"Pipeline SDD (Generar</text><text fill="#3A2E0A" font-family="Helvetica" font-size="11" lengthAdjust="spacing" textLength="134.8682" x="47.2029" y="160.0269">Spec Ejecutable V&#225;lido)"</text><rect fill="#C9DFEE" height="45.6094" rx="7" ry="7" style="stroke:#000000;stroke-width:0.5;" width="115.251" x="235.0293" y="120.6094"/><text fill="#000000" font-family="Helvetica" font-size="11" lengthAdjust="spacing" textLength="75.0933" x="255.1082" y="140.8198">Generar Spec</text><text fill="#000000" font-family="Helvetica" font-size="11" lengthAdjust="spacing" textLength="95.251" x="245.0293" y="153.6245">Ejecutable V&#225;lida</text><path d="M25.6482,186.2188 L25.6482,234.6328 A0,0 0 0 0 25.6482,234.6328 L217.4329,234.6328 A0,0 0 0 0 217.4329,234.6328 L217.4329,214.4258 L237.4329,210.4258 L217.4329,206.4258 L217.4329,196.2188 L207.4329,186.2188 L25.6482,186.2188 A0,0 0 0 0 25.6482,186.2188" fill="#FFF8E1" style="stroke:#C9B05E;stroke-width:0.5;"/><path d="M207.4329,186.2188 L207.4329,196.2188 L217.4329,196.2188 L207.4329,186.2188" fill="#FFF8E1" style="stroke:#C9B05E;stroke-width:0.5;"/><text fill="#3A2E0A" font-family="Helvetica" font-size="11" lengthAdjust="spacing" textLength="170.7847" x="31.6482" y="201.4292">Se desarrolla en el sub-modelo</text><text fill="#3A2E0A" font-family="Helvetica" font-size="11" lengthAdjust="spacing" textLength="128.3745" x="52.8533" y="214.2339">"Pipeline SDD (Generar</text><text fill="#3A2E0A" font-family="Helvetica" font-size="11" lengthAdjust="spacing" textLength="141.0181" x="46.5315" y="227.0386">Dise&#241;o Detallado V&#225;lido)"</text><rect fill="#C9DFEE" height="45.6094" rx="7" ry="7" style="stroke:#000000;stroke-width:0.5;" width="110.4438" x="237.4329" y="187.6211"/><text fill="#000000" font-family="Helvetica" font-size="11" lengthAdjust="spacing" textLength="86.0396" x="249.635" y="207.8315">Generar Dise&#241;o</text><text fill="#000000" font-family="Helvetica" font-size="11" lengthAdjust="spacing" textLength="90.4438" x="247.4329" y="220.6362">Detallado V&#225;lido</text><path d="M27.6328,253.2305 L27.6328,301.6445 A0,0 0 0 0 27.6328,301.6445 L219.4175,301.6445 A0,0 0 0 0 219.4175,301.6445 L219.4175,281.4375 L239.4175,277.4375 L219.4175,273.4375 L219.4175,263.2305 L209.4175,253.2305 L27.6328,253.2305 A0,0 0 0 0 27.6328,253.2305" fill="#FFF8E1" style="stroke:#C9B05E;stroke-width:0.5;"/><path d="M209.4175,253.2305 L209.4175,263.2305 L219.4175,263.2305 L209.4175,253.2305" fill="#FFF8E1" style="stroke:#C9B05E;stroke-width:0.5;"/><text fill="#3A2E0A" font-family="Helvetica" font-size="11" lengthAdjust="spacing" textLength="170.7847" x="33.6328" y="268.4409">Se desarrolla en el sub-modelo</text><text fill="#3A2E0A" font-family="Helvetica" font-size="11" lengthAdjust="spacing" textLength="128.3745" x="54.8379" y="281.2456">"Pipeline SDD (Generar</text><text fill="#3A2E0A" font-family="Helvetica" font-size="11" lengthAdjust="spacing" textLength="126.7148" x="55.6677" y="294.0503">C&#243;digo Fuente V&#225;lido)"</text><rect fill="#C9DFEE" height="45.6094" rx="7" ry="7" style="stroke:#000000;stroke-width:0.5;" width="106.4746" x="239.4175" y="254.6328"/><text fill="#000000" font-family="Helvetica" font-size="11" lengthAdjust="spacing" textLength="86.4746" x="249.4175" y="274.8433">Generar C&#243;digo</text><text fill="#000000" font-family="Helvetica" font-size="11" lengthAdjust="spacing" textLength="75.7056" x="254.802" y="287.6479">Fuente V&#225;lido</text><path d="M15,320.2422 L15,368.6563 A0,0 0 0 0 15,368.6563 L206.7847,368.6563 A0,0 0 0 0 206.7847,368.6563 L206.7847,348.4492 L226.7847,344.4492 L206.7847,340.4492 L206.7847,330.2422 L196.7847,320.2422 L15,320.2422 A0,0 0 0 0 15,320.2422" fill="#FFF8E1" style="stroke:#C9B05E;stroke-width:0.5;"/><path d="M196.7847,320.2422 L196.7847,330.2422 L206.7847,330.2422 L196.7847,320.2422" fill="#FFF8E1" style="stroke:#C9B05E;stroke-width:0.5;"/><text fill="#3A2E0A" font-family="Helvetica" font-size="11" lengthAdjust="spacing" textLength="170.7847" x="21" y="335.4526">Se desarrolla en el sub-modelo</text><text fill="#3A2E0A" font-family="Helvetica" font-size="11" lengthAdjust="spacing" textLength="128.3745" x="42.2051" y="348.2573">"Pipeline SDD (Generar</text><text fill="#3A2E0A" font-family="Helvetica" font-size="11" lengthAdjust="spacing" textLength="168.314" x="22.2354" y="361.062">Reporte de Validaci&#243;n V&#225;lido)"</text><rect fill="#C9DFEE" height="45.6094" rx="7" ry="7" style="stroke:#000000;stroke-width:0.5;" width="131.7402" x="226.7847" y="321.6445"/><text fill="#000000" font-family="Helvetica" font-size="11" lengthAdjust="spacing" textLength="92.0391" x="246.6353" y="341.855">Generar Reporte</text><text fill="#000000" font-family="Helvetica" font-size="11" lengthAdjust="spacing" textLength="111.7402" x="236.7847" y="354.6597">de Validaci&#243;n V&#225;lido</text><ellipse cx="292.6548" cy="399.6563" fill="none" rx="11" ry="11" style="stroke:#222222;stroke-width:1;"/><ellipse cx="292.6548" cy="399.6563" fill="#222222" rx="6" ry="6" style="stroke:#222222;stroke-width:1;"/><line style="stroke:#090D10;stroke-width:1;" x1="292.6548" x2="292.6548" y1="35" y2="55"/><polygon fill="#090D10" points="288.6548,45,292.6548,55,296.6548,45,292.6548,49" style="stroke:#090D10;stroke-width:1;stroke-linejoin:miter;stroke-miterlimit:10;"/><line style="stroke:#090D10;stroke-width:1;" x1="292.6548" x2="292.6548" y1="100.6094" y2="120.6094"/><polygon fill="#090D10" points="288.6548,110.6094,292.6548,120.6094,296.6548,110.6094,292.6548,114.6094" style="stroke:#090D10;stroke-width:1;stroke-linejoin:miter;stroke-miterlimit:10;"/><line style="stroke:#090D10;stroke-width:1;" x1="292.6548" x2="292.6548" y1="166.2188" y2="187.6211"/><polygon fill="#090D10" points="288.6548,177.6211,292.6548,187.6211,296.6548,177.6211,292.6548,181.6211" style="stroke:#090D10;stroke-width:1;stroke-linejoin:miter;stroke-miterlimit:10;"/><line style="stroke:#090D10;stroke-width:1;" x1="292.6548" x2="292.6548" y1="233.2305" y2="254.6328"/><polygon fill="#090D10" points="288.6548,244.6328,292.6548,254.6328,296.6548,244.6328,292.6548,248.6328" style="stroke:#090D10;stroke-width:1;stroke-linejoin:miter;stroke-miterlimit:10;"/><line style="stroke:#090D10;stroke-width:1;" x1="292.6548" x2="292.6548" y1="300.2422" y2="321.6445"/><polygon fill="#090D10" points="288.6548,311.6445,292.6548,321.6445,296.6548,311.6445,292.6548,315.6445" style="stroke:#090D10;stroke-width:1;stroke-linejoin:miter;stroke-miterlimit:10;"/><line style="stroke:#090D10;stroke-width:1;" x1="292.6548" x2="292.6548" y1="367.2539" y2="388.6563"/><polygon fill="#090D10" points="288.6548,378.6563,292.6548,388.6563,296.6548,378.6563,292.6548,382.6563" style="stroke:#090D10;stroke-width:1;stroke-linejoin:miter;stroke-miterlimit:10;"/><?plantuml-src jP7FIiD048VlUOgn9psOvcn5aAIMtiHWJu6otHrbP3CJziy3-GZIHyYBkR5HaUHeOG-xCpk_xuEv8DOs6eGyNvvEKUnBQIEdIrxirpwGbLCbfzZQBFD1kP3Tt6haWEvkowd0cfI3KiGPOcN4DPmoj_UWXQ5KNY0zdxsiVkSsoEZIKDsXRdZzXZe6TR08k_xTab6hZ2KWM7m9FpCrfXold1Dh5I03Ml3nSDsAGIiDBnwfGqkCK5SLN8w8XWS6J11ojPZgLEIn_qXP5GQLA4Q-V_-dq4Y12MHEgUoFXbvJsaCS6kVm6H7mbp0dyuITk81V-zsfOL6Q-YEVGsf4mJmfoVaWtIS0?></g></svg>