<svg xmlns="http://www.w3.org/2000/svg" xmlns:xlink="http://www.w3.org/1999/xlink" contentStyleType="text/css" data-diagram-type="ACTIVITY" height="1231px" preserveAspectRatio="none" style="width:1187px;height:1231px;background:#FAFAFA;" version="1.1" viewBox="0 0 1187 1231" width="1187px" zoomAndPan="magnify"><?plantuml 1.2026.4?><defs/><g><rect fill="#FAFAFA" height="1231" style="stroke:none;stroke-width:1;" width="1187" x="0" y="0"/><rect fill="none" height="25.6094" style="stroke:none;stroke-width:1;" width="1140.0256" x="20" y="16.0942"/><ellipse cx="94.6577" cy="56.7036" fill="#000000" rx="10" ry="10" style="stroke:#222222;stroke-width:1;"/><rect fill="#C9DFEE" height="45.6094" rx="7" ry="7" style="stroke:#000000;stroke-width:0.5;" width="137.3154" x="26" y="130.7036"/><text fill="#000000" font-family="Helvetica" font-size="11" lengthAdjust="spacing" textLength="117.3154" x="36" y="150.9141">Instanciar Subagente</text><text fill="#000000" font-family="Helvetica" font-size="11" lengthAdjust="spacing" textLength="59.8232" x="64.7461" y="163.7188">Verificador</text><polygon fill="#D9C2E3" points="94.6577,86.7036,106.6577,98.7036,94.6577,110.7036,82.6577,98.7036,94.6577,86.7036" style="stroke:#000000;stroke-width:0.5;stroke-linejoin:miter;stroke-miterlimit:10;"/><line style="stroke:#000000;stroke-width:1.5;" x1="20" x2="20" y1="16.0942" y2="1210.6147"/><rect fill="#C9DFEE" height="45.6094" rx="7" ry="7" style="stroke:#000000;stroke-width:0.5;" width="124.2368" x="245.291" y="196.313"/><text fill="#000000" font-family="Helvetica" font-size="11" lengthAdjust="spacing" textLength="104.2368" x="255.291" y="216.5234">Consultar Memoria</text><text fill="#000000" font-family="Helvetica" font-size="11" lengthAdjust="spacing" textLength="61.5742" x="276.6223" y="229.3281">Persistente</text><rect fill="#C9DFEE" height="45.6094" rx="7" ry="7" style="stroke:#000000;stroke-width:0.5;" width="107.9302" x="253.4443" y="261.9224"/><text fill="#000000" font-family="Helvetica" font-size="11" lengthAdjust="spacing" textLength="83.6655" x="265.5767" y="282.1328">Deriva tests de</text><text fill="#000000" font-family="Helvetica" font-size="11" lengthAdjust="spacing" textLength="87.9302" x="263.4443" y="294.9375">Spec Ejecutable</text><rect fill="#000000" height="6" rx="2.5" ry="2.5" style="stroke:#000000;stroke-width:1;" width="268.188" x="173.3154" y="327.5317"/><rect fill="#C9DFEE" height="45.6094" rx="7" ry="7" style="stroke:#000000;stroke-width:0.5;" width="108.6714" x="185.3154" y="353.5317"/><text fill="#000000" font-family="Helvetica" font-size="11" lengthAdjust="spacing" textLength="75.7217" x="201.7903" y="373.7422">Ejecutar tests</text><text fill="#000000" font-family="Helvetica" font-size="11" lengthAdjust="spacing" textLength="88.6714" x="195.3154" y="386.5469">contra el c&#243;digo</text><rect fill="#C9DFEE" height="45.6094" rx="7" ry="7" style="stroke:#000000;stroke-width:0.5;" width="107.5166" x="321.9868" y="353.5317"/><text fill="#000000" font-family="Helvetica" font-size="11" lengthAdjust="spacing" textLength="87.5166" x="331.9868" y="373.7422">Genera Reporte</text><text fill="#000000" font-family="Helvetica" font-size="11" lengthAdjust="spacing" textLength="74.1533" x="338.6685" y="386.5469">de Validaci&#243;n</text><rect fill="#000000" height="6" rx="2.5" ry="2.5" style="stroke:#000000;stroke-width:1;" width="268.188" x="173.3154" y="419.1411"/><rect fill="#C9DFEE" height="45.6094" rx="7" ry="7" style="stroke:#000000;stroke-width:0.5;" width="139.0342" x="237.8923" y="445.1411"/><text fill="#000000" font-family="Helvetica" font-size="11" lengthAdjust="spacing" textLength="119.0342" x="247.8923" y="465.3516">Registrar en Memoria</text><text fill="#000000" font-family="Helvetica" font-size="11" lengthAdjust="spacing" textLength="61.5742" x="276.6223" y="478.1563">Persistente</text><rect fill="#000000" height="6" rx="2.5" ry="2.5" style="stroke:#000000;stroke-width:1;" width="268.188" x="173.3154" y="846.1772"/><rect fill="#C9DFEE" height="45.6094" rx="7" ry="7" style="stroke:#000000;stroke-width:0.5;" width="108.6714" x="185.3154" y="872.1772"/><text fill="#000000" font-family="Helvetica" font-size="11" lengthAdjust="spacing" textLength="75.7217" x="201.7903" y="892.3877">Ejecutar tests</text><text fill="#000000" font-family="Helvetica" font-size="11" lengthAdjust="spacing" textLength="88.6714" x="195.3154" y="905.1924">contra el c&#243;digo</text><rect fill="#C9DFEE" height="45.6094" rx="7" ry="7" style="stroke:#000000;stroke-width:0.5;" width="107.5166" x="321.9868" y="872.1772"/><text fill="#000000" font-family="Helvetica" font-size="11" lengthAdjust="spacing" textLength="87.5166" x="331.9868" y="892.3877">Genera Reporte</text><text fill="#000000" font-family="Helvetica" font-size="11" lengthAdjust="spacing" textLength="74.1533" x="338.6685" y="905.1924">de Validaci&#243;n</text><rect fill="#000000" height="6" rx="2.5" ry="2.5" style="stroke:#000000;stroke-width:1;" width="268.188" x="173.3154" y="937.7866"/><rect fill="#C9DFEE" height="45.6094" rx="7" ry="7" style="stroke:#000000;stroke-width:0.5;" width="139.0342" x="237.8923" y="963.7866"/><text fill="#000000" font-family="Helvetica" font-size="11" lengthAdjust="spacing" textLength="119.0342" x="247.8923" y="983.9971">Registrar en Memoria</text><text fill="#000000" font-family="Helvetica" font-size="11" lengthAdjust="spacing" textLength="61.5742" x="276.6223" y="996.8018">Persistente</text><line style="stroke:#000000;stroke-width:1.5;" x1="167.3154" x2="167.3154" y1="16.0942" y2="1210.6147"/><path d="M450.5034,777.7632 L450.5034,826.1772 A0,0 0 0 0 450.5034,826.1772 L650.8228,826.1772 A0,0 0 0 0 650.8228,826.1772 L650.8228,805.9702 L670.8228,801.9702 L650.8228,797.9702 L650.8228,787.7632 L640.8228,777.7632 L450.5034,777.7632 A0,0 0 0 0 450.5034,777.7632" fill="#FFF8E1" style="stroke:#C9B05E;stroke-width:0.5;"/><path d="M640.8228,777.7632 L640.8228,787.7632 L650.8228,787.7632 L640.8228,777.7632" fill="#FFF8E1" style="stroke:#C9B05E;stroke-width:0.5;"/><text fill="#3A2E0A" font-family="Helvetica" font-size="11" lengthAdjust="spacing" textLength="170.7847" x="460.7708" y="792.9736">Se desarrolla en el sub-modelo</text><text fill="#3A2E0A" font-family="Helvetica" font-size="11" lengthAdjust="spacing" textLength="110.752" x="490.7871" y="805.7783">"3.5.4. Pipeline SDD</text><text fill="#3A2E0A" font-family="Helvetica" font-size="11" lengthAdjust="spacing" textLength="179.3193" x="456.5034" y="818.583">(Generar C&#243;digo Fuente V&#225;lido)"</text><rect fill="#C9DFEE" height="45.6094" rx="7" ry="7" style="stroke:#000000;stroke-width:0.5;" width="106.4746" x="670.8228" y="779.1655"/><text fill="#000000" font-family="Helvetica" font-size="11" lengthAdjust="spacing" textLength="86.4746" x="680.8228" y="799.376">Generar C&#243;digo</text><text fill="#000000" font-family="Helvetica" font-size="11" lengthAdjust="spacing" textLength="75.7056" x="686.2073" y="812.1807">Fuente V&#225;lido</text><line style="stroke:#000000;stroke-width:1.5;" x1="445.5034" x2="445.5034" y1="16.0942" y2="1210.6147"/><rect fill="#C9DFEE" height="45.6094" rx="7" ry="7" style="stroke:#000000;stroke-width:0.5;" width="141.376" x="804.1895" y="510.7505"/><text fill="#000000" font-family="Helvetica" font-size="11" lengthAdjust="spacing" textLength="89.1924" x="830.2813" y="530.9609">Verifica y Valida</text><text fill="#000000" font-family="Helvetica" font-size="11" lengthAdjust="spacing" textLength="121.376" x="814.1895" y="543.7656">Reporte de Validaci&#243;n</text><polygon fill="#D9C2E3" points="821.8835,576.3599,927.8713,576.3599,939.8713,589.1646,927.8713,601.9692,821.8835,601.9692,809.8835,589.1646,821.8835,576.3599" style="stroke:#000000;stroke-width:0.5;stroke-linejoin:miter;stroke-miterlimit:10;"/><text fill="#090D10" font-family="Helvetica" font-size="10" lengthAdjust="spacing" textLength="9.126" x="878.8774" y="611.2515">S&#237;</text><text fill="#000000" font-family="Helvetica" font-size="11" lengthAdjust="spacing" textLength="105.9878" x="821.8835" y="586.5703">&#191;Todos los criterios</text><text fill="#000000" font-family="Helvetica" font-size="11" lengthAdjust="spacing" textLength="90.981" x="829.387" y="599.375">est&#225;n cubiertos?</text><text fill="#090D10" font-family="Helvetica" font-size="10" lengthAdjust="spacing" textLength="13.5986" x="939.8713" y="586.8062">No</text><rect fill="#C9DFEE" height="32.8047" rx="7" ry="7" style="stroke:#000000;stroke-width:0.5;" width="162.2212" x="993.0562" y="320.4341"/><text fill="#000000" font-family="Helvetica" font-size="11" lengthAdjust="spacing" textLength="142.2212" x="1003.0562" y="340.6445">Comunicar observaciones</text><rect fill="#C9DFEE" height="32.8047" rx="7" ry="7" style="stroke:#000000;stroke-width:0.5;" width="162.2212" x="793.7668" y="726.3608"/><text fill="#000000" font-family="Helvetica" font-size="11" lengthAdjust="spacing" textLength="142.2212" x="803.7668" y="746.5713">Comunicar observaciones</text><rect fill="#C9DFEE" height="45.6094" rx="7" ry="7" style="stroke:#000000;stroke-width:0.5;" width="141.376" x="804.1895" y="1029.396"/><text fill="#000000" font-family="Helvetica" font-size="11" lengthAdjust="spacing" textLength="89.1924" x="830.2813" y="1049.6064">Verifica y Valida</text><text fill="#000000" font-family="Helvetica" font-size="11" lengthAdjust="spacing" textLength="121.376" x="814.1895" y="1062.4111">Reporte de Validaci&#243;n</text><polygon fill="#D9C2E3" points="874.8774,682.3608,886.8774,694.3608,874.8774,706.3608,862.8774,694.3608,874.8774,682.3608" style="stroke:#000000;stroke-width:0.5;stroke-linejoin:miter;stroke-miterlimit:10;"/><polygon fill="#D9C2E3" points="808.2974,1095.0054,941.4575,1095.0054,953.4575,1107.8101,941.4575,1120.6147,808.2974,1120.6147,796.2974,1107.8101,808.2974,1095.0054" style="stroke:#000000;stroke-width:0.5;stroke-linejoin:miter;stroke-miterlimit:10;"/><text fill="#090D10" font-family="Helvetica" font-size="10" lengthAdjust="spacing" textLength="9.126" x="878.8774" y="1129.897">Si</text><text fill="#000000" font-family="Helvetica" font-size="11" lengthAdjust="spacing" textLength="133.1602" x="808.2974" y="1105.2158">&#191;Los tests se ejecutaron</text><text fill="#000000" font-family="Helvetica" font-size="11" lengthAdjust="spacing" textLength="87.0654" x="831.3447" y="1118.0205">correctamente?</text><text fill="#090D10" font-family="Helvetica" font-size="10" lengthAdjust="spacing" textLength="13.5986" x="953.4575" y="1105.4517">No</text><polygon fill="#D9C2E3" points="808.2974,632.7515,941.4575,632.7515,953.4575,645.5562,941.4575,658.3608,808.2974,658.3608,796.2974,645.5562,808.2974,632.7515" style="stroke:#000000;stroke-width:0.5;stroke-linejoin:miter;stroke-miterlimit:10;"/><text fill="#090D10" font-family="Helvetica" font-size="10" lengthAdjust="spacing" textLength="13.5986" x="878.8774" y="667.6431">No</text><text fill="#000000" font-family="Helvetica" font-size="11" lengthAdjust="spacing" textLength="133.1602" x="808.2974" y="642.9619">&#191;Los tests se ejecutaron</text><text fill="#000000" font-family="Helvetica" font-size="11" lengthAdjust="spacing" textLength="87.0654" x="831.3447" y="655.7666">correctamente?</text><text fill="#090D10" font-family="Helvetica" font-size="10" lengthAdjust="spacing" textLength="9.126" x="953.4575" y="643.1978">S&#237;</text><polygon fill="#D9C2E3" points="874.8774,1144.6147,886.8774,1156.6147,874.8774,1168.6147,862.8774,1156.6147,874.8774,1144.6147" style="stroke:#000000;stroke-width:0.5;stroke-linejoin:miter;stroke-miterlimit:10;"/><ellipse cx="874.8774" cy="1199.6147" fill="none" rx="11" ry="11" style="stroke:#222222;stroke-width:1;"/><ellipse cx="874.8774" cy="1199.6147" fill="#222222" rx="6" ry="6" style="stroke:#222222;stroke-width:1;"/><line style="stroke:#000000;stroke-width:1.5;" x1="781.2974" x2="781.2974" y1="16.0942" y2="1210.6147"/><line style="stroke:#000000;stroke-width:1.5;" x1="1159.2773" x2="1159.2773" y1="16.0942" y2="1210.6147"/><line style="stroke:#090D10;stroke-width:1;" x1="94.6577" x2="94.6577" y1="110.7036" y2="130.7036"/><polygon fill="#090D10" points="90.6577,120.7036,94.6577,130.7036,98.6577,120.7036,94.6577,124.7036" style="stroke:#090D10;stroke-width:1;stroke-linejoin:miter;stroke-miterlimit:10;"/><line style="stroke:#090D10;stroke-width:1;" x1="94.6577" x2="94.6577" y1="66.7036" y2="86.7036"/><polygon fill="#090D10" points="90.6577,76.7036,94.6577,86.7036,98.6577,76.7036,94.6577,80.7036" style="stroke:#090D10;stroke-width:1;stroke-linejoin:miter;stroke-miterlimit:10;"/><line style="stroke:#090D10;stroke-width:1;" x1="307.4094" x2="307.4094" y1="241.9224" y2="261.9224"/><polygon fill="#090D10" points="303.4094,251.9224,307.4094,261.9224,311.4094,251.9224,307.4094,255.9224" style="stroke:#090D10;stroke-width:1;stroke-linejoin:miter;stroke-miterlimit:10;"/><line style="stroke:#090D10;stroke-width:1;" x1="239.6511" x2="239.6511" y1="333.5317" y2="353.5317"/><polygon fill="#090D10" points="235.6511,343.5317,239.6511,353.5317,243.6511,343.5317,239.6511,347.5317" style="stroke:#090D10;stroke-width:1;stroke-linejoin:miter;stroke-miterlimit:10;"/><line style="stroke:#090D10;stroke-width:1;" x1="375.7451" x2="375.7451" y1="333.5317" y2="353.5317"/><polygon fill="#090D10" points="371.7451,343.5317,375.7451,353.5317,379.7451,343.5317,375.7451,347.5317" style="stroke:#090D10;stroke-width:1;stroke-linejoin:miter;stroke-miterlimit:10;"/><line style="stroke:#090D10;stroke-width:1;" x1="239.6511" x2="239.6511" y1="399.1411" y2="419.1411"/><polygon fill="#090D10" points="235.6511,409.1411,239.6511,419.1411,243.6511,409.1411,239.6511,413.1411" style="stroke:#090D10;stroke-width:1;stroke-linejoin:miter;stroke-miterlimit:10;"/><line style="stroke:#090D10;stroke-width:1;" x1="375.7451" x2="375.7451" y1="399.1411" y2="419.1411"/><polygon fill="#090D10" points="371.7451,409.1411,375.7451,419.1411,379.7451,409.1411,375.7451,413.1411" style="stroke:#090D10;stroke-width:1;stroke-linejoin:miter;stroke-miterlimit:10;"/><line style="stroke:#090D10;stroke-width:1;" x1="307.4094" x2="307.4094" y1="307.5317" y2="327.5317"/><polygon fill="#090D10" points="303.4094,317.5317,307.4094,327.5317,311.4094,317.5317,307.4094,321.5317" style="stroke:#090D10;stroke-width:1;stroke-linejoin:miter;stroke-miterlimit:10;"/><line style="stroke:#090D10;stroke-width:1;" x1="307.4094" x2="307.4094" y1="425.1411" y2="445.1411"/><polygon fill="#090D10" points="303.4094,435.1411,307.4094,445.1411,311.4094,435.1411,307.4094,439.1411" style="stroke:#090D10;stroke-width:1;stroke-linejoin:miter;stroke-miterlimit:10;"/><line style="stroke:#090D10;stroke-width:1;" x1="239.6511" x2="239.6511" y1="852.1772" y2="872.1772"/><polygon fill="#090D10" points="235.6511,862.1772,239.6511,872.1772,243.6511,862.1772,239.6511,866.1772" style="stroke:#090D10;stroke-width:1;stroke-linejoin:miter;stroke-miterlimit:10;"/><line style="stroke:#090D10;stroke-width:1;" x1="375.7451" x2="375.7451" y1="852.1772" y2="872.1772"/><polygon fill="#090D10" points="371.7451,862.1772,375.7451,872.1772,379.7451,862.1772,375.7451,866.1772" style="stroke:#090D10;stroke-width:1;stroke-linejoin:miter;stroke-miterlimit:10;"/><line style="stroke:#090D10;stroke-width:1;" x1="239.6511" x2="239.6511" y1="917.7866" y2="937.7866"/><polygon fill="#090D10" points="235.6511,927.7866,239.6511,937.7866,243.6511,927.7866,239.6511,931.7866" style="stroke:#090D10;stroke-width:1;stroke-linejoin:miter;stroke-miterlimit:10;"/><line style="stroke:#090D10;stroke-width:1;" x1="375.7451" x2="375.7451" y1="917.7866" y2="937.7866"/><polygon fill="#090D10" points="371.7451,927.7866,375.7451,937.7866,379.7451,927.7866,375.7451,931.7866" style="stroke:#090D10;stroke-width:1;stroke-linejoin:miter;stroke-miterlimit:10;"/><line style="stroke:#090D10;stroke-width:1;" x1="307.4094" x2="307.4094" y1="943.7866" y2="963.7866"/><polygon fill="#090D10" points="303.4094,953.7866,307.4094,963.7866,311.4094,953.7866,307.4094,957.7866" style="stroke:#090D10;stroke-width:1;stroke-linejoin:miter;stroke-miterlimit:10;"/><line style="stroke:#090D10;stroke-width:1;" x1="939.8713" x2="1074.1667" y1="589.1646" y2="589.1646"/><line style="stroke:#090D10;stroke-width:1;" x1="1074.1667" x2="1074.1667" y1="353.2388" y2="589.1646"/><polygon fill="#090D10" points="1070.1667,363.2388,1074.1667,353.2388,1078.1667,363.2388,1074.1667,359.2388" style="stroke:#090D10;stroke-width:1;stroke-linejoin:miter;stroke-miterlimit:10;"/><line style="stroke:#090D10;stroke-width:1;" x1="874.8774" x2="874.8774" y1="556.3599" y2="576.3599"/><polygon fill="#090D10" points="870.8774,566.3599,874.8774,576.3599,878.8774,566.3599,874.8774,570.3599" style="stroke:#090D10;stroke-width:1;stroke-linejoin:miter;stroke-miterlimit:10;"/><line style="stroke:#090D10;stroke-width:1;" x1="874.8774" x2="874.8774" y1="706.3608" y2="726.3608"/><polygon fill="#090D10" points="870.8774,716.3608,874.8774,726.3608,878.8774,716.3608,874.8774,720.3608" style="stroke:#090D10;stroke-width:1;stroke-linejoin:miter;stroke-miterlimit:10;"/><line style="stroke:#090D10;stroke-width:1;" x1="953.4575" x2="981.0562" y1="1107.8101" y2="1107.8101"/><polygon fill="#090D10" points="977.0562,910.3843,981.0562,900.3843,985.0562,910.3843,981.0562,906.3843" style="stroke:#090D10;stroke-width:1;stroke-linejoin:miter;stroke-miterlimit:10;"/><line style="stroke:#090D10;stroke-width:1;" x1="981.0562" x2="981.0562" y1="694.3608" y2="1107.8101"/><line style="stroke:#090D10;stroke-width:1;" x1="981.0562" x2="886.8774" y1="694.3608" y2="694.3608"/><polygon fill="#090D10" points="896.8774,690.3608,886.8774,694.3608,896.8774,698.3608,892.8774,694.3608" style="stroke:#090D10;stroke-width:1;stroke-linejoin:miter;stroke-miterlimit:10;"/><line style="stroke:#090D10;stroke-width:1;" x1="874.8774" x2="874.8774" y1="1075.0054" y2="1095.0054"/><polygon fill="#090D10" points="870.8774,1085.0054,874.8774,1095.0054,878.8774,1085.0054,874.8774,1089.0054" style="stroke:#090D10;stroke-width:1;stroke-linejoin:miter;stroke-miterlimit:10;"/><line style="stroke:#090D10;stroke-width:1;" x1="874.8774" x2="874.8774" y1="658.3608" y2="682.3608"/><polygon fill="#090D10" points="870.8774,672.3608,874.8774,682.3608,878.8774,672.3608,874.8774,676.3608" style="stroke:#090D10;stroke-width:1;stroke-linejoin:miter;stroke-miterlimit:10;"/><line style="stroke:#090D10;stroke-width:1;" x1="953.4575" x2="1003.0562" y1="645.5562" y2="645.5562"/><polygon fill="#090D10" points="999.0562,890.3843,1003.0562,900.3843,1007.0562,890.3843,1003.0562,894.3843" style="stroke:#090D10;stroke-width:1;stroke-linejoin:miter;stroke-miterlimit:10;"/><line style="stroke:#090D10;stroke-width:1;" x1="1003.0562" x2="1003.0562" y1="645.5562" y2="1156.6147"/><line style="stroke:#090D10;stroke-width:1;" x1="1003.0562" x2="886.8774" y1="1156.6147" y2="1156.6147"/><polygon fill="#090D10" points="896.8774,1152.6147,886.8774,1156.6147,896.8774,1160.6147,892.8774,1156.6147" style="stroke:#090D10;stroke-width:1;stroke-linejoin:miter;stroke-miterlimit:10;"/><line style="stroke:#090D10;stroke-width:1;" x1="874.8774" x2="874.8774" y1="1120.6147" y2="1144.6147"/><polygon fill="#090D10" points="870.8774,1134.6147,874.8774,1144.6147,878.8774,1134.6147,874.8774,1138.6147" style="stroke:#090D10;stroke-width:1;stroke-linejoin:miter;stroke-miterlimit:10;"/><line style="stroke:#090D10;stroke-width:1;" x1="874.8774" x2="874.8774" y1="601.9692" y2="632.7515"/><polygon fill="#090D10" points="870.8774,622.7515,874.8774,632.7515,878.8774,622.7515,874.8774,626.7515" style="stroke:#090D10;stroke-width:1;stroke-linejoin:miter;stroke-miterlimit:10;"/><line style="stroke:#090D10;stroke-width:1;" x1="874.8774" x2="874.8774" y1="1168.6147" y2="1188.6147"/><polygon fill="#090D10" points="870.8774,1178.6147,874.8774,1188.6147,878.8774,1178.6147,874.8774,1182.6147" style="stroke:#090D10;stroke-width:1;stroke-linejoin:miter;stroke-miterlimit:10;"/><line style="stroke:#090D10;stroke-width:1;" x1="94.6577" x2="94.6577" y1="176.313" y2="181.313"/><line style="stroke:#090D10;stroke-width:1;" x1="94.6577" x2="307.4094" y1="181.313" y2="181.313"/><line style="stroke:#090D10;stroke-width:1;" x1="307.4094" x2="307.4094" y1="181.313" y2="196.313"/><polygon fill="#090D10" points="303.4094,186.313,307.4094,196.313,311.4094,186.313,307.4094,190.313" style="stroke:#090D10;stroke-width:1;stroke-linejoin:miter;stroke-miterlimit:10;"/><line style="stroke:#090D10;stroke-width:1;" x1="307.4094" x2="307.4094" y1="490.7505" y2="495.7505"/><line style="stroke:#090D10;stroke-width:1;" x1="307.4094" x2="874.8774" y1="495.7505" y2="495.7505"/><line style="stroke:#090D10;stroke-width:1;" x1="874.8774" x2="874.8774" y1="495.7505" y2="510.7505"/><polygon fill="#090D10" points="870.8774,500.7505,874.8774,510.7505,878.8774,500.7505,874.8774,504.7505" style="stroke:#090D10;stroke-width:1;stroke-linejoin:miter;stroke-miterlimit:10;"/><line style="stroke:#090D10;stroke-width:1;" x1="1074.1667" x2="1074.1667" y1="98.7036" y2="320.4341"/><line style="stroke:#090D10;stroke-width:1;" x1="1074.1667" x2="106.6577" y1="98.7036" y2="98.7036"/><polygon fill="#090D10" points="116.6577,94.7036,106.6577,98.7036,116.6577,102.7036,112.6577,98.7036" style="stroke:#090D10;stroke-width:1;stroke-linejoin:miter;stroke-miterlimit:10;"/><line style="stroke:#090D10;stroke-width:1;" x1="874.8774" x2="874.8774" y1="759.1655" y2="764.1655"/><line style="stroke:#090D10;stroke-width:1;" x1="874.8774" x2="724.0601" y1="764.1655" y2="764.1655"/><line style="stroke:#090D10;stroke-width:1;" x1="724.0601" x2="724.0601" y1="764.1655" y2="779.1655"/><polygon fill="#090D10" points="720.0601,769.1655,724.0601,779.1655,728.0601,769.1655,724.0601,773.1655" style="stroke:#090D10;stroke-width:1;stroke-linejoin:miter;stroke-miterlimit:10;"/><line style="stroke:#090D10;stroke-width:1;" x1="724.0601" x2="724.0601" y1="824.7749" y2="831.1772"/><line style="stroke:#090D10;stroke-width:1;" x1="724.0601" x2="307.4094" y1="831.1772" y2="831.1772"/><line style="stroke:#090D10;stroke-width:1;" x1="307.4094" x2="307.4094" y1="831.1772" y2="846.1772"/><polygon fill="#090D10" points="303.4094,836.1772,307.4094,846.1772,311.4094,836.1772,307.4094,840.1772" style="stroke:#090D10;stroke-width:1;stroke-linejoin:miter;stroke-miterlimit:10;"/><line style="stroke:#090D10;stroke-width:1;" x1="307.4094" x2="307.4094" y1="1009.396" y2="1014.396"/><line style="stroke:#090D10;stroke-width:1;" x1="307.4094" x2="874.8774" y1="1014.396" y2="1014.396"/><line style="stroke:#090D10;stroke-width:1;" x1="874.8774" x2="874.8774" y1="1014.396" y2="1029.396"/><polygon fill="#090D10" points="870.8774,1019.396,874.8774,1029.396,878.8774,1019.396,874.8774,1023.396" style="stroke:#090D10;stroke-width:1;stroke-linejoin:miter;stroke-miterlimit:10;"/><text fill="#000000" font-family="Helvetica" font-size="11" lengthAdjust="spacing" textLength="81.9146" x="52.7004" y="26.3047">Coordinador IA</text><text fill="#000000" font-family="Helvetica" font-size="11" lengthAdjust="spacing" textLength="59.4795" x="276.6697" y="26.3047">Subagente</text><text fill="#000000" font-family="Helvetica" font-size="11" lengthAdjust="spacing" textLength="59.8232" x="276.4978" y="39.1094">Verificador</text><text fill="#000000" font-family="Helvetica" font-size="11" lengthAdjust="spacing" textLength="59.4795" x="583.6606" y="26.3047">Subagente</text><text fill="#000000" font-family="Helvetica" font-size="11" lengthAdjust="spacing" textLength="106.3262" x="560.2373" y="39.1094">de Implementaci&#243;n</text><text fill="#000000" font-family="Helvetica" font-size="11" lengthAdjust="spacing" textLength="74.5723" x="933.0012" y="26.3047">Desarrollador</text><?plantuml-src dLJRRjD047ttLqpxr3nW8W4l185GKb0aG5M3ycIfMg_7wTBrJBIxReMKd-a7yDGFG28_nZY-94xJ2X8bqdhtd3EpPuvpOaZRCaE8uvVrTpYy6dDHaYpYuTMv3yPolHERih1HT99XRWXXp0plD590zrxMBZEaCdOm_TX1PcKwHzUXv54jgcL2icroeol2BdfQB0-XfJyviLZ8ez9c_K1Hj9AQgsXLbwWNWbcr1pue5wB8uH9LY40-RrlXASaXQQCS7EvejC5tqZtocCcNLiJXAnRiZ4he0fqtFbJdepvu8fgt2WBwu26J8hCbQZZ_WReCAhKDF6Ttq-Sr25Sp4z9CmIb02thza9a5RucW5ifGd_uP2GL-YKjsZNrpPKrMMrTpaR83XIzn8JTnKXdfcGkk9kYLSsnjPTUUGwsHyBEfcb3J2UmtaYfzSwTSjckl14t83ZZrw6u5oOH-r0mIxgwDHJXhuNz-V-UCFLZvQMTaox3u9QwjxmbqcHfqWVs70HY_PNtZ0H27xSPi_MiGHIRV5VuYalNWF08s0s6gXk4Swg2gCA8eXslngY-5rcEltCQXdInk37lohYsYotH7wK_OmRYEGqAVoke0vkjxiPUt4d9D18jvwAYpQWpjzAenIwfycRueE4ChIgUluZVnwnWkp1BjvhMSJ18wswi8_OA3qrxJtMlJY_Sn4JyGy_-E-gEu7nFvfs9_RFItWNYSwN-EtlEXDX94oamUoPyXB_y2?></g></svg>