<svg xmlns="http://www.w3.org/2000/svg" xmlns:xlink="http://www.w3.org/1999/xlink" contentStyleType="text/css" data-diagram-type="ACTIVITY" height="562px" preserveAspectRatio="none" style="width:690px;height:562px;background:#FAFAFA;" version="1.1" viewBox="0 0 690 562" width="690px" zoomAndPan="magnify"><?plantuml 1.2026.4?><defs/><g><rect fill="#FAFAFA" height="562" style="stroke:none;stroke-width:1;" width="690" x="0" y="0"/><rect fill="none" height="25.6094" style="stroke:none;stroke-width:1;" width="643.8455" x="20" y="16.0942"/><ellipse cx="94.6577" cy="56.7036" fill="#000000" rx="10" ry="10" style="stroke:#222222;stroke-width:1;"/><rect fill="#C9DFEE" height="45.6094" rx="7" ry="7" style="stroke:#000000;stroke-width:0.5;" width="137.3154" x="26" y="130.7036"/><text fill="#000000" font-family="Helvetica" font-size="11" lengthAdjust="spacing" textLength="117.3154" x="36" y="150.9141">Instanciar Subagente</text><text fill="#000000" font-family="Helvetica" font-size="11" lengthAdjust="spacing" textLength="49.7471" x="69.7842" y="163.7188">Redactor</text><polygon fill="#D9C2E3" points="94.6577,86.7036,106.6577,98.7036,94.6577,110.7036,82.6577,98.7036,94.6577,86.7036" style="stroke:#000000;stroke-width:0.5;stroke-linejoin:miter;stroke-miterlimit:10;"/><line style="stroke:#000000;stroke-width:1.5;" x1="20" x2="20" y1="16.0942" y2="541.5444"/><rect fill="#C9DFEE" height="45.6094" rx="7" ry="7" style="stroke:#000000;stroke-width:0.5;" width="124.2368" x="180.7141" y="196.313"/><text fill="#000000" font-family="Helvetica" font-size="11" lengthAdjust="spacing" textLength="104.2368" x="190.7141" y="216.5234">Consultar Memoria</text><text fill="#000000" font-family="Helvetica" font-size="11" lengthAdjust="spacing" textLength="61.5742" x="212.0454" y="229.3281">Persistente</text><rect fill="#C9DFEE" height="45.6094" rx="7" ry="7" style="stroke:#000000;stroke-width:0.5;" width="90.5708" x="197.5471" y="261.9224"/><text fill="#000000" font-family="Helvetica" font-size="11" lengthAdjust="spacing" textLength="70.5708" x="207.5471" y="282.1328">Genera Spec</text><text fill="#000000" font-family="Helvetica" font-size="11" lengthAdjust="spacing" textLength="57.6533" x="214.0059" y="294.9375">Ejecutable</text><rect fill="#C9DFEE" height="45.6094" rx="7" ry="7" style="stroke:#000000;stroke-width:0.5;" width="139.0342" x="173.3154" y="331.9341"/><text fill="#000000" font-family="Helvetica" font-size="11" lengthAdjust="spacing" textLength="119.0342" x="183.3154" y="352.1445">Registrar en Memoria</text><text fill="#000000" font-family="Helvetica" font-size="11" lengthAdjust="spacing" textLength="61.5742" x="212.0454" y="364.9492">Persistente</text><line style="stroke:#000000;stroke-width:1.5;" x1="167.3154" x2="167.3154" y1="16.0942" y2="541.5444"/><rect fill="#C9DFEE" height="45.6094" rx="7" ry="7" style="stroke:#000000;stroke-width:0.5;" width="109.1924" x="347.7173" y="397.5435"/><text fill="#000000" font-family="Helvetica" font-size="11" lengthAdjust="spacing" textLength="89.1924" x="357.7173" y="417.7539">Verifica y Valida</text><text fill="#000000" font-family="Helvetica" font-size="11" lengthAdjust="spacing" textLength="87.9302" x="358.3484" y="430.5586">Spec Ejecutable</text><polygon fill="#D9C2E3" points="343.3496,463.1528,461.2773,463.1528,473.2773,475.9575,461.2773,488.7622,343.3496,488.7622,331.3496,475.9575,343.3496,463.1528" style="stroke:#000000;stroke-width:0.5;stroke-linejoin:miter;stroke-miterlimit:10;"/><text fill="#090D10" font-family="Helvetica" font-size="10" lengthAdjust="spacing" textLength="9.126" x="406.3135" y="498.0444">S&#237;</text><text fill="#000000" font-family="Helvetica" font-size="11" lengthAdjust="spacing" textLength="63.728" x="370.4495" y="473.3633">&#191;La spec es</text><text fill="#000000" font-family="Helvetica" font-size="11" lengthAdjust="spacing" textLength="117.9277" x="343.3496" y="486.168">t&#233;cnicamente viable?</text><text fill="#090D10" font-family="Helvetica" font-size="10" lengthAdjust="spacing" textLength="13.5986" x="473.2773" y="473.5991">No</text><rect fill="#C9DFEE" height="32.8047" rx="7" ry="7" style="stroke:#000000;stroke-width:0.5;" width="162.2212" x="496.876" y="269.1294"/><text fill="#000000" font-family="Helvetica" font-size="11" lengthAdjust="spacing" textLength="142.2212" x="506.876" y="289.3398">Comunicar observaciones</text><ellipse cx="402.3135" cy="530.5444" fill="none" rx="11" ry="11" style="stroke:#222222;stroke-width:1;"/><ellipse cx="402.3135" cy="530.5444" fill="#222222" rx="6" ry="6" style="stroke:#222222;stroke-width:1;"/><line style="stroke:#000000;stroke-width:1.5;" x1="316.3496" x2="316.3496" y1="16.0942" y2="541.5444"/><line style="stroke:#000000;stroke-width:1.5;" x1="663.0972" x2="663.0972" y1="16.0942" y2="541.5444"/><line style="stroke:#090D10;stroke-width:1;" x1="94.6577" x2="94.6577" y1="110.7036" y2="130.7036"/><polygon fill="#090D10" points="90.6577,120.7036,94.6577,130.7036,98.6577,120.7036,94.6577,124.7036" style="stroke:#090D10;stroke-width:1;stroke-linejoin:miter;stroke-miterlimit:10;"/><line style="stroke:#090D10;stroke-width:1;" x1="94.6577" x2="94.6577" y1="66.7036" y2="86.7036"/><polygon fill="#090D10" points="90.6577,76.7036,94.6577,86.7036,98.6577,76.7036,94.6577,80.7036" style="stroke:#090D10;stroke-width:1;stroke-linejoin:miter;stroke-miterlimit:10;"/><line style="stroke:#090D10;stroke-width:1;" x1="242.8325" x2="242.8325" y1="241.9224" y2="261.9224"/><polygon fill="#090D10" points="238.8325,251.9224,242.8325,261.9224,246.8325,251.9224,242.8325,255.9224" style="stroke:#090D10;stroke-width:1;stroke-linejoin:miter;stroke-miterlimit:10;"/><line style="stroke:#090D10;stroke-width:1;" x1="242.8325" x2="242.8325" y1="307.5317" y2="331.9341"/><polygon fill="#090D10" points="238.8325,321.9341,242.8325,331.9341,246.8325,321.9341,242.8325,325.9341" style="stroke:#090D10;stroke-width:1;stroke-linejoin:miter;stroke-miterlimit:10;"/><line style="stroke:#090D10;stroke-width:1;" x1="473.2773" x2="577.9866" y1="475.9575" y2="475.9575"/><line style="stroke:#090D10;stroke-width:1;" x1="577.9866" x2="577.9866" y1="301.9341" y2="475.9575"/><polygon fill="#090D10" points="573.9866,311.9341,577.9866,301.9341,581.9866,311.9341,577.9866,307.9341" style="stroke:#090D10;stroke-width:1;stroke-linejoin:miter;stroke-miterlimit:10;"/><line style="stroke:#090D10;stroke-width:1;" x1="402.3135" x2="402.3135" y1="443.1528" y2="463.1528"/><polygon fill="#090D10" points="398.3135,453.1528,402.3135,463.1528,406.3135,453.1528,402.3135,457.1528" style="stroke:#090D10;stroke-width:1;stroke-linejoin:miter;stroke-miterlimit:10;"/><line style="stroke:#090D10;stroke-width:1;" x1="402.3135" x2="402.3135" y1="488.7622" y2="519.5444"/><polygon fill="#090D10" points="398.3135,509.5444,402.3135,519.5444,406.3135,509.5444,402.3135,513.5444" style="stroke:#090D10;stroke-width:1;stroke-linejoin:miter;stroke-miterlimit:10;"/><line style="stroke:#090D10;stroke-width:1;" x1="94.6577" x2="94.6577" y1="176.313" y2="181.313"/><line style="stroke:#090D10;stroke-width:1;" x1="94.6577" x2="242.8325" y1="181.313" y2="181.313"/><line style="stroke:#090D10;stroke-width:1;" x1="242.8325" x2="242.8325" y1="181.313" y2="196.313"/><polygon fill="#090D10" points="238.8325,186.313,242.8325,196.313,246.8325,186.313,242.8325,190.313" style="stroke:#090D10;stroke-width:1;stroke-linejoin:miter;stroke-miterlimit:10;"/><line style="stroke:#090D10;stroke-width:1;" x1="242.8325" x2="242.8325" y1="377.5435" y2="382.5435"/><line style="stroke:#090D10;stroke-width:1;" x1="242.8325" x2="402.3135" y1="382.5435" y2="382.5435"/><line style="stroke:#090D10;stroke-width:1;" x1="402.3135" x2="402.3135" y1="382.5435" y2="397.5435"/><polygon fill="#090D10" points="398.3135,387.5435,402.3135,397.5435,406.3135,387.5435,402.3135,391.5435" style="stroke:#090D10;stroke-width:1;stroke-linejoin:miter;stroke-miterlimit:10;"/><line style="stroke:#090D10;stroke-width:1;" x1="577.9866" x2="577.9866" y1="98.7036" y2="269.1294"/><line style="stroke:#090D10;stroke-width:1;" x1="577.9866" x2="106.6577" y1="98.7036" y2="98.7036"/><polygon fill="#090D10" points="116.6577,94.7036,106.6577,98.7036,116.6577,102.7036,112.6577,98.7036" style="stroke:#090D10;stroke-width:1;stroke-linejoin:miter;stroke-miterlimit:10;"/><text fill="#000000" font-family="Helvetica" font-size="11" lengthAdjust="spacing" textLength="81.9146" x="52.7004" y="26.3047">Coordinador IA</text><text fill="#000000" font-family="Helvetica" font-size="11" lengthAdjust="spacing" textLength="59.4795" x="212.0928" y="26.3047">Subagente</text><text fill="#000000" font-family="Helvetica" font-size="11" lengthAdjust="spacing" textLength="49.7471" x="216.959" y="39.1094">Redactor</text><text fill="#000000" font-family="Helvetica" font-size="11" lengthAdjust="spacing" textLength="74.5723" x="452.4373" y="26.3047">Desarrollador</text><?plantuml-src VPBDIWCn4CVlUOhnfBtKdgqeqYsoe59QyLIGD3kjqUoaJB8jGb_8WmVn0GJxOiwwxhQLwXBOoUJtdw_am99nHORGRXzNgzEvx_cy837QdVj-YDRvojEsHUwKEiXmQWaXmGMS6gI8V9PWqCpUEPrv1cYOdlSD8pPdbhw9zA91HiLaY5b3oLRFIdDCujOcUjv64nlseTA0dE3wpM_3QJx_0vOJXxbijR7hTzeMtI7l4udRJgqfgs_eMzmK8xRyb5f9cokrgheIGwQqghs7C4W7_QlqfW-Z954XQevACSvHHmNoLLXfdTHnKnACZDKCUqRJhMHrjXrbprCedEI0QymzMpsc0NAmKgUSTtVXIoHa3QCvcZ7r7z4KKK_SRsg8Cv6pX4Jw9shLz8wo7XyymvrsDXDPcGj-fvfeyxJKd6st8KzFb0n-4f0NScEUC7H_vWRB1-iGZchyy-DAGoX3OnXJNB-OKbnUDSB2bedEMo2Fg17S-1QGZnl7QFtQKd8vVlu5?></g></svg>