<svg xmlns="http://www.w3.org/2000/svg" xmlns:xlink="http://www.w3.org/1999/xlink" contentStyleType="text/css" data-diagram-type="ACTIVITY" height="581px" preserveAspectRatio="none" style="width:741px;height:581px;background:#FAFAFA;" version="1.1" viewBox="0 0 741 581" width="741px" zoomAndPan="magnify"><?plantuml 1.2026.4?><defs/><g><rect fill="#FAFAFA" height="581" style="stroke:none;stroke-width:1;" width="741" x="0" y="0"/><rect fill="none" height="25.6094" style="stroke:none;stroke-width:1;" width="694.1565" x="20" y="16.0942"/><ellipse cx="94.6577" cy="56.7036" fill="#000000" rx="10" ry="10" style="stroke:#222222;stroke-width:1;"/><rect fill="#C9DFEE" height="45.6094" rx="7" ry="7" style="stroke:#000000;stroke-width:0.5;" width="137.3154" x="26" y="130.7036"/><text fill="#000000" font-family="Helvetica" font-size="11" lengthAdjust="spacing" textLength="117.3154" x="36" y="150.9141">Instanciar Subagente</text><text fill="#000000" font-family="Helvetica" font-size="11" lengthAdjust="spacing" textLength="54.9731" x="67.1711" y="163.7188">de Dise&#241;o</text><polygon fill="#D9C2E3" points="94.6577,86.7036,106.6577,98.7036,94.6577,110.7036,82.6577,98.7036,94.6577,86.7036" style="stroke:#000000;stroke-width:0.5;stroke-linejoin:miter;stroke-miterlimit:10;"/><line style="stroke:#000000;stroke-width:1.5;" x1="20" x2="20" y1="16.0942" y2="560.7515"/><rect fill="#C9DFEE" height="45.6094" rx="7" ry="7" style="stroke:#000000;stroke-width:0.5;" width="124.2368" x="180.7141" y="196.313"/><text fill="#000000" font-family="Helvetica" font-size="11" lengthAdjust="spacing" textLength="104.2368" x="190.7141" y="216.5234">Consultar Memoria</text><text fill="#000000" font-family="Helvetica" font-size="11" lengthAdjust="spacing" textLength="61.5742" x="212.0454" y="229.3281">Persistente</text><rect fill="#C9DFEE" height="45.6094" rx="7" ry="7" style="stroke:#000000;stroke-width:0.5;" width="101.5171" x="192.074" y="261.9224"/><text fill="#000000" font-family="Helvetica" font-size="11" lengthAdjust="spacing" textLength="81.5171" x="202.074" y="282.1328">Genera Dise&#241;o</text><text fill="#000000" font-family="Helvetica" font-size="11" lengthAdjust="spacing" textLength="52.8569" x="216.4041" y="294.9375">Detallado</text><rect fill="#C9DFEE" height="45.6094" rx="7" ry="7" style="stroke:#000000;stroke-width:0.5;" width="139.0342" x="173.3154" y="338.3364"/><text fill="#000000" font-family="Helvetica" font-size="11" lengthAdjust="spacing" textLength="119.0342" x="183.3154" y="358.5469">Registrar en Memoria</text><text fill="#000000" font-family="Helvetica" font-size="11" lengthAdjust="spacing" textLength="61.5742" x="212.0454" y="371.3516">Persistente</text><line style="stroke:#000000;stroke-width:1.5;" x1="167.3154" x2="167.3154" y1="16.0942" y2="560.7515"/><rect fill="#C9DFEE" height="45.6094" rx="7" ry="7" style="stroke:#000000;stroke-width:0.5;" width="114.0801" x="370.429" y="403.9458"/><text fill="#000000" font-family="Helvetica" font-size="11" lengthAdjust="spacing" textLength="89.1924" x="382.8728" y="424.1563">Verifica y Valida</text><text fill="#000000" font-family="Helvetica" font-size="11" lengthAdjust="spacing" textLength="94.0801" x="380.429" y="436.9609">Dise&#241;o Detallado</text><polygon fill="#D9C2E3" points="343.3496,469.5552,511.5884,469.5552,523.5884,488.7622,511.5884,507.9692,343.3496,507.9692,331.3496,488.7622,343.3496,469.5552" style="stroke:#000000;stroke-width:0.5;stroke-linejoin:miter;stroke-miterlimit:10;"/><text fill="#090D10" font-family="Helvetica" font-size="10" lengthAdjust="spacing" textLength="9.126" x="431.469" y="517.2515">S&#237;</text><text fill="#000000" font-family="Helvetica" font-size="11" lengthAdjust="spacing" textLength="168.2388" x="343.3496" y="479.7656">&#191;Respeta los ADRs registrados</text><text fill="#000000" font-family="Helvetica" font-size="11" lengthAdjust="spacing" textLength="112.6479" x="371.145" y="492.5703">y es consistente con</text><text fill="#000000" font-family="Helvetica" font-size="11" lengthAdjust="spacing" textLength="116.7998" x="369.0691" y="505.375">la arquitectura base?</text><text fill="#090D10" font-family="Helvetica" font-size="10" lengthAdjust="spacing" textLength="13.5986" x="523.5884" y="486.4038">No</text><rect fill="#C9DFEE" height="32.8047" rx="7" ry="7" style="stroke:#000000;stroke-width:0.5;" width="162.2212" x="547.187" y="275.5317"/><text fill="#000000" font-family="Helvetica" font-size="11" lengthAdjust="spacing" textLength="142.2212" x="557.187" y="295.7422">Comunicar observaciones</text><ellipse cx="427.469" cy="549.7515" fill="none" rx="11" ry="11" style="stroke:#222222;stroke-width:1;"/><ellipse cx="427.469" cy="549.7515" fill="#222222" rx="6" ry="6" style="stroke:#222222;stroke-width:1;"/><line style="stroke:#000000;stroke-width:1.5;" x1="316.3496" x2="316.3496" y1="16.0942" y2="560.7515"/><line style="stroke:#000000;stroke-width:1.5;" x1="713.4082" x2="713.4082" y1="16.0942" y2="560.7515"/><line style="stroke:#090D10;stroke-width:1;" x1="94.6577" x2="94.6577" y1="110.7036" y2="130.7036"/><polygon fill="#090D10" points="90.6577,120.7036,94.6577,130.7036,98.6577,120.7036,94.6577,124.7036" style="stroke:#090D10;stroke-width:1;stroke-linejoin:miter;stroke-miterlimit:10;"/><line style="stroke:#090D10;stroke-width:1;" x1="94.6577" x2="94.6577" y1="66.7036" y2="86.7036"/><polygon fill="#090D10" points="90.6577,76.7036,94.6577,86.7036,98.6577,76.7036,94.6577,80.7036" style="stroke:#090D10;stroke-width:1;stroke-linejoin:miter;stroke-miterlimit:10;"/><line style="stroke:#090D10;stroke-width:1;" x1="242.8325" x2="242.8325" y1="241.9224" y2="261.9224"/><polygon fill="#090D10" points="238.8325,251.9224,242.8325,261.9224,246.8325,251.9224,242.8325,255.9224" style="stroke:#090D10;stroke-width:1;stroke-linejoin:miter;stroke-miterlimit:10;"/><line style="stroke:#090D10;stroke-width:1;" x1="242.8325" x2="242.8325" y1="307.5317" y2="338.3364"/><polygon fill="#090D10" points="238.8325,328.3364,242.8325,338.3364,246.8325,328.3364,242.8325,332.3364" style="stroke:#090D10;stroke-width:1;stroke-linejoin:miter;stroke-miterlimit:10;"/><line style="stroke:#090D10;stroke-width:1;" x1="523.5884" x2="628.2976" y1="488.7622" y2="488.7622"/><line style="stroke:#090D10;stroke-width:1;" x1="628.2976" x2="628.2976" y1="308.3364" y2="488.7622"/><polygon fill="#090D10" points="624.2976,318.3364,628.2976,308.3364,632.2976,318.3364,628.2976,314.3364" style="stroke:#090D10;stroke-width:1;stroke-linejoin:miter;stroke-miterlimit:10;"/><line style="stroke:#090D10;stroke-width:1;" x1="427.469" x2="427.469" y1="449.5552" y2="469.5552"/><polygon fill="#090D10" points="423.469,459.5552,427.469,469.5552,431.469,459.5552,427.469,463.5552" style="stroke:#090D10;stroke-width:1;stroke-linejoin:miter;stroke-miterlimit:10;"/><line style="stroke:#090D10;stroke-width:1;" x1="427.469" x2="427.469" y1="507.9692" y2="538.7515"/><polygon fill="#090D10" points="423.469,528.7515,427.469,538.7515,431.469,528.7515,427.469,532.7515" style="stroke:#090D10;stroke-width:1;stroke-linejoin:miter;stroke-miterlimit:10;"/><line style="stroke:#090D10;stroke-width:1;" x1="94.6577" x2="94.6577" y1="176.313" y2="181.313"/><line style="stroke:#090D10;stroke-width:1;" x1="94.6577" x2="242.8325" y1="181.313" y2="181.313"/><line style="stroke:#090D10;stroke-width:1;" x1="242.8325" x2="242.8325" y1="181.313" y2="196.313"/><polygon fill="#090D10" points="238.8325,186.313,242.8325,196.313,246.8325,186.313,242.8325,190.313" style="stroke:#090D10;stroke-width:1;stroke-linejoin:miter;stroke-miterlimit:10;"/><line style="stroke:#090D10;stroke-width:1;" x1="242.8325" x2="242.8325" y1="383.9458" y2="388.9458"/><line style="stroke:#090D10;stroke-width:1;" x1="242.8325" x2="427.469" y1="388.9458" y2="388.9458"/><line style="stroke:#090D10;stroke-width:1;" x1="427.469" x2="427.469" y1="388.9458" y2="403.9458"/><polygon fill="#090D10" points="423.469,393.9458,427.469,403.9458,431.469,393.9458,427.469,397.9458" style="stroke:#090D10;stroke-width:1;stroke-linejoin:miter;stroke-miterlimit:10;"/><line style="stroke:#090D10;stroke-width:1;" x1="628.2976" x2="628.2976" y1="98.7036" y2="275.5317"/><line style="stroke:#090D10;stroke-width:1;" x1="628.2976" x2="106.6577" y1="98.7036" y2="98.7036"/><polygon fill="#090D10" points="116.6577,94.7036,106.6577,98.7036,116.6577,102.7036,112.6577,98.7036" style="stroke:#090D10;stroke-width:1;stroke-linejoin:miter;stroke-miterlimit:10;"/><text fill="#000000" font-family="Helvetica" font-size="11" lengthAdjust="spacing" textLength="81.9146" x="52.7004" y="26.3047">Coordinador IA</text><text fill="#000000" font-family="Helvetica" font-size="11" lengthAdjust="spacing" textLength="59.4795" x="212.0928" y="26.3047">Subagente</text><text fill="#000000" font-family="Helvetica" font-size="11" lengthAdjust="spacing" textLength="54.9731" x="214.3459" y="39.1094">de Dise&#241;o</text><text fill="#000000" font-family="Helvetica" font-size="11" lengthAdjust="spacing" textLength="74.5723" x="477.5928" y="26.3047">Desarrollador</text><?plantuml-src VP71JW9138RlynJb9fULinWDOOtXe36GSDg4T7SBJXmws9cLaEmhUV09JEJ5BB2iGeoJERJJlr-dRSTouQgI84ak3xVNcmtzic8rajxiBaJh_E4biTNI6TCfQMwPOEWzN1V4aUH6RIajO-a5HeDMCgdor8PMfIukTcR6Mb4ZjFtmnjIQNPlw8AwFVeWeqHYX5M4qeEVgo1cn1hcmAF0dih-Njy2JtA7dK3bbmmCjlLZC-8aas11tyVwf-9wO18_OZ5EAw9nsUQORqq81eb3YVxXrIW55_1uXPn-RajYvBH0sC4LdImKqTU6iR8x5ongb_DsKhaTp1NmUIDwmi9ufz9lfmVhPEeABe_phSqnXfL1mFi0W7GUGfeFIXumtG04A7LJp-vsTiKD0UQrif29MEfKS0zrsGVVRWXzz5zZ7duV9zhrhT9L-zGq0?></g></svg>