<svg xmlns="http://www.w3.org/2000/svg" xmlns:xlink="http://www.w3.org/1999/xlink" contentStyleType="text/css" data-diagram-type="ACTIVITY" height="494px" preserveAspectRatio="none" style="width:418px;height:494px;background:#FAFAFA;" version="1.1" viewBox="0 0 418 494" width="418px" zoomAndPan="magnify"><?plantuml 1.2026.4?><defs/><g><rect fill="#FAFAFA" height="494" style="stroke:none;stroke-width:1;" width="418" x="0" y="0"/><path d="M55.7363,15 L55.7363,37.8047 A0,0 0 0 0 55.7363,37.8047 L177.0146,37.8047 A0,0 0 0 0 177.0146,37.8047 L177.0146,33 L197.0146,26.4023 L177.0146,25 L177.0146,25 L167.0146,15 L55.7363,15 A0,0 0 0 0 55.7363,15" fill="#FFF8E1" style="stroke:#C9B05E;stroke-width:0.5;"/><path d="M167.0146,15 L167.0146,25 L177.0146,25 L167.0146,15" fill="#FFF8E1" style="stroke:#C9B05E;stroke-width:0.5;"/><text fill="#3A2E0A" font-family="Helvetica" font-size="11" lengthAdjust="spacing" textLength="100.2783" x="61.7363" y="30.2104">Inicio de actividad</text><ellipse cx="207.0146" cy="26.4023" fill="#000000" rx="10" ry="10" style="stroke:#222222;stroke-width:1;"/><rect fill="#C9DFEE" height="32.8047" rx="7" ry="7" style="stroke:#000000;stroke-width:0.5;" width="120.6274" x="146.7009" y="101.8047"/><text fill="#000000" font-family="Helvetica" font-size="11" lengthAdjust="spacing" textLength="100.6274" x="156.7009" y="122.0151">Nodo de Actividad</text><polygon fill="#D9C2E3" points="207.0146,57.8047,219.0146,69.8047,207.0146,81.8047,195.0146,69.8047,207.0146,57.8047" style="stroke:#000000;stroke-width:0.5;stroke-linejoin:miter;stroke-miterlimit:10;"/><polygon fill="#D9C2E3" points="159.6362,154.6094,254.3931,154.6094,266.3931,167.4141,254.3931,180.2188,159.6362,180.2188,147.6362,167.4141,159.6362,154.6094" style="stroke:#000000;stroke-width:0.5;stroke-linejoin:miter;stroke-miterlimit:10;"/><text fill="#090D10" font-family="Helvetica" font-size="10" lengthAdjust="spacing" textLength="70.8936" x="211.0146" y="189.501">Salir del bucle</text><text fill="#000000" font-family="Helvetica" font-size="11" lengthAdjust="spacing" textLength="94.7568" x="159.6362" y="164.8198">Nodo de decisi&#243;n</text><text fill="#000000" font-family="Helvetica" font-size="11" lengthAdjust="spacing" textLength="38.9727" x="187.5283" y="177.6245">(Bucle)</text><text fill="#090D10" font-family="Helvetica" font-size="10" lengthAdjust="spacing" textLength="36.4111" x="266.3931" y="165.0557">Repetir</text><rect fill="#000000" height="6" rx="2.5" ry="2.5" style="stroke:#000000;stroke-width:1;" width="382.0293" x="16" y="211.001"/><rect fill="#C9DFEE" height="45.6094" rx="7" ry="7" style="stroke:#000000;stroke-width:0.5;" width="83.7119" x="30" y="237.001"/><text fill="#000000" font-family="Helvetica" font-size="11" lengthAdjust="spacing" textLength="63.7119" x="40" y="257.2114">Actividades</text><text fill="#000000" font-family="Helvetica" font-size="11" lengthAdjust="spacing" textLength="61.832" x="40.9399" y="270.0161">en paralelo</text><path d="M141.7119,235.5986 L141.7119,284.0127 A0,0 0 0 0 141.7119,284.0127 L280.3174,284.0127 A0,0 0 0 0 280.3174,284.0127 L280.3174,263.8057 L300.3174,259.8057 L280.3174,255.8057 L280.3174,245.5986 L270.3174,235.5986 L141.7119,235.5986 A0,0 0 0 0 141.7119,235.5986" fill="#FFF8E1" style="stroke:#C9B05E;stroke-width:0.5;"/><path d="M270.3174,235.5986 L270.3174,245.5986 L280.3174,245.5986 L270.3174,235.5986" fill="#FFF8E1" style="stroke:#C9B05E;stroke-width:0.5;"/><text fill="#3A2E0A" font-family="Helvetica" font-size="11" lengthAdjust="spacing" textLength="104.1187" x="154.4553" y="250.8091">Ambas actividades</text><text fill="#3A2E0A" font-family="Helvetica" font-size="11" lengthAdjust="spacing" textLength="110.2417" x="151.3938" y="263.6138">deben finalizar para</text><text fill="#3A2E0A" font-family="Helvetica" font-size="11" lengthAdjust="spacing" textLength="117.6055" x="147.7119" y="276.4185">seguir con el proceso</text><rect fill="#C9DFEE" height="45.6094" rx="7" ry="7" style="stroke:#000000;stroke-width:0.5;" width="83.7119" x="300.3174" y="237.001"/><text fill="#000000" font-family="Helvetica" font-size="11" lengthAdjust="spacing" textLength="63.7119" x="310.3174" y="257.2114">Actividades</text><text fill="#000000" font-family="Helvetica" font-size="11" lengthAdjust="spacing" textLength="61.832" x="311.2573" y="270.0161">en paralelo</text><rect fill="#000000" height="6" rx="2.5" ry="2.5" style="stroke:#000000;stroke-width:1;" width="382.0293" x="16" y="304.0127"/><polygon fill="#D9C2E3" points="157.8879,330.0127,256.1414,330.0127,268.1414,342.8174,256.1414,355.6221,157.8879,355.6221,145.8879,342.8174,157.8879,330.0127" style="stroke:#000000;stroke-width:0.5;stroke-linejoin:miter;stroke-miterlimit:10;"/><text fill="#000000" font-family="Helvetica" font-size="11" lengthAdjust="spacing" textLength="94.7568" x="161.3845" y="340.2231">Nodo de decisi&#243;n</text><text fill="#000000" font-family="Helvetica" font-size="11" lengthAdjust="spacing" textLength="37.5493" x="188.24" y="353.0278">(Si-No)</text><text fill="#090D10" font-family="Helvetica" font-size="10" lengthAdjust="spacing" textLength="9.126" x="136.762" y="340.459">Si</text><text fill="#090D10" font-family="Helvetica" font-size="10" lengthAdjust="spacing" textLength="13.5986" x="268.1414" y="340.459">No</text><rect fill="#C9DFEE" height="32.8047" rx="7" ry="7" style="stroke:#000000;stroke-width:0.5;" width="81.7085" x="24.2273" y="365.6221"/><text fill="#000000" font-family="Helvetica" font-size="11" lengthAdjust="spacing" textLength="61.7085" x="34.2273" y="385.8325">Actividad 1</text><path d="M125.9358,365.6221 L125.9358,401.2314 A0,0 0 0 0 125.9358,401.2314 L288.0935,401.2314 A0,0 0 0 0 288.0935,401.2314 L288.0935,387.4268 L308.0935,383.4268 L288.0935,379.4268 L288.0935,375.6221 L278.0935,365.6221 L125.9358,365.6221 A0,0 0 0 0 125.9358,365.6221" fill="#FFF8E1" style="stroke:#C9B05E;stroke-width:0.5;"/><path d="M278.0935,365.6221 L278.0935,375.6221 L288.0935,375.6221 L278.0935,365.6221" fill="#FFF8E1" style="stroke:#C9B05E;stroke-width:0.5;"/><text fill="#3A2E0A" font-family="Helvetica" font-size="11" lengthAdjust="spacing" textLength="107.9536" x="148.5378" y="380.8325">Las actividades son</text><text fill="#3A2E0A" font-family="Helvetica" font-size="11" lengthAdjust="spacing" textLength="141.1577" x="131.9358" y="393.6372">m&#250;tuamente excluyentes</text><rect fill="#C9DFEE" height="32.8047" rx="7" ry="7" style="stroke:#000000;stroke-width:0.5;" width="81.7085" x="308.0935" y="367.0244"/><text fill="#000000" font-family="Helvetica" font-size="11" lengthAdjust="spacing" textLength="61.7085" x="318.0935" y="387.2349">Actividad 2</text><polygon fill="#D9C2E3" points="207.0146,407.2314,219.0146,419.2314,207.0146,431.2314,195.0146,419.2314,207.0146,407.2314" style="stroke:#000000;stroke-width:0.5;stroke-linejoin:miter;stroke-miterlimit:10;"/><path d="M57.6904,450.8291 L57.6904,473.6338 A0,0 0 0 0 57.6904,473.6338 L176.0146,473.6338 A0,0 0 0 0 176.0146,473.6338 L176.0146,468.8291 L196.0146,462.2314 L176.0146,460.8291 L176.0146,460.8291 L166.0146,450.8291 L57.6904,450.8291 A0,0 0 0 0 57.6904,450.8291" fill="#FFF8E1" style="stroke:#C9B05E;stroke-width:0.5;"/><path d="M166.0146,450.8291 L166.0146,460.8291 L176.0146,460.8291 L166.0146,450.8291" fill="#FFF8E1" style="stroke:#C9B05E;stroke-width:0.5;"/><text fill="#3A2E0A" font-family="Helvetica" font-size="11" lengthAdjust="spacing" textLength="97.3242" x="63.6904" y="466.0396">Final de actividad</text><ellipse cx="207.0146" cy="462.2314" fill="none" rx="11" ry="11" style="stroke:#222222;stroke-width:1;"/><ellipse cx="207.0146" cy="462.2314" fill="#222222" rx="6" ry="6" style="stroke:#222222;stroke-width:1;"/><line style="stroke:#090D10;stroke-width:1;" x1="207.0146" x2="207.0146" y1="81.8047" y2="101.8047"/><polygon fill="#090D10" points="203.0146,91.8047,207.0146,101.8047,211.0146,91.8047,207.0146,95.8047" style="stroke:#090D10;stroke-width:1;stroke-linejoin:miter;stroke-miterlimit:10;"/><line style="stroke:#090D10;stroke-width:1;" x1="266.3931" x2="279.3284" y1="167.4141" y2="167.4141"/><polygon fill="#090D10" points="275.3284,128.6094,279.3284,118.6094,283.3284,128.6094,279.3284,124.6094" style="stroke:#090D10;stroke-width:1;stroke-linejoin:miter;stroke-miterlimit:10;"/><line style="stroke:#090D10;stroke-width:1;" x1="279.3284" x2="279.3284" y1="69.8047" y2="167.4141"/><line style="stroke:#090D10;stroke-width:1;" x1="279.3284" x2="219.0146" y1="69.8047" y2="69.8047"/><polygon fill="#090D10" points="229.0146,65.8047,219.0146,69.8047,229.0146,73.8047,225.0146,69.8047" style="stroke:#090D10;stroke-width:1;stroke-linejoin:miter;stroke-miterlimit:10;"/><line style="stroke:#090D10;stroke-width:1;" x1="207.0146" x2="207.0146" y1="134.6094" y2="154.6094"/><polygon fill="#090D10" points="203.0146,144.6094,207.0146,154.6094,211.0146,144.6094,207.0146,148.6094" style="stroke:#090D10;stroke-width:1;stroke-linejoin:miter;stroke-miterlimit:10;"/><line style="stroke:#090D10;stroke-width:1;" x1="207.0146" x2="207.0146" y1="36.4023" y2="57.8047"/><polygon fill="#090D10" points="203.0146,47.8047,207.0146,57.8047,211.0146,47.8047,207.0146,51.8047" style="stroke:#090D10;stroke-width:1;stroke-linejoin:miter;stroke-miterlimit:10;"/><line style="stroke:#090D10;stroke-width:1;" x1="71.856" x2="71.856" y1="217.001" y2="237.001"/><polygon fill="#090D10" points="67.856,227.001,71.856,237.001,75.856,227.001,71.856,231.001" style="stroke:#090D10;stroke-width:1;stroke-linejoin:miter;stroke-miterlimit:10;"/><line style="stroke:#090D10;stroke-width:1;" x1="342.1733" x2="342.1733" y1="217.001" y2="237.001"/><polygon fill="#090D10" points="338.1733,227.001,342.1733,237.001,346.1733,227.001,342.1733,231.001" style="stroke:#090D10;stroke-width:1;stroke-linejoin:miter;stroke-miterlimit:10;"/><line style="stroke:#090D10;stroke-width:1;" x1="71.856" x2="71.856" y1="282.6104" y2="304.0127"/><polygon fill="#090D10" points="67.856,294.0127,71.856,304.0127,75.856,294.0127,71.856,298.0127" style="stroke:#090D10;stroke-width:1;stroke-linejoin:miter;stroke-miterlimit:10;"/><line style="stroke:#090D10;stroke-width:1;" x1="342.1733" x2="342.1733" y1="282.6104" y2="304.0127"/><polygon fill="#090D10" points="338.1733,294.0127,342.1733,304.0127,346.1733,294.0127,342.1733,298.0127" style="stroke:#090D10;stroke-width:1;stroke-linejoin:miter;stroke-miterlimit:10;"/><line style="stroke:#090D10;stroke-width:1;" x1="207.0146" x2="207.0146" y1="180.2188" y2="211.001"/><polygon fill="#090D10" points="203.0146,201.001,207.0146,211.001,211.0146,201.001,207.0146,205.001" style="stroke:#090D10;stroke-width:1;stroke-linejoin:miter;stroke-miterlimit:10;"/><line style="stroke:#090D10;stroke-width:1;" x1="145.8879" x2="65.0815" y1="342.8174" y2="342.8174"/><line style="stroke:#090D10;stroke-width:1;" x1="65.0815" x2="65.0815" y1="342.8174" y2="365.6221"/><polygon fill="#090D10" points="61.0815,355.6221,65.0815,365.6221,69.0815,355.6221,65.0815,359.6221" style="stroke:#090D10;stroke-width:1;stroke-linejoin:miter;stroke-miterlimit:10;"/><line style="stroke:#090D10;stroke-width:1;" x1="268.1414" x2="348.9478" y1="342.8174" y2="342.8174"/><line style="stroke:#090D10;stroke-width:1;" x1="348.9478" x2="348.9478" y1="342.8174" y2="367.0244"/><polygon fill="#090D10" points="344.9478,357.0244,348.9478,367.0244,352.9478,357.0244,348.9478,361.0244" style="stroke:#090D10;stroke-width:1;stroke-linejoin:miter;stroke-miterlimit:10;"/><line style="stroke:#090D10;stroke-width:1;" x1="65.0815" x2="65.0815" y1="398.4268" y2="419.2314"/><line style="stroke:#090D10;stroke-width:1;" x1="65.0815" x2="195.0146" y1="419.2314" y2="419.2314"/><polygon fill="#090D10" points="185.0146,415.2314,195.0146,419.2314,185.0146,423.2314,189.0146,419.2314" style="stroke:#090D10;stroke-width:1;stroke-linejoin:miter;stroke-miterlimit:10;"/><line style="stroke:#090D10;stroke-width:1;" x1="348.9478" x2="348.9478" y1="399.8291" y2="419.2314"/><line style="stroke:#090D10;stroke-width:1;" x1="348.9478" x2="219.0146" y1="419.2314" y2="419.2314"/><polygon fill="#090D10" points="229.0146,415.2314,219.0146,419.2314,229.0146,423.2314,225.0146,419.2314" style="stroke:#090D10;stroke-width:1;stroke-linejoin:miter;stroke-miterlimit:10;"/><line style="stroke:#090D10;stroke-width:1;" x1="207.0146" x2="207.0146" y1="310.0127" y2="330.0127"/><polygon fill="#090D10" points="203.0146,320.0127,207.0146,330.0127,211.0146,320.0127,207.0146,324.0127" style="stroke:#090D10;stroke-width:1;stroke-linejoin:miter;stroke-miterlimit:10;"/><line style="stroke:#090D10;stroke-width:1;" x1="207.0146" x2="207.0146" y1="431.2314" y2="451.2314"/><polygon fill="#090D10" points="203.0146,441.2314,207.0146,451.2314,211.0146,441.2314,207.0146,445.2314" style="stroke:#090D10;stroke-width:1;stroke-linejoin:miter;stroke-miterlimit:10;"/><?plantuml-src ZP4zJmCn38Rt_0gptGrKXV6Aa021X8GwqBLIbIQ-rY9ddv8SNt-BZRL_3D-9VaaTkYNnyzhl6ryGkz1vXF5uD5uyfan15W_IT3oYhWd6f6nZDYmP8M2TgsScHmAgi2xJEtdhJSGMRJRLLFnGkTjM9lyb-5XJG2Xk77B6UBi5FJfAjFdXEHVtdGjOba09YbTLPOebw5mePZPGL3R0Sc2CgIM-cMhRRJSEqvoHeRNH1Wmo6JYmAqjy3hqFkMERfKtxeBt2ur95DR6Q-hPnaCyvuQfJZquOr6ORnM4IW-nXi6geteU7K-bdT3aLJP_NsbrlfQbsHk5gOZ0a_Jz53j-lJtb-ENOCIRH_i_dDdMrw0l1JD_xL7rFla6hTiRG7dPxwSCSR_WC0?></g></svg>