<svg xmlns="http://www.w3.org/2000/svg" xmlns:xlink="http://www.w3.org/1999/xlink" contentStyleType="text/css" data-diagram-type="DESCRIPTION" height="717px" preserveAspectRatio="none" style="width:1050px;height:717px;background:#FAFAFA;" version="1.1" viewBox="0 0 1050 717" width="1050px" zoomAndPan="magnify"><?plantuml 1.2026.4?><defs/><g><rect fill="#FAFAFA" height="717" style="stroke:none;stroke-width:1;" width="1050" x="0" y="0"/><g class="title" data-source-line="1"><text fill="#000000" font-family="Helvetica" font-size="16" font-weight="700" lengthAdjust="spacing" textLength="641.5859" x="200.707" y="24.8516">11.b &#8212; Vista l&#243;gica &#183; Alternativa A: Monolito en capas (Layered + MVC)</text></g><!--cluster P--><g class="cluster" data-qualified-name="P" data-source-line="9" id="ent0002"><path d="M860,167.735 L999.1992,167.735 A10.5,10.5 0 0 1 1006.1992,174.735 L1013.1992,187.7037 L1028,187.7037 A7,7 0 0 1 1035,194.7037 L1035,264.345 A7,7 0 0 1 1028,271.345 L860,271.345 A7,7 0 0 1 853,264.345 L853,174.735 A7,7 0 0 1 860,167.735" fill="none" style="stroke:#000000;stroke-width:1.5;"/><line style="stroke:#000000;stroke-width:1.5;" x1="853" x2="1013.1992" y1="187.7037" y2="187.7037"/><text fill="#4A4A48" font-family="Helvetica" font-size="12" font-weight="700" lengthAdjust="spacing" textLength="147.1992" x="857" y="180.8737">Capa de Presentaci&#243;n</text></g><!--cluster A--><g class="cluster" data-qualified-name="A" data-source-line="13" id="ent0004"><path d="M13,324.345 L397.4375,324.345 A10.5,10.5 0 0 1 404.4375,331.345 L411.4375,344.3137 L945,344.3137 A7,7 0 0 1 952,351.3137 L952,436.955 A7,7 0 0 1 945,443.955 L13,443.955 A7,7 0 0 1 6,436.955 L6,331.345 A7,7 0 0 1 13,324.345" fill="none" style="stroke:#000000;stroke-width:1.5;"/><line style="stroke:#000000;stroke-width:1.5;" x1="6" x2="411.4375" y1="344.3137" y2="344.3137"/><text fill="#4A4A48" font-family="Helvetica" font-size="12" font-weight="700" lengthAdjust="spacing" textLength="392.4375" x="10" y="337.4837">Capa de Aplicaci&#243;n &#8212; Backend NestJS (&#250;nico desplegable)</text></g><!--cluster D--><g class="cluster" data-qualified-name="D" data-source-line="23" id="ent0012"><path d="M325,496.955 L478.3496,496.955 A10.5,10.5 0 0 1 485.3496,503.955 L492.3496,516.9237 L488,516.9237 A7,7 0 0 1 495,523.9237 L495,593.565 A7,7 0 0 1 488,600.565 L325,600.565 A7,7 0 0 1 318,593.565 L318,503.955 A7,7 0 0 1 325,496.955" fill="none" style="stroke:#000000;stroke-width:1.5;"/><line style="stroke:#000000;stroke-width:1.5;" x1="318" x2="492.3496" y1="516.9237" y2="516.9237"/><text fill="#4A4A48" font-family="Helvetica" font-size="12" font-weight="700" lengthAdjust="spacing" textLength="161.3496" x="322" y="510.0937">Capa de Acceso a Datos</text></g><!--entity SPA--><g class="entity" data-qualified-name="P.SPA" data-source-line="10" id="ent0003"><rect fill="#F1F1F1" height="55.6094" rx="7" ry="7" style="stroke:#181818;stroke-width:0.5;" width="150.4619" x="868.77" y="199.735"/><rect fill="#F1F1F1" height="10" style="stroke:#181818;stroke-width:0.5;" width="15" x="999.2319" y="204.735"/><rect fill="#F1F1F1" height="2" style="stroke:#181818;stroke-width:0.5;" width="4" x="997.2319" y="206.735"/><rect fill="#F1F1F1" height="2" style="stroke:#181818;stroke-width:0.5;" width="4" x="997.2319" y="210.735"/><text fill="#000000" font-family="Helvetica" font-size="11" lengthAdjust="spacing" textLength="110.4619" x="883.77" y="229.9454">SPA Next.js + React</text><text fill="#000000" font-family="Helvetica" font-size="11" lengthAdjust="spacing" textLength="73.0361" x="883.77" y="242.7501">(patr&#243;n MVC)</text></g><!--entity MUsr--><g class="entity" data-qualified-name="A.MUsr" data-source-line="14" id="ent0005"><rect fill="#F1F1F1" height="55.6094" rx="7" ry="7" style="stroke:#181818;stroke-width:0.5;" width="99.3398" x="153.33" y="364.345"/><rect fill="#F1F1F1" height="10" style="stroke:#181818;stroke-width:0.5;" width="15" x="232.6698" y="369.345"/><rect fill="#F1F1F1" height="2" style="stroke:#181818;stroke-width:0.5;" width="4" x="230.6698" y="371.345"/><rect fill="#F1F1F1" height="2" style="stroke:#181818;stroke-width:0.5;" width="4" x="230.6698" y="375.345"/><text fill="#000000" font-family="Helvetica" font-size="11" lengthAdjust="spacing" textLength="59.3398" x="168.33" y="394.5554">Gesti&#243;n de</text><text fill="#000000" font-family="Helvetica" font-size="11" lengthAdjust="spacing" textLength="47.5342" x="168.33" y="407.3601">Usuarios</text></g><!--entity MCat--><g class="entity" data-qualified-name="A.MCat" data-source-line="15" id="ent0006"><rect fill="#F1F1F1" height="55.6094" rx="7" ry="7" style="stroke:#181818;stroke-width:0.5;" width="98.98" x="29.51" y="364.345"/><rect fill="#F1F1F1" height="10" style="stroke:#181818;stroke-width:0.5;" width="15" x="108.49" y="369.345"/><rect fill="#F1F1F1" height="2" style="stroke:#181818;stroke-width:0.5;" width="4" x="106.49" y="371.345"/><rect fill="#F1F1F1" height="2" style="stroke:#181818;stroke-width:0.5;" width="4" x="106.49" y="375.345"/><text fill="#000000" font-family="Helvetica" font-size="11" lengthAdjust="spacing" textLength="58.98" x="44.51" y="394.5554">Cat&#225;logo y</text><text fill="#000000" font-family="Helvetica" font-size="11" lengthAdjust="spacing" textLength="54.6938" x="44.51" y="407.3601">B&#250;squeda</text></g><!--entity MCon--><g class="entity" data-qualified-name="A.MCon" data-source-line="16" id="ent0007"><rect fill="#F1F1F1" height="55.6094" rx="7" ry="7" style="stroke:#181818;stroke-width:0.5;" width="120.8242" x="277.59" y="364.345"/><rect fill="#F1F1F1" height="10" style="stroke:#181818;stroke-width:0.5;" width="15" x="378.4142" y="369.345"/><rect fill="#F1F1F1" height="2" style="stroke:#181818;stroke-width:0.5;" width="4" x="376.4142" y="371.345"/><rect fill="#F1F1F1" height="2" style="stroke:#181818;stroke-width:0.5;" width="4" x="376.4142" y="375.345"/><text fill="#000000" font-family="Helvetica" font-size="11" lengthAdjust="spacing" textLength="80.8242" x="292.59" y="394.5554">Contrataci&#243;n y</text><text fill="#000000" font-family="Helvetica" font-size="11" lengthAdjust="spacing" textLength="43.1782" x="292.59" y="407.3601">Estados</text></g><!--entity MPag--><g class="entity" data-qualified-name="A.MPag" data-source-line="17" id="ent0008"><rect fill="#F1F1F1" height="42.8047" rx="7" ry="7" style="stroke:#181818;stroke-width:0.5;" width="72.8174" x="561.59" y="370.745"/><rect fill="#F1F1F1" height="10" style="stroke:#181818;stroke-width:0.5;" width="15" x="614.4074" y="375.745"/><rect fill="#F1F1F1" height="2" style="stroke:#181818;stroke-width:0.5;" width="4" x="612.4074" y="377.745"/><rect fill="#F1F1F1" height="2" style="stroke:#181818;stroke-width:0.5;" width="4" x="612.4074" y="381.745"/><text fill="#000000" font-family="Helvetica" font-size="11" lengthAdjust="spacing" textLength="32.8174" x="576.59" y="400.9554">Pagos</text></g><!--entity MRep--><g class="entity" data-qualified-name="A.MRep" data-source-line="18" id="ent0009"><rect fill="#F1F1F1" height="55.6094" rx="7" ry="7" style="stroke:#181818;stroke-width:0.5;" width="112.2305" x="423.88" y="364.345"/><rect fill="#F1F1F1" height="10" style="stroke:#181818;stroke-width:0.5;" width="15" x="516.1105" y="369.345"/><rect fill="#F1F1F1" height="2" style="stroke:#181818;stroke-width:0.5;" width="4" x="514.1105" y="371.345"/><rect fill="#F1F1F1" height="2" style="stroke:#181818;stroke-width:0.5;" width="4" x="514.1105" y="375.345"/><text fill="#000000" font-family="Helvetica" font-size="11" lengthAdjust="spacing" textLength="72.2305" x="438.88" y="394.5554">Reputaci&#243;n y</text><text fill="#000000" font-family="Helvetica" font-size="11" lengthAdjust="spacing" textLength="64.0396" x="438.88" y="407.3601">Moderaci&#243;n</text></g><!--entity MHab--><g class="entity" data-qualified-name="A.MHab" data-source-line="19" id="ent0010"><rect fill="#F1F1F1" height="42.8047" rx="7" ry="7" style="stroke:#181818;stroke-width:0.5;" width="117.521" x="659.24" y="370.745"/><rect fill="#F1F1F1" height="10" style="stroke:#181818;stroke-width:0.5;" width="15" x="756.761" y="375.745"/><rect fill="#F1F1F1" height="2" style="stroke:#181818;stroke-width:0.5;" width="4" x="754.761" y="377.745"/><rect fill="#F1F1F1" height="2" style="stroke:#181818;stroke-width:0.5;" width="4" x="754.761" y="381.745"/><text fill="#000000" font-family="Helvetica" font-size="11" lengthAdjust="spacing" textLength="77.521" x="674.24" y="400.9554">Habilitaciones</text></g><!--entity MNot--><g class="entity" data-qualified-name="A.MNot" data-source-line="20" id="ent0011"><rect fill="#F1F1F1" height="42.8047" rx="7" ry="7" style="stroke:#181818;stroke-width:0.5;" width="117.3491" x="801.33" y="370.745"/><rect fill="#F1F1F1" height="10" style="stroke:#181818;stroke-width:0.5;" width="15" x="898.6791" y="375.745"/><rect fill="#F1F1F1" height="2" style="stroke:#181818;stroke-width:0.5;" width="4" x="896.6791" y="377.745"/><rect fill="#F1F1F1" height="2" style="stroke:#181818;stroke-width:0.5;" width="4" x="896.6791" y="381.745"/><text fill="#000000" font-family="Helvetica" font-size="11" lengthAdjust="spacing" textLength="77.3491" x="816.33" y="400.9554">Notificaciones</text></g><!--entity Repo--><g class="entity" data-qualified-name="D.Repo" data-source-line="24" id="ent0013"><rect fill="#F1F1F1" height="55.6094" rx="7" ry="7" style="stroke:#181818;stroke-width:0.5;" width="107.9927" x="371" y="528.955"/><rect fill="#F1F1F1" height="10" style="stroke:#181818;stroke-width:0.5;" width="15" x="458.9927" y="533.955"/><rect fill="#F1F1F1" height="2" style="stroke:#181818;stroke-width:0.5;" width="4" x="456.9927" y="535.955"/><rect fill="#F1F1F1" height="2" style="stroke:#181818;stroke-width:0.5;" width="4" x="456.9927" y="539.955"/><text fill="#000000" font-family="Helvetica" font-size="11" lengthAdjust="spacing" textLength="67.9927" x="386" y="559.1654">Repositorios</text><text fill="#000000" font-family="Helvetica" font-size="11" lengthAdjust="spacing" textLength="34.375" x="386" y="571.9701">(ORM)</text></g><!--entity Usuario--><g class="entity" data-qualified-name="Usuario" data-source-line="7" id="ent0001"><ellipse cx="943.9974" cy="53.625" fill="#C9DFEE" rx="8" ry="8" style="stroke:#000000;stroke-width:0.5;"/><path d="M943.9974,61.625 L943.9974,88.625 M930.9974,69.625 L956.9974,69.625 M943.9974,88.625 L930.9974,103.625 M943.9974,88.625 L956.9974,103.625" fill="none" style="stroke:#000000;stroke-width:0.5;"/><text fill="#000000" font-family="Helvetica" font-size="11" lengthAdjust="spacing" textLength="102.2549" x="892.87" y="115.3354">Cliente / Prestador</text><text fill="#000000" font-family="Helvetica" font-size="11" lengthAdjust="spacing" textLength="85.0513" x="892.87" y="128.1401">/ Administrador</text></g><!--entity PG--><g class="entity" data-qualified-name="PG" data-source-line="27" id="ent0014"><path d="M368.73,647.565 C368.73,637.565 424.9966,637.565 424.9966,637.565 C424.9966,637.565 481.2632,637.565 481.2632,647.565 L481.2632,682.1744 C481.2632,692.1744 424.9966,692.1744 424.9966,692.1744 C424.9966,692.1744 368.73,692.1744 368.73,682.1744 L368.73,647.565" fill="#F1F1F1" style="stroke:#181818;stroke-width:0.5;"/><path d="M368.73,647.565 C368.73,657.565 424.9966,657.565 424.9966,657.565 C424.9966,657.565 481.2632,657.565 481.2632,647.565" fill="none" style="stroke:#181818;stroke-width:0.5;"/><text fill="#000000" font-family="Helvetica" font-size="11" lengthAdjust="spacing" textLength="63.4487" x="378.73" y="671.7754">PostgreSQL</text><text fill="#000000" font-family="Helvetica" font-size="11" lengthAdjust="spacing" textLength="92.5332" x="378.73" y="684.5801">(esquema &#250;nico)</text></g><!--entity RD--><g class="entity" data-qualified-name="RD" data-source-line="28" id="ent0015"><path d="M19.33,539.455 C19.33,529.455 79.0019,529.455 79.0019,529.455 C79.0019,529.455 138.6737,529.455 138.6737,539.455 L138.6737,574.0644 C138.6737,584.0644 79.0019,584.0644 79.0019,584.0644 C79.0019,584.0644 19.33,584.0644 19.33,574.0644 L19.33,539.455" fill="#F1F1F1" style="stroke:#181818;stroke-width:0.5;"/><path d="M19.33,539.455 C19.33,549.455 79.0019,549.455 79.0019,549.455 C79.0019,549.455 138.6737,549.455 138.6737,539.455" fill="none" style="stroke:#181818;stroke-width:0.5;"/><text fill="#000000" font-family="Helvetica" font-size="11" lengthAdjust="spacing" textLength="30.1802" x="29.33" y="563.6654">Redis</text><text fill="#000000" font-family="Helvetica" font-size="11" lengthAdjust="spacing" textLength="99.3438" x="29.33" y="576.4701">(cach&#233; / sesiones)</text></g><!--entity MP--><g class="entity" data-qualified-name="MP" data-source-line="30" id="ent0016"><path d="M520.43,538.4539 C523.1816,532.7596 527.9721,532.9951 531.7514,537.289 C535.9155,531.8198 540.4936,530.8862 544.1718,537.7772 C547.2988,532.5115 550.5474,532.5447 554.7166,536.5978 C557.9867,530.7725 562.1541,530.0455 566.4869,535.4876 C569.5348,529.2269 575.4803,528.9032 579.6102,534.2659 C584.0954,529.0743 588.2346,529.7173 590.968,535.9999 C593.8971,529.8076 599.7499,530.4248 603.1001,535.5485 C607.1506,529.4561 611.6574,530.7712 614.7387,536.5025 C619.1582,531.2111 623.9717,530.7424 627.5195,537.4323 C631.2408,532.4045 635.4078,532.0159 638.9502,537.6246 C648.2414,543.3707 648.7463,550.4913 639.9784,557.1867 C650.6436,564.3887 647.1301,572.575 638.1462,578.0515 C634.1768,583.5778 630.7132,583.11 626.7007,578.0983 C624.201,583.5177 619.5565,584.8629 615.5833,579.6371 C612.89,586.0947 608.6228,587.5903 603.3137,582.3902 C599.1879,587.932 595.4106,588.9354 591.0303,582.6547 C587.8381,589.4415 582.4742,588.5129 578.3263,583.7015 C574.9763,587.7326 571.1428,588.7879 568.2714,583.2011 C563.6816,589.2097 559.7109,587.7097 556.3364,581.9669 C550.8761,587.7417 547.123,586.8291 543.8051,579.8601 C539.2834,585.9655 533.555,584.5801 531.0048,577.8882 C527.8428,582.8611 521.9427,583.2544 519.0219,577.6157 C508.5068,572.8724 509.5746,563.1316 518.005,557.4336 C509.5847,550.1972 510.2445,543.3131 520.43,538.4539" fill="#F1F1F1" style="stroke:#181818;stroke-width:0.5;"/><text fill="#000000" font-family="Helvetica" font-size="11" font-style="italic" lengthAdjust="spacing" textLength="102.7114" x="526.64" y="554.1654">&#171;sistema externo&#187;</text><text fill="#000000" font-family="Helvetica" font-size="11" lengthAdjust="spacing" textLength="77.8647" x="539.0633" y="566.9701">Mercado Pago</text></g><!--entity MS--><g class="entity" data-qualified-name="MS" data-source-line="31" id="ent0017"><path d="M839.1258,531.788 C841.0341,525.8071 846.7359,524.7939 850.8021,529.4106 C855.3336,522.8507 860.234,522.815 864.2365,529.9303 C865.7774,523.6393 871.2757,523.2025 875.378,527.1403 C877.8921,520.8005 883.8158,521.0375 887.6377,525.6804 C891.7734,520.0847 896.2326,520.8159 899.6159,526.4808 C902.5772,520.4418 907.8402,520.1474 911.0914,526.2058 C915.8721,521.0629 919.8871,520.2066 923.8799,527.0466 C928.332,524.0556 932.0379,524.8926 933.7187,530.2951 C938.0012,525.5048 941.7952,525.0493 945.6515,530.7785 C949.6051,525.3558 955.6082,525.6665 958.3333,532.0933 C965.3053,535.76 965.5317,539.9677 959.9833,545.2095 C964.9649,548.9198 966.4598,552.9044 960.1791,556.8049 C966.1471,561.6024 965.7816,567.0492 959.1609,570.94 C964.4548,574.9012 963.7216,580.4966 957.8763,583.3002 C955.4171,588.7179 951.7394,589.9466 947.5894,584.9742 C943.7214,592.1193 939.0386,591.9908 934.5613,585.5588 C931.4613,591.8277 926.8995,592.8247 922.3597,587.013 C920.1714,592.6855 915.777,593.6616 911.376,589.4791 C908.3514,595.2785 902.3445,595.5484 898.4203,590.5595 C895.129,596.0006 889.7842,595.4549 887.137,589.8986 C883.114,594.7871 878.0071,594.3335 875.029,588.6966 C869.9019,593.1264 864.7087,593.1909 862.4205,585.6952 C858.9937,590.5335 853.9969,590.9596 850.6652,585.5857 C846.6938,590.3878 842.4438,589.5033 839.3519,584.5643 C832.1177,580.7226 831.2023,576.1914 837.4779,570.5439 C830.8924,567.6766 829.9207,563.5228 835.7233,558.804 C829.4512,553.887 831.2038,547.2077 838.1981,544.6025 C832.5043,540.35 832.6249,535.1577 839.1258,531.788" fill="#F1F1F1" style="stroke:#181818;stroke-width:0.5;"/><text fill="#000000" font-family="Helvetica" font-size="11" font-style="italic" lengthAdjust="spacing" textLength="102.7114" x="846.64" y="547.7654">&#171;sistema externo&#187;</text><text fill="#000000" font-family="Helvetica" font-size="11" lengthAdjust="spacing" textLength="73.4121" x="861.2897" y="560.5701">Proveedor de</text><text fill="#000000" font-family="Helvetica" font-size="11" lengthAdjust="spacing" textLength="59.8447" x="861.2897" y="573.3748">Mensajer&#237;a</text></g><!--entity OR--><g class="entity" data-qualified-name="OR" data-source-line="32" id="ent0018"><path d="M679.1258,531.788 C681.0341,525.8071 686.7359,524.7939 690.8021,529.4106 C695.3336,522.8507 700.234,522.815 704.2365,529.9303 C705.7774,523.6393 711.2757,523.2025 715.378,527.1403 C717.8921,520.8005 723.8158,521.0375 727.6377,525.6804 C731.7734,520.0847 736.2326,520.8159 739.6159,526.4808 C742.5772,520.4418 747.8402,520.1474 751.0914,526.2058 C755.8721,521.0629 759.8871,520.2066 763.8799,527.0466 C768.332,524.0556 772.0379,524.8926 773.7187,530.2951 C778.0012,525.5048 781.7952,525.0493 785.6515,530.7785 C789.6051,525.3558 795.6082,525.6665 798.3333,532.0933 C805.3053,535.76 805.5317,539.9677 799.9833,545.2095 C804.9649,548.9198 806.4598,552.9044 800.1791,556.8049 C806.1471,561.6024 805.7816,567.0492 799.1609,570.94 C804.4548,574.9012 803.7216,580.4966 797.8763,583.3002 C795.4171,588.7179 791.7394,589.9466 787.5894,584.9742 C783.7214,592.1193 779.0386,591.9908 774.5613,585.5588 C771.4613,591.8277 766.8995,592.8247 762.3597,587.013 C760.1714,592.6855 755.777,593.6616 751.376,589.4791 C748.3514,595.2785 742.3445,595.5484 738.4203,590.5595 C735.129,596.0006 729.7842,595.4549 727.137,589.8986 C723.114,594.7871 718.0071,594.3335 715.029,588.6966 C709.9019,593.1264 704.7087,593.1909 702.4205,585.6952 C698.9937,590.5335 693.9969,590.9596 690.6652,585.5857 C686.6938,590.3878 682.4438,589.5033 679.3519,584.5643 C672.1177,580.7226 671.2023,576.1914 677.4779,570.5439 C670.8924,567.6766 669.9207,563.5228 675.7233,558.804 C669.4512,553.887 671.2038,547.2077 678.1981,544.6025 C672.5043,540.35 672.6249,535.1577 679.1258,531.788" fill="#F1F1F1" style="stroke:#181818;stroke-width:0.5;"/><text fill="#000000" font-family="Helvetica" font-size="11" font-style="italic" lengthAdjust="spacing" textLength="102.7114" x="686.64" y="547.7654">&#171;sistema externo&#187;</text><text fill="#000000" font-family="Helvetica" font-size="11" lengthAdjust="spacing" textLength="60.1079" x="707.9418" y="560.5701">Organismo</text><text fill="#000000" font-family="Helvetica" font-size="11" lengthAdjust="spacing" textLength="56.3965" x="707.9418" y="573.3748">Regulador</text></g><!--link Usuario to SPA--><g class="link" data-entity-1="ent0001" data-entity-2="ent0003" data-link-type="dependency" data-source-line="34" id="lnk19"><path d="M944,130.965 C944,153.255 944,174.985 944,194.505" fill="none" id="Usuario-to-SPA" style="stroke:#090D10;stroke-width:1;"/><polygon fill="#090D10" points="944,199.505,948,190.505,944,194.505,940,190.505,944,199.505" style="stroke:#090D10;stroke-width:1;stroke-linejoin:miter;stroke-miterlimit:10;"/></g><!--link SPA to A--><g class="link" data-entity-1="ent0003" data-entity-2="ent0004" data-link-type="dependency" data-source-line="35" id="lnk20"><path d="M944,255.755 C944,267.1475 944,281.1325 944,295.7441 C944,303.0498 944,310.5123 944,317.8856 C944,319.7289 944,321.5667 944,323.395 C944,323.6236 944,338.8207 944,339.049" fill="none" id="SPA-to-A" style="stroke:#090D10;stroke-width:1;"/><polygon fill="#090D10" points="944,344.049,948,335.049,944,339.049,940,335.049,944,344.049" style="stroke:#090D10;stroke-width:1;stroke-linejoin:miter;stroke-miterlimit:10;"/><text fill="#090D10" font-family="Helvetica" font-size="10" lengthAdjust="spacing" textLength="44.7217" x="945" y="297.6272">API REST</text></g><!--link MUsr to Repo--><g class="link" data-entity-1="ent0005" data-entity-2="ent0013" data-link-type="dependency" data-source-line="37" id="lnk21"><path d="M224.98,420.215 C236.19,433.085 250.49,448.195 265,459.955 C297.95,486.665 334.6746,508.7416 366.9846,526.2616" fill="none" id="MUsr-to-Repo" style="stroke:#090D10;stroke-width:1;"/><polygon fill="#090D10" points="371.38,528.645,365.375,520.8386,366.9846,526.2616,361.5616,527.8712,371.38,528.645" style="stroke:#090D10;stroke-width:1;stroke-linejoin:miter;stroke-miterlimit:10;"/></g><!--link MCat to Repo--><g class="link" data-entity-1="ent0006" data-entity-2="ent0013" data-link-type="dependency" data-source-line="38" id="lnk22"><path d="M97.41,420.365 C108.39,434.435 123.58,450.575 141,459.955 C160.04,470.205 168.1,462.385 189,467.955 C252.78,484.965 318.8151,510.5407 366.0351,530.2307" fill="none" id="MCat-to-Repo" style="stroke:#090D10;stroke-width:1;"/><polygon fill="#090D10" points="370.65,532.155,363.8827,524.9993,366.0351,530.2307,360.8038,532.3831,370.65,532.155" style="stroke:#090D10;stroke-width:1;stroke-linejoin:miter;stroke-miterlimit:10;"/></g><!--link MCon to Repo--><g class="link" data-entity-1="ent0007" data-entity-2="ent0013" data-link-type="dependency" data-source-line="39" id="lnk23"><path d="M352.56,420.365 C368.67,450.475 392.1109,494.2865 408.1809,524.3165" fill="none" id="MCon-to-Repo" style="stroke:#090D10;stroke-width:1;"/><polygon fill="#090D10" points="410.54,528.725,409.8204,518.9025,408.1809,524.3165,402.7668,522.677,410.54,528.725" style="stroke:#090D10;stroke-width:1;stroke-linejoin:miter;stroke-miterlimit:10;"/></g><!--link MPag to Repo--><g class="link" data-entity-1="ent0008" data-entity-2="ent0013" data-link-type="dependency" data-source-line="40" id="lnk24"><path d="M587.37,413.995 C578.84,428.775 565.58,448.025 549,459.955 C539.53,466.775 534.27,462.415 524,467.955 C495.08,483.545 471.0312,505.4971 452.3912,525.0371" fill="none" id="MPag-to-Repo" style="stroke:#090D10;stroke-width:1;"/><polygon fill="#090D10" points="448.94,528.655,458.0465,524.9038,452.3912,525.0371,452.2579,519.3818,448.94,528.655" style="stroke:#090D10;stroke-width:1;stroke-linejoin:miter;stroke-miterlimit:10;"/></g><!--link MRep to Repo--><g class="link" data-entity-1="ent0009" data-entity-2="ent0013" data-link-type="dependency" data-source-line="41" id="lnk25"><path d="M470.79,420.365 C460.61,450.475 445.9024,493.9587 435.7424,523.9887" fill="none" id="MRep-to-Repo" style="stroke:#090D10;stroke-width:1;"/><polygon fill="#090D10" points="434.14,528.725,440.8134,521.4816,435.7424,523.9887,433.2353,518.9178,434.14,528.725" style="stroke:#090D10;stroke-width:1;stroke-linejoin:miter;stroke-miterlimit:10;"/></g><!--link MHab to Repo--><g class="link" data-entity-1="ent0010" data-entity-2="ent0013" data-link-type="dependency" data-source-line="42" id="lnk26"><path d="M701.58,413.945 C688.44,429.095 668.69,448.845 647,459.955 C631.99,467.645 513.06,481.365 498,488.955 C478.82,498.615 464.4069,511.1435 451.1569,525.1435" fill="none" id="MHab-to-Repo" style="stroke:#090D10;stroke-width:1;"/><polygon fill="#090D10" points="447.72,528.775,456.8116,524.9879,451.1569,525.1435,451.0013,519.4888,447.72,528.775" style="stroke:#090D10;stroke-width:1;stroke-linejoin:miter;stroke-miterlimit:10;"/></g><!--link MNot to Repo--><g class="link" data-entity-1="ent0011" data-entity-2="ent0013" data-link-type="dependency" data-source-line="43" id="lnk27"><path d="M844.38,413.845 C831.39,429.365 811.45,449.645 789,459.955 C708.99,496.705 679.65,472.555 592,480.955 C571.13,482.955 517.2,480.545 498,488.955 C478.02,497.715 463.2646,510.5355 450.0846,524.9455" fill="none" id="MNot-to-Repo" style="stroke:#090D10;stroke-width:1;"/><polygon fill="#090D10" points="446.71,528.635,455.7358,524.6936,450.0846,524.9455,449.8326,519.2943,446.71,528.635" style="stroke:#090D10;stroke-width:1;stroke-linejoin:miter;stroke-miterlimit:10;"/></g><!--link MCat to RD--><g class="link" data-entity-1="ent0006" data-entity-2="ent0015" data-link-type="dependency" data-source-line="45" id="lnk28"><path d="M79,420.365 C79,450.565 79,493.985 79,523.995" fill="none" id="MCat-to-RD" style="stroke:#090D10;stroke-width:1;stroke-dasharray:7,7;"/><polygon fill="#090D10" points="79,528.995,83,519.995,79,523.995,75,519.995,79,528.995" style="stroke:#090D10;stroke-width:1;stroke-linejoin:miter;stroke-miterlimit:10;"/><text fill="#090D10" font-family="Helvetica" font-size="10" lengthAdjust="spacing" textLength="102.8906" x="80" y="478.2372">cach&#233; de b&#250;squedas</text></g><!--link Repo to PG--><g class="link" data-entity-1="ent0013" data-entity-2="ent0014" data-link-type="dependency" data-source-line="46" id="lnk29"><path d="M425,584.815 C425,600.895 425,616.225 425,632.235" fill="none" id="Repo-to-PG" style="stroke:#090D10;stroke-width:1;"/><polygon fill="#090D10" points="425,637.235,429,628.235,425,632.235,421,628.235,425,637.235" style="stroke:#090D10;stroke-width:1;stroke-linejoin:miter;stroke-miterlimit:10;"/></g><!--link MPag to MP--><g class="link" data-entity-1="ent0008" data-entity-2="ent0016" data-link-type="dependency" data-source-line="49" id="lnk30"><path d="M595.47,413.745 C591.88,442.885 585.9302,491.2424 581.9502,523.6124" fill="none" id="MPag-to-MP" style="stroke:#090D10;stroke-width:1;"/><polygon fill="#090D10" points="581.34,528.575,586.4084,520.1304,581.9502,523.6124,578.4682,519.1541,581.34,528.575" style="stroke:#090D10;stroke-width:1;stroke-linejoin:miter;stroke-miterlimit:10;"/></g><!--link MNot to MS--><g class="link" data-entity-1="ent0011" data-entity-2="ent0017" data-link-type="dependency" data-source-line="50" id="lnk31"><path d="M864.81,413.745 C871.18,441.005 881.363,484.556 888.983,517.186" fill="none" id="MNot-to-MS" style="stroke:#090D10;stroke-width:1;"/><polygon fill="#090D10" points="890.12,522.055,891.9685,512.3812,888.983,517.186,884.1781,514.2004,890.12,522.055" style="stroke:#090D10;stroke-width:1;stroke-linejoin:miter;stroke-miterlimit:10;"/></g><!--link MHab to OR--><g class="link" data-entity-1="ent0010" data-entity-2="ent0018" data-link-type="dependency" data-source-line="51" id="lnk32"><path d="M720.53,413.745 C723.89,441.005 729.2301,484.4623 733.2401,517.0923" fill="none" id="MHab-to-OR" style="stroke:#090D10;stroke-width:1;"/><polygon fill="#090D10" points="733.85,522.055,736.7224,512.6343,733.2401,517.0923,728.7821,513.6101,733.85,522.055" style="stroke:#090D10;stroke-width:1;stroke-linejoin:miter;stroke-miterlimit:10;"/></g><?plantuml-src VLJ1RjGm4BtxAuQzK8IQjXohgbAwMvMYfXiIsjDAbJSPWbl73hPJKI4aFe8VuCY1qnwGUYH_mfSmTb8sMrL8gvLd_ERv-SquJZY9iBSNBU7FrszmAQpZ8BjL9GeEltz1B1qQnPsuvH3lGwALbi9fG0K5RxY5hJD-XmPBU0d9vVG5Oy-4AcHR8aJH3lrsTw-ckcuLBQBTgsFhXDHz9X9jBHcpDq8rtF0Q2bqtMg5okRiZKRJxYZ5UE6rWCfM2DX1s83L86ajj5ce7uh8MYZGRdvW0wRcmBJT2CzRmuePNIAMa4qYFBoGENeXkfG8sXSyCriV294zZECTFBhgsT9yCwV25scguCrGIxXVg2CQ-F752t4YoBV07Duy8WAeaIklUvB3LtIjHQ4BQHcB5bn9xllYnZXCg22mbBjHm8nkWoOKrczWfTzrtgIiDTmjrrDtRZosMl0VJtYEmLkJLu84lE0vU3joqkmbFUVMmHylDlGoRTaIKw1BDoDk4zZSBNlEbeDaX32K6LifjWiwr4--3YMiGvPwskoZGQk0muswGENli9AdGbWRM6qYjd6T9RxdFUzAIp5XoIwofjguocByz8nnw5siEVSVwalHaXCwm59wGb7xeVj1OMhH1ya0_OwoGkYrXag0fo6BmNWvMmi61fQ7r1z2mqVlIXuSFyDJeMqIQvj3x19NbrsYwdqD7y__Lpat5wJNKUg4oh5hvxr7CioVBs31QiBrz68RQpxzVnx0FSNeAsN7-ZZ4_So4TJFD3DOwq6aLqoL54_wE8UZsAgAdhg2UD8WfdTFHWAhLu-J3FbdbWgA0-iETmIb-3oWnp0aBTQdAPhbeAWuNZTVXQq4iZ4gajrDsgRFs2OeMLfhgrsYHTwqdojT9vzXS0?></g></svg>