<svg xmlns="http://www.w3.org/2000/svg" xmlns:xlink="http://www.w3.org/1999/xlink" contentStyleType="text/css" data-diagram-type="DESCRIPTION" height="629px" preserveAspectRatio="none" style="width:1329px;height:629px;background:#FAFAFA;" version="1.1" viewBox="0 0 1329 629" width="1329px" zoomAndPan="magnify"><?plantuml 1.2026.4?><defs/><g><rect fill="#FAFAFA" height="629" style="stroke:none;stroke-width:1;" width="1329" x="0" y="0"/><g class="title" data-source-line="1"><text fill="#000000" font-family="Helvetica" font-size="16" font-weight="700" lengthAdjust="spacing" textLength="1006.0391" x="158.0627" y="24.8516">11.b &#8212; Vista l&#243;gica &#183; Alternativa C: Microservicios orientados a eventos (Event-Driven + API Gateway + Broker)</text></g><!--cluster P--><g class="cluster" data-qualified-name="P" data-source-line="9" id="ent0002"><path d="M379.52,167.735 L518.7192,167.735 A10.5,10.5 0 0 1 525.7192,174.735 L532.7192,187.7037 L547.52,187.7037 A7,7 0 0 1 554.52,194.7037 L554.52,264.345 A7,7 0 0 1 547.52,271.345 L379.52,271.345 A7,7 0 0 1 372.52,264.345 L372.52,174.735 A7,7 0 0 1 379.52,167.735" fill="none" style="stroke:#000000;stroke-width:1.5;"/><line style="stroke:#000000;stroke-width:1.5;" x1="372.52" x2="532.7192" y1="187.7037" y2="187.7037"/><text fill="#4A4A48" font-family="Helvetica" font-size="12" font-weight="700" lengthAdjust="spacing" textLength="147.1992" x="376.52" y="180.8737">Capa de Presentaci&#243;n</text></g><!--cluster SVCS--><g class="cluster" data-qualified-name="SVCS" data-source-line="15" id="ent0005"><path d="M148.52,400.155 L469.6352,400.155 A10.5,10.5 0 0 1 476.6352,407.155 L483.6352,420.1238 L1024.52,420.1238 A7,7 0 0 1 1031.52,427.1238 L1031.52,496.765 A7,7 0 0 1 1024.52,503.765 L148.52,503.765 A7,7 0 0 1 141.52,496.765 L141.52,407.155 A7,7 0 0 1 148.52,400.155" fill="none" style="stroke:#000000;stroke-width:1.5;"/><line style="stroke:#000000;stroke-width:1.5;" x1="141.52" x2="483.6352" y1="420.1238" y2="420.1238"/><text fill="#4A4A48" font-family="Helvetica" font-size="12" font-weight="700" lengthAdjust="spacing" textLength="329.1152" x="145.52" y="413.2937">Servicios independientes (database-per-service)</text></g><!--entity SPA--><g class="entity" data-qualified-name="P.SPA" data-source-line="10" id="ent0003"><rect fill="#F1F1F1" height="55.6094" rx="7" ry="7" style="stroke:#181818;stroke-width:0.5;" width="150.4619" x="388.29" y="199.735"/><rect fill="#F1F1F1" height="10" style="stroke:#181818;stroke-width:0.5;" width="15" x="518.7519" y="204.735"/><rect fill="#F1F1F1" height="2" style="stroke:#181818;stroke-width:0.5;" width="4" x="516.7519" y="206.735"/><rect fill="#F1F1F1" height="2" style="stroke:#181818;stroke-width:0.5;" width="4" x="516.7519" y="210.735"/><text fill="#000000" font-family="Helvetica" font-size="11" lengthAdjust="spacing" textLength="110.4619" x="403.29" y="229.9454">SPA Next.js + React</text><text fill="#000000" font-family="Helvetica" font-size="11" lengthAdjust="spacing" textLength="73.0361" x="403.29" y="242.7501">(patr&#243;n MVC)</text></g><!--entity SUsr--><g class="entity" data-qualified-name="SVCS.SUsr" data-source-line="16" id="ent0006"><rect fill="#F1F1F1" height="55.6094" rx="7" ry="7" style="stroke:#181818;stroke-width:0.5;" width="87.5342" x="157.76" y="432.155"/><rect fill="#F1F1F1" height="10" style="stroke:#181818;stroke-width:0.5;" width="15" x="225.2942" y="437.155"/><rect fill="#F1F1F1" height="2" style="stroke:#181818;stroke-width:0.5;" width="4" x="223.2942" y="439.155"/><rect fill="#F1F1F1" height="2" style="stroke:#181818;stroke-width:0.5;" width="4" x="223.2942" y="443.155"/><text fill="#000000" font-family="Helvetica" font-size="11" lengthAdjust="spacing" textLength="43.6724" x="172.76" y="462.3654">Servicio</text><text fill="#000000" font-family="Helvetica" font-size="11" lengthAdjust="spacing" textLength="47.5342" x="172.76" y="475.1701">Usuarios</text></g><!--entity SCat--><g class="entity" data-qualified-name="SVCS.SCat" data-source-line="17" id="ent0007"><rect fill="#F1F1F1" height="55.6094" rx="7" ry="7" style="stroke:#181818;stroke-width:0.5;" width="88.9736" x="270.04" y="432.155"/><rect fill="#F1F1F1" height="10" style="stroke:#181818;stroke-width:0.5;" width="15" x="339.0136" y="437.155"/><rect fill="#F1F1F1" height="2" style="stroke:#181818;stroke-width:0.5;" width="4" x="337.0136" y="439.155"/><rect fill="#F1F1F1" height="2" style="stroke:#181818;stroke-width:0.5;" width="4" x="337.0136" y="443.155"/><text fill="#000000" font-family="Helvetica" font-size="11" lengthAdjust="spacing" textLength="43.6724" x="285.04" y="462.3654">Servicio</text><text fill="#000000" font-family="Helvetica" font-size="11" lengthAdjust="spacing" textLength="48.9736" x="285.04" y="475.1701">Cat&#225;logo</text></g><!--entity SCon--><g class="entity" data-qualified-name="SVCS.SCon" data-source-line="18" id="ent0008"><rect fill="#F1F1F1" height="55.6094" rx="7" ry="7" style="stroke:#181818;stroke-width:0.5;" width="110.8179" x="492.11" y="432.155"/><rect fill="#F1F1F1" height="10" style="stroke:#181818;stroke-width:0.5;" width="15" x="582.9279" y="437.155"/><rect fill="#F1F1F1" height="2" style="stroke:#181818;stroke-width:0.5;" width="4" x="580.9279" y="439.155"/><rect fill="#F1F1F1" height="2" style="stroke:#181818;stroke-width:0.5;" width="4" x="580.9279" y="443.155"/><text fill="#000000" font-family="Helvetica" font-size="11" lengthAdjust="spacing" textLength="43.6724" x="507.11" y="462.3654">Servicio</text><text fill="#000000" font-family="Helvetica" font-size="11" lengthAdjust="spacing" textLength="70.8179" x="507.11" y="475.1701">Contrataci&#243;n</text></g><!--entity SPag--><g class="entity" data-qualified-name="SVCS.SPag" data-source-line="19" id="ent0009"><rect fill="#F1F1F1" height="55.6094" rx="7" ry="7" style="stroke:#181818;stroke-width:0.5;" width="83.6724" x="383.69" y="432.155"/><rect fill="#F1F1F1" height="10" style="stroke:#181818;stroke-width:0.5;" width="15" x="447.3624" y="437.155"/><rect fill="#F1F1F1" height="2" style="stroke:#181818;stroke-width:0.5;" width="4" x="445.3624" y="439.155"/><rect fill="#F1F1F1" height="2" style="stroke:#181818;stroke-width:0.5;" width="4" x="445.3624" y="443.155"/><text fill="#000000" font-family="Helvetica" font-size="11" lengthAdjust="spacing" textLength="43.6724" x="398.69" y="462.3654">Servicio</text><text fill="#000000" font-family="Helvetica" font-size="11" lengthAdjust="spacing" textLength="32.8174" x="398.69" y="475.1701">Pagos</text></g><!--entity SHab--><g class="entity" data-qualified-name="SVCS.SHab" data-source-line="20" id="ent0010"><rect fill="#F1F1F1" height="55.6094" rx="7" ry="7" style="stroke:#181818;stroke-width:0.5;" width="117.521" x="897.76" y="432.155"/><rect fill="#F1F1F1" height="10" style="stroke:#181818;stroke-width:0.5;" width="15" x="995.281" y="437.155"/><rect fill="#F1F1F1" height="2" style="stroke:#181818;stroke-width:0.5;" width="4" x="993.281" y="439.155"/><rect fill="#F1F1F1" height="2" style="stroke:#181818;stroke-width:0.5;" width="4" x="993.281" y="443.155"/><text fill="#000000" font-family="Helvetica" font-size="11" lengthAdjust="spacing" textLength="43.6724" x="912.76" y="462.3654">Servicio</text><text fill="#000000" font-family="Helvetica" font-size="11" lengthAdjust="spacing" textLength="77.521" x="912.76" y="475.1701">Habilitaciones</text></g><!--entity SRep--><g class="entity" data-qualified-name="SVCS.SRep" data-source-line="21" id="ent0011"><rect fill="#F1F1F1" height="55.6094" rx="7" ry="7" style="stroke:#181818;stroke-width:0.5;" width="102.2241" x="628.41" y="432.155"/><rect fill="#F1F1F1" height="10" style="stroke:#181818;stroke-width:0.5;" width="15" x="710.6341" y="437.155"/><rect fill="#F1F1F1" height="2" style="stroke:#181818;stroke-width:0.5;" width="4" x="708.6341" y="439.155"/><rect fill="#F1F1F1" height="2" style="stroke:#181818;stroke-width:0.5;" width="4" x="708.6341" y="443.155"/><text fill="#000000" font-family="Helvetica" font-size="11" lengthAdjust="spacing" textLength="43.6724" x="643.41" y="462.3654">Servicio</text><text fill="#000000" font-family="Helvetica" font-size="11" lengthAdjust="spacing" textLength="62.2241" x="643.41" y="475.1701">Reputaci&#243;n</text></g><!--entity SNot--><g class="entity" data-qualified-name="SVCS.SNot" data-source-line="22" id="ent0012"><rect fill="#F1F1F1" height="55.6094" rx="7" ry="7" style="stroke:#181818;stroke-width:0.5;" width="117.3491" x="755.85" y="432.155"/><rect fill="#F1F1F1" height="10" style="stroke:#181818;stroke-width:0.5;" width="15" x="853.1991" y="437.155"/><rect fill="#F1F1F1" height="2" style="stroke:#181818;stroke-width:0.5;" width="4" x="851.1991" y="439.155"/><rect fill="#F1F1F1" height="2" style="stroke:#181818;stroke-width:0.5;" width="4" x="851.1991" y="443.155"/><text fill="#000000" font-family="Helvetica" font-size="11" lengthAdjust="spacing" textLength="43.6724" x="770.85" y="462.3654">Servicio</text><text fill="#000000" font-family="Helvetica" font-size="11" lengthAdjust="spacing" textLength="77.3491" x="770.85" y="475.1701">Notificaciones</text></g><!--entity Usuario--><g class="entity" data-qualified-name="Usuario" data-source-line="7" id="ent0001"><ellipse cx="463.5274" cy="53.625" fill="#C9DFEE" rx="8" ry="8" style="stroke:#000000;stroke-width:0.5;"/><path d="M463.5274,61.625 L463.5274,88.625 M450.5274,69.625 L476.5274,69.625 M463.5274,88.625 L450.5274,103.625 M463.5274,88.625 L476.5274,103.625" fill="none" style="stroke:#000000;stroke-width:0.5;"/><text fill="#000000" font-family="Helvetica" font-size="11" lengthAdjust="spacing" textLength="102.2549" x="412.4" y="115.3354">Cliente / Prestador</text><text fill="#000000" font-family="Helvetica" font-size="11" lengthAdjust="spacing" textLength="85.0513" x="412.4" y="128.1401">/ Administrador</text></g><!--entity GW--><g class="entity" data-qualified-name="GW" data-source-line="13" id="ent0004"><rect fill="#F1F1F1" height="42.8047" rx="7" ry="7" style="stroke:#181818;stroke-width:0.5;" width="109.4912" x="408.78" y="320.345"/><rect fill="#F1F1F1" height="10" style="stroke:#181818;stroke-width:0.5;" width="15" x="498.2712" y="325.345"/><rect fill="#F1F1F1" height="2" style="stroke:#181818;stroke-width:0.5;" width="4" x="496.2712" y="327.345"/><rect fill="#F1F1F1" height="2" style="stroke:#181818;stroke-width:0.5;" width="4" x="496.2712" y="331.345"/><text fill="#000000" font-family="Helvetica" font-size="11" lengthAdjust="spacing" textLength="69.4912" x="423.78" y="350.5554">API Gateway</text></g><!--entity DBu--><g class="entity" data-qualified-name="DBu" data-source-line="25" id="ent0013"><path d="M6,564.065 C6,554.065 49.5237,554.065 49.5237,554.065 C49.5237,554.065 93.0474,554.065 93.0474,564.065 L93.0474,585.8697 C93.0474,595.8697 49.5237,595.8697 49.5237,595.8697 C49.5237,595.8697 6,595.8697 6,585.8697 L6,564.065" fill="#F1F1F1" style="stroke:#181818;stroke-width:0.5;"/><path d="M6,564.065 C6,574.065 49.5237,574.065 49.5237,574.065 C49.5237,574.065 93.0474,574.065 93.0474,564.065" fill="none" style="stroke:#181818;stroke-width:0.5;"/><text fill="#000000" font-family="Helvetica" font-size="11" lengthAdjust="spacing" textLength="67.0474" x="16" y="588.2754">DB Usuarios</text></g><!--entity DBc--><g class="entity" data-qualified-name="DBc" data-source-line="26" id="ent0014"><path d="M118.28,564.065 C118.28,554.065 162.5234,554.065 162.5234,554.065 C162.5234,554.065 206.7668,554.065 206.7668,564.065 L206.7668,585.8697 C206.7668,595.8697 162.5234,595.8697 162.5234,595.8697 C162.5234,595.8697 118.28,595.8697 118.28,585.8697 L118.28,564.065" fill="#F1F1F1" style="stroke:#181818;stroke-width:0.5;"/><path d="M118.28,564.065 C118.28,574.065 162.5234,574.065 162.5234,574.065 C162.5234,574.065 206.7668,574.065 206.7668,564.065" fill="none" style="stroke:#181818;stroke-width:0.5;"/><text fill="#000000" font-family="Helvetica" font-size="11" lengthAdjust="spacing" textLength="68.4868" x="128.28" y="588.2754">DB Cat&#225;logo</text></g><!--entity DBn--><g class="entity" data-qualified-name="DBn" data-source-line="27" id="ent0015"><path d="M489.36,564.065 C489.36,554.065 544.5255,554.065 544.5255,554.065 C544.5255,554.065 599.6911,554.065 599.6911,564.065 L599.6911,585.8697 C599.6911,595.8697 544.5255,595.8697 544.5255,595.8697 C544.5255,595.8697 489.36,595.8697 489.36,585.8697 L489.36,564.065" fill="#F1F1F1" style="stroke:#181818;stroke-width:0.5;"/><path d="M489.36,564.065 C489.36,574.065 544.5255,574.065 544.5255,574.065 C544.5255,574.065 599.6911,574.065 599.6911,564.065" fill="none" style="stroke:#181818;stroke-width:0.5;"/><text fill="#000000" font-family="Helvetica" font-size="11" lengthAdjust="spacing" textLength="90.3311" x="499.36" y="588.2754">DB Contrataci&#243;n</text></g><!--entity DBp--><g class="entity" data-qualified-name="DBp" data-source-line="28" id="ent0016"><path d="M392.36,564.065 C392.36,554.065 428.5253,554.065 428.5253,554.065 C428.5253,554.065 464.6906,554.065 464.6906,564.065 L464.6906,585.8697 C464.6906,595.8697 428.5253,595.8697 428.5253,595.8697 C428.5253,595.8697 392.36,595.8697 392.36,585.8697 L392.36,564.065" fill="#F1F1F1" style="stroke:#181818;stroke-width:0.5;"/><path d="M392.36,564.065 C392.36,574.065 428.5253,574.065 428.5253,574.065 C428.5253,574.065 464.6906,574.065 464.6906,564.065" fill="none" style="stroke:#181818;stroke-width:0.5;"/><text fill="#000000" font-family="Helvetica" font-size="11" lengthAdjust="spacing" textLength="52.3306" x="402.36" y="588.2754">DB Pagos</text></g><!--entity DBh--><g class="entity" data-qualified-name="DBh" data-source-line="29" id="ent0017"><path d="M1212.89,564.065 C1212.89,554.065 1258.5272,554.065 1258.5272,554.065 C1258.5272,554.065 1304.1644,554.065 1304.1644,564.065 L1304.1644,585.8697 C1304.1644,595.8697 1258.5272,595.8697 1258.5272,595.8697 C1258.5272,595.8697 1212.89,595.8697 1212.89,585.8697 L1212.89,564.065" fill="#F1F1F1" style="stroke:#181818;stroke-width:0.5;"/><path d="M1212.89,564.065 C1212.89,574.065 1258.5272,574.065 1258.5272,574.065 C1258.5272,574.065 1304.1644,574.065 1304.1644,564.065" fill="none" style="stroke:#181818;stroke-width:0.5;"/><text fill="#000000" font-family="Helvetica" font-size="11" lengthAdjust="spacing" textLength="71.2744" x="1222.89" y="588.2754">DB Habilitac.</text></g><!--entity DBr--><g class="entity" data-qualified-name="DBr" data-source-line="30" id="ent0018"><path d="M624.66,564.065 C624.66,554.065 675.5287,554.065 675.5287,554.065 C675.5287,554.065 726.3973,554.065 726.3973,564.065 L726.3973,585.8697 C726.3973,595.8697 675.5287,595.8697 675.5287,595.8697 C675.5287,595.8697 624.66,595.8697 624.66,585.8697 L624.66,564.065" fill="#F1F1F1" style="stroke:#181818;stroke-width:0.5;"/><path d="M624.66,564.065 C624.66,574.065 675.5287,574.065 675.5287,574.065 C675.5287,574.065 726.3973,574.065 726.3973,564.065" fill="none" style="stroke:#181818;stroke-width:0.5;"/><text fill="#000000" font-family="Helvetica" font-size="11" lengthAdjust="spacing" textLength="81.7373" x="634.66" y="588.2754">DB Reputaci&#243;n</text></g><!--entity BUS--><g class="entity" data-qualified-name="BUS" data-source-line="32" id="ent0019"><path d="M756.15,557.165 L862.8995,557.165 C867.8995,557.165 867.8995,574.9697 867.8995,574.9697 C867.8995,574.9697 867.8995,592.7744 862.8995,592.7744 L756.15,592.7744 C751.15,592.7744 751.15,574.9697 751.15,574.9697 C751.15,574.9697 751.15,557.165 756.15,557.165" fill="#F1F1F1" style="stroke:#181818;stroke-width:0.5;"/><path d="M862.8995,557.165 C857.8995,557.165 857.8995,574.9697 857.8995,574.9697 C857.8995,592.7744 862.8995,592.7744 862.8995,592.7744" fill="none" style="stroke:#181818;stroke-width:0.5;"/><text fill="#000000" font-family="Helvetica" font-size="11" lengthAdjust="spacing" textLength="84.7827" x="756.15" y="572.3754">Bus de eventos</text><text fill="#000000" font-family="Helvetica" font-size="11" lengthAdjust="spacing" textLength="96.7495" x="756.15" y="585.1801">(Message Broker)</text></g><!--entity MP--><g class="entity" data-qualified-name="MP" data-source-line="34" id="ent0020"><path d="M241.96,556.6639 C244.7116,550.9696 249.5021,551.2051 253.2814,555.499 C257.4455,550.0298 262.0236,549.0962 265.7018,555.9872 C268.8288,550.7215 272.0774,550.7547 276.2466,554.8078 C279.5167,548.9825 283.6841,548.2555 288.0169,553.6976 C291.0648,547.4369 297.0103,547.1132 301.1402,552.4759 C305.6254,547.2843 309.7646,547.9273 312.498,554.2099 C315.4271,548.0176 321.2799,548.6348 324.6301,553.7585 C328.6806,547.6661 333.1874,548.9812 336.2687,554.7125 C340.6882,549.4211 345.5017,548.9524 349.0495,555.6423 C352.7708,550.6145 356.9378,550.2259 360.4802,555.8346 C369.7714,561.5807 370.2763,568.7013 361.5084,575.3967 C372.1736,582.5987 368.6601,590.785 359.6762,596.2615 C355.7068,601.7878 352.2432,601.32 348.2307,596.3083 C345.731,601.7277 341.0865,603.0729 337.1133,597.8471 C334.42,604.3047 330.1528,605.8003 324.8437,600.6002 C320.7179,606.142 316.9406,607.1454 312.5603,600.8647 C309.3681,607.6515 304.0042,606.7229 299.8563,601.9115 C296.5063,605.9426 292.6728,606.9979 289.8014,601.4111 C285.2116,607.4197 281.2409,605.9197 277.8664,600.1769 C272.4061,605.9517 268.653,605.0391 265.3351,598.0701 C260.8134,604.1755 255.085,602.7901 252.5348,596.0982 C249.3728,601.0711 243.4727,601.4644 240.5519,595.8257 C230.0368,591.0824 231.1046,581.3416 239.535,575.6436 C231.1147,568.4072 231.7745,561.5231 241.96,556.6639" fill="#F1F1F1" style="stroke:#181818;stroke-width:0.5;"/><text fill="#000000" font-family="Helvetica" font-size="11" font-style="italic" lengthAdjust="spacing" textLength="102.7114" x="248.17" y="572.3754">&#171;sistema externo&#187;</text><text fill="#000000" font-family="Helvetica" font-size="11" lengthAdjust="spacing" textLength="77.8647" x="260.5933" y="585.1801">Mercado Pago</text></g><!--entity MS--><g class="entity" data-qualified-name="MS" data-source-line="35" id="ent0021"><path d="M901.6558,549.998 C903.5641,544.0171 909.2659,543.0039 913.3321,547.6206 C917.8636,541.0607 922.764,541.025 926.7665,548.1403 C928.3074,541.8493 933.8057,541.4125 937.908,545.3503 C940.4221,539.0105 946.3458,539.2475 950.1677,543.8904 C954.3034,538.2947 958.7626,539.0259 962.1459,544.6908 C965.1072,538.6518 970.3702,538.3574 973.6214,544.4158 C978.4021,539.2729 982.4171,538.4166 986.4099,545.2566 C990.862,542.2656 994.5679,543.1026 996.2487,548.5051 C1000.5312,543.7148 1004.3252,543.2593 1008.1815,548.9885 C1012.1351,543.5658 1018.1382,543.8765 1020.8633,550.3033 C1027.8353,553.97 1028.0617,558.1777 1022.5133,563.4195 C1027.4949,567.1298 1028.9898,571.1144 1022.7091,575.0149 C1028.6771,579.8124 1028.3116,585.2592 1021.6909,589.15 C1026.9848,593.1112 1026.2516,598.7066 1020.4063,601.5102 C1017.9471,606.9279 1014.2694,608.1566 1010.1194,603.1842 C1006.2514,610.3293 1001.5686,610.2008 997.0913,603.7688 C993.9913,610.0377 989.4295,611.0347 984.8897,605.223 C982.7014,610.8955 978.307,611.8716 973.906,607.6891 C970.8814,613.4885 964.8745,613.7584 960.9503,608.7695 C957.659,614.2106 952.3142,613.6649 949.667,608.1086 C945.644,612.9971 940.5371,612.5435 937.559,606.9066 C932.4319,611.3364 927.2387,611.4009 924.9505,603.9052 C921.5237,608.7435 916.5269,609.1696 913.1952,603.7957 C909.2238,608.5978 904.9738,607.7133 901.8819,602.7743 C894.6477,598.9326 893.7323,594.4014 900.0079,588.7539 C893.4224,585.8866 892.4507,581.7328 898.2533,577.014 C891.9812,572.097 893.7338,565.4177 900.7281,562.8125 C895.0343,558.56 895.1549,553.3677 901.6558,549.998" fill="#F1F1F1" style="stroke:#181818;stroke-width:0.5;"/><text fill="#000000" font-family="Helvetica" font-size="11" font-style="italic" lengthAdjust="spacing" textLength="102.7114" x="909.17" y="565.9754">&#171;sistema externo&#187;</text><text fill="#000000" font-family="Helvetica" font-size="11" lengthAdjust="spacing" textLength="73.4121" x="923.8197" y="578.7801">Proveedor de</text><text fill="#000000" font-family="Helvetica" font-size="11" lengthAdjust="spacing" textLength="59.8447" x="923.8197" y="591.5848">Mensajer&#237;a</text></g><!--entity OR--><g class="entity" data-qualified-name="OR" data-source-line="36" id="ent0022"><path d="M1061.6558,549.998 C1063.5641,544.0171 1069.2659,543.0039 1073.3321,547.6206 C1077.8636,541.0607 1082.764,541.025 1086.7665,548.1403 C1088.3074,541.8493 1093.8057,541.4125 1097.908,545.3503 C1100.4221,539.0105 1106.3458,539.2475 1110.1677,543.8904 C1114.3034,538.2947 1118.7626,539.0259 1122.1459,544.6908 C1125.1072,538.6518 1130.3702,538.3574 1133.6214,544.4158 C1138.4021,539.2729 1142.4171,538.4166 1146.4099,545.2566 C1150.862,542.2656 1154.5679,543.1026 1156.2487,548.5051 C1160.5312,543.7148 1164.3252,543.2593 1168.1815,548.9885 C1172.1351,543.5658 1178.1382,543.8765 1180.8633,550.3033 C1187.8353,553.97 1188.0617,558.1777 1182.5133,563.4195 C1187.4949,567.1298 1188.9898,571.1144 1182.7091,575.0149 C1188.6771,579.8124 1188.3116,585.2592 1181.6909,589.15 C1186.9848,593.1112 1186.2516,598.7066 1180.4063,601.5102 C1177.9471,606.9279 1174.2694,608.1566 1170.1194,603.1842 C1166.2514,610.3293 1161.5686,610.2008 1157.0913,603.7688 C1153.9913,610.0377 1149.4295,611.0347 1144.8897,605.223 C1142.7014,610.8955 1138.307,611.8716 1133.906,607.6891 C1130.8814,613.4885 1124.8745,613.7584 1120.9503,608.7695 C1117.659,614.2106 1112.3142,613.6649 1109.667,608.1086 C1105.644,612.9971 1100.5371,612.5435 1097.559,606.9066 C1092.4319,611.3364 1087.2387,611.4009 1084.9505,603.9052 C1081.5237,608.7435 1076.5269,609.1696 1073.1952,603.7957 C1069.2238,608.5978 1064.9738,607.7133 1061.8819,602.7743 C1054.6477,598.9326 1053.7323,594.4014 1060.0079,588.7539 C1053.4224,585.8866 1052.4507,581.7328 1058.2533,577.014 C1051.9812,572.097 1053.7338,565.4177 1060.7281,562.8125 C1055.0343,558.56 1055.1549,553.3677 1061.6558,549.998" fill="#F1F1F1" style="stroke:#181818;stroke-width:0.5;"/><text fill="#000000" font-family="Helvetica" font-size="11" font-style="italic" lengthAdjust="spacing" textLength="102.7114" x="1069.17" y="565.9754">&#171;sistema externo&#187;</text><text fill="#000000" font-family="Helvetica" font-size="11" lengthAdjust="spacing" textLength="60.1079" x="1090.4718" y="578.7801">Organismo</text><text fill="#000000" font-family="Helvetica" font-size="11" lengthAdjust="spacing" textLength="56.3965" x="1090.4718" y="591.5848">Regulador</text></g><!--link Usuario to SPA--><g class="link" data-entity-1="ent0001" data-entity-2="ent0003" data-link-type="dependency" data-source-line="38" id="lnk23"><path d="M463.52,130.965 C463.52,153.255 463.52,174.985 463.52,194.505" fill="none" id="Usuario-to-SPA" style="stroke:#090D10;stroke-width:1;"/><polygon fill="#090D10" points="463.52,199.505,467.52,190.505,463.52,194.505,459.52,190.505,463.52,199.505" style="stroke:#090D10;stroke-width:1;stroke-linejoin:miter;stroke-miterlimit:10;"/></g><!--link SPA to GW--><g class="link" data-entity-1="ent0003" data-entity-2="ent0004" data-link-type="dependency" data-source-line="39" id="lnk24"><path d="M463.52,255.705 C463.52,275.555 463.52,297.055 463.52,315.165" fill="none" id="SPA-to-GW" style="stroke:#090D10;stroke-width:1;"/><polygon fill="#090D10" points="463.52,320.165,467.52,311.165,463.52,315.165,459.52,311.165,463.52,320.165" style="stroke:#090D10;stroke-width:1;stroke-linejoin:miter;stroke-miterlimit:10;"/><text fill="#090D10" font-family="Helvetica" font-size="10" lengthAdjust="spacing" textLength="44.7217" x="464.52" y="297.6272">API REST</text></g><!--link GW to SUsr--><g class="link" data-entity-1="ent0004" data-entity-2="ent0006" data-link-type="dependency" data-source-line="40" id="lnk25"><path d="M408.29,346.515 C364.59,351.635 303.49,363.695 257.52,392.155 C241.57,402.025 230.822,413.9362 221.002,427.7862" fill="none" id="GW-to-SUsr" style="stroke:#090D10;stroke-width:1;"/><polygon fill="#090D10" points="218.11,431.865,226.5786,426.8367,221.002,427.7862,220.0525,422.2096,218.11,431.865" style="stroke:#090D10;stroke-width:1;stroke-linejoin:miter;stroke-miterlimit:10;"/></g><!--link GW to SCat--><g class="link" data-entity-1="ent0004" data-entity-2="ent0007" data-link-type="dependency" data-source-line="41" id="lnk26"><path d="M416.98,363.475 C401.74,371.345 385.21,381.115 371.52,392.155 C357.4,403.545 347.1691,414.8356 336.9691,427.8856" fill="none" id="GW-to-SCat" style="stroke:#090D10;stroke-width:1;"/><polygon fill="#090D10" points="333.89,431.825,342.5839,427.1973,336.9691,427.8856,336.2808,422.2707,333.89,431.825" style="stroke:#090D10;stroke-width:1;stroke-linejoin:miter;stroke-miterlimit:10;"/></g><!--link GW to SCon--><g class="link" data-entity-1="ent0004" data-entity-2="ent0008" data-link-type="dependency" data-source-line="42" id="lnk27"><path d="M478.54,363.525 C492.32,382.585 509.8911,406.8927 524.9611,427.7427" fill="none" id="GW-to-SCon" style="stroke:#090D10;stroke-width:1;"/><polygon fill="#090D10" points="527.89,431.795,525.8598,422.1577,524.9611,427.7427,519.376,426.844,527.89,431.795" style="stroke:#090D10;stroke-width:1;stroke-linejoin:miter;stroke-miterlimit:10;"/></g><!--link GW to SPag--><g class="link" data-entity-1="ent0004" data-entity-2="ent0009" data-link-type="dependency" data-source-line="43" id="lnk28"><path d="M456.73,363.525 C450.5,382.585 442.7744,406.1928 435.9544,427.0428" fill="none" id="GW-to-SPag" style="stroke:#090D10;stroke-width:1;"/><polygon fill="#090D10" points="434.4,431.795,440.9998,424.4845,435.9544,427.0428,433.3962,421.9974,434.4,431.795" style="stroke:#090D10;stroke-width:1;stroke-linejoin:miter;stroke-miterlimit:10;"/></g><!--link GW to SHab--><g class="link" data-entity-1="ent0004" data-entity-2="ent0010" data-link-type="dependency" data-source-line="44" id="lnk29"><path d="M518.58,344.915 C617.65,349.515 821.58,362.375 885.52,392.155 C904.86,401.155 919.0215,413.7528 931.8115,428.0128" fill="none" id="GW-to-SHab" style="stroke:#090D10;stroke-width:1;"/><polygon fill="#090D10" points="935.15,431.735,932.1185,422.3643,931.8115,428.0128,926.163,427.7059,935.15,431.735" style="stroke:#090D10;stroke-width:1;stroke-linejoin:miter;stroke-miterlimit:10;"/></g><!--link GW to SRep--><g class="link" data-entity-1="ent0004" data-entity-2="ent0011" data-link-type="dependency" data-source-line="45" id="lnk30"><path d="M518.76,353.745 C548.92,361.405 586.03,373.635 615.52,392.155 C632.12,402.565 644.1949,414.4127 655.6849,427.9527" fill="none" id="GW-to-SRep" style="stroke:#090D10;stroke-width:1;"/><polygon fill="#090D10" points="658.92,431.765,656.1466,422.3147,655.6849,427.9527,650.0469,427.4909,658.92,431.765" style="stroke:#090D10;stroke-width:1;stroke-linejoin:miter;stroke-miterlimit:10;"/></g><!--link SUsr to DBu--><g class="link" data-entity-1="ent0006" data-entity-2="ent0013" data-link-type="dependency" data-source-line="47" id="lnk31"><path d="M165.12,488.025 C137.89,508.265 105.2727,532.5219 80.6027,550.8619" fill="none" id="SUsr-to-DBu" style="stroke:#090D10;stroke-width:1;"/><polygon fill="#090D10" points="76.59,553.845,86.1992,551.6856,80.6027,550.8619,81.4263,545.2654,76.59,553.845" style="stroke:#090D10;stroke-width:1;stroke-linejoin:miter;stroke-miterlimit:10;"/></g><!--link SCat to DBc--><g class="link" data-entity-1="ent0007" data-entity-2="ent0014" data-link-type="dependency" data-source-line="48" id="lnk32"><path d="M285.65,488.185 C276.85,496.075 266.99,504.505 257.52,511.765 C237.81,526.875 218.7281,539.5219 200.1181,551.1719" fill="none" id="SCat-to-DBc" style="stroke:#090D10;stroke-width:1;"/><polygon fill="#090D10" points="195.88,553.825,205.631,552.4399,200.1181,551.1719,201.3861,545.659,195.88,553.825" style="stroke:#090D10;stroke-width:1;stroke-linejoin:miter;stroke-miterlimit:10;"/></g><!--link SCon to DBn--><g class="link" data-entity-1="ent0008" data-entity-2="ent0015" data-link-type="dependency" data-source-line="49" id="lnk33"><path d="M546.81,488.025 C546.27,508.265 545.6708,530.5067 545.1908,548.8467" fill="none" id="SCon-to-DBn" style="stroke:#090D10;stroke-width:1;"/><polygon fill="#090D10" points="545.06,553.845,549.2941,544.9527,545.1908,548.8467,541.2968,544.7434,545.06,553.845" style="stroke:#090D10;stroke-width:1;stroke-linejoin:miter;stroke-miterlimit:10;"/></g><!--link SPag to DBp--><g class="link" data-entity-1="ent0009" data-entity-2="ent0016" data-link-type="dependency" data-source-line="50" id="lnk34"><path d="M426.24,488.025 C426.78,508.265 427.3665,530.5068 427.8565,548.8468" fill="none" id="SPag-to-DBp" style="stroke:#090D10;stroke-width:1;"/><polygon fill="#090D10" points="427.99,553.845,431.7482,544.7414,427.8565,548.8468,423.7511,544.955,427.99,553.845" style="stroke:#090D10;stroke-width:1;stroke-linejoin:miter;stroke-miterlimit:10;"/></g><!--link SHab to DBh--><g class="link" data-entity-1="ent0010" data-entity-2="ent0017" data-link-type="dependency" data-source-line="51" id="lnk35"><path d="M1015.45,476.575 C1065.67,490.735 1139.22,513.525 1200.52,540.765 C1208.9,544.485 1213.2792,546.6012 1221.3492,551.1712" fill="none" id="SHab-to-DBh" style="stroke:#090D10;stroke-width:1;"/><polygon fill="#090D10" points="1225.7,553.635,1219.8396,545.7194,1221.3492,551.1712,1215.8975,552.6807,1225.7,553.635" style="stroke:#090D10;stroke-width:1;stroke-linejoin:miter;stroke-miterlimit:10;"/></g><!--link SRep to DBr--><g class="link" data-entity-1="ent0011" data-entity-2="ent0018" data-link-type="dependency" data-source-line="52" id="lnk36"><path d="M678.57,488.025 C677.85,508.265 677.0671,530.5081 676.4171,548.8481" fill="none" id="SRep-to-DBr" style="stroke:#090D10;stroke-width:1;"/><polygon fill="#090D10" points="676.24,553.845,680.5563,544.9923,676.4171,548.8481,672.5613,544.709,676.24,553.845" style="stroke:#090D10;stroke-width:1;stroke-linejoin:miter;stroke-miterlimit:10;"/></g><!--link SCon to BUS--><g class="link" data-entity-1="ent0008" data-entity-2="ent0019" data-link-type="dependency" data-source-line="55" id="lnk37"><path d="M578.3,488.145 C589.4,496.775 602.44,505.655 615.52,511.765 C666.42,535.515 685.47,522.325 738.52,540.765 C751.25,545.185 760.2424,548.9912 772.0124,554.6412" fill="none" id="SCon-to-BUS" style="stroke:#090D10;stroke-width:1;stroke-dasharray:7,7;"/><polygon fill="#090D10" points="776.52,556.805,770.1374,549.3042,772.0124,554.6412,766.6754,556.5162,776.52,556.805" style="stroke:#090D10;stroke-width:1;stroke-linejoin:miter;stroke-miterlimit:10;"/></g><!--link SPag to BUS--><g class="link" data-entity-1="ent0009" data-entity-2="ent0019" data-link-type="dependency" data-source-line="56" id="lnk38"><path d="M447.7,488.005 C456.61,497.065 467.61,506.245 479.52,511.765 C584.65,560.385 627.03,509.365 738.52,540.765 C752.15,544.595 761.939,548.5767 774.079,554.5867" fill="none" id="SPag-to-BUS" style="stroke:#090D10;stroke-width:1;stroke-dasharray:7,7;"/><polygon fill="#090D10" points="778.56,556.805,772.2689,549.2272,774.079,554.5867,768.7196,556.3968,778.56,556.805" style="stroke:#090D10;stroke-width:1;stroke-linejoin:miter;stroke-miterlimit:10;"/></g><!--link SHab to BUS--><g class="link" data-entity-1="ent0010" data-entity-2="ent0019" data-link-type="dependency" data-source-line="57" id="lnk39"><path d="M921.31,488.025 C893.45,509.445 859.3741,535.6477 835.6341,553.8977" fill="none" id="SHab-to-BUS" style="stroke:#090D10;stroke-width:1;stroke-dasharray:7,7;"/><polygon fill="#090D10" points="831.67,556.945,841.2432,554.631,835.6341,553.8977,836.3674,548.2885,831.67,556.945" style="stroke:#090D10;stroke-width:1;stroke-linejoin:miter;stroke-miterlimit:10;"/></g><!--link BUS to SRep--><g class="link" data-entity-1="ent0019" data-entity-2="ent0011" data-link-type="dependency" data-source-line="59" id="lnk40"><path d="M789.94,556.945 C768.94,538.695 739.0735,512.7254 714.4335,491.3054" fill="none" id="BUS-to-SRep" style="stroke:#090D10;stroke-width:1;stroke-dasharray:7,7;"/><polygon fill="#090D10" points="710.66,488.025,714.828,496.9484,714.4335,491.3054,720.0766,490.9109,710.66,488.025" style="stroke:#090D10;stroke-width:1;stroke-linejoin:miter;stroke-miterlimit:10;"/></g><!--link BUS to SNot--><g class="link" data-entity-1="ent0019" data-entity-2="ent0012" data-link-type="dependency" data-source-line="60" id="lnk41"><path d="M810.28,556.945 C811.08,538.695 812.1585,514.4401 813.1085,493.0201" fill="none" id="BUS-to-SNot" style="stroke:#090D10;stroke-width:1;stroke-dasharray:7,7;"/><polygon fill="#090D10" points="813.33,488.025,808.9352,496.8389,813.1085,493.0201,816.9273,497.1934,813.33,488.025" style="stroke:#090D10;stroke-width:1;stroke-linejoin:miter;stroke-miterlimit:10;"/></g><!--link SPag to MP--><g class="link" data-entity-1="ent0009" data-entity-2="ent0020" data-link-type="dependency" data-source-line="62" id="lnk42"><path d="M397.15,488.075 C388.95,495.805 379.94,504.175 371.52,511.765 C358.64,523.375 348.0018,532.6658 335.4718,543.4358" fill="none" id="SPag-to-MP" style="stroke:#090D10;stroke-width:1;"/><polygon fill="#090D10" points="331.68,546.695,341.1126,543.8619,335.4718,543.4358,335.8979,537.795,331.68,546.695" style="stroke:#090D10;stroke-width:1;stroke-linejoin:miter;stroke-miterlimit:10;"/></g><!--link SHab to OR--><g class="link" data-entity-1="ent0010" data-entity-2="ent0022" data-link-type="dependency" data-source-line="63" id="lnk43"><path d="M995.81,488.025 C1018.64,503.765 1043.4933,520.8872 1067.7633,537.6172" fill="none" id="SHab-to-OR" style="stroke:#090D10;stroke-width:1;"/><polygon fill="#090D10" points="1071.88,540.455,1066.7402,532.0537,1067.7633,537.6172,1062.1998,538.6404,1071.88,540.455" style="stroke:#090D10;stroke-width:1;stroke-linejoin:miter;stroke-miterlimit:10;"/></g><!--link SNot to MS--><g class="link" data-entity-1="ent0012" data-entity-2="ent0021" data-link-type="dependency" data-source-line="64" id="lnk44"><path d="M849.49,488.025 C869.83,503.765 891.667,520.6633 913.267,537.3933" fill="none" id="SNot-to-MS" style="stroke:#090D10;stroke-width:1;"/><polygon fill="#090D10" points="917.22,540.455,912.554,531.7815,913.267,537.3933,907.6553,538.1063,917.22,540.455" style="stroke:#090D10;stroke-width:1;stroke-linejoin:miter;stroke-miterlimit:10;"/></g><?plantuml-src VLJDJjj04BxlKqnp0LJ5G8y8HOeJH7i8M743bqXeucp3WhFhxgvJK5Mf3z4Nw0Dmuj1xyoPzaiwixVn0KobIvkURR-VNNlbSml5nD84_tt_0bN8U8Ly-prI6yFiNT7ClhKQl5WYz4nYep1edxK9boZWmLadjSKeYWboGJDB-6GljlbNq3s-Xcto0S_Jo2pwI5bjpB-s146-Kpl9oAY6A3kbtT7JJC_DIan0TtPmvht9JMI9LpdCXtBtI1LgSGsRcXT7qHkeVANdolXC2Csyij7evPoJX418h7QTcn_eGkjEvqbIRPKCBqC78bMYL4QB0x1vdaaAnGA1yE92hojJoMGTi0by5h9-5LffquK8--EZEKKb3IO-FzNw1tb883Avw1o6EOEAR41k16xq8YFFhZGJILL-Ldif2wcceXJewHOyJTB9TIDkksY_h9wvwwQliQfwnhejq5NJax2vW3_toPsvcfaAIkXDfD7LnipifcNQX4vmrhvEu2_KU9ofNp4ck6awsNV2XBCgj1CYm2tjXlFf4kxn9JJOUIzDKQFLZsEfKFowtlTljwSVP2_UhdlHZlGrPDw8V5zkkLVLHxR_TzhyijnzR8JwNiYHtN3fUsVhqQ0S7qZbUflhCGa0yIca9SrDEeJMGDgCR2Fa4vo21qrD7fo7dTC8FVEscqsdWYJKBAUbcw9Mn7aZjy4xQvHDMiUd_OY_j3Edcvc5Yip9VdTxby9zXefu1jDkTS3fyPIoVNyD9-8eCpzAFWhG0u6rkPDxNbKpRsCYySutC2zN8l3226OBAusQAMia4SzIA5anIAuLWbbgv5KnJApIHFKZAIHvMZJy2wwd0FhhbawOFfyQ3YZkAEc4gWNkbC7UZx45Qkiogec9RVLq5EGCerB1IUANNcGwITQANGy7Uofx-1G00?></g></svg>