<svg xmlns="http://www.w3.org/2000/svg" xmlns:xlink="http://www.w3.org/1999/xlink" contentStyleType="text/css" data-diagram-type="DESCRIPTION" height="874px" preserveAspectRatio="none" style="width:1378px;height:874px;" version="1.1" viewBox="0 0 1378 874" width="1378px" zoomAndPan="magnify"><?plantuml 1.2026.4?><defs/><g><g class="title" data-source-line="1"><text fill="#000000" font-family="Helvetica" font-size="16" font-weight="700" lengthAdjust="spacing" textLength="790.9922" x="290.3408" y="24.8516">11.b &#8212; Vista l&#243;gica &#183; Alternativa B: Monolito modular + Broker (Puertos y Adaptadores)</text></g><!--cluster P--><g class="cluster" data-qualified-name="P" data-source-line="10" id="ent0002"><path d="M837,167.735 L976.1992,167.735 A10.5,10.5 0 0 1 983.1992,174.735 L990.1992,187.7038 L1005,187.7038 A7,7 0 0 1 1012,194.7038 L1012,264.345 A7,7 0 0 1 1005,271.345 L837,271.345 A7,7 0 0 1 830,264.345 L830,174.735 A7,7 0 0 1 837,167.735" fill="none" style="stroke:#000000;stroke-width:1.5;"/><line style="stroke:#000000;stroke-width:1.5;" x1="830" x2="990.1992" y1="187.7038" y2="187.7038"/><text fill="#4A4A48" font-family="Helvetica" font-size="12" font-weight="700" lengthAdjust="spacing" textLength="147.1992" x="834" y="180.8737">Capa de Presentaci&#243;n</text></g><!--cluster A--><g class="cluster" data-qualified-name="A" data-source-line="14" id="ent0004"><path d="M13,316.345 L319.502,316.345 A10.5,10.5 0 0 1 326.502,323.345 L333.502,336.3138 L1010,336.3138 A7,7 0 0 1 1017,343.3138 L1017,742.175 A7,7 0 0 1 1010,749.175 L13,749.175 A7,7 0 0 1 6,742.175 L6,323.345 A7,7 0 0 1 13,316.345" fill="none" style="stroke:#000000;stroke-width:1.5;"/><line style="stroke:#000000;stroke-width:1.5;" x1="6" x2="333.502" y1="336.3138" y2="336.3138"/><text fill="#4A4A48" font-family="Helvetica" font-size="12" font-weight="700" lengthAdjust="spacing" textLength="314.502" x="10" y="329.4837">Capa de Aplicaci&#243;n &#8212; Backend NestJS modular</text></g><!--cluster Neg--><g class="cluster" data-qualified-name="A.Neg" data-source-line="17" id="ent0006"><path d="M45,448.955 L316.4746,448.955 A10.5,10.5 0 0 1 323.4746,455.955 L330.4746,468.9238 L978,468.9238 A7,7 0 0 1 985,475.9238 L985,561.565 A7,7 0 0 1 978,568.565 L45,568.565 A7,7 0 0 1 38,561.565 L38,455.955 A7,7 0 0 1 45,448.955" fill="none" style="stroke:#000000;stroke-width:1.5;"/><line style="stroke:#000000;stroke-width:1.5;" x1="38" x2="330.4746" y1="468.9238" y2="468.9238"/><text fill="#4A4A48" font-family="Helvetica" font-size="12" font-weight="700" lengthAdjust="spacing" textLength="279.4746" x="42" y="462.0937">M&#243;dulos de negocio (interfaces estables)</text></g><!--cluster Brk--><g class="cluster" data-qualified-name="A.Brk" data-source-line="27" id="ent0014"><path d="M58,621.565 L246.6699,621.565 A10.5,10.5 0 0 1 253.6699,628.565 L260.6699,641.5338 L442,641.5338 A7,7 0 0 1 449,648.5338 L449,718.175 A7,7 0 0 1 442,725.175 L58,725.175 A7,7 0 0 1 51,718.175 L51,628.565 A7,7 0 0 1 58,621.565" fill="none" style="stroke:#000000;stroke-width:1.5;"/><line style="stroke:#000000;stroke-width:1.5;" x1="51" x2="260.6699" y1="641.5338" y2="641.5338"/><text fill="#4A4A48" font-family="Helvetica" font-size="12" font-weight="700" lengthAdjust="spacing" textLength="196.6699" x="55" y="634.7037">Capa de Integraci&#243;n (Broker)</text></g><!--cluster D--><g class="cluster" data-qualified-name="D" data-source-line="34" id="ent0018"><path d="M1048,621.565 L1201.3496,621.565 A10.5,10.5 0 0 1 1208.3496,628.565 L1215.3496,641.5338 L1211,641.5338 A7,7 0 0 1 1218,648.5338 L1218,718.175 A7,7 0 0 1 1211,725.175 L1048,725.175 A7,7 0 0 1 1041,718.175 L1041,628.565 A7,7 0 0 1 1048,621.565" fill="none" style="stroke:#000000;stroke-width:1.5;"/><line style="stroke:#000000;stroke-width:1.5;" x1="1041" x2="1215.3496" y1="641.5338" y2="641.5338"/><text fill="#4A4A48" font-family="Helvetica" font-size="12" font-weight="700" lengthAdjust="spacing" textLength="161.3496" x="1045" y="634.7037">Capa de Acceso a Datos</text></g><!--entity SPA--><g class="entity" data-qualified-name="P.SPA" data-source-line="11" id="ent0003"><rect fill="#F1F1F1" height="55.6094" rx="7" ry="7" style="stroke:#181818;stroke-width:0.5;" width="150.4619" x="845.77" y="199.735"/><rect fill="#F1F1F1" height="10" style="stroke:#181818;stroke-width:0.5;" width="15" x="976.2319" y="204.735"/><rect fill="#F1F1F1" height="2" style="stroke:#181818;stroke-width:0.5;" width="4" x="974.2319" y="206.735"/><rect fill="#F1F1F1" height="2" style="stroke:#181818;stroke-width:0.5;" width="4" x="974.2319" y="210.735"/><text fill="#000000" font-family="Helvetica" font-size="11" lengthAdjust="spacing" textLength="110.4619" x="860.77" y="229.9454">SPA Next.js + React</text><text fill="#000000" font-family="Helvetica" font-size="11" lengthAdjust="spacing" textLength="73.0361" x="860.77" y="242.7501">(patr&#243;n MVC)</text></g><!--entity GW--><g class="entity" data-qualified-name="A.GW" data-source-line="15" id="ent0005"><rect fill="#F1F1F1" height="55.6094" rx="7" ry="7" style="stroke:#181818;stroke-width:0.5;" width="160.9033" x="840.55" y="348.345"/><rect fill="#F1F1F1" height="10" style="stroke:#181818;stroke-width:0.5;" width="15" x="981.4533" y="353.345"/><rect fill="#F1F1F1" height="2" style="stroke:#181818;stroke-width:0.5;" width="4" x="979.4533" y="355.345"/><rect fill="#F1F1F1" height="2" style="stroke:#181818;stroke-width:0.5;" width="4" x="979.4533" y="359.345"/><text fill="#000000" font-family="Helvetica" font-size="11" lengthAdjust="spacing" textLength="78.3428" x="855.55" y="378.5554">Fachada REST</text><text fill="#000000" font-family="Helvetica" font-size="11" lengthAdjust="spacing" textLength="120.9033" x="855.55" y="391.3601">(API Gateway interno)</text></g><!--entity MUsr--><g class="entity" data-qualified-name="A.Neg.MUsr" data-source-line="18" id="ent0007"><rect fill="#F1F1F1" height="55.6094" rx="7" ry="7" style="stroke:#181818;stroke-width:0.5;" width="99.3398" x="728.33" y="488.955"/><rect fill="#F1F1F1" height="10" style="stroke:#181818;stroke-width:0.5;" width="15" x="807.6698" y="493.955"/><rect fill="#F1F1F1" height="2" style="stroke:#181818;stroke-width:0.5;" width="4" x="805.6698" y="495.955"/><rect fill="#F1F1F1" height="2" style="stroke:#181818;stroke-width:0.5;" width="4" x="805.6698" y="499.955"/><text fill="#000000" font-family="Helvetica" font-size="11" lengthAdjust="spacing" textLength="59.3398" x="743.33" y="519.1654">Gesti&#243;n de</text><text fill="#000000" font-family="Helvetica" font-size="11" lengthAdjust="spacing" textLength="47.5342" x="743.33" y="531.9701">Usuarios</text></g><!--entity MCat--><g class="entity" data-qualified-name="A.Neg.MCat" data-source-line="19" id="ent0008"><rect fill="#F1F1F1" height="55.6094" rx="7" ry="7" style="stroke:#181818;stroke-width:0.5;" width="98.98" x="852.51" y="488.955"/><rect fill="#F1F1F1" height="10" style="stroke:#181818;stroke-width:0.5;" width="15" x="931.49" y="493.955"/><rect fill="#F1F1F1" height="2" style="stroke:#181818;stroke-width:0.5;" width="4" x="929.49" y="495.955"/><rect fill="#F1F1F1" height="2" style="stroke:#181818;stroke-width:0.5;" width="4" x="929.49" y="499.955"/><text fill="#000000" font-family="Helvetica" font-size="11" lengthAdjust="spacing" textLength="58.98" x="867.51" y="519.1654">Cat&#225;logo y</text><text fill="#000000" font-family="Helvetica" font-size="11" lengthAdjust="spacing" textLength="54.6938" x="867.51" y="531.9701">B&#250;squeda</text></g><!--entity MCon--><g class="entity" data-qualified-name="A.Neg.MCon" data-source-line="20" id="ent0009"><rect fill="#F1F1F1" height="55.6094" rx="7" ry="7" style="stroke:#181818;stroke-width:0.5;" width="120.8242" x="444.59" y="488.955"/><rect fill="#F1F1F1" height="10" style="stroke:#181818;stroke-width:0.5;" width="15" x="545.4142" y="493.955"/><rect fill="#F1F1F1" height="2" style="stroke:#181818;stroke-width:0.5;" width="4" x="543.4142" y="495.955"/><rect fill="#F1F1F1" height="2" style="stroke:#181818;stroke-width:0.5;" width="4" x="543.4142" y="499.955"/><text fill="#000000" font-family="Helvetica" font-size="11" lengthAdjust="spacing" textLength="80.8242" x="459.59" y="519.1654">Contrataci&#243;n y</text><text fill="#000000" font-family="Helvetica" font-size="11" lengthAdjust="spacing" textLength="43.1782" x="459.59" y="531.9701">Estados</text></g><!--entity MPag--><g class="entity" data-qualified-name="A.Neg.MPag" data-source-line="21" id="ent0010"><rect fill="#F1F1F1" height="42.8047" rx="7" ry="7" style="stroke:#181818;stroke-width:0.5;" width="72.8174" x="204.59" y="495.355"/><rect fill="#F1F1F1" height="10" style="stroke:#181818;stroke-width:0.5;" width="15" x="257.4074" y="500.355"/><rect fill="#F1F1F1" height="2" style="stroke:#181818;stroke-width:0.5;" width="4" x="255.4074" y="502.355"/><rect fill="#F1F1F1" height="2" style="stroke:#181818;stroke-width:0.5;" width="4" x="255.4074" y="506.355"/><text fill="#000000" font-family="Helvetica" font-size="11" lengthAdjust="spacing" textLength="32.8174" x="219.59" y="525.5654">Pagos</text></g><!--entity MRep--><g class="entity" data-qualified-name="A.Neg.MRep" data-source-line="22" id="ent0011"><rect fill="#F1F1F1" height="55.6094" rx="7" ry="7" style="stroke:#181818;stroke-width:0.5;" width="112.2305" x="590.88" y="488.955"/><rect fill="#F1F1F1" height="10" style="stroke:#181818;stroke-width:0.5;" width="15" x="683.1105" y="493.955"/><rect fill="#F1F1F1" height="2" style="stroke:#181818;stroke-width:0.5;" width="4" x="681.1105" y="495.955"/><rect fill="#F1F1F1" height="2" style="stroke:#181818;stroke-width:0.5;" width="4" x="681.1105" y="499.955"/><text fill="#000000" font-family="Helvetica" font-size="11" lengthAdjust="spacing" textLength="72.2305" x="605.88" y="519.1654">Reputaci&#243;n y</text><text fill="#000000" font-family="Helvetica" font-size="11" lengthAdjust="spacing" textLength="64.0396" x="605.88" y="531.9701">Moderaci&#243;n</text></g><!--entity MHab--><g class="entity" data-qualified-name="A.Neg.MHab" data-source-line="23" id="ent0012"><rect fill="#F1F1F1" height="42.8047" rx="7" ry="7" style="stroke:#181818;stroke-width:0.5;" width="117.521" x="302.24" y="495.355"/><rect fill="#F1F1F1" height="10" style="stroke:#181818;stroke-width:0.5;" width="15" x="399.761" y="500.355"/><rect fill="#F1F1F1" height="2" style="stroke:#181818;stroke-width:0.5;" width="4" x="397.761" y="502.355"/><rect fill="#F1F1F1" height="2" style="stroke:#181818;stroke-width:0.5;" width="4" x="397.761" y="506.355"/><text fill="#000000" font-family="Helvetica" font-size="11" lengthAdjust="spacing" textLength="77.521" x="317.24" y="525.5654">Habilitaciones</text></g><!--entity MNot--><g class="entity" data-qualified-name="A.Neg.MNot" data-source-line="24" id="ent0013"><rect fill="#F1F1F1" height="42.8047" rx="7" ry="7" style="stroke:#181818;stroke-width:0.5;" width="117.3491" x="62.33" y="495.355"/><rect fill="#F1F1F1" height="10" style="stroke:#181818;stroke-width:0.5;" width="15" x="159.6791" y="500.355"/><rect fill="#F1F1F1" height="2" style="stroke:#181818;stroke-width:0.5;" width="4" x="157.6791" y="502.355"/><rect fill="#F1F1F1" height="2" style="stroke:#181818;stroke-width:0.5;" width="4" x="157.6791" y="506.355"/><text fill="#000000" font-family="Helvetica" font-size="11" lengthAdjust="spacing" textLength="77.3491" x="77.33" y="525.5654">Notificaciones</text></g><!--entity APag--><g class="entity" data-qualified-name="A.Brk.APag" data-source-line="28" id="ent0015"><rect fill="#F1F1F1" height="55.6094" rx="7" ry="7" style="stroke:#181818;stroke-width:0.5;" width="97.519" x="192.24" y="653.565"/><rect fill="#F1F1F1" height="10" style="stroke:#181818;stroke-width:0.5;" width="15" x="269.759" y="658.565"/><rect fill="#F1F1F1" height="2" style="stroke:#181818;stroke-width:0.5;" width="4" x="267.759" y="660.565"/><rect fill="#F1F1F1" height="2" style="stroke:#181818;stroke-width:0.5;" width="4" x="267.759" y="664.565"/><text fill="#000000" font-family="Helvetica" font-size="11" lengthAdjust="spacing" textLength="57.519" x="207.24" y="683.7754">Adaptador</text><text fill="#000000" font-family="Helvetica" font-size="11" lengthAdjust="spacing" textLength="32.8174" x="207.24" y="696.5801">Pagos</text></g><!--entity AMsg--><g class="entity" data-qualified-name="A.Brk.AMsg" data-source-line="29" id="ent0016"><rect fill="#F1F1F1" height="55.6094" rx="7" ry="7" style="stroke:#181818;stroke-width:0.5;" width="99.8447" x="67.08" y="653.565"/><rect fill="#F1F1F1" height="10" style="stroke:#181818;stroke-width:0.5;" width="15" x="146.9247" y="658.565"/><rect fill="#F1F1F1" height="2" style="stroke:#181818;stroke-width:0.5;" width="4" x="144.9247" y="660.565"/><rect fill="#F1F1F1" height="2" style="stroke:#181818;stroke-width:0.5;" width="4" x="144.9247" y="664.565"/><text fill="#000000" font-family="Helvetica" font-size="11" lengthAdjust="spacing" textLength="57.519" x="82.08" y="683.7754">Adaptador</text><text fill="#000000" font-family="Helvetica" font-size="11" lengthAdjust="spacing" textLength="59.8447" x="82.08" y="696.5801">Mensajer&#237;a</text></g><!--entity AHab--><g class="entity" data-qualified-name="A.Brk.AHab" data-source-line="30" id="ent0017"><rect fill="#F1F1F1" height="55.6094" rx="7" ry="7" style="stroke:#181818;stroke-width:0.5;" width="117.521" x="315.24" y="653.565"/><rect fill="#F1F1F1" height="10" style="stroke:#181818;stroke-width:0.5;" width="15" x="412.761" y="658.565"/><rect fill="#F1F1F1" height="2" style="stroke:#181818;stroke-width:0.5;" width="4" x="410.761" y="660.565"/><rect fill="#F1F1F1" height="2" style="stroke:#181818;stroke-width:0.5;" width="4" x="410.761" y="664.565"/><text fill="#000000" font-family="Helvetica" font-size="11" lengthAdjust="spacing" textLength="57.519" x="330.24" y="683.7754">Adaptador</text><text fill="#000000" font-family="Helvetica" font-size="11" lengthAdjust="spacing" textLength="77.521" x="330.24" y="696.5801">Habilitaciones</text></g><!--entity Repo--><g class="entity" data-qualified-name="D.Repo" data-source-line="35" id="ent0019"><rect fill="#F1F1F1" height="55.6094" rx="7" ry="7" style="stroke:#181818;stroke-width:0.5;" width="107.9927" x="1057" y="653.565"/><rect fill="#F1F1F1" height="10" style="stroke:#181818;stroke-width:0.5;" width="15" x="1144.9927" y="658.565"/><rect fill="#F1F1F1" height="2" style="stroke:#181818;stroke-width:0.5;" width="4" x="1142.9927" y="660.565"/><rect fill="#F1F1F1" height="2" style="stroke:#181818;stroke-width:0.5;" width="4" x="1142.9927" y="664.565"/><text fill="#000000" font-family="Helvetica" font-size="11" lengthAdjust="spacing" textLength="67.9927" x="1072" y="683.7754">Repositorios</text><text fill="#000000" font-family="Helvetica" font-size="11" lengthAdjust="spacing" textLength="34.375" x="1072" y="696.5801">(ORM)</text></g><!--entity Usuario--><g class="entity" data-qualified-name="Usuario" data-source-line="8" id="ent0001"><ellipse cx="920.9974" cy="53.625" fill="#C9DFEE" rx="8" ry="8" style="stroke:#000000;stroke-width:0.5;"/><path d="M920.9974,61.625 L920.9974,88.625 M907.9974,69.625 L933.9974,69.625 M920.9974,88.625 L907.9974,103.625 M920.9974,88.625 L933.9974,103.625" fill="none" style="stroke:#000000;stroke-width:0.5;"/><text fill="#000000" font-family="Helvetica" font-size="11" lengthAdjust="spacing" textLength="102.2549" x="869.87" y="115.3354">Cliente / Prestador</text><text fill="#000000" font-family="Helvetica" font-size="11" lengthAdjust="spacing" textLength="85.0513" x="869.87" y="128.1401">/ Administrador</text></g><!--entity PG--><g class="entity" data-qualified-name="PG" data-source-line="38" id="ent0020"><path d="M1069.28,809.475 C1069.28,799.475 1111.0044,799.475 1111.0044,799.475 C1111.0044,799.475 1152.7287,799.475 1152.7287,809.475 L1152.7287,831.2797 C1152.7287,841.2797 1111.0044,841.2797 1111.0044,841.2797 C1111.0044,841.2797 1069.28,841.2797 1069.28,831.2797 L1069.28,809.475" fill="#F1F1F1" style="stroke:#181818;stroke-width:0.5;"/><path d="M1069.28,809.475 C1069.28,819.475 1111.0044,819.475 1111.0044,819.475 C1111.0044,819.475 1152.7287,819.475 1152.7287,809.475" fill="none" style="stroke:#181818;stroke-width:0.5;"/><text fill="#000000" font-family="Helvetica" font-size="11" lengthAdjust="spacing" textLength="63.4487" x="1079.28" y="833.6854">PostgreSQL</text></g><!--entity RD--><g class="entity" data-qualified-name="RD" data-source-line="39" id="ent0021"><path d="M1234.33,664.065 C1234.33,654.065 1294.0019,654.065 1294.0019,654.065 C1294.0019,654.065 1353.6738,654.065 1353.6738,664.065 L1353.6738,698.6744 C1353.6738,708.6744 1294.0019,708.6744 1294.0019,708.6744 C1294.0019,708.6744 1234.33,708.6744 1234.33,698.6744 L1234.33,664.065" fill="#F1F1F1" style="stroke:#181818;stroke-width:0.5;"/><path d="M1234.33,664.065 C1234.33,674.065 1294.0019,674.065 1294.0019,674.065 C1294.0019,674.065 1353.6738,674.065 1353.6738,664.065" fill="none" style="stroke:#181818;stroke-width:0.5;"/><text fill="#000000" font-family="Helvetica" font-size="11" lengthAdjust="spacing" textLength="30.1802" x="1244.33" y="688.2754">Redis</text><text fill="#000000" font-family="Helvetica" font-size="11" lengthAdjust="spacing" textLength="99.3438" x="1244.33" y="701.0801">(cach&#233; / sesiones)</text></g><!--entity MP--><g class="entity" data-qualified-name="MP" data-source-line="41" id="ent0022"><path d="M183.43,802.0739 C186.1816,796.3796 190.9721,796.6151 194.7514,800.909 C198.9155,795.4398 203.4936,794.5062 207.1718,801.3972 C210.2988,796.1315 213.5474,796.1647 217.7166,800.2178 C220.9867,794.3925 225.1541,793.6655 229.4869,799.1076 C232.5348,792.8469 238.4803,792.5232 242.6102,797.8859 C247.0954,792.6943 251.2346,793.3373 253.968,799.6199 C256.8971,793.4276 262.7499,794.0448 266.1001,799.1685 C270.1506,793.0761 274.6574,794.3912 277.7387,800.1225 C282.1582,794.8311 286.9717,794.3624 290.5195,801.0523 C294.2408,796.0245 298.4078,795.6359 301.9502,801.2446 C311.2414,806.9907 311.7463,814.1113 302.9784,820.8067 C313.6436,828.0087 310.1301,836.195 301.1462,841.6715 C297.1768,847.1978 293.7132,846.73 289.7007,841.7183 C287.201,847.1377 282.5565,848.4829 278.5833,843.2571 C275.89,849.7147 271.6228,851.2103 266.3137,846.0102 C262.1879,851.552 258.4106,852.5554 254.0303,846.2747 C250.8381,853.0615 245.4742,852.1329 241.3263,847.3215 C237.9763,851.3526 234.1428,852.4079 231.2714,846.8211 C226.6816,852.8297 222.7109,851.3297 219.3364,845.5869 C213.8761,851.3617 210.123,850.4491 206.8051,843.4801 C202.2834,849.5855 196.555,848.2001 194.0048,841.5082 C190.8428,846.4811 184.9427,846.8744 182.0219,841.2357 C171.5068,836.4924 172.5746,826.7516 181.005,821.0536 C172.5847,813.8172 173.2445,806.9331 183.43,802.0739" fill="#F1F1F1" style="stroke:#181818;stroke-width:0.5;"/><text fill="#000000" font-family="Helvetica" font-size="11" font-style="italic" lengthAdjust="spacing" textLength="102.7114" x="189.64" y="817.7854">&#171;sistema externo&#187;</text><text fill="#000000" font-family="Helvetica" font-size="11" lengthAdjust="spacing" textLength="77.8647" x="202.0633" y="830.5901">Mercado Pago</text></g><!--entity MS--><g class="entity" data-qualified-name="MS" data-source-line="42" id="ent0023"><path d="M22.1258,795.408 C24.0341,789.4271 29.7359,788.4139 33.8021,793.0306 C38.3336,786.4707 43.234,786.435 47.2365,793.5503 C48.7774,787.2593 54.2757,786.8225 58.378,790.7603 C60.8921,784.4205 66.8158,784.6575 70.6377,789.3004 C74.7734,783.7047 79.2326,784.4359 82.6159,790.1008 C85.5772,784.0618 90.8402,783.7674 94.0914,789.8258 C98.8721,784.6829 102.8871,783.8266 106.8799,790.6666 C111.332,787.6756 115.0379,788.5126 116.7187,793.9151 C121.0012,789.1248 124.7952,788.6693 128.6515,794.3985 C132.6051,788.9758 138.6082,789.2865 141.3333,795.7133 C148.3053,799.38 148.5317,803.5877 142.9833,808.8295 C147.9649,812.5398 149.4598,816.5244 143.1791,820.4249 C149.1471,825.2224 148.7816,830.6692 142.1609,834.56 C147.4548,838.5212 146.7216,844.1166 140.8763,846.9202 C138.4171,852.3379 134.7394,853.5666 130.5894,848.5942 C126.7214,855.7393 122.0386,855.6108 117.5613,849.1788 C114.4613,855.4477 109.8995,856.4447 105.3597,850.633 C103.1714,856.3055 98.777,857.2816 94.376,853.0991 C91.3514,858.8985 85.3445,859.1684 81.4203,854.1795 C78.129,859.6206 72.7842,859.0749 70.137,853.5186 C66.114,858.4071 61.0071,857.9535 58.029,852.3166 C52.9019,856.7464 47.7087,856.8109 45.4205,849.3152 C41.9937,854.1535 36.9969,854.5796 33.6652,849.2057 C29.6938,854.0078 25.4438,853.1233 22.3519,848.1843 C15.1177,844.3426 14.2023,839.8114 20.4779,834.1639 C13.8924,831.2966 12.9207,827.1428 18.7233,822.424 C12.4512,817.507 14.2038,810.8277 21.1981,808.2225 C15.5043,803.97 15.6249,798.7777 22.1258,795.408" fill="#F1F1F1" style="stroke:#181818;stroke-width:0.5;"/><text fill="#000000" font-family="Helvetica" font-size="11" font-style="italic" lengthAdjust="spacing" textLength="102.7114" x="29.64" y="811.3854">&#171;sistema externo&#187;</text><text fill="#000000" font-family="Helvetica" font-size="11" lengthAdjust="spacing" textLength="73.4121" x="44.2897" y="824.1901">Proveedor de</text><text fill="#000000" font-family="Helvetica" font-size="11" lengthAdjust="spacing" textLength="59.8447" x="44.2897" y="836.9948">Mensajer&#237;a</text></g><!--entity OR--><g class="entity" data-qualified-name="OR" data-source-line="43" id="ent0024"><path d="M342.1258,795.408 C344.0341,789.4271 349.7359,788.4139 353.8021,793.0306 C358.3336,786.4707 363.234,786.435 367.2365,793.5503 C368.7774,787.2593 374.2757,786.8225 378.378,790.7603 C380.8921,784.4205 386.8158,784.6575 390.6377,789.3004 C394.7734,783.7047 399.2326,784.4359 402.6159,790.1008 C405.5772,784.0618 410.8402,783.7674 414.0914,789.8258 C418.8721,784.6829 422.8871,783.8266 426.8799,790.6666 C431.332,787.6756 435.0379,788.5126 436.7187,793.9151 C441.0012,789.1248 444.7952,788.6693 448.6515,794.3985 C452.6051,788.9758 458.6082,789.2865 461.3333,795.7133 C468.3053,799.38 468.5317,803.5877 462.9833,808.8295 C467.9649,812.5398 469.4598,816.5244 463.1791,820.4249 C469.1471,825.2224 468.7816,830.6692 462.1609,834.56 C467.4548,838.5212 466.7216,844.1166 460.8763,846.9202 C458.4171,852.3379 454.7394,853.5666 450.5894,848.5942 C446.7214,855.7393 442.0386,855.6108 437.5613,849.1788 C434.4613,855.4477 429.8995,856.4447 425.3597,850.633 C423.1714,856.3055 418.777,857.2816 414.376,853.0991 C411.3514,858.8985 405.3445,859.1684 401.4203,854.1795 C398.129,859.6206 392.7842,859.0749 390.137,853.5186 C386.114,858.4071 381.0071,857.9535 378.029,852.3166 C372.9019,856.7464 367.7087,856.8109 365.4205,849.3152 C361.9937,854.1535 356.9969,854.5796 353.6652,849.2057 C349.6938,854.0078 345.4438,853.1233 342.3519,848.1843 C335.1177,844.3426 334.2023,839.8114 340.4779,834.1639 C333.8924,831.2966 332.9207,827.1428 338.7233,822.424 C332.4512,817.507 334.2038,810.8277 341.1981,808.2225 C335.5043,803.97 335.6249,798.7777 342.1258,795.408" fill="#F1F1F1" style="stroke:#181818;stroke-width:0.5;"/><text fill="#000000" font-family="Helvetica" font-size="11" font-style="italic" lengthAdjust="spacing" textLength="102.7114" x="349.64" y="811.3854">&#171;sistema externo&#187;</text><text fill="#000000" font-family="Helvetica" font-size="11" lengthAdjust="spacing" textLength="60.1079" x="370.9418" y="824.1901">Organismo</text><text fill="#000000" font-family="Helvetica" font-size="11" lengthAdjust="spacing" textLength="56.3965" x="370.9418" y="836.9948">Regulador</text></g><!--link Usuario to SPA--><g class="link" data-entity-1="ent0001" data-entity-2="ent0003" data-link-type="dependency" data-source-line="45" id="lnk25"><path d="M921,130.965 C921,153.255 921,174.985 921,194.495" fill="none" id="Usuario-to-SPA" style="stroke:#090D10;stroke-width:1;"/><polygon fill="#090D10" points="921,199.495,925,190.495,921,194.495,917,190.495,921,199.495" style="stroke:#090D10;stroke-width:1;stroke-linejoin:miter;stroke-miterlimit:10;"/></g><!--link SPA to GW--><g class="link" data-entity-1="ent0003" data-entity-2="ent0005" data-link-type="dependency" data-source-line="46" id="lnk26"><path d="M921,255.775 C921,282.105 921,316.775 921,343.065" fill="none" id="SPA-to-GW" style="stroke:#090D10;stroke-width:1;"/><polygon fill="#090D10" points="921,348.065,925,339.065,921,343.065,917,339.065,921,348.065" style="stroke:#090D10;stroke-width:1;stroke-linejoin:miter;stroke-miterlimit:10;"/><text fill="#090D10" font-family="Helvetica" font-size="10" lengthAdjust="spacing" textLength="44.7217" x="922" y="297.6272">API REST</text></g><!--link GW to Neg--><g class="link" data-entity-1="ent0005" data-entity-2="ent0006" data-link-type="dependency" data-source-line="47" id="lnk27"><path d="M946.98,404.245 C953.88,412.825 960.62,422.755 965,432.955 C966.7775,437.0925 968.3005,441.4422 969.6045,445.892 C969.7675,446.4482 969.9271,447.006 970.0833,447.5651 C970.1614,447.8447 970.2387,448.1246 970.3151,448.4048 C970.3534,448.5449 969.09,463.8262 969.1278,463.9665" fill="none" id="GW-to-Neg" style="stroke:#090D10;stroke-width:1;"/><polygon fill="#090D10" points="970.4292,468.7941,971.9487,459.0632,969.1278,463.9665,964.2245,461.1455,970.4292,468.7941" style="stroke:#090D10;stroke-width:1;stroke-linejoin:miter;stroke-miterlimit:10;"/></g><!--link MUsr to Repo--><g class="link" data-entity-1="ent0007" data-entity-2="ent0019" data-link-type="dependency" data-source-line="49" id="lnk28"><path d="M797.92,544.795 C809.03,558.295 823.87,573.965 840,584.565 C907.98,629.225 994.3921,654.7134 1051.7421,668.1634" fill="none" id="MUsr-to-Repo" style="stroke:#090D10;stroke-width:1;"/><polygon fill="#090D10" points="1056.61,669.305,1048.7611,663.3557,1051.7421,668.1634,1046.9344,671.1444,1056.61,669.305" style="stroke:#090D10;stroke-width:1;stroke-linejoin:miter;stroke-miterlimit:10;"/></g><!--link MCat to Repo--><g class="link" data-entity-1="ent0008" data-entity-2="ent0019" data-link-type="dependency" data-source-line="50" id="lnk29"><path d="M920.2,544.965 C929.65,557.875 941.93,572.975 955,584.565 C985.68,611.765 1020.663,633.4762 1052.173,650.7062" fill="none" id="MCat-to-Repo" style="stroke:#090D10;stroke-width:1;"/><polygon fill="#090D10" points="1056.56,653.105,1050.5825,645.2775,1052.173,650.7062,1046.7444,652.2967,1056.56,653.105" style="stroke:#090D10;stroke-width:1;stroke-linejoin:miter;stroke-miterlimit:10;"/></g><!--link MCon to Repo--><g class="link" data-entity-1="ent0009" data-entity-2="ent0019" data-link-type="dependency" data-source-line="51" id="lnk30"><path d="M527.66,544.855 C540.9,558.885 558.75,575.035 578,584.565 C739.16,664.305 952.001,678.2639 1051.881,680.2839" fill="none" id="MCon-to-Repo" style="stroke:#090D10;stroke-width:1;"/><polygon fill="#090D10" points="1056.88,680.385,1047.9627,676.2038,1051.881,680.2839,1047.801,684.2022,1056.88,680.385" style="stroke:#090D10;stroke-width:1;stroke-linejoin:miter;stroke-miterlimit:10;"/></g><!--link MPag to Repo--><g class="link" data-entity-1="ent0010" data-entity-2="ent0019" data-link-type="dependency" data-source-line="52" id="lnk31"><path d="M249.94,538.365 C257.95,554.065 271.34,574.615 290,584.565 C308.94,594.655 461.82,589.115 483,592.565 C503.55,595.905 507.62,601.335 528,605.565 C720.35,645.435 948.087,667.2334 1051.707,675.7934" fill="none" id="MPag-to-Repo" style="stroke:#090D10;stroke-width:1;"/><polygon fill="#090D10" points="1056.69,676.205,1048.0499,671.4776,1051.707,675.7934,1047.3912,679.4505,1056.69,676.205" style="stroke:#090D10;stroke-width:1;stroke-linejoin:miter;stroke-miterlimit:10;"/></g><!--link MRep to Repo--><g class="link" data-entity-1="ent0011" data-entity-2="ent0019" data-link-type="dependency" data-source-line="53" id="lnk32"><path d="M668.67,544.765 C681.14,558.595 697.89,574.585 716,584.565 C827.25,645.855 972.3649,667.8169 1051.6749,675.7569" fill="none" id="MRep-to-Repo" style="stroke:#090D10;stroke-width:1;"/><polygon fill="#090D10" points="1056.65,676.255,1048.0932,671.3784,1051.6749,675.7569,1047.2963,679.3386,1056.65,676.255" style="stroke:#090D10;stroke-width:1;stroke-linejoin:miter;stroke-miterlimit:10;"/></g><!--link MHab to Repo--><g class="link" data-entity-1="ent0012" data-entity-2="ent0019" data-link-type="dependency" data-source-line="54" id="lnk33"><path d="M376.55,538.605 C389.5,554.205 409.42,574.525 432,584.565 C451.97,593.435 508.35,589.615 530,592.565 C560.49,596.705 567.66,600.455 598,605.565 C764.64,633.625 957.8236,660.1062 1051.6336,672.5762" fill="none" id="MHab-to-Repo" style="stroke:#090D10;stroke-width:1;"/><polygon fill="#090D10" points="1056.59,673.235,1048.1956,668.084,1051.6336,672.5762,1047.1414,676.0142,1056.59,673.235" style="stroke:#090D10;stroke-width:1;stroke-linejoin:miter;stroke-miterlimit:10;"/></g><!--link MNot to Repo--><g class="link" data-entity-1="ent0013" data-entity-2="ent0019" data-link-type="dependency" data-source-line="55" id="lnk34"><path d="M136.62,538.465 C149.6,553.995 169.53,574.275 192,584.565 C201.93,589.105 855.6349,654.8069 1051.6049,674.4269" fill="none" id="MNot-to-Repo" style="stroke:#090D10;stroke-width:1;"/><polygon fill="#090D10" points="1056.58,674.925,1048.0232,670.0483,1051.6049,674.4269,1047.2263,678.0085,1056.58,674.925" style="stroke:#090D10;stroke-width:1;stroke-linejoin:miter;stroke-miterlimit:10;"/></g><!--link MCat to RD--><g class="link" data-entity-1="ent0008" data-entity-2="ent0021" data-link-type="dependency" data-source-line="56" id="lnk35"><path d="M916.56,544.845 C925.67,559.055 938.76,575.385 955,584.565 C976.85,596.915 1155.24,605.485 1179,613.565 C1206.66,622.955 1230.8794,636.6323 1252.5394,650.8423" fill="none" id="MCat-to-RD" style="stroke:#090D10;stroke-width:1;stroke-dasharray:7,7;"/><polygon fill="#090D10" points="1256.72,653.585,1251.389,645.3037,1252.5394,650.8423,1247.0007,651.9927,1256.72,653.585" style="stroke:#090D10;stroke-width:1;stroke-linejoin:miter;stroke-miterlimit:10;"/><text fill="#090D10" font-family="Helvetica" font-size="10" lengthAdjust="spacing" textLength="102.8906" x="1119.88" y="602.8472">cach&#233; de b&#250;squedas</text></g><!--link Repo to PG--><g class="link" data-entity-1="ent0019" data-entity-2="ent0020" data-link-type="dependency" data-source-line="57" id="lnk36"><path d="M1111,709.435 C1111,735.795 1111,770.265 1111,794.045" fill="none" id="Repo-to-PG" style="stroke:#090D10;stroke-width:1;"/><polygon fill="#090D10" points="1111,799.045,1115,790.045,1111,794.045,1107,790.045,1111,799.045" style="stroke:#090D10;stroke-width:1;stroke-linejoin:miter;stroke-miterlimit:10;"/></g><!--link MPag to APag--><g class="link" data-entity-1="ent0010" data-entity-2="ent0015" data-link-type="dependency" data-source-line="60" id="lnk37"><path d="M241,538.355 C241,567.495 241,615.815 241,648.175" fill="none" id="MPag-to-APag" style="stroke:#090D10;stroke-width:1;"/><polygon fill="#090D10" points="241,653.175,245,644.175,241,648.175,237,644.175,241,653.175" style="stroke:#090D10;stroke-width:1;stroke-linejoin:miter;stroke-miterlimit:10;"/></g><!--link MNot to AMsg--><g class="link" data-entity-1="ent0013" data-entity-2="ent0016" data-link-type="dependency" data-source-line="61" id="lnk38"><path d="M120.49,538.355 C119.78,567.495 118.582,615.8165 117.792,648.1765" fill="none" id="MNot-to-AMsg" style="stroke:#090D10;stroke-width:1;"/><polygon fill="#090D10" points="117.67,653.175,121.8885,644.2753,117.792,648.1765,113.8908,644.0801,117.67,653.175" style="stroke:#090D10;stroke-width:1;stroke-linejoin:miter;stroke-miterlimit:10;"/></g><!--link MHab to AHab--><g class="link" data-entity-1="ent0012" data-entity-2="ent0017" data-link-type="dependency" data-source-line="62" id="lnk39"><path d="M362.65,538.355 C364.98,567.495 368.8411,615.8309 371.4311,648.1909" fill="none" id="MHab-to-AHab" style="stroke:#090D10;stroke-width:1;"/><polygon fill="#090D10" points="371.83,653.175,375.0992,643.8846,371.4311,648.1909,367.1247,644.5228,371.83,653.175" style="stroke:#090D10;stroke-width:1;stroke-linejoin:miter;stroke-miterlimit:10;"/></g><!--link APag to MP--><g class="link" data-entity-1="ent0015" data-entity-2="ent0022" data-link-type="dependency" data-source-line="64" id="lnk40"><path d="M241,709.435 C241,733.455 241,763.365 241,787.365" fill="none" id="APag-to-MP" style="stroke:#090D10;stroke-width:1;"/><polygon fill="#090D10" points="241,792.365,245,783.365,241,787.365,237,783.365,241,792.365" style="stroke:#090D10;stroke-width:1;stroke-linejoin:miter;stroke-miterlimit:10;"/></g><!--link AMsg to MS--><g class="link" data-entity-1="ent0016" data-entity-2="ent0023" data-link-type="dependency" data-source-line="65" id="lnk41"><path d="M109.89,709.435 C104.11,731.425 97.2006,757.7091 91.0206,781.2291" fill="none" id="AMsg-to-MS" style="stroke:#090D10;stroke-width:1;"/><polygon fill="#090D10" points="89.75,786.065,95.9058,778.377,91.0206,781.2291,88.1685,776.344,89.75,786.065" style="stroke:#090D10;stroke-width:1;stroke-linejoin:miter;stroke-miterlimit:10;"/></g><!--link AHab to OR--><g class="link" data-entity-1="ent0017" data-entity-2="ent0024" data-link-type="dependency" data-source-line="66" id="lnk42"><path d="M379.33,709.435 C383.67,731.425 388.8323,757.6395 393.4723,781.1595" fill="none" id="AHab-to-OR" style="stroke:#090D10;stroke-width:1;"/><polygon fill="#090D10" points="394.44,786.065,396.6224,776.461,393.4723,781.1595,388.7737,778.0094,394.44,786.065" style="stroke:#090D10;stroke-width:1;stroke-linejoin:miter;stroke-miterlimit:10;"/></g><?plantuml-src VLJDRjj64BxlKqnygOqqifDZ41YWP5TD4Dgir2GN0S68t30RaxlCxZAjKHZ8G-G5SimX9nyAz5YzIP-atoufcM6408B0sVdcxviVhtmbwU73oPh--_Y9NYhdcQhDRQbofd__fgJoqchswWFJz36bHfjAUKErATgABTsdgJLNqj9XrahhZQDhIWfkF1V6IdSan3sbywej94qcn_YTdBoUcRhL-9YSl3vtNbMcUvcejgw4S5TADsovfjpKZT5I-wM_HfBGFXfervnVbTQqkfYPobZobhM32dWXEFTuEfXL2gAaOygGJCnffO-HOAqqAhNXuO3OqGlNibL6Y0PUkPGmvOO9MGT3-E1SRMvrn6Rqbw2xvEXWcILq8V_qatSEV2maWg_qOSFUmeJIbxEZQ0UOkDaJ8Maga1tznnvC0P2wW4lddostJ4SNoJZqBvo_vO9fSRxy7J6Jx2dDsSi_-9gK3fqpNUpvAm73NUXqSmkdQ1R2QrcQN1awZ0PlE9UE0bVh2ksBnXUoZ76_YJm79gPSo9NkwNCHdhvmTeoUiTzyhanfw7gbfvj_tFjM5jp1eViERZIQqvCUJCvZyth_q8uDCYwtMdoEjGlPj0DdgIca7JGqXNviyYkl5GOTA3pqdl4sXbqOhzx4xjt1y0ROpJU4Rtlz51oNVMmwx5Qd8tbghxudURT9AtrNORAdmW4mbThnEsatNpj-azJz2BwdqAGhz6R_jEOO44DCP-pxXCx6Kma-ZSEL22E1gRnSf5sDuJquBT3QDJjupOppfPNBtvvtgpKVw1QoKC4SxBxTVC4EE-bYahspCo7oohG5nbdQ7DLGuAWV0dhon673PSs4pGoBS7gwXMVMV90IrSVP7VELBdzaUsbBnkcepKelP8d5t5wGoyLUCz6l1ZruS1elG3WMuNl-YXvJsDUmkW9IUCIc2H7s9qgHhh0UGydeWOI21nB-1nAQE90mb2EVamcaCoJHyulUhhUBwKJ0HGEqHFn4pt4hwhkZqU0-oR3w5JNnx0-knz7Ff4sdsl6S6vrRwGSPno7UPHLdT9Tnd3-HRA5f9eA--rwAP0kxN8Z_0G00?></g></svg>