<svg xmlns="http://www.w3.org/2000/svg" xmlns:xlink="http://www.w3.org/1999/xlink" contentStyleType="text/css" data-diagram-type="ACTIVITY" height="268px" preserveAspectRatio="none" style="width:944px;height:268px;background:#FAFAFA;" version="1.1" viewBox="0 0 944 268" width="944px" zoomAndPan="magnify"><?plantuml 1.2026.4?><defs/><g><rect fill="#FAFAFA" height="268" style="stroke:none;stroke-width:1;" width="944" x="0" y="0"/><ellipse cx="479.3416" cy="25" fill="#000000" rx="10" ry="10" style="stroke:#222222;stroke-width:1;"/><rect fill="#C9DFEE" height="32.8047" rx="7" ry="7" style="stroke:#000000;stroke-width:0.5;" width="164.6006" x="397.0413" y="55"/><text fill="#000000" font-family="Helvetica" font-size="11" lengthAdjust="spacing" textLength="144.6006" x="407.0413" y="75.2104">Planeamiento de Iteraci&#243;n</text><rect fill="#000000" height="6" rx="2.5" ry="2.5" style="stroke:#000000;stroke-width:1;" width="908.6831" x="16" y="107.8047"/><path d="M168.0527,132.4023 L168.0527,152.6094 L148.0527,156.6094 L168.0527,160.6094 L168.0527,180.8164 A0,0 0 0 0 168.0527,180.8164 L340.3726,180.8164 A0,0 0 0 0 340.3726,180.8164 L340.3726,142.4023 L330.3726,132.4023 L168.0527,132.4023 A0,0 0 0 0 168.0527,132.4023" fill="#FFF8E1" style="stroke:#C9B05E;stroke-width:0.5;"/><path d="M330.3726,132.4023 L330.3726,142.4023 L340.3726,142.4023 L330.3726,132.4023" fill="#FFF8E1" style="stroke:#C9B05E;stroke-width:0.5;"/><text fill="#3A2E0A" font-family="Helvetica" font-size="11" lengthAdjust="spacing" textLength="89.332" x="205.0466" y="147.6128">Se desarrolla en</text><text fill="#3A2E0A" font-family="Helvetica" font-size="11" lengthAdjust="spacing" textLength="151.3198" x="174.0527" y="160.4175">el Meta-Modelo del Proceso</text><text fill="#3A2E0A" font-family="Helvetica" font-size="11" lengthAdjust="spacing" textLength="150.0522" x="174.6865" y="173.2222">de Ingenier&#237;a de Requisitos</text><rect fill="#C9DFEE" height="45.6094" rx="7" ry="7" style="stroke:#000000;stroke-width:0.5;" width="120.0527" x="28" y="133.8047"/><text fill="#000000" font-family="Helvetica" font-size="11" lengthAdjust="spacing" textLength="65.5811" x="55.2358" y="154.0151">Identificar y</text><text fill="#000000" font-family="Helvetica" font-size="11" lengthAdjust="spacing" textLength="100.0527" x="38" y="166.8198">Refinar Requisitos</text><path d="M464.5259,132.4023 L464.5259,152.6094 L444.5259,156.6094 L464.5259,160.6094 L464.5259,180.8164 A0,0 0 0 0 464.5259,180.8164 L590.187,180.8164 A0,0 0 0 0 590.187,180.8164 L590.187,142.4023 L580.187,132.4023 L464.5259,132.4023 A0,0 0 0 0 464.5259,132.4023" fill="#FFF8E1" style="stroke:#C9B05E;stroke-width:0.5;"/><path d="M580.187,132.4023 L580.187,142.4023 L590.187,142.4023 L580.187,132.4023" fill="#FFF8E1" style="stroke:#C9B05E;stroke-width:0.5;"/><text fill="#3A2E0A" font-family="Helvetica" font-size="11" lengthAdjust="spacing" textLength="89.332" x="478.1904" y="147.6128">Se desarrolla en</text><text fill="#3A2E0A" font-family="Helvetica" font-size="11" lengthAdjust="spacing" textLength="104.6611" x="470.5259" y="160.4175">el Meta-Modelo del</text><text fill="#3A2E0A" font-family="Helvetica" font-size="11" lengthAdjust="spacing" textLength="101.6318" x="472.0405" y="173.2222">Proceso de Dise&#241;o</text><rect fill="#C9DFEE" height="45.6094" rx="7" ry="7" style="stroke:#000000;stroke-width:0.5;" width="94.1533" x="350.3726" y="133.8047"/><text fill="#000000" font-family="Helvetica" font-size="11" lengthAdjust="spacing" textLength="74.1533" x="360.3726" y="154.0151">Desarrollar la</text><text fill="#000000" font-family="Helvetica" font-size="11" lengthAdjust="spacing" textLength="68.7339" x="363.0823" y="166.8198">Arquitectura</text><rect fill="#C9DFEE" height="45.6094" rx="7" ry="7" style="stroke:#000000;stroke-width:0.5;" width="133.0938" x="600.187" y="133.8047"/><text fill="#000000" font-family="Helvetica" font-size="11" lengthAdjust="spacing" textLength="111.1279" x="611.1699" y="154.0151">Configurar y Refinar</text><text fill="#000000" font-family="Helvetica" font-size="11" lengthAdjust="spacing" textLength="113.0938" x="610.187" y="166.8198">Memoria Persistente</text><rect fill="#C9DFEE" height="45.6094" rx="7" ry="7" style="stroke:#000000;stroke-width:0.5;" width="169.4023" x="743.2808" y="133.8047"/><text fill="#000000" font-family="Helvetica" font-size="11" lengthAdjust="spacing" textLength="149.4023" x="753.2808" y="154.0151">Desarrollar documentaci&#243;n</text><text fill="#000000" font-family="Helvetica" font-size="11" lengthAdjust="spacing" textLength="68.9058" x="793.5291" y="166.8198">del proyecto</text><rect fill="#000000" height="6" rx="2.5" ry="2.5" style="stroke:#000000;stroke-width:1;" width="908.6831" x="16" y="200.8164"/><ellipse cx="479.3416" cy="237.8164" fill="none" rx="11" ry="11" style="stroke:#222222;stroke-width:1;"/><ellipse cx="479.3416" cy="237.8164" fill="#222222" rx="6" ry="6" style="stroke:#222222;stroke-width:1;"/><line style="stroke:#090D10;stroke-width:1;" x1="479.3416" x2="479.3416" y1="35" y2="55"/><polygon fill="#090D10" points="475.3416,45,479.3416,55,483.3416,45,479.3416,49" style="stroke:#090D10;stroke-width:1;stroke-linejoin:miter;stroke-miterlimit:10;"/><line style="stroke:#090D10;stroke-width:1;" x1="88.0264" x2="88.0264" y1="113.8047" y2="133.8047"/><polygon fill="#090D10" points="84.0264,123.8047,88.0264,133.8047,92.0264,123.8047,88.0264,127.8047" style="stroke:#090D10;stroke-width:1;stroke-linejoin:miter;stroke-miterlimit:10;"/><line style="stroke:#090D10;stroke-width:1;" x1="397.4492" x2="397.4492" y1="113.8047" y2="133.8047"/><polygon fill="#090D10" points="393.4492,123.8047,397.4492,133.8047,401.4492,123.8047,397.4492,127.8047" style="stroke:#090D10;stroke-width:1;stroke-linejoin:miter;stroke-miterlimit:10;"/><line style="stroke:#090D10;stroke-width:1;" x1="666.7339" x2="666.7339" y1="113.8047" y2="133.8047"/><polygon fill="#090D10" points="662.7339,123.8047,666.7339,133.8047,670.7339,123.8047,666.7339,127.8047" style="stroke:#090D10;stroke-width:1;stroke-linejoin:miter;stroke-miterlimit:10;"/><line style="stroke:#090D10;stroke-width:1;" x1="827.9819" x2="827.9819" y1="113.8047" y2="133.8047"/><polygon fill="#090D10" points="823.9819,123.8047,827.9819,133.8047,831.9819,123.8047,827.9819,127.8047" style="stroke:#090D10;stroke-width:1;stroke-linejoin:miter;stroke-miterlimit:10;"/><line style="stroke:#090D10;stroke-width:1;" x1="88.0264" x2="88.0264" y1="179.4141" y2="200.8164"/><polygon fill="#090D10" points="84.0264,190.8164,88.0264,200.8164,92.0264,190.8164,88.0264,194.8164" style="stroke:#090D10;stroke-width:1;stroke-linejoin:miter;stroke-miterlimit:10;"/><line style="stroke:#090D10;stroke-width:1;" x1="397.4492" x2="397.4492" y1="179.4141" y2="200.8164"/><polygon fill="#090D10" points="393.4492,190.8164,397.4492,200.8164,401.4492,190.8164,397.4492,194.8164" style="stroke:#090D10;stroke-width:1;stroke-linejoin:miter;stroke-miterlimit:10;"/><line style="stroke:#090D10;stroke-width:1;" x1="666.7339" x2="666.7339" y1="179.4141" y2="200.8164"/><polygon fill="#090D10" points="662.7339,190.8164,666.7339,200.8164,670.7339,190.8164,666.7339,194.8164" style="stroke:#090D10;stroke-width:1;stroke-linejoin:miter;stroke-miterlimit:10;"/><line style="stroke:#090D10;stroke-width:1;" x1="827.9819" x2="827.9819" y1="179.4141" y2="200.8164"/><polygon fill="#090D10" points="823.9819,190.8164,827.9819,200.8164,831.9819,190.8164,827.9819,194.8164" style="stroke:#090D10;stroke-width:1;stroke-linejoin:miter;stroke-miterlimit:10;"/><line style="stroke:#090D10;stroke-width:1;" x1="479.3416" x2="479.3416" y1="87.8047" y2="107.8047"/><polygon fill="#090D10" points="475.3416,97.8047,479.3416,107.8047,483.3416,97.8047,479.3416,101.8047" style="stroke:#090D10;stroke-width:1;stroke-linejoin:miter;stroke-miterlimit:10;"/><line style="stroke:#090D10;stroke-width:1;" x1="479.3416" x2="479.3416" y1="206.8164" y2="226.8164"/><polygon fill="#090D10" points="475.3416,216.8164,479.3416,226.8164,483.3416,216.8164,479.3416,220.8164" style="stroke:#090D10;stroke-width:1;stroke-linejoin:miter;stroke-miterlimit:10;"/><?plantuml-src fP71IWD138RlynJnvCcrvwu8gwrGiBQq7XTAsCskmTcaPcOFVIWFuYFqnPnjIyM383WCJCWaVxua5ooLxsk2BBjETpJQt6lNIpAoqMOQ8dizUZBkE--SkuI7OZs5wMDnjrWLpxF5atCXeaKtNdeKmev9eaAId4Koh7Z_ARbhr5uTf3E-gT8_sUsiJYytNA71hfGLDIp9ND5Rpu6ZXlmGBne9ZDkNUCvSKr8FQARU8v2KGXxc5F5ghZNveRQ7fMb5GKiPGAGbORBzEmvStoKEM80jilo4cvpr3JoMKbXAYLJ5tl1VNAMSm0QG2GVQV-Yl5FSg3RUfP9eGd0PKofmwDKPOaWKESGZD_zH8hLNV9VTn9yDaF6nDTwajpHr9VLXIYBfrNm00?></g></svg>