<svg xmlns="http://www.w3.org/2000/svg" xmlns:xlink="http://www.w3.org/1999/xlink" contentStyleType="text/css" data-diagram-type="ACTIVITY" height="488px" preserveAspectRatio="none" style="width:1008px;height:488px;background:#FAFAFA;" version="1.1" viewBox="0 0 1008 488" width="1008px" zoomAndPan="magnify"><?plantuml 1.2026.4?><defs/><g><rect fill="#FAFAFA" height="488" style="stroke:none;stroke-width:1;" width="1008" x="0" y="0"/><ellipse cx="511.2946" cy="25" fill="#000000" rx="10" ry="10" style="stroke:#222222;stroke-width:1;"/><rect fill="#C9DFEE" height="32.8047" rx="7" ry="7" style="stroke:#000000;stroke-width:0.5;" width="164.6006" x="428.9943" y="55"/><text fill="#000000" font-family="Helvetica" font-size="11" lengthAdjust="spacing" textLength="144.6006" x="438.9943" y="75.2104">Planeamiento de Iteraci&#243;n</text><rect fill="#000000" height="6" rx="2.5" ry="2.5" style="stroke:#000000;stroke-width:1;" width="972.5891" x="16" y="107.8047"/><path d="M168.0527,237.8008 L168.0527,258.0078 L148.0527,262.0078 L168.0527,266.0078 L168.0527,286.2148 A0,0 0 0 0 168.0527,286.2148 L340.3726,286.2148 A0,0 0 0 0 340.3726,286.2148 L340.3726,247.8008 L330.3726,237.8008 L168.0527,237.8008 A0,0 0 0 0 168.0527,237.8008" fill="#FFF8E1" style="stroke:#C9B05E;stroke-width:0.5;"/><path d="M330.3726,237.8008 L330.3726,247.8008 L340.3726,247.8008 L330.3726,237.8008" fill="#FFF8E1" style="stroke:#C9B05E;stroke-width:0.5;"/><text fill="#3A2E0A" font-family="Helvetica" font-size="11" lengthAdjust="spacing" textLength="89.332" x="205.0466" y="253.0112">Se desarrolla en</text><text fill="#3A2E0A" font-family="Helvetica" font-size="11" lengthAdjust="spacing" textLength="151.3198" x="174.0527" y="265.8159">el Meta-Modelo del Proceso</text><text fill="#3A2E0A" font-family="Helvetica" font-size="11" lengthAdjust="spacing" textLength="150.0522" x="174.6865" y="278.6206">de Ingenier&#237;a de Requisitos</text><rect fill="#C9DFEE" height="45.6094" rx="7" ry="7" style="stroke:#000000;stroke-width:0.5;" width="120.0527" x="28" y="239.2031"/><text fill="#000000" font-family="Helvetica" font-size="11" lengthAdjust="spacing" textLength="65.5811" x="55.2358" y="259.4136">Identificar y</text><text fill="#000000" font-family="Helvetica" font-size="11" lengthAdjust="spacing" textLength="100.0527" x="38" y="272.2183">Refinar Requisitos</text><path d="M357.3726,123.8047 L497.9429,123.8047 A10.5,10.5 0 0 1 504.9429,130.8047 L511.9429,143.7734 L647.093,143.7734 A7,7 0 0 1 654.093,150.7734 L654.093,393.2109 A7,7 0 0 1 647.093,400.2109 L357.3726,400.2109 A7,7 0 0 1 350.3726,393.2109 L350.3726,130.8047 A7,7 0 0 1 357.3726,123.8047" fill="#FFFFFF" style="stroke:#C9C9BE;stroke-width:1.5;"/><line style="stroke:#C9C9BE;stroke-width:1.5;" x1="350.3726" x2="511.9429" y1="143.7734" y2="143.7734"/><text fill="#4A4A48" font-family="Helvetica" font-size="12" font-weight="700" lengthAdjust="spacing" textLength="148.5703" x="354.3726" y="136.9434">Proceso de Desarrollo</text><rect fill="#C9DFEE" height="45.6094" rx="7" ry="7" style="stroke:#000000;stroke-width:0.5;" width="90.2754" x="379.1311" y="157.7734"/><text fill="#000000" font-family="Helvetica" font-size="11" lengthAdjust="spacing" textLength="55.9023" x="396.3176" y="177.9839">Comenzar</text><text fill="#000000" font-family="Helvetica" font-size="11" lengthAdjust="spacing" textLength="70.2754" x="389.1311" y="190.7886">nuevo Sprint</text><rect fill="#C9DFEE" height="45.6094" rx="7" ry="7" style="stroke:#000000;stroke-width:0.5;" width="127.7925" x="360.3726" y="238.3828"/><text fill="#000000" font-family="Helvetica" font-size="11" lengthAdjust="spacing" textLength="107.7925" x="370.3726" y="258.5933">Asignar Work Items</text><text fill="#000000" font-family="Helvetica" font-size="11" lengthAdjust="spacing" textLength="58.4429" x="395.0474" y="271.3979">a iteraci&#243;n</text><path d="M502.8611,318.9922 L502.8611,345.6016 L482.8611,349.6016 L502.8611,353.6016 L502.8611,380.2109 A0,0 0 0 0 502.8611,380.2109 L644.093,380.2109 A0,0 0 0 0 644.093,380.2109 L644.093,328.9922 L634.093,318.9922 L502.8611,318.9922 A0,0 0 0 0 502.8611,318.9922" fill="#FFF8E1" style="stroke:#C9B05E;stroke-width:0.5;"/><path d="M634.093,318.9922 L634.093,328.9922 L644.093,328.9922 L634.093,318.9922" fill="#FFF8E1" style="stroke:#C9B05E;stroke-width:0.5;"/><text fill="#3A2E0A" font-family="Helvetica" font-size="11" lengthAdjust="spacing" textLength="89.332" x="524.311" y="334.2026">Se desarrolla en</text><text fill="#3A2E0A" font-family="Helvetica" font-size="11" lengthAdjust="spacing" textLength="104.6611" x="516.6465" y="347.0073">el Meta-Modelo del</text><text fill="#3A2E0A" font-family="Helvetica" font-size="11" lengthAdjust="spacing" textLength="120.2319" x="508.8611" y="359.812">Proceso de Desarrollo</text><text fill="#3A2E0A" font-family="Helvetica" font-size="11" lengthAdjust="spacing" textLength="50.0747" x="543.9397" y="372.6167">de Sprint</text><rect fill="#C9DFEE" height="32.8047" rx="7" ry="7" style="stroke:#000000;stroke-width:0.5;" width="117.1846" x="365.6765" y="333.1992"/><text fill="#000000" font-family="Helvetica" font-size="11" lengthAdjust="spacing" textLength="97.1846" x="375.6765" y="353.4097">Desarrollar Sprint</text><rect fill="#C9DFEE" height="45.6094" rx="7" ry="7" style="stroke:#000000;stroke-width:0.5;" width="133.0938" x="664.093" y="239.2031"/><text fill="#000000" font-family="Helvetica" font-size="11" lengthAdjust="spacing" textLength="111.1279" x="675.0759" y="259.4136">Configurar y Refinar</text><text fill="#000000" font-family="Helvetica" font-size="11" lengthAdjust="spacing" textLength="113.0938" x="674.093" y="272.2183">Memoria Persistente</text><rect fill="#C9DFEE" height="45.6094" rx="7" ry="7" style="stroke:#000000;stroke-width:0.5;" width="169.4023" x="807.1868" y="239.2031"/><text fill="#000000" font-family="Helvetica" font-size="11" lengthAdjust="spacing" textLength="149.4023" x="817.1868" y="259.4136">Desarrollar documentaci&#243;n</text><text fill="#000000" font-family="Helvetica" font-size="11" lengthAdjust="spacing" textLength="68.9058" x="857.4351" y="272.2183">del proyecto</text><rect fill="#000000" height="6" rx="2.5" ry="2.5" style="stroke:#000000;stroke-width:1;" width="972.5891" x="16" y="420.2109"/><ellipse cx="511.2946" cy="457.2109" fill="none" rx="11" ry="11" style="stroke:#222222;stroke-width:1;"/><ellipse cx="511.2946" cy="457.2109" fill="#222222" rx="6" ry="6" style="stroke:#222222;stroke-width:1;"/><line style="stroke:#090D10;stroke-width:1;" x1="511.2946" x2="511.2946" y1="35" y2="55"/><polygon fill="#090D10" points="507.2946,45,511.2946,55,515.2946,45,511.2946,49" style="stroke:#090D10;stroke-width:1;stroke-linejoin:miter;stroke-miterlimit:10;"/><line style="stroke:#090D10;stroke-width:1;" x1="424.2688" x2="424.2688" y1="203.3828" y2="238.3828"/><polygon fill="#090D10" points="420.2688,228.3828,424.2688,238.3828,428.2688,228.3828,424.2688,232.3828" style="stroke:#090D10;stroke-width:1;stroke-linejoin:miter;stroke-miterlimit:10;"/><line style="stroke:#090D10;stroke-width:1;" x1="424.2688" x2="424.2688" y1="283.9922" y2="333.1992"/><polygon fill="#090D10" points="420.2688,323.1992,424.2688,333.1992,428.2688,323.1992,424.2688,327.1992" style="stroke:#090D10;stroke-width:1;stroke-linejoin:miter;stroke-miterlimit:10;"/><line style="stroke:#090D10;stroke-width:1;" x1="88.0264" x2="88.0264" y1="113.8047" y2="239.2031"/><polygon fill="#090D10" points="84.0264,229.2031,88.0264,239.2031,92.0264,229.2031,88.0264,233.2031" style="stroke:#090D10;stroke-width:1;stroke-linejoin:miter;stroke-miterlimit:10;"/><line style="stroke:#090D10;stroke-width:1;" x1="424.2688" x2="424.2688" y1="113.8047" y2="157.7734"/><polygon fill="#090D10" points="420.2688,147.7734,424.2688,157.7734,428.2688,147.7734,424.2688,151.7734" style="stroke:#090D10;stroke-width:1;stroke-linejoin:miter;stroke-miterlimit:10;"/><line style="stroke:#090D10;stroke-width:1;" x1="730.6399" x2="730.6399" y1="113.8047" y2="239.2031"/><polygon fill="#090D10" points="726.6399,229.2031,730.6399,239.2031,734.6399,229.2031,730.6399,233.2031" style="stroke:#090D10;stroke-width:1;stroke-linejoin:miter;stroke-miterlimit:10;"/><line style="stroke:#090D10;stroke-width:1;" x1="891.8879" x2="891.8879" y1="113.8047" y2="239.2031"/><polygon fill="#090D10" points="887.8879,229.2031,891.8879,239.2031,895.8879,229.2031,891.8879,233.2031" style="stroke:#090D10;stroke-width:1;stroke-linejoin:miter;stroke-miterlimit:10;"/><line style="stroke:#090D10;stroke-width:1;" x1="88.0264" x2="88.0264" y1="284.8125" y2="420.2109"/><polygon fill="#090D10" points="84.0264,410.2109,88.0264,420.2109,92.0264,410.2109,88.0264,414.2109" style="stroke:#090D10;stroke-width:1;stroke-linejoin:miter;stroke-miterlimit:10;"/><line style="stroke:#090D10;stroke-width:1;" x1="424.2688" x2="424.2688" y1="366.0039" y2="420.2109"/><polygon fill="#090D10" points="420.2688,410.2109,424.2688,420.2109,428.2688,410.2109,424.2688,414.2109" style="stroke:#090D10;stroke-width:1;stroke-linejoin:miter;stroke-miterlimit:10;"/><line style="stroke:#090D10;stroke-width:1;" x1="730.6399" x2="730.6399" y1="284.8125" y2="420.2109"/><polygon fill="#090D10" points="726.6399,410.2109,730.6399,420.2109,734.6399,410.2109,730.6399,414.2109" style="stroke:#090D10;stroke-width:1;stroke-linejoin:miter;stroke-miterlimit:10;"/><line style="stroke:#090D10;stroke-width:1;" x1="891.8879" x2="891.8879" y1="284.8125" y2="420.2109"/><polygon fill="#090D10" points="887.8879,410.2109,891.8879,420.2109,895.8879,410.2109,891.8879,414.2109" style="stroke:#090D10;stroke-width:1;stroke-linejoin:miter;stroke-miterlimit:10;"/><line style="stroke:#090D10;stroke-width:1;" x1="511.2946" x2="511.2946" y1="87.8047" y2="107.8047"/><polygon fill="#090D10" points="507.2946,97.8047,511.2946,107.8047,515.2946,97.8047,511.2946,101.8047" style="stroke:#090D10;stroke-width:1;stroke-linejoin:miter;stroke-miterlimit:10;"/><line style="stroke:#090D10;stroke-width:1;" x1="511.2946" x2="511.2946" y1="426.2109" y2="446.2109"/><polygon fill="#090D10" points="507.2946,436.2109,511.2946,446.2109,515.2946,436.2109,511.2946,440.2109" style="stroke:#090D10;stroke-width:1;stroke-linejoin:miter;stroke-miterlimit:10;"/><?plantuml-src dLBDIiD04BxlKumdJyQU6n5AhT13VsWgNW9bIIPnw6Qcxcw4AZwI9n-XB-PkgpKLlHW2MRBVV7-xPyI5QKk49BaCRw-t6ahJSbWalTN8UJ9o-9DGsnXr3hU3R0J3sJHRBkw6o_5igfpNrgl-t6X6tH2o5mY4OuzM5xHxvrHLOjSAmjE_Ai8-skjn6RvKKQ4jR7DUO4KSbWjyRCcH5vVkyImUmLBzu8-J6GPsfwqLOpGWvum69kZrnKHAD57RmDnAWKvoZaQuHYQqkpSTVNrBx6s1hZMnskXYhMly6ep0coyLWPTJyw4Gv6TjS-OMdmIoZINswIbeuAYEaUwZI2YZSJbhe4uh9_2ZMXZfylspWPn_JR8lv42lNhlvV-JZYkhMnhE1pwF9UOADMD8mH-l8-GXD_wJenYcbQ4DX_f0xMZ2miRB5makgaClzzN1UDke3?></g></svg>