<svg xmlns="http://www.w3.org/2000/svg" xmlns:xlink="http://www.w3.org/1999/xlink" contentStyleType="text/css" data-diagram-type="ACTIVITY" height="333px" preserveAspectRatio="none" style="width:664px;height:333px;background:#FAFAFA;" version="1.1" viewBox="0 0 664 333" width="664px" zoomAndPan="magnify"><?plantuml 1.2026.4?><defs/><g><rect fill="#FAFAFA" height="333" style="stroke:none;stroke-width:1;" width="664" x="0" y="0"/><ellipse cx="330.3564" cy="25" fill="#000000" rx="10" ry="10" style="stroke:#222222;stroke-width:1;"/><rect fill="#000000" height="6" rx="2.5" ry="2.5" style="stroke:#000000;stroke-width:1;" width="439.0718" x="110.8206" y="55"/><rect fill="#C9DFEE" height="45.6094" rx="7" ry="7" style="stroke:#000000;stroke-width:0.5;" width="132.0303" x="124.8206" y="81"/><text fill="#000000" font-family="Helvetica" font-size="11" lengthAdjust="spacing" textLength="112.0303" x="134.8206" y="101.2104">Generar Documento</text><text fill="#000000" font-family="Helvetica" font-size="11" lengthAdjust="spacing" textLength="50.3164" x="165.6775" y="114.0151">de Visi&#243;n</text><rect fill="#C9DFEE" height="45.6094" rx="7" ry="7" style="stroke:#000000;stroke-width:0.5;" width="113.4033" x="284.8508" y="81"/><text fill="#000000" font-family="Helvetica" font-size="11" lengthAdjust="spacing" textLength="93.4033" x="294.8508" y="101.2104">Generar Glosario</text><text fill="#000000" font-family="Helvetica" font-size="11" lengthAdjust="spacing" textLength="62.9761" x="310.0645" y="114.0151">de Dominio</text><rect fill="#C9DFEE" height="45.6094" rx="7" ry="7" style="stroke:#000000;stroke-width:0.5;" width="109.6382" x="426.2542" y="81"/><text fill="#000000" font-family="Helvetica" font-size="11" lengthAdjust="spacing" textLength="74.2822" x="443.9321" y="101.2104">Generar Lista</text><text fill="#000000" font-family="Helvetica" font-size="11" lengthAdjust="spacing" textLength="89.6382" x="436.2542" y="114.0151">de Riesgo inicial</text><rect fill="#000000" height="6" rx="2.5" ry="2.5" style="stroke:#000000;stroke-width:1;" width="439.0718" x="110.8206" y="146.6094"/><rect fill="#000000" height="6" rx="2.5" ry="2.5" style="stroke:#000000;stroke-width:1;" width="628.7129" x="16" y="172.6094"/><path d="M168.0527,197.207 L168.0527,217.4141 L148.0527,221.4141 L168.0527,225.4141 L168.0527,245.6211 A0,0 0 0 0 168.0527,245.6211 L340.3726,245.6211 A0,0 0 0 0 340.3726,245.6211 L340.3726,207.207 L330.3726,197.207 L168.0527,197.207 A0,0 0 0 0 168.0527,197.207" fill="#FFF8E1" style="stroke:#C9B05E;stroke-width:0.5;"/><path d="M330.3726,197.207 L330.3726,207.207 L340.3726,207.207 L330.3726,197.207" fill="#FFF8E1" style="stroke:#C9B05E;stroke-width:0.5;"/><text fill="#3A2E0A" font-family="Helvetica" font-size="11" lengthAdjust="spacing" textLength="89.332" x="205.0466" y="212.4175">Se desarrolla en</text><text fill="#3A2E0A" font-family="Helvetica" font-size="11" lengthAdjust="spacing" textLength="151.3198" x="174.0527" y="225.2222">el Meta-Modelo del Proceso</text><text fill="#3A2E0A" font-family="Helvetica" font-size="11" lengthAdjust="spacing" textLength="150.0522" x="174.6865" y="238.0269">de Ingenier&#237;a de Requisitos</text><rect fill="#C9DFEE" height="45.6094" rx="7" ry="7" style="stroke:#000000;stroke-width:0.5;" width="120.0527" x="28" y="198.6094"/><text fill="#000000" font-family="Helvetica" font-size="11" lengthAdjust="spacing" textLength="65.5811" x="55.2358" y="218.8198">Identificar y</text><text fill="#000000" font-family="Helvetica" font-size="11" lengthAdjust="spacing" textLength="100.0527" x="38" y="231.6245">Refinar Requisitos</text><rect fill="#C9DFEE" height="45.6094" rx="7" ry="7" style="stroke:#000000;stroke-width:0.5;" width="133.0938" x="368.3726" y="198.6094"/><text fill="#000000" font-family="Helvetica" font-size="11" lengthAdjust="spacing" textLength="111.1279" x="379.3555" y="218.8198">Configurar y Refinar</text><text fill="#000000" font-family="Helvetica" font-size="11" lengthAdjust="spacing" textLength="113.0938" x="378.3726" y="231.6245">Memoria Persistente</text><rect fill="#C9DFEE" height="45.6094" rx="7" ry="7" style="stroke:#000000;stroke-width:0.5;" width="103.2466" x="529.4663" y="198.6094"/><text fill="#000000" font-family="Helvetica" font-size="11" lengthAdjust="spacing" textLength="62.2295" x="549.9749" y="218.8198">Crear Work</text><text fill="#000000" font-family="Helvetica" font-size="11" lengthAdjust="spacing" textLength="83.2466" x="539.4663" y="231.6245">Item List inicial</text><rect fill="#000000" height="6" rx="2.5" ry="2.5" style="stroke:#000000;stroke-width:1;" width="628.7129" x="16" y="265.6211"/><ellipse cx="330.3564" cy="302.6211" fill="none" rx="11" ry="11" style="stroke:#222222;stroke-width:1;"/><ellipse cx="330.3564" cy="302.6211" fill="#222222" rx="6" ry="6" style="stroke:#222222;stroke-width:1;"/><line style="stroke:#090D10;stroke-width:1;" x1="190.8357" x2="190.8357" y1="61" y2="81"/><polygon fill="#090D10" points="186.8357,71,190.8357,81,194.8357,71,190.8357,75" style="stroke:#090D10;stroke-width:1;stroke-linejoin:miter;stroke-miterlimit:10;"/><line style="stroke:#090D10;stroke-width:1;" x1="341.5525" x2="341.5525" y1="61" y2="81"/><polygon fill="#090D10" points="337.5525,71,341.5525,81,345.5525,71,341.5525,75" style="stroke:#090D10;stroke-width:1;stroke-linejoin:miter;stroke-miterlimit:10;"/><line style="stroke:#090D10;stroke-width:1;" x1="481.0732" x2="481.0732" y1="61" y2="81"/><polygon fill="#090D10" points="477.0732,71,481.0732,81,485.0732,71,481.0732,75" style="stroke:#090D10;stroke-width:1;stroke-linejoin:miter;stroke-miterlimit:10;"/><line style="stroke:#090D10;stroke-width:1;" x1="190.8357" x2="190.8357" y1="126.6094" y2="146.6094"/><polygon fill="#090D10" points="186.8357,136.6094,190.8357,146.6094,194.8357,136.6094,190.8357,140.6094" style="stroke:#090D10;stroke-width:1;stroke-linejoin:miter;stroke-miterlimit:10;"/><line style="stroke:#090D10;stroke-width:1;" x1="341.5525" x2="341.5525" y1="126.6094" y2="146.6094"/><polygon fill="#090D10" points="337.5525,136.6094,341.5525,146.6094,345.5525,136.6094,341.5525,140.6094" style="stroke:#090D10;stroke-width:1;stroke-linejoin:miter;stroke-miterlimit:10;"/><line style="stroke:#090D10;stroke-width:1;" x1="481.0732" x2="481.0732" y1="126.6094" y2="146.6094"/><polygon fill="#090D10" points="477.0732,136.6094,481.0732,146.6094,485.0732,136.6094,481.0732,140.6094" style="stroke:#090D10;stroke-width:1;stroke-linejoin:miter;stroke-miterlimit:10;"/><line style="stroke:#090D10;stroke-width:1;" x1="330.3564" x2="330.3564" y1="35" y2="55"/><polygon fill="#090D10" points="326.3564,45,330.3564,55,334.3564,45,330.3564,49" style="stroke:#090D10;stroke-width:1;stroke-linejoin:miter;stroke-miterlimit:10;"/><line style="stroke:#090D10;stroke-width:1;" x1="88.0264" x2="88.0264" y1="178.6094" y2="198.6094"/><polygon fill="#090D10" points="84.0264,188.6094,88.0264,198.6094,92.0264,188.6094,88.0264,192.6094" style="stroke:#090D10;stroke-width:1;stroke-linejoin:miter;stroke-miterlimit:10;"/><line style="stroke:#090D10;stroke-width:1;" x1="434.9194" x2="434.9194" y1="178.6094" y2="198.6094"/><polygon fill="#090D10" points="430.9194,188.6094,434.9194,198.6094,438.9194,188.6094,434.9194,192.6094" style="stroke:#090D10;stroke-width:1;stroke-linejoin:miter;stroke-miterlimit:10;"/><line style="stroke:#090D10;stroke-width:1;" x1="581.0896" x2="581.0896" y1="178.6094" y2="198.6094"/><polygon fill="#090D10" points="577.0896,188.6094,581.0896,198.6094,585.0896,188.6094,581.0896,192.6094" style="stroke:#090D10;stroke-width:1;stroke-linejoin:miter;stroke-miterlimit:10;"/><line style="stroke:#090D10;stroke-width:1;" x1="88.0264" x2="88.0264" y1="244.2188" y2="265.6211"/><polygon fill="#090D10" points="84.0264,255.6211,88.0264,265.6211,92.0264,255.6211,88.0264,259.6211" style="stroke:#090D10;stroke-width:1;stroke-linejoin:miter;stroke-miterlimit:10;"/><line style="stroke:#090D10;stroke-width:1;" x1="434.9194" x2="434.9194" y1="244.2188" y2="265.6211"/><polygon fill="#090D10" points="430.9194,255.6211,434.9194,265.6211,438.9194,255.6211,434.9194,259.6211" style="stroke:#090D10;stroke-width:1;stroke-linejoin:miter;stroke-miterlimit:10;"/><line style="stroke:#090D10;stroke-width:1;" x1="581.0896" x2="581.0896" y1="244.2188" y2="265.6211"/><polygon fill="#090D10" points="577.0896,255.6211,581.0896,265.6211,585.0896,255.6211,581.0896,259.6211" style="stroke:#090D10;stroke-width:1;stroke-linejoin:miter;stroke-miterlimit:10;"/><line style="stroke:#090D10;stroke-width:1;" x1="330.3564" x2="330.3564" y1="152.6094" y2="172.6094"/><polygon fill="#090D10" points="326.3564,162.6094,330.3564,172.6094,334.3564,162.6094,330.3564,166.6094" style="stroke:#090D10;stroke-width:1;stroke-linejoin:miter;stroke-miterlimit:10;"/><line style="stroke:#090D10;stroke-width:1;" x1="330.3564" x2="330.3564" y1="271.6211" y2="291.6211"/><polygon fill="#090D10" points="326.3564,281.6211,330.3564,291.6211,334.3564,281.6211,330.3564,285.6211" style="stroke:#090D10;stroke-width:1;stroke-linejoin:miter;stroke-miterlimit:10;"/><?plantuml-src VP31IiH038RlVOhu0DQUhNZPbQLWOQcWby8oj6atE4qqCptiGtdo4VR5J5ifBgB3m8GaV-RxSqNS-B55IDCRkrbssCWmiWLfTdW8aRmicPJ6mIT9Y4vZqec-9hTt3N94lTyXepg5hJJZO2cfsGO-Kw3p9-TpCxZU4V-MxBm4fxGejZ8Ga_olU2H3cDihmj0BcAGXv_C4kOKPRC43EwkwQEsbZXgRSAgvmexOmWhVHyEC4lAvdoKYAFN7k2gV45eqHXNl7I3NZ1vAZEwwb1QzMDN3NgN1iBWek4ScrFE7Wubo_UAdhGkuZN17_JYvEy4tMiqb3gBaO8yQpFFKclyzGj7KBrQjkOWup6kwMCsyan3bxGi0?></g></svg>