<svg xmlns="http://www.w3.org/2000/svg" xmlns:xlink="http://www.w3.org/1999/xlink" contentStyleType="text/css" data-diagram-type="ACTIVITY" height="334px" preserveAspectRatio="none" style="width:641px;height:334px;background:#FAFAFA;" version="1.1" viewBox="0 0 641 334" width="641px" zoomAndPan="magnify"><?plantuml 1.2026.4?><defs/><g><rect fill="#FAFAFA" height="334" style="stroke:none;stroke-width:1;" width="641" x="0" y="0"/><ellipse cx="327.9045" cy="25" fill="#000000" rx="10" ry="10" style="stroke:#222222;stroke-width:1;"/><rect fill="#C9DFEE" height="32.8047" rx="7" ry="7" style="stroke:#000000;stroke-width:0.5;" width="164.6006" x="245.6042" y="55"/><text fill="#000000" font-family="Helvetica" font-size="11" lengthAdjust="spacing" textLength="144.6006" x="255.6042" y="75.2104">Planeamiento de Iteraci&#243;n</text><rect fill="#000000" height="6" rx="2.5" ry="2.5" style="stroke:#000000;stroke-width:1;" width="605.8091" x="16" y="107.8047"/><path d="M159.3086,132.4023 L159.3086,152.6094 L139.3086,156.6094 L159.3086,160.6094 L159.3086,180.8164 A0,0 0 0 0 159.3086,180.8164 L308.6079,180.8164 A0,0 0 0 0 308.6079,180.8164 L308.6079,142.4023 L298.6079,132.4023 L159.3086,132.4023 A0,0 0 0 0 159.3086,132.4023" fill="#FFF8E1" style="stroke:#C9B05E;stroke-width:0.5;"/><path d="M298.6079,132.4023 L298.6079,142.4023 L308.6079,142.4023 L298.6079,132.4023" fill="#FFF8E1" style="stroke:#C9B05E;stroke-width:0.5;"/><text fill="#3A2E0A" font-family="Helvetica" font-size="11" lengthAdjust="spacing" textLength="89.332" x="184.7922" y="147.6128">Se desarrolla en</text><text fill="#3A2E0A" font-family="Helvetica" font-size="11" lengthAdjust="spacing" textLength="104.6611" x="177.1277" y="160.4175">el Meta-Modelo del</text><text fill="#3A2E0A" font-family="Helvetica" font-size="11" lengthAdjust="spacing" textLength="128.2993" x="165.3086" y="173.2222">Proceso de Verificaci&#243;n</text><rect fill="#C9DFEE" height="45.6094" rx="7" ry="7" style="stroke:#000000;stroke-width:0.5;" width="111.3086" x="28" y="133.8047"/><text fill="#000000" font-family="Helvetica" font-size="11" lengthAdjust="spacing" textLength="91.3086" x="38" y="154.0151">Realizar proceso</text><text fill="#000000" font-family="Helvetica" font-size="11" lengthAdjust="spacing" textLength="80.6255" x="43.3416" y="166.8198">de verificaci&#243;n</text><rect fill="#C9DFEE" height="45.6094" rx="7" ry="7" style="stroke:#000000;stroke-width:0.5;" width="154.7876" x="336.6079" y="133.8047"/><text fill="#000000" font-family="Helvetica" font-size="11" lengthAdjust="spacing" textLength="134.7876" x="346.6079" y="154.0151">Finalizar documentaci&#243;n</text><text fill="#000000" font-family="Helvetica" font-size="11" lengthAdjust="spacing" textLength="68.9058" x="379.5488" y="166.8198">del proyecto</text><rect fill="#C9DFEE" height="45.6094" rx="7" ry="7" style="stroke:#000000;stroke-width:0.5;" width="108.4136" x="501.3955" y="133.8047"/><text fill="#000000" font-family="Helvetica" font-size="11" lengthAdjust="spacing" textLength="88.4136" x="511.3955" y="154.0151">Prepararse para</text><text fill="#000000" font-family="Helvetica" font-size="11" lengthAdjust="spacing" textLength="73.3853" x="518.9097" y="166.8198">el despliegue</text><rect fill="#000000" height="6" rx="2.5" ry="2.5" style="stroke:#000000;stroke-width:1;" width="605.8091" x="16" y="200.8164"/><rect fill="#C9DFEE" height="45.6094" rx="7" ry="7" style="stroke:#000000;stroke-width:0.5;" width="76.0205" x="289.8943" y="226.8164"/><text fill="#000000" font-family="Helvetica" font-size="11" lengthAdjust="spacing" textLength="56.0205" x="299.8943" y="247.0269">Desplegar</text><text fill="#000000" font-family="Helvetica" font-size="11" lengthAdjust="spacing" textLength="40.2886" x="307.7603" y="259.8315">versi&#243;n</text><ellipse cx="327.9045" cy="303.4258" fill="none" rx="11" ry="11" style="stroke:#222222;stroke-width:1;"/><ellipse cx="327.9045" cy="303.4258" fill="#222222" rx="6" ry="6" style="stroke:#222222;stroke-width:1;"/><line style="stroke:#090D10;stroke-width:1;" x1="327.9045" x2="327.9045" y1="35" y2="55"/><polygon fill="#090D10" points="323.9045,45,327.9045,55,331.9045,45,327.9045,49" style="stroke:#090D10;stroke-width:1;stroke-linejoin:miter;stroke-miterlimit:10;"/><line style="stroke:#090D10;stroke-width:1;" x1="83.6543" x2="83.6543" y1="113.8047" y2="133.8047"/><polygon fill="#090D10" points="79.6543,123.8047,83.6543,133.8047,87.6543,123.8047,83.6543,127.8047" style="stroke:#090D10;stroke-width:1;stroke-linejoin:miter;stroke-miterlimit:10;"/><line style="stroke:#090D10;stroke-width:1;" x1="414.0017" x2="414.0017" y1="113.8047" y2="133.8047"/><polygon fill="#090D10" points="410.0017,123.8047,414.0017,133.8047,418.0017,123.8047,414.0017,127.8047" style="stroke:#090D10;stroke-width:1;stroke-linejoin:miter;stroke-miterlimit:10;"/><line style="stroke:#090D10;stroke-width:1;" x1="555.6023" x2="555.6023" y1="113.8047" y2="133.8047"/><polygon fill="#090D10" points="551.6023,123.8047,555.6023,133.8047,559.6023,123.8047,555.6023,127.8047" style="stroke:#090D10;stroke-width:1;stroke-linejoin:miter;stroke-miterlimit:10;"/><line style="stroke:#090D10;stroke-width:1;" x1="83.6543" x2="83.6543" y1="179.4141" y2="200.8164"/><polygon fill="#090D10" points="79.6543,190.8164,83.6543,200.8164,87.6543,190.8164,83.6543,194.8164" style="stroke:#090D10;stroke-width:1;stroke-linejoin:miter;stroke-miterlimit:10;"/><line style="stroke:#090D10;stroke-width:1;" x1="414.0017" x2="414.0017" y1="179.4141" y2="200.8164"/><polygon fill="#090D10" points="410.0017,190.8164,414.0017,200.8164,418.0017,190.8164,414.0017,194.8164" style="stroke:#090D10;stroke-width:1;stroke-linejoin:miter;stroke-miterlimit:10;"/><line style="stroke:#090D10;stroke-width:1;" x1="555.6023" x2="555.6023" y1="179.4141" y2="200.8164"/><polygon fill="#090D10" points="551.6023,190.8164,555.6023,200.8164,559.6023,190.8164,555.6023,194.8164" style="stroke:#090D10;stroke-width:1;stroke-linejoin:miter;stroke-miterlimit:10;"/><line style="stroke:#090D10;stroke-width:1;" x1="327.9045" x2="327.9045" y1="87.8047" y2="107.8047"/><polygon fill="#090D10" points="323.9045,97.8047,327.9045,107.8047,331.9045,97.8047,327.9045,101.8047" style="stroke:#090D10;stroke-width:1;stroke-linejoin:miter;stroke-miterlimit:10;"/><line style="stroke:#090D10;stroke-width:1;" x1="327.9045" x2="327.9045" y1="206.8164" y2="226.8164"/><polygon fill="#090D10" points="323.9045,216.8164,327.9045,226.8164,331.9045,216.8164,327.9045,220.8164" style="stroke:#090D10;stroke-width:1;stroke-linejoin:miter;stroke-miterlimit:10;"/><line style="stroke:#090D10;stroke-width:1;" x1="327.9045" x2="327.9045" y1="272.4258" y2="292.4258"/><polygon fill="#090D10" points="323.9045,282.4258,327.9045,292.4258,331.9045,282.4258,327.9045,286.4258" style="stroke:#090D10;stroke-width:1;stroke-linejoin:miter;stroke-miterlimit:10;"/><?plantuml-src TP31IWCn48RlUOfuykIwvrQ4eYtqqBfqYwU5CcIdsy7ip3B92lfQFe8lPjBLeWT38666xyytkI9sVcpH5iLjscLvU91-v7GfoiCoHF8oLGeQUs-CkRQhHRsq-zrYMw_twwUj2H4qcbdbWH5wGevYK-0weeAZpm-UcwFeYx5fpUvSwgFUxn0ylOFQGSLXa8OJyefAHt8_L0PO8bgbxXGlQ8qfFe2gU0yMkM7qTeCHRZRIei-F-uQhAJURFF-EFRjOw83uhz6A-5kf5JVsgJW1sSndpJTqKUR_yfNY00eQqERpR9Ky1q_OZJWtoEtv6ox0OsvY1zfm6ZnCCuSemnS0?></g></svg>