<svg xmlns="http://www.w3.org/2000/svg" xmlns:xlink="http://www.w3.org/1999/xlink" contentStyleType="text/css" data-diagram-type="ACTIVITY" height="741px" preserveAspectRatio="none" style="width:359px;height:741px;background:#FAFAFA;" version="1.1" viewBox="0 0 359 741" width="359px" zoomAndPan="magnify"><?plantuml 1.2026.4?><defs/><g><rect fill="#FAFAFA" height="741" style="stroke:none;stroke-width:1;" width="359" x="0" y="0"/><ellipse cx="243.1252" cy="25" fill="#000000" rx="10" ry="10" style="stroke:#222222;stroke-width:1;"/><path d="M52.8125,91.1953 L52.8125,139.6094 A0,0 0 0 0 52.8125,139.6094 L175.4175,139.6094 A0,0 0 0 0 175.4175,139.6094 L175.4175,119.4023 L195.4175,115.4023 L175.4175,111.4023 L175.4175,101.1953 L165.4175,91.1953 L52.8125,91.1953 A0,0 0 0 0 52.8125,91.1953" fill="#FFF8E1" style="stroke:#C9B05E;stroke-width:0.5;"/><path d="M165.4175,91.1953 L165.4175,101.1953 L175.4175,101.1953 L165.4175,91.1953" fill="#FFF8E1" style="stroke:#C9B05E;stroke-width:0.5;"/><text fill="#3A2E0A" font-family="Helvetica" font-size="11" lengthAdjust="spacing" textLength="89.332" x="64.949" y="106.4058">Se desarrolla en</text><text fill="#3A2E0A" font-family="Helvetica" font-size="11" lengthAdjust="spacing" textLength="101.605" x="58.8125" y="119.2104">el Meta-Modelo de</text><text fill="#3A2E0A" font-family="Helvetica" font-size="11" lengthAdjust="spacing" textLength="75.4155" x="71.9072" y="132.0151">Fase de Inicio</text><rect fill="#C9DFEE" height="32.8047" rx="7" ry="7" style="stroke:#000000;stroke-width:0.5;" width="95.4155" x="195.4175" y="99"/><text fill="#000000" font-family="Helvetica" font-size="11" lengthAdjust="spacing" textLength="75.4155" x="205.4175" y="119.2104">Fase de Inicio</text><polygon fill="#D9C2E3" points="243.1252,55,255.1252,67,243.1252,79,231.1252,67,243.1252,55" style="stroke:#000000;stroke-width:0.5;stroke-linejoin:miter;stroke-miterlimit:10;"/><polygon fill="#D9C2E3" points="191.1653,159.6094,295.0852,159.6094,307.0852,172.4141,295.0852,185.2188,191.1653,185.2188,179.1653,172.4141,191.1653,159.6094" style="stroke:#000000;stroke-width:0.5;stroke-linejoin:miter;stroke-miterlimit:10;"/><text fill="#090D10" font-family="Helvetica" font-size="10" lengthAdjust="spacing" textLength="9.126" x="247.1252" y="194.501">Si</text><text fill="#000000" font-family="Helvetica" font-size="11" lengthAdjust="spacing" textLength="103.9199" x="191.1653" y="169.8198">&#191;Se cumplieron los</text><text fill="#000000" font-family="Helvetica" font-size="11" lengthAdjust="spacing" textLength="89.7886" x="198.231" y="182.6245">hitos de la fase?</text><text fill="#090D10" font-family="Helvetica" font-size="10" lengthAdjust="spacing" textLength="13.5986" x="307.0852" y="170.0557">No</text><path d="M25.8684,252.1963 L25.8684,300.6104 A0,0 0 0 0 25.8684,300.6104 L157.7063,300.6104 A0,0 0 0 0 157.7063,300.6104 L157.7063,280.4033 L177.7063,276.4033 L157.7063,272.4033 L157.7063,262.1963 L147.7063,252.1963 L25.8684,252.1963 A0,0 0 0 0 25.8684,252.1963" fill="#FFF8E1" style="stroke:#C9B05E;stroke-width:0.5;"/><path d="M147.7063,252.1963 L147.7063,262.1963 L157.7063,262.1963 L147.7063,252.1963" fill="#FFF8E1" style="stroke:#C9B05E;stroke-width:0.5;"/><text fill="#3A2E0A" font-family="Helvetica" font-size="11" lengthAdjust="spacing" textLength="89.332" x="42.6213" y="267.4067">Se desarrolla en</text><text fill="#3A2E0A" font-family="Helvetica" font-size="11" lengthAdjust="spacing" textLength="101.605" x="36.4849" y="280.2114">el Meta-Modelo de</text><text fill="#3A2E0A" font-family="Helvetica" font-size="11" lengthAdjust="spacing" textLength="110.8379" x="31.8684" y="293.0161">Fase de Elaboraci&#243;n</text><rect fill="#C9DFEE" height="32.8047" rx="7" ry="7" style="stroke:#000000;stroke-width:0.5;" width="130.8379" x="177.7063" y="260.001"/><text fill="#000000" font-family="Helvetica" font-size="11" lengthAdjust="spacing" textLength="110.8379" x="187.7063" y="280.2114">Fase de Elaboraci&#243;n</text><polygon fill="#D9C2E3" points="243.1252,216.001,255.1252,228.001,243.1252,240.001,231.1252,228.001,243.1252,216.001" style="stroke:#000000;stroke-width:0.5;stroke-linejoin:miter;stroke-miterlimit:10;"/><polygon fill="#D9C2E3" points="191.1653,320.6104,295.0852,320.6104,307.0852,333.415,295.0852,346.2197,191.1653,346.2197,179.1653,333.415,191.1653,320.6104" style="stroke:#000000;stroke-width:0.5;stroke-linejoin:miter;stroke-miterlimit:10;"/><text fill="#090D10" font-family="Helvetica" font-size="10" lengthAdjust="spacing" textLength="9.126" x="247.1252" y="355.502">Si</text><text fill="#000000" font-family="Helvetica" font-size="11" lengthAdjust="spacing" textLength="103.9199" x="191.1653" y="330.8208">&#191;Se cumplieron los</text><text fill="#000000" font-family="Helvetica" font-size="11" lengthAdjust="spacing" textLength="89.7886" x="198.231" y="343.6255">hitos de la fase?</text><text fill="#090D10" font-family="Helvetica" font-size="10" lengthAdjust="spacing" textLength="13.5986" x="307.0852" y="331.0566">No</text><path d="M15,413.1973 L15,461.6113 A0,0 0 0 0 15,461.6113 L154.0835,461.6113 A0,0 0 0 0 154.0835,461.6113 L154.0835,441.4043 L174.0835,437.4043 L154.0835,433.4043 L154.0835,423.1973 L144.0835,413.1973 L15,413.1973 A0,0 0 0 0 15,413.1973" fill="#FFF8E1" style="stroke:#C9B05E;stroke-width:0.5;"/><path d="M144.0835,413.1973 L144.0835,423.1973 L154.0835,423.1973 L144.0835,413.1973" fill="#FFF8E1" style="stroke:#C9B05E;stroke-width:0.5;"/><text fill="#3A2E0A" font-family="Helvetica" font-size="11" lengthAdjust="spacing" textLength="89.332" x="35.3757" y="428.4077">Se desarrolla en</text><text fill="#3A2E0A" font-family="Helvetica" font-size="11" lengthAdjust="spacing" textLength="101.605" x="29.2393" y="441.2124">el Meta-Modelo de</text><text fill="#3A2E0A" font-family="Helvetica" font-size="11" lengthAdjust="spacing" textLength="118.0835" x="21" y="454.0171">Fase de Construcci&#243;n</text><rect fill="#C9DFEE" height="32.8047" rx="7" ry="7" style="stroke:#000000;stroke-width:0.5;" width="138.0835" x="174.0835" y="421.002"/><text fill="#000000" font-family="Helvetica" font-size="11" lengthAdjust="spacing" textLength="118.0835" x="184.0835" y="441.2124">Fase de Construcci&#243;n</text><polygon fill="#D9C2E3" points="243.1252,377.002,255.1252,389.002,243.1252,401.002,231.1252,389.002,243.1252,377.002" style="stroke:#000000;stroke-width:0.5;stroke-linejoin:miter;stroke-miterlimit:10;"/><polygon fill="#D9C2E3" points="191.1653,481.6113,295.0852,481.6113,307.0852,494.416,295.0852,507.2207,191.1653,507.2207,179.1653,494.416,191.1653,481.6113" style="stroke:#000000;stroke-width:0.5;stroke-linejoin:miter;stroke-miterlimit:10;"/><text fill="#090D10" font-family="Helvetica" font-size="10" lengthAdjust="spacing" textLength="9.126" x="247.1252" y="516.5029">Si</text><text fill="#000000" font-family="Helvetica" font-size="11" lengthAdjust="spacing" textLength="103.9199" x="191.1653" y="491.8218">&#191;Se cumplieron los</text><text fill="#000000" font-family="Helvetica" font-size="11" lengthAdjust="spacing" textLength="89.7886" x="198.231" y="504.6265">hitos de la fase?</text><text fill="#090D10" font-family="Helvetica" font-size="10" lengthAdjust="spacing" textLength="13.5986" x="307.0852" y="492.0576">No</text><path d="M37.8406,574.1982 L37.8406,622.6123 A0,0 0 0 0 37.8406,622.6123 L161.697,622.6123 A0,0 0 0 0 161.697,622.6123 L161.697,602.4053 L181.697,598.4053 L161.697,594.4053 L161.697,584.1982 L151.697,574.1982 L37.8406,574.1982 A0,0 0 0 0 37.8406,574.1982" fill="#FFF8E1" style="stroke:#C9B05E;stroke-width:0.5;"/><path d="M151.697,574.1982 L151.697,584.1982 L161.697,584.1982 L151.697,574.1982" fill="#FFF8E1" style="stroke:#C9B05E;stroke-width:0.5;"/><text fill="#3A2E0A" font-family="Helvetica" font-size="11" lengthAdjust="spacing" textLength="89.332" x="50.6028" y="589.4087">Se desarrolla en</text><text fill="#3A2E0A" font-family="Helvetica" font-size="11" lengthAdjust="spacing" textLength="101.605" x="44.4663" y="602.2134">el Meta-Modelo de</text><text fill="#3A2E0A" font-family="Helvetica" font-size="11" lengthAdjust="spacing" textLength="102.8564" x="43.8406" y="615.0181">Fase de Transici&#243;n</text><rect fill="#C9DFEE" height="32.8047" rx="7" ry="7" style="stroke:#000000;stroke-width:0.5;" width="122.8564" x="181.697" y="582.0029"/><text fill="#000000" font-family="Helvetica" font-size="11" lengthAdjust="spacing" textLength="102.8564" x="191.697" y="602.2134">Fase de Transici&#243;n</text><polygon fill="#D9C2E3" points="243.1252,538.0029,255.1252,550.0029,243.1252,562.0029,231.1252,550.0029,243.1252,538.0029" style="stroke:#000000;stroke-width:0.5;stroke-linejoin:miter;stroke-miterlimit:10;"/><polygon fill="#D9C2E3" points="191.1653,642.6123,295.0852,642.6123,307.0852,655.417,295.0852,668.2217,191.1653,668.2217,179.1653,655.417,191.1653,642.6123" style="stroke:#000000;stroke-width:0.5;stroke-linejoin:miter;stroke-miterlimit:10;"/><text fill="#090D10" font-family="Helvetica" font-size="10" lengthAdjust="spacing" textLength="9.126" x="247.1252" y="677.5039">Si</text><text fill="#000000" font-family="Helvetica" font-size="11" lengthAdjust="spacing" textLength="103.9199" x="191.1653" y="652.8228">&#191;Se cumplieron los</text><text fill="#000000" font-family="Helvetica" font-size="11" lengthAdjust="spacing" textLength="89.7886" x="198.231" y="665.6274">hitos de la fase?</text><text fill="#090D10" font-family="Helvetica" font-size="10" lengthAdjust="spacing" textLength="13.5986" x="307.0852" y="653.0586">No</text><ellipse cx="243.1252" cy="710.0039" fill="none" rx="11" ry="11" style="stroke:#222222;stroke-width:1;"/><ellipse cx="243.1252" cy="710.0039" fill="#222222" rx="6" ry="6" style="stroke:#222222;stroke-width:1;"/><line style="stroke:#090D10;stroke-width:1;" x1="243.1252" x2="243.1252" y1="79" y2="99"/><polygon fill="#090D10" points="239.1252,89,243.1252,99,247.1252,89,243.1252,93" style="stroke:#090D10;stroke-width:1;stroke-linejoin:miter;stroke-miterlimit:10;"/><line style="stroke:#090D10;stroke-width:1;" x1="307.0852" x2="319.0852" y1="172.4141" y2="172.4141"/><polygon fill="#090D10" points="315.0852,125.8047,319.0852,115.8047,323.0852,125.8047,319.0852,121.8047" style="stroke:#090D10;stroke-width:1;stroke-linejoin:miter;stroke-miterlimit:10;"/><line style="stroke:#090D10;stroke-width:1;" x1="319.0852" x2="319.0852" y1="67" y2="172.4141"/><line style="stroke:#090D10;stroke-width:1;" x1="319.0852" x2="255.1252" y1="67" y2="67"/><polygon fill="#090D10" points="265.1252,63,255.1252,67,265.1252,71,261.1252,67" style="stroke:#090D10;stroke-width:1;stroke-linejoin:miter;stroke-miterlimit:10;"/><line style="stroke:#090D10;stroke-width:1;" x1="243.1252" x2="243.1252" y1="131.8047" y2="159.6094"/><polygon fill="#090D10" points="239.1252,149.6094,243.1252,159.6094,247.1252,149.6094,243.1252,153.6094" style="stroke:#090D10;stroke-width:1;stroke-linejoin:miter;stroke-miterlimit:10;"/><line style="stroke:#090D10;stroke-width:1;" x1="243.1252" x2="243.1252" y1="35" y2="55"/><polygon fill="#090D10" points="239.1252,45,243.1252,55,247.1252,45,243.1252,49" style="stroke:#090D10;stroke-width:1;stroke-linejoin:miter;stroke-miterlimit:10;"/><line style="stroke:#090D10;stroke-width:1;" x1="243.1252" x2="243.1252" y1="240.001" y2="260.001"/><polygon fill="#090D10" points="239.1252,250.001,243.1252,260.001,247.1252,250.001,243.1252,254.001" style="stroke:#090D10;stroke-width:1;stroke-linejoin:miter;stroke-miterlimit:10;"/><line style="stroke:#090D10;stroke-width:1;" x1="307.0852" x2="320.5442" y1="333.415" y2="333.415"/><polygon fill="#090D10" points="316.5442,286.8057,320.5442,276.8057,324.5442,286.8057,320.5442,282.8057" style="stroke:#090D10;stroke-width:1;stroke-linejoin:miter;stroke-miterlimit:10;"/><line style="stroke:#090D10;stroke-width:1;" x1="320.5442" x2="320.5442" y1="228.001" y2="333.415"/><line style="stroke:#090D10;stroke-width:1;" x1="320.5442" x2="255.1252" y1="228.001" y2="228.001"/><polygon fill="#090D10" points="265.1252,224.001,255.1252,228.001,265.1252,232.001,261.1252,228.001" style="stroke:#090D10;stroke-width:1;stroke-linejoin:miter;stroke-miterlimit:10;"/><line style="stroke:#090D10;stroke-width:1;" x1="243.1252" x2="243.1252" y1="292.8057" y2="320.6104"/><polygon fill="#090D10" points="239.1252,310.6104,243.1252,320.6104,247.1252,310.6104,243.1252,314.6104" style="stroke:#090D10;stroke-width:1;stroke-linejoin:miter;stroke-miterlimit:10;"/><line style="stroke:#090D10;stroke-width:1;" x1="243.1252" x2="243.1252" y1="185.2188" y2="216.001"/><polygon fill="#090D10" points="239.1252,206.001,243.1252,216.001,247.1252,206.001,243.1252,210.001" style="stroke:#090D10;stroke-width:1;stroke-linejoin:miter;stroke-miterlimit:10;"/><line style="stroke:#090D10;stroke-width:1;" x1="243.1252" x2="243.1252" y1="401.002" y2="421.002"/><polygon fill="#090D10" points="239.1252,411.002,243.1252,421.002,247.1252,411.002,243.1252,415.002" style="stroke:#090D10;stroke-width:1;stroke-linejoin:miter;stroke-miterlimit:10;"/><line style="stroke:#090D10;stroke-width:1;" x1="307.0852" x2="324.167" y1="494.416" y2="494.416"/><polygon fill="#090D10" points="320.167,447.8066,324.167,437.8066,328.167,447.8066,324.167,443.8066" style="stroke:#090D10;stroke-width:1;stroke-linejoin:miter;stroke-miterlimit:10;"/><line style="stroke:#090D10;stroke-width:1;" x1="324.167" x2="324.167" y1="389.002" y2="494.416"/><line style="stroke:#090D10;stroke-width:1;" x1="324.167" x2="255.1252" y1="389.002" y2="389.002"/><polygon fill="#090D10" points="265.1252,385.002,255.1252,389.002,265.1252,393.002,261.1252,389.002" style="stroke:#090D10;stroke-width:1;stroke-linejoin:miter;stroke-miterlimit:10;"/><line style="stroke:#090D10;stroke-width:1;" x1="243.1252" x2="243.1252" y1="453.8066" y2="481.6113"/><polygon fill="#090D10" points="239.1252,471.6113,243.1252,481.6113,247.1252,471.6113,243.1252,475.6113" style="stroke:#090D10;stroke-width:1;stroke-linejoin:miter;stroke-miterlimit:10;"/><line style="stroke:#090D10;stroke-width:1;" x1="243.1252" x2="243.1252" y1="346.2197" y2="377.002"/><polygon fill="#090D10" points="239.1252,367.002,243.1252,377.002,247.1252,367.002,243.1252,371.002" style="stroke:#090D10;stroke-width:1;stroke-linejoin:miter;stroke-miterlimit:10;"/><line style="stroke:#090D10;stroke-width:1;" x1="243.1252" x2="243.1252" y1="562.0029" y2="582.0029"/><polygon fill="#090D10" points="239.1252,572.0029,243.1252,582.0029,247.1252,572.0029,243.1252,576.0029" style="stroke:#090D10;stroke-width:1;stroke-linejoin:miter;stroke-miterlimit:10;"/><line style="stroke:#090D10;stroke-width:1;" x1="307.0852" x2="319.0852" y1="655.417" y2="655.417"/><polygon fill="#090D10" points="315.0852,608.8076,319.0852,598.8076,323.0852,608.8076,319.0852,604.8076" style="stroke:#090D10;stroke-width:1;stroke-linejoin:miter;stroke-miterlimit:10;"/><line style="stroke:#090D10;stroke-width:1;" x1="319.0852" x2="319.0852" y1="550.0029" y2="655.417"/><line style="stroke:#090D10;stroke-width:1;" x1="319.0852" x2="255.1252" y1="550.0029" y2="550.0029"/><polygon fill="#090D10" points="265.1252,546.0029,255.1252,550.0029,265.1252,554.0029,261.1252,550.0029" style="stroke:#090D10;stroke-width:1;stroke-linejoin:miter;stroke-miterlimit:10;"/><line style="stroke:#090D10;stroke-width:1;" x1="243.1252" x2="243.1252" y1="614.8076" y2="642.6123"/><polygon fill="#090D10" points="239.1252,632.6123,243.1252,642.6123,247.1252,632.6123,243.1252,636.6123" style="stroke:#090D10;stroke-width:1;stroke-linejoin:miter;stroke-miterlimit:10;"/><line style="stroke:#090D10;stroke-width:1;" x1="243.1252" x2="243.1252" y1="507.2207" y2="538.0029"/><polygon fill="#090D10" points="239.1252,528.0029,243.1252,538.0029,247.1252,528.0029,243.1252,532.0029" style="stroke:#090D10;stroke-width:1;stroke-linejoin:miter;stroke-miterlimit:10;"/><line style="stroke:#090D10;stroke-width:1;" x1="243.1252" x2="243.1252" y1="668.2217" y2="699.0039"/><polygon fill="#090D10" points="239.1252,689.0039,243.1252,699.0039,247.1252,689.0039,243.1252,693.0039" style="stroke:#090D10;stroke-width:1;stroke-linejoin:miter;stroke-miterlimit:10;"/><?plantuml-src nO_1IWD138RlynJnvXvSzrn53wM2XtgfnuKoJbCQo2RB98iFvWC8-cBELgKjU5pfC8VXd-HBlWkInCC6eQwlossQzLoxGSgZRjOBSsBzJceQEWx1F6OF6NkC7g2SsKCqX09u54gaD_jGr14OjmwpsuJYcEzMOv75d9Kv0aehoB14ZrTBtI1h-MtbbFKp1bvtn0YNlwIFzy9AGzSpOLO1LcjbHwusjXRujb3kAo0xz3nfDIvr25PKXJyr5XnVDCT4dsyoZSmnyInASnNpFAG9dKwGPv5wpb6C9bGw0kvv_onbhdtu0W00?></g></svg>