<svg xmlns="http://www.w3.org/2000/svg" xmlns:xlink="http://www.w3.org/1999/xlink" contentStyleType="text/css" data-diagram-type="ACTIVITY" height="1007px" preserveAspectRatio="none" style="width:477px;height:1007px;background:#FAFAFA;" version="1.1" viewBox="0 0 477 1007" width="477px" zoomAndPan="magnify"><?plantuml 1.2026.4?><defs/><g><rect fill="#FAFAFA" height="1007" style="stroke:none;stroke-width:1;" width="477" x="0" y="0"/><ellipse cx="236.6431" cy="25" fill="#000000" rx="10" ry="10" style="stroke:#222222;stroke-width:1;"/><rect fill="#C9DFEE" height="45.6094" rx="7" ry="7" style="stroke:#000000;stroke-width:0.5;" width="115.686" x="178.8" y="99"/><text fill="#000000" font-family="Helvetica" font-size="11" lengthAdjust="spacing" textLength="95.686" x="188.8" y="119.2104">Seleccionar Work</text><text fill="#000000" font-family="Helvetica" font-size="11" lengthAdjust="spacing" textLength="83.7676" x="194.7593" y="132.0151">Item Pendiente</text><rect fill="#C9DFEE" height="45.6094" rx="7" ry="7" style="stroke:#000000;stroke-width:0.5;" width="139.6465" x="166.8198" y="164.6094"/><text fill="#000000" font-family="Helvetica" font-size="11" lengthAdjust="spacing" textLength="96.1855" x="188.5503" y="184.8198">Dividir Work Item</text><text fill="#000000" font-family="Helvetica" font-size="11" lengthAdjust="spacing" textLength="119.6465" x="176.8198" y="197.6245">en Micro-incrementos</text><path d="M48.6829,272.8164 L48.6829,321.2305 A0,0 0 0 0 48.6829,321.2305 L171.2878,321.2305 A0,0 0 0 0 171.2878,321.2305 L171.2878,301.0234 L191.2878,297.0234 L171.2878,293.0234 L171.2878,282.8164 L161.2878,272.8164 L48.6829,272.8164 A0,0 0 0 0 48.6829,272.8164" fill="#FFF8E1" style="stroke:#C9B05E;stroke-width:0.5;"/><path d="M161.2878,272.8164 L161.2878,282.8164 L171.2878,282.8164 L161.2878,272.8164" fill="#FFF8E1" style="stroke:#C9B05E;stroke-width:0.5;"/><text fill="#3A2E0A" font-family="Helvetica" font-size="11" lengthAdjust="spacing" textLength="89.332" x="60.8193" y="288.0269">Se desarrolla en</text><text fill="#3A2E0A" font-family="Helvetica" font-size="11" lengthAdjust="spacing" textLength="101.605" x="54.6829" y="300.8315">el Meta-Modelo de</text><text fill="#3A2E0A" font-family="Helvetica" font-size="11" lengthAdjust="spacing" textLength="70.7104" x="70.1301" y="313.6362">Pipeline SDD</text><rect fill="#C9DFEE" height="45.6094" rx="7" ry="7" style="stroke:#000000;stroke-width:0.5;" width="90.7104" x="191.2878" y="274.2188"/><text fill="#000000" font-family="Helvetica" font-size="11" lengthAdjust="spacing" textLength="45.3696" x="213.9583" y="294.4292">Ejecutar</text><text fill="#000000" font-family="Helvetica" font-size="11" lengthAdjust="spacing" textLength="70.7104" x="201.2878" y="307.2339">Pipeline SDD</text><rect fill="#C9DFEE" height="45.6094" rx="7" ry="7" style="stroke:#000000;stroke-width:0.5;" width="202.8267" x="135.2297" y="341.2305"/><text fill="#000000" font-family="Helvetica" font-size="11" lengthAdjust="spacing" textLength="182.8267" x="145.2297" y="361.4409">Integraci&#243;n del Micro-incremento</text><text fill="#000000" font-family="Helvetica" font-size="11" lengthAdjust="spacing" textLength="140.3521" x="166.467" y="374.2456">al producto de Work Item</text><rect fill="#C9DFEE" height="45.6094" rx="7" ry="7" style="stroke:#000000;stroke-width:0.5;" width="101.6406" x="185.8228" y="406.8398"/><text fill="#000000" font-family="Helvetica" font-size="11" lengthAdjust="spacing" textLength="81.6406" x="195.8228" y="427.0503">Verificaci&#243;n de</text><text fill="#000000" font-family="Helvetica" font-size="11" lengthAdjust="spacing" textLength="75.4531" x="198.9165" y="439.855">la integraci&#243;n</text><polygon fill="#D9C2E3" points="236.6431,230.2188,248.6431,242.2188,236.6431,254.2188,224.6431,242.2188,236.6431,230.2188" style="stroke:#000000;stroke-width:0.5;stroke-linejoin:miter;stroke-miterlimit:10;"/><polygon fill="#D9C2E3" points="182.5186,472.4492,290.7676,472.4492,302.7676,485.2539,290.7676,498.0586,182.5186,498.0586,170.5186,485.2539,182.5186,472.4492" style="stroke:#000000;stroke-width:0.5;stroke-linejoin:miter;stroke-miterlimit:10;"/><text fill="#090D10" font-family="Helvetica" font-size="10" lengthAdjust="spacing" textLength="13.5986" x="240.6431" y="507.3408">No</text><text fill="#000000" font-family="Helvetica" font-size="11" lengthAdjust="spacing" textLength="108.249" x="182.5186" y="482.6597">&#191;Micro-incrementos</text><text fill="#000000" font-family="Helvetica" font-size="11" lengthAdjust="spacing" textLength="67.1494" x="203.0684" y="495.4644">pendientes?</text><text fill="#090D10" font-family="Helvetica" font-size="10" lengthAdjust="spacing" textLength="9.126" x="302.7676" y="482.8955">Si</text><rect fill="#C9DFEE" height="45.6094" rx="7" ry="7" style="stroke:#000000;stroke-width:0.5;" width="163.1826" x="155.0518" y="528.8408"/><text fill="#000000" font-family="Helvetica" font-size="11" lengthAdjust="spacing" textLength="143.1826" x="165.0518" y="549.0513">Integraci&#243;n del Work Item</text><text fill="#000000" font-family="Helvetica" font-size="11" lengthAdjust="spacing" textLength="119.2007" x="177.0427" y="561.856">al producto del Sprint</text><rect fill="#C9DFEE" height="45.6094" rx="7" ry="7" style="stroke:#000000;stroke-width:0.5;" width="101.6406" x="185.8228" y="594.4502"/><text fill="#000000" font-family="Helvetica" font-size="11" lengthAdjust="spacing" textLength="81.6406" x="195.8228" y="614.6606">Verificaci&#243;n de</text><text fill="#000000" font-family="Helvetica" font-size="11" lengthAdjust="spacing" textLength="75.4531" x="198.9165" y="627.4653">la integraci&#243;n</text><polygon fill="#D9C2E3" points="236.6431,55,248.6431,67,236.6431,79,224.6431,67,236.6431,55" style="stroke:#000000;stroke-width:0.5;stroke-linejoin:miter;stroke-miterlimit:10;"/><polygon fill="#D9C2E3" points="169.9368,660.0596,303.3494,660.0596,315.3494,672.8643,303.3494,685.6689,169.9368,685.6689,157.9368,672.8643,169.9368,660.0596" style="stroke:#000000;stroke-width:0.5;stroke-linejoin:miter;stroke-miterlimit:10;"/><text fill="#090D10" font-family="Helvetica" font-size="10" lengthAdjust="spacing" textLength="13.5986" x="240.6431" y="694.9512">No</text><text fill="#000000" font-family="Helvetica" font-size="11" lengthAdjust="spacing" textLength="133.4126" x="169.9368" y="670.27">&#191;Work Items pendientes</text><text fill="#000000" font-family="Helvetica" font-size="11" lengthAdjust="spacing" textLength="55.9023" x="208.6919" y="683.0747">en Sprint?</text><text fill="#090D10" font-family="Helvetica" font-size="10" lengthAdjust="spacing" textLength="9.126" x="315.3494" y="670.5059">Si</text><rect fill="#C9DFEE" height="45.6094" rx="7" ry="7" style="stroke:#000000;stroke-width:0.5;" width="138.9751" x="167.1555" y="716.4512"/><text fill="#000000" font-family="Helvetica" font-size="11" lengthAdjust="spacing" textLength="118.9751" x="177.1555" y="736.6616">Integraci&#243;n del Sprint</text><text fill="#000000" font-family="Helvetica" font-size="11" lengthAdjust="spacing" textLength="115.1455" x="179.0703" y="749.4663">al Producto Continuo</text><rect fill="#C9DFEE" height="45.6094" rx="7" ry="7" style="stroke:#000000;stroke-width:0.5;" width="101.6406" x="185.8228" y="782.0605"/><text fill="#000000" font-family="Helvetica" font-size="11" lengthAdjust="spacing" textLength="81.6406" x="195.8228" y="802.271">Verificaci&#243;n de</text><text fill="#000000" font-family="Helvetica" font-size="11" lengthAdjust="spacing" textLength="75.4531" x="198.9165" y="815.0757">la integraci&#243;n</text><rect fill="#000000" height="6" rx="2.5" ry="2.5" style="stroke:#000000;stroke-width:1;" width="441.2861" x="16" y="847.6699"/><rect fill="#C9DFEE" height="45.6094" rx="7" ry="7" style="stroke:#000000;stroke-width:0.5;" width="106.7432" x="28" y="873.6699"/><text fill="#000000" font-family="Helvetica" font-size="11" lengthAdjust="spacing" textLength="86.7432" x="38" y="893.8804">Actualizar Work</text><text fill="#000000" font-family="Helvetica" font-size="11" lengthAdjust="spacing" textLength="47.7651" x="57.489" y="906.6851">Item List</text><rect fill="#C9DFEE" height="45.6094" rx="7" ry="7" style="stroke:#000000;stroke-width:0.5;" width="104.2134" x="162.7432" y="873.6699"/><text fill="#000000" font-family="Helvetica" font-size="11" lengthAdjust="spacing" textLength="84.2134" x="172.7432" y="893.8804">Actualizar Lista</text><text fill="#000000" font-family="Helvetica" font-size="11" lengthAdjust="spacing" textLength="59.8877" x="184.906" y="906.6851">de Riesgos</text><rect fill="#C9DFEE" height="45.6094" rx="7" ry="7" style="stroke:#000000;stroke-width:0.5;" width="150.3296" x="294.9565" y="873.6699"/><text fill="#000000" font-family="Helvetica" font-size="11" lengthAdjust="spacing" textLength="111.6167" x="314.313" y="893.8804">Registrar decisiones</text><text fill="#000000" font-family="Helvetica" font-size="11" lengthAdjust="spacing" textLength="130.3296" x="304.9565" y="906.6851">en Memoria Persistente</text><rect fill="#000000" height="6" rx="2.5" ry="2.5" style="stroke:#000000;stroke-width:1;" width="441.2861" x="16" y="939.2793"/><ellipse cx="236.6431" cy="976.2793" fill="none" rx="11" ry="11" style="stroke:#222222;stroke-width:1;"/><ellipse cx="236.6431" cy="976.2793" fill="#222222" rx="6" ry="6" style="stroke:#222222;stroke-width:1;"/><line style="stroke:#090D10;stroke-width:1;" x1="236.6431" x2="236.6431" y1="144.6094" y2="164.6094"/><polygon fill="#090D10" points="232.6431,154.6094,236.6431,164.6094,240.6431,154.6094,236.6431,158.6094" style="stroke:#090D10;stroke-width:1;stroke-linejoin:miter;stroke-miterlimit:10;"/><line style="stroke:#090D10;stroke-width:1;" x1="236.6431" x2="236.6431" y1="319.8281" y2="341.2305"/><polygon fill="#090D10" points="232.6431,331.2305,236.6431,341.2305,240.6431,331.2305,236.6431,335.2305" style="stroke:#090D10;stroke-width:1;stroke-linejoin:miter;stroke-miterlimit:10;"/><line style="stroke:#090D10;stroke-width:1;" x1="236.6431" x2="236.6431" y1="386.8398" y2="406.8398"/><polygon fill="#090D10" points="232.6431,396.8398,236.6431,406.8398,240.6431,396.8398,236.6431,400.8398" style="stroke:#090D10;stroke-width:1;stroke-linejoin:miter;stroke-miterlimit:10;"/><line style="stroke:#090D10;stroke-width:1;" x1="236.6431" x2="236.6431" y1="254.2188" y2="274.2188"/><polygon fill="#090D10" points="232.6431,264.2188,236.6431,274.2188,240.6431,264.2188,236.6431,268.2188" style="stroke:#090D10;stroke-width:1;stroke-linejoin:miter;stroke-miterlimit:10;"/><line style="stroke:#090D10;stroke-width:1;" x1="302.7676" x2="350.0564" y1="485.2539" y2="485.2539"/><polygon fill="#090D10" points="346.0564,373.0352,350.0564,363.0352,354.0564,373.0352,350.0564,369.0352" style="stroke:#090D10;stroke-width:1;stroke-linejoin:miter;stroke-miterlimit:10;"/><line style="stroke:#090D10;stroke-width:1;" x1="350.0564" x2="350.0564" y1="242.2188" y2="485.2539"/><line style="stroke:#090D10;stroke-width:1;" x1="350.0564" x2="248.6431" y1="242.2188" y2="242.2188"/><polygon fill="#090D10" points="258.6431,238.2188,248.6431,242.2188,258.6431,246.2188,254.6431,242.2188" style="stroke:#090D10;stroke-width:1;stroke-linejoin:miter;stroke-miterlimit:10;"/><line style="stroke:#090D10;stroke-width:1;" x1="236.6431" x2="236.6431" y1="452.4492" y2="472.4492"/><polygon fill="#090D10" points="232.6431,462.4492,236.6431,472.4492,240.6431,462.4492,236.6431,466.4492" style="stroke:#090D10;stroke-width:1;stroke-linejoin:miter;stroke-miterlimit:10;"/><line style="stroke:#090D10;stroke-width:1;" x1="236.6431" x2="236.6431" y1="210.2188" y2="230.2188"/><polygon fill="#090D10" points="232.6431,220.2188,236.6431,230.2188,240.6431,220.2188,236.6431,224.2188" style="stroke:#090D10;stroke-width:1;stroke-linejoin:miter;stroke-miterlimit:10;"/><line style="stroke:#090D10;stroke-width:1;" x1="236.6431" x2="236.6431" y1="498.0586" y2="528.8408"/><polygon fill="#090D10" points="232.6431,518.8408,236.6431,528.8408,240.6431,518.8408,236.6431,522.8408" style="stroke:#090D10;stroke-width:1;stroke-linejoin:miter;stroke-miterlimit:10;"/><line style="stroke:#090D10;stroke-width:1;" x1="236.6431" x2="236.6431" y1="574.4502" y2="594.4502"/><polygon fill="#090D10" points="232.6431,584.4502,236.6431,594.4502,240.6431,584.4502,236.6431,588.4502" style="stroke:#090D10;stroke-width:1;stroke-linejoin:miter;stroke-miterlimit:10;"/><line style="stroke:#090D10;stroke-width:1;" x1="236.6431" x2="236.6431" y1="79" y2="99"/><polygon fill="#090D10" points="232.6431,89,236.6431,99,240.6431,89,236.6431,93" style="stroke:#090D10;stroke-width:1;stroke-linejoin:miter;stroke-miterlimit:10;"/><line style="stroke:#090D10;stroke-width:1;" x1="315.3494" x2="374.0564" y1="672.8643" y2="672.8643"/><polygon fill="#090D10" points="370.0564,373.8398,374.0564,363.8398,378.0564,373.8398,374.0564,369.8398" style="stroke:#090D10;stroke-width:1;stroke-linejoin:miter;stroke-miterlimit:10;"/><line style="stroke:#090D10;stroke-width:1;" x1="374.0564" x2="374.0564" y1="67" y2="672.8643"/><line style="stroke:#090D10;stroke-width:1;" x1="374.0564" x2="248.6431" y1="67" y2="67"/><polygon fill="#090D10" points="258.6431,63,248.6431,67,258.6431,71,254.6431,67" style="stroke:#090D10;stroke-width:1;stroke-linejoin:miter;stroke-miterlimit:10;"/><line style="stroke:#090D10;stroke-width:1;" x1="236.6431" x2="236.6431" y1="640.0596" y2="660.0596"/><polygon fill="#090D10" points="232.6431,650.0596,236.6431,660.0596,240.6431,650.0596,236.6431,654.0596" style="stroke:#090D10;stroke-width:1;stroke-linejoin:miter;stroke-miterlimit:10;"/><line style="stroke:#090D10;stroke-width:1;" x1="236.6431" x2="236.6431" y1="35" y2="55"/><polygon fill="#090D10" points="232.6431,45,236.6431,55,240.6431,45,236.6431,49" style="stroke:#090D10;stroke-width:1;stroke-linejoin:miter;stroke-miterlimit:10;"/><line style="stroke:#090D10;stroke-width:1;" x1="236.6431" x2="236.6431" y1="685.6689" y2="716.4512"/><polygon fill="#090D10" points="232.6431,706.4512,236.6431,716.4512,240.6431,706.4512,236.6431,710.4512" style="stroke:#090D10;stroke-width:1;stroke-linejoin:miter;stroke-miterlimit:10;"/><line style="stroke:#090D10;stroke-width:1;" x1="236.6431" x2="236.6431" y1="762.0605" y2="782.0605"/><polygon fill="#090D10" points="232.6431,772.0605,236.6431,782.0605,240.6431,772.0605,236.6431,776.0605" style="stroke:#090D10;stroke-width:1;stroke-linejoin:miter;stroke-miterlimit:10;"/><line style="stroke:#090D10;stroke-width:1;" x1="81.3716" x2="81.3716" y1="853.6699" y2="873.6699"/><polygon fill="#090D10" points="77.3716,863.6699,81.3716,873.6699,85.3716,863.6699,81.3716,867.6699" style="stroke:#090D10;stroke-width:1;stroke-linejoin:miter;stroke-miterlimit:10;"/><line style="stroke:#090D10;stroke-width:1;" x1="214.8499" x2="214.8499" y1="853.6699" y2="873.6699"/><polygon fill="#090D10" points="210.8499,863.6699,214.8499,873.6699,218.8499,863.6699,214.8499,867.6699" style="stroke:#090D10;stroke-width:1;stroke-linejoin:miter;stroke-miterlimit:10;"/><line style="stroke:#090D10;stroke-width:1;" x1="370.1213" x2="370.1213" y1="853.6699" y2="873.6699"/><polygon fill="#090D10" points="366.1213,863.6699,370.1213,873.6699,374.1213,863.6699,370.1213,867.6699" style="stroke:#090D10;stroke-width:1;stroke-linejoin:miter;stroke-miterlimit:10;"/><line style="stroke:#090D10;stroke-width:1;" x1="81.3716" x2="81.3716" y1="919.2793" y2="939.2793"/><polygon fill="#090D10" points="77.3716,929.2793,81.3716,939.2793,85.3716,929.2793,81.3716,933.2793" style="stroke:#090D10;stroke-width:1;stroke-linejoin:miter;stroke-miterlimit:10;"/><line style="stroke:#090D10;stroke-width:1;" x1="214.8499" x2="214.8499" y1="919.2793" y2="939.2793"/><polygon fill="#090D10" points="210.8499,929.2793,214.8499,939.2793,218.8499,929.2793,214.8499,933.2793" style="stroke:#090D10;stroke-width:1;stroke-linejoin:miter;stroke-miterlimit:10;"/><line style="stroke:#090D10;stroke-width:1;" x1="370.1213" x2="370.1213" y1="919.2793" y2="939.2793"/><polygon fill="#090D10" points="366.1213,929.2793,370.1213,939.2793,374.1213,929.2793,370.1213,933.2793" style="stroke:#090D10;stroke-width:1;stroke-linejoin:miter;stroke-miterlimit:10;"/><line style="stroke:#090D10;stroke-width:1;" x1="236.6431" x2="236.6431" y1="827.6699" y2="847.6699"/><polygon fill="#090D10" points="232.6431,837.6699,236.6431,847.6699,240.6431,837.6699,236.6431,841.6699" style="stroke:#090D10;stroke-width:1;stroke-linejoin:miter;stroke-miterlimit:10;"/><line style="stroke:#090D10;stroke-width:1;" x1="236.6431" x2="236.6431" y1="945.2793" y2="965.2793"/><polygon fill="#090D10" points="232.6431,955.2793,236.6431,965.2793,240.6431,955.2793,236.6431,959.2793" style="stroke:#090D10;stroke-width:1;stroke-linejoin:miter;stroke-miterlimit:10;"/><?plantuml-src bPDHRzD03CVVxrDuRwtGIfyf0bNB7YOjg5eHl4IQJeaR31TVvhiCYQ_51q22BuRJq3HP5WHHb5pYd-s_VUSBujmr1S9gzLBlzVh-obSDwsArlhyEaPpl_goegPmn5mKUY15subFBy3f7ZYXlzFCpvZ5Z_MbBb2VSbkqicl4BKBkZ46tlDdHuphYLXudz64WU6eeQtf_f8Jer9_ZOcnCCLiGxPmj_Bk4zXfxGjRwCqNGIZM2DDXhGwzM9sAF3F2VFLk2ZboyPtqIiO8TSK4jindX2ZrHGXq9BPemCAUNYBtLh12lbVEYy1lb6GQwreOqgodX7DRfMz3v9DZt8FY8uFCI1IYZwOW5Pipf8CThBr1Vel5h7mQP9R_HPYitfrtTMt4r4PxelK8il6kst4kSQDzDe7r3eG7aVBcFLHOCKmmx0rq_a41Odvvy_9WtBk3vrFBnT0WLOx6dPTW8Mx_pI_BsKmMwCQt2mhqLbFTd5Vr0_fxnF5U2i-7W8kapFYJVpoZkde-pTIVQLvqZS-8tv7y475JQkSfl7HaVjs_Xat-hiTJJOqXBF-jnsGwe7uOumbEsXdlEwmr9XKQS2SmewJNzwacBbXQoEamGbke7Iji5HhOwbhyrl?></g></svg>