<svg xmlns="http://www.w3.org/2000/svg" xmlns:xlink="http://www.w3.org/1999/xlink" contentStyleType="text/css" data-diagram-type="STATE" height="631px" preserveAspectRatio="none" style="width:644px;height:631px;background:#FAFAFA;" version="1.1" viewBox="0 0 644 631" width="644px" zoomAndPan="magnify"><?plantuml 1.2026.4?><defs/><g><rect fill="#FAFAFA" height="631" style="stroke:none;stroke-width:1;" width="644" x="0" y="0"/><g class="title" data-source-line="1"><text fill="#000000" font-family="Helvetica" font-size="16" font-weight="700" lengthAdjust="spacing" textLength="617.2031" x="10" y="24.8516">11.c &#8212; M&#225;quina de estados &#183; Ciclo de vida de la Contrataci&#243;n (UC09)</text></g><g class="start_entity" data-qualified-name=".start." data-source-line="6" id="ent0001"><ellipse cx="455.6708" cy="55.625" fill="#000000" rx="10" ry="10" style="stroke:#222222;stroke-width:1;"/></g><rect fill="#F1F1F1" height="40" rx="7" ry="7" style="stroke:#181818;stroke-width:0.5;" width="63.7056" x="423.8108" y="118.625"/><text fill="#000000" font-family="Helvetica" font-size="11" lengthAdjust="spacing" textLength="53.7056" x="428.8108" y="142.4331">Solicitada</text><rect fill="#F1F1F1" height="40" rx="7" ry="7" style="stroke:#181818;stroke-width:0.5;" width="91.8555" x="328.7408" y="211.625"/><text fill="#000000" font-family="Helvetica" font-size="11" lengthAdjust="spacing" textLength="81.8555" x="333.7408" y="235.4331">Presupuestada</text><rect fill="#F1F1F1" height="40" rx="7" ry="7" style="stroke:#181818;stroke-width:0.5;" width="67.7285" x="220.8008" y="514.625"/><text fill="#000000" font-family="Helvetica" font-size="11" lengthAdjust="spacing" textLength="57.7285" x="225.8008" y="538.4331">Cancelada</text><rect fill="#F1F1F1" height="40" rx="7" ry="7" style="stroke:#181818;stroke-width:0.5;" width="74.0127" x="187.6608" y="304.625"/><text fill="#000000" font-family="Helvetica" font-size="11" lengthAdjust="spacing" textLength="64.0127" x="192.6608" y="328.4331">Confirmada</text><rect fill="#F1F1F1" height="40" rx="7" ry="7" style="stroke:#181818;stroke-width:0.5;" width="55.5576" x="96.8908" y="409.625"/><text fill="#000000" font-family="Helvetica" font-size="11" lengthAdjust="spacing" textLength="45.5576" x="101.8908" y="433.4331">EnCurso</text><rect fill="#F1F1F1" height="40" rx="7" ry="7" style="stroke:#181818;stroke-width:0.5;" width="65.4458" x="56.9408" y="514.625"/><text fill="#000000" font-family="Helvetica" font-size="11" lengthAdjust="spacing" textLength="55.4458" x="61.9408" y="538.4331">Finalizada</text><g class="end_entity" data-qualified-name=".end." data-source-line="20" id="ent0017"><ellipse cx="134.6708" cy="606.625" fill="none" rx="11" ry="11" style="stroke:#000000;stroke-width:1;"/><ellipse cx="134.6708" cy="606.625" fill="#222222" rx="6" ry="6" style="stroke:#000000;stroke-width:1;"/></g><!--link *start* to Solicitada--><g class="link" data-entity-1="ent0001" data-entity-2="ent0002" data-link-type="dependency" data-source-line="6" id="lnk3"><path d="M455.6708,65.915 C455.6708,78.635 455.6708,96.765 455.6708,113.315" fill="none" id="*start*-to-Solicitada" style="stroke:#090D10;stroke-width:1;"/><polygon fill="#090D10" points="455.6708,118.315,459.6708,109.315,455.6708,113.315,451.6708,109.315,455.6708,118.315" style="stroke:#090D10;stroke-width:1;stroke-linejoin:miter;stroke-miterlimit:10;"/><text fill="#090D10" font-family="Helvetica" font-size="10" lengthAdjust="spacing" textLength="77.3291" x="456.6708" y="95.9072">solicitar (UC07)</text></g><!--link Solicitada to Presupuestada--><g class="link" data-entity-1="ent0002" data-entity-2="ent0004" data-link-type="dependency" data-source-line="8" id="lnk5"><path d="M423.6008,153.865 C412.5308,160.105 400.8608,168.385 392.6708,178.625 C385.1508,188.025 381.8748,195.9121 379.2648,206.4321" fill="none" id="Solicitada-to-Presupuestada" style="stroke:#090D10;stroke-width:1;"/><polygon fill="#090D10" points="378.0608,211.285,384.1103,203.513,379.2648,206.4321,376.3457,201.5866,378.0608,211.285" style="stroke:#090D10;stroke-width:1;stroke-linejoin:miter;stroke-miterlimit:10;"/><text fill="#090D10" font-family="Helvetica" font-size="10" lengthAdjust="spacing" textLength="123.2861" x="393.6708" y="188.9072">enviar propuesta (UC08)</text></g><!--link Solicitada to Cancelada--><g class="link" data-entity-1="ent0002" data-entity-2="ent0006" data-link-type="dependency" data-source-line="9" id="lnk7"><path d="M488.0108,153.505 C499.3608,159.755 511.3508,168.115 519.6708,178.625 C534.7608,197.685 536.6708,206.315 536.6708,230.625 C536.6708,230.625 536.6708,230.625 536.6708,430.625 C536.6708,482.815 369.0567,515.5771 293.8967,527.7271" fill="none" id="Solicitada-to-Cancelada" style="stroke:#090D10;stroke-width:1;"/><polygon fill="#090D10" points="288.9608,528.525,298.4838,531.0375,293.8967,527.7271,297.2071,523.14,288.9608,528.525" style="stroke:#090D10;stroke-width:1;stroke-linejoin:miter;stroke-miterlimit:10;"/><text fill="#090D10" font-family="Helvetica" font-size="10" lengthAdjust="spacing" textLength="88.2715" x="537.6708" y="322.4072">rechazar (UC08) /</text><text fill="#090D10" font-family="Helvetica" font-size="10" lengthAdjust="spacing" textLength="80.6396" x="541.4867" y="334.0479">cancelar (UC10)</text></g><!--link Presupuestada to Confirmada--><g class="link" data-entity-1="ent0004" data-entity-2="ent0008" data-link-type="dependency" data-source-line="11" id="lnk9"><path d="M328.3208,238.355 C288.8208,244.305 236.4708,255.085 223.6708,271.625 C216.6508,280.695 215.933,288.6381 217.903,299.3081" fill="none" id="Presupuestada-to-Confirmada" style="stroke:#090D10;stroke-width:1;"/><polygon fill="#090D10" points="218.8108,304.225,221.1103,294.6483,217.903,299.3081,213.2433,296.1008,218.8108,304.225" style="stroke:#090D10;stroke-width:1;stroke-linejoin:miter;stroke-miterlimit:10;"/><text fill="#090D10" font-family="Helvetica" font-size="10" lengthAdjust="spacing" textLength="130.1465" x="224.6708" y="281.9072">aceptar propuesta (UC21)</text></g><!--link Presupuestada to Cancelada--><g class="link" data-entity-1="ent0004" data-entity-2="ent0006" data-link-type="dependency" data-source-line="12" id="lnk10"><path d="M375.1608,252.115 C375.3708,291.655 371.7808,383.155 337.6708,449.625 C324.2808,475.705 303.8296,495.7098 284.9596,511.0598" fill="none" id="Presupuestada-to-Cancelada" style="stroke:#090D10;stroke-width:1;"/><polygon fill="#090D10" points="281.0808,514.215,290.5867,511.6386,284.9596,511.0598,285.5384,505.4326,281.0808,514.215" style="stroke:#090D10;stroke-width:1;stroke-linejoin:miter;stroke-miterlimit:10;"/><text fill="#090D10" font-family="Helvetica" font-size="10" lengthAdjust="spacing" textLength="142.124" x="365.9208" y="374.9072">rechazar propuesta (UC21) /</text><text fill="#090D10" font-family="Helvetica" font-size="10" lengthAdjust="spacing" textLength="80.6396" x="396.663" y="386.5479">cancelar (UC10)</text></g><!--link Confirmada to EnCurso--><g class="link" data-entity-1="ent0008" data-entity-2="ent0011" data-link-type="dependency" data-source-line="14" id="lnk12"><path d="M187.1708,329.655 C164.7208,334.215 137.8608,343.935 123.6708,364.625 C114.8108,377.545 114.9828,390.7518 117.8528,404.4118" fill="none" id="Confirmada-to-EnCurso" style="stroke:#090D10;stroke-width:1;"/><polygon fill="#090D10" points="118.8808,409.305,120.9448,399.6748,117.8528,404.4118,113.1158,401.3198,118.8808,409.305" style="stroke:#090D10;stroke-width:1;stroke-linejoin:miter;stroke-miterlimit:10;"/><text fill="#090D10" font-family="Helvetica" font-size="10" lengthAdjust="spacing" textLength="110.1611" x="124.6708" y="380.9072">iniciar servicio (UC20)</text></g><!--link Confirmada to Cancelada--><g class="link" data-entity-1="ent0008" data-entity-2="ent0006" data-link-type="dependency" data-source-line="15" id="lnk13"><path d="M232.0108,344.835 C234.1408,351.065 236.2608,358.065 237.6708,364.625 C249.0908,417.965 252.6868,477.4788 253.9168,509.1488" fill="none" id="Confirmada-to-Cancelada" style="stroke:#090D10;stroke-width:1;"/><polygon fill="#090D10" points="254.1108,514.145,257.7585,504.9965,253.9168,509.1488,249.7646,505.307,254.1108,514.145" style="stroke:#090D10;stroke-width:1;stroke-linejoin:miter;stroke-miterlimit:10;"/><text fill="#090D10" font-family="Helvetica" font-size="10" lengthAdjust="spacing" textLength="80.6396" x="250.8208" y="433.4072">cancelar (UC10)</text></g><!--link EnCurso to Finalizada--><g class="link" data-entity-1="ent0011" data-entity-2="ent0014" data-link-type="dependency" data-source-line="17" id="lnk15"><path d="M96.7708,431.895 C70.7108,434.745 33.1408,443.475 14.6708,469.625 C8.2608,478.695 8.9008,485.125 14.6708,494.625 C23.8808,509.805 36.4577,517.5933 52.0977,523.4433" fill="none" id="EnCurso-to-Finalizada" style="stroke:#090D10;stroke-width:1;"/><polygon fill="#090D10" points="56.7808,525.195,49.7525,518.2955,52.0977,523.4433,46.9499,525.7885,56.7808,525.195" style="stroke:#090D10;stroke-width:1;stroke-linejoin:miter;stroke-miterlimit:10;"/><text fill="#090D10" font-family="Helvetica" font-size="10" lengthAdjust="spacing" textLength="107.9541" x="15.6708" y="479.9072">confirmar finalizaci&#243;n</text><text fill="#090D10" font-family="Helvetica" font-size="10" lengthAdjust="spacing" textLength="107.6318" x="15.832" y="491.5479">y liberar pago (UC13)</text></g><!--link EnCurso to Cancelada--><g class="link" data-entity-1="ent0011" data-entity-2="ent0006" data-link-type="dependency" data-source-line="18" id="lnk16"><path d="M129.2208,450.025 C133.4208,464.085 140.9908,482.645 153.6708,494.625 C172.1108,512.045 194.3449,520.7132 215.8249,526.1732" fill="none" id="EnCurso-to-Cancelada" style="stroke:#090D10;stroke-width:1;"/><polygon fill="#090D10" points="220.6708,527.405,212.9336,521.3111,215.8249,526.1732,210.9628,529.0645,220.6708,527.405" style="stroke:#090D10;stroke-width:1;stroke-linejoin:miter;stroke-miterlimit:10;"/><text fill="#090D10" font-family="Helvetica" font-size="10" lengthAdjust="spacing" textLength="80.6396" x="154.6708" y="485.9072">cancelar (UC10)</text></g><!--link Finalizada to *end*--><g class="link" data-entity-1="ent0014" data-entity-2="ent0017" data-link-type="dependency" data-source-line="20" id="lnk18"><path d="M102.2008,555.125 C111.0408,568.875 119.7579,582.4286 126.4279,592.8086" fill="none" id="Finalizada-to-*end*" style="stroke:#090D10;stroke-width:1;"/><polygon fill="#090D10" points="129.1308,597.015,127.6306,587.2811,126.4279,592.8086,120.9003,591.6058,129.1308,597.015" style="stroke:#090D10;stroke-width:1;stroke-linejoin:miter;stroke-miterlimit:10;"/></g><!--link Cancelada to *end*--><g class="link" data-entity-1="ent0006" data-entity-2="ent0017" data-link-type="dependency" data-source-line="21" id="lnk19"><path d="M221.2408,555.125 C195.0308,570.415 164.6489,588.1343 148.2889,597.6843" fill="none" id="Cancelada-to-*end*" style="stroke:#090D10;stroke-width:1;"/><polygon fill="#090D10" points="143.9708,600.205,153.76,599.1223,148.2889,597.6843,149.7269,592.2133,143.9708,600.205" style="stroke:#090D10;stroke-width:1;stroke-linejoin:miter;stroke-miterlimit:10;"/></g><?plantuml-src VP9DJiCm48NtFiMm8qXD4rXGMB29oWu92R6Yg3AkIqToxE2VIksAGt01pi22FTo4ap1sWaX3XPI5y-QzzqtaUFHAGbdc0hwUN-3gy_KfeEQma22TvmlZuECTAXJAH6sDYpHJ72gZlUMU2_nyqt1uMnLd6LjX3DQDtv3B2OkDHwCPEq0jLA1Pde_fAOfvPUgWwP0Nywdpg4ohv1XgnTZTqJsCHXTmOnGAf3qud8FhNcoYdMQCzSRHVMsb2qr8YyU0r6iaTsDDAwRS91l6Agw5L6t4Ih7YsmunoM0yqw8T9waiYBgBIGr6Bz7MRGKNil53x76PxSlj8mzpUtVe4MFHL5V1EaCrgEdJoEYaNTF9f19A309zyf_odxPelAI_GU6sStOb5fQTd6v_fZUWy47Qk3r_JCpo9Dlf-HVOWqGltJxxzNVADm00?></g></svg>