<svg xmlns="http://www.w3.org/2000/svg" xmlns:xlink="http://www.w3.org/1999/xlink" contentStyleType="text/css" data-diagram-type="CLASS" height="492px" preserveAspectRatio="none" style="width:857px;height:492px;background:#FAFAFA;" version="1.1" viewBox="0 0 857 492" width="857px" zoomAndPan="magnify"><?plantuml 1.2026.4?><defs/><g><rect fill="#FAFAFA" height="492" style="stroke:none;stroke-width:1;" width="857" x="0" y="0"/><g class="title" data-source-line="1"><text fill="#000000" font-family="Helvetica" font-size="16" font-weight="700" lengthAdjust="spacing" textLength="650.2813" x="100.0907" y="24.8516">11.c &#8212; Clases de dise&#241;o &#183; Patrones State y Observer sobre Contrataci&#243;n</text></g><!--class Contratacion--><g class="entity" data-qualified-name="Contratacion" data-source-line="8" id="ent0001"><rect fill="#F1F1F1" height="197.6563" rx="7" ry="7" style="stroke:#181818;stroke-width:0.5;" width="212.5737" x="333.57" y="46.625"/><ellipse cx="400.6979" cy="60.625" fill="#ADD1B2" rx="9" ry="9" style="stroke:#181818;stroke-width:1;"/><path d="M402.0104,64.3906 Q401.6354,64.5938 401.2136,64.6875 Q400.8073,64.7813 400.3386,64.7813 Q398.7292,64.7813 397.8698,63.7188 Q397.0104,62.6406 397.0104,60.625 Q397.0104,58.5938 397.8698,57.5313 Q398.7292,56.4531 400.3386,56.4531 Q400.8073,56.4531 401.2136,56.5625 Q401.6354,56.6563 402.0104,56.8438 L402.0104,58.6094 Q401.5886,58.2344 401.1979,58.0625 Q400.8229,57.8906 400.4167,57.8906 Q399.5573,57.8906 399.1042,58.5781 Q398.6667,59.2656 398.6667,60.625 Q398.6667,61.9844 399.1042,62.6719 Q399.5573,63.3594 400.4167,63.3594 Q400.8229,63.3594 401.1979,63.1875 Q401.5886,63.0156 402.0104,62.625 L402.0104,64.3906 Z " fill="#000000"/><text fill="#000000" font-family="Helvetica" font-size="11" lengthAdjust="spacing" textLength="70.8179" x="418.1979" y="64.4331">Contratacion</text><line style="stroke:#181818;stroke-width:0.5;" x1="334.57" x2="545.1437" y1="74.625" y2="74.625"/><g data-visibility-modifier="PRIVATE_FIELD"><rect fill="none" height="6" style="stroke:#C82930;stroke-width:1;" width="6" x="341.57" y="83.5273"/></g><text fill="#000000" font-family="Helvetica" font-size="11" lengthAdjust="spacing" textLength="10.0386" x="351.57" y="88.8354">id</text><g data-visibility-modifier="PRIVATE_FIELD"><rect fill="none" height="6" style="stroke:#C82930;stroke-width:1;" width="6" x="341.57" y="96.332"/></g><text fill="#000000" font-family="Helvetica" font-size="11" lengthAdjust="spacing" textLength="77.5962" x="351.57" y="101.6401">fechaSolicitud</text><g data-visibility-modifier="PRIVATE_FIELD"><rect fill="none" height="6" style="stroke:#C82930;stroke-width:1;" width="6" x="341.57" y="109.1367"/></g><text fill="#000000" font-family="Helvetica" font-size="11" lengthAdjust="spacing" textLength="156.229" x="351.57" y="114.4448">estado : EstadoContratacion</text><g data-visibility-modifier="PRIVATE_FIELD"><rect fill="none" height="6" style="stroke:#C82930;stroke-width:1;" width="6" x="341.57" y="121.9414"/></g><text fill="#000000" font-family="Helvetica" font-size="11" lengthAdjust="spacing" textLength="163.6465" x="351.57" y="127.2495">observadores : Observador[*]</text><line style="stroke:#181818;stroke-width:1;" x1="334.57" x2="545.1437" y1="133.8438" y2="133.8438"/><g data-visibility-modifier="PUBLIC_METHOD"><ellipse cx="344.57" cy="145.7461" fill="#84BE84" rx="3" ry="3" style="stroke:#038048;stroke-width:1;"/></g><text fill="#000000" font-family="Helvetica" font-size="11" lengthAdjust="spacing" textLength="51.8364" x="351.57" y="148.0542">solicitar()</text><g data-visibility-modifier="PUBLIC_METHOD"><ellipse cx="344.57" cy="158.5508" fill="#84BE84" rx="3" ry="3" style="stroke:#038048;stroke-width:1;"/></g><text fill="#000000" font-family="Helvetica" font-size="11" lengthAdjust="spacing" textLength="50.6978" x="351.57" y="160.8589">aceptar()</text><g data-visibility-modifier="PUBLIC_METHOD"><ellipse cx="344.57" cy="171.3555" fill="#84BE84" rx="3" ry="3" style="stroke:#038048;stroke-width:1;"/></g><text fill="#000000" font-family="Helvetica" font-size="11" lengthAdjust="spacing" textLength="42.0342" x="351.57" y="173.6636">iniciar()</text><g data-visibility-modifier="PUBLIC_METHOD"><ellipse cx="344.57" cy="184.1602" fill="#84BE84" rx="3" ry="3" style="stroke:#038048;stroke-width:1;"/></g><text fill="#000000" font-family="Helvetica" font-size="11" lengthAdjust="spacing" textLength="52.3735" x="351.57" y="186.4683">finalizar()</text><g data-visibility-modifier="PUBLIC_METHOD"><ellipse cx="344.57" cy="196.9648" fill="#84BE84" rx="3" ry="3" style="stroke:#038048;stroke-width:1;"/></g><text fill="#000000" font-family="Helvetica" font-size="11" lengthAdjust="spacing" textLength="55.478" x="351.57" y="199.2729">cancelar()</text><g data-visibility-modifier="PUBLIC_METHOD"><ellipse cx="344.57" cy="209.7695" fill="#84BE84" rx="3" ry="3" style="stroke:#038048;stroke-width:1;"/></g><text fill="#000000" font-family="Helvetica" font-size="11" lengthAdjust="spacing" textLength="188.5737" x="351.57" y="212.0776">setEstado(e : EstadoContratacion)</text><g data-visibility-modifier="PUBLIC_METHOD"><ellipse cx="344.57" cy="222.5742" fill="#84BE84" rx="3" ry="3" style="stroke:#038048;stroke-width:1;"/></g><text fill="#000000" font-family="Helvetica" font-size="11" lengthAdjust="spacing" textLength="136.7803" x="351.57" y="224.8823">suscribir(o : Observador)</text><g data-visibility-modifier="PRIVATE_METHOD"><rect fill="#F24D5C" height="6" style="stroke:#C82930;stroke-width:1;" width="6" x="341.57" y="232.3789"/></g><text fill="#000000" font-family="Helvetica" font-size="11" lengthAdjust="spacing" textLength="53.8936" x="351.57" y="237.687">notificar()</text></g><!--class EstadoContratacion--><g class="entity" data-qualified-name="EstadoContratacion" data-source-line="24" id="ent0002"><rect fill="#F1F1F1" height="95.2188" rx="7" ry="7" style="stroke:#181818;stroke-width:0.5;" width="167.043" x="236.33" y="297.285"/><ellipse cx="263.18" cy="311.285" fill="#A9DCDF" rx="9" ry="9" style="stroke:#181818;stroke-width:1;"/><path d="M262.4925,308.2225 L261.7425,311.5037 L263.2425,311.5037 L262.4925,308.2225 Z M261.5238,306.7694 L263.4613,306.7694 L265.6331,314.785 L264.0394,314.785 L263.5394,312.8006 L261.43,312.8006 L260.9456,314.785 L259.3519,314.785 L261.5238,306.7694 Z " fill="#000000"/><text fill="#000000" font-family="Helvetica" font-size="11" font-style="italic" lengthAdjust="spacing" textLength="108.2651" x="278.2578" y="315.0931">EstadoContratacion</text><line style="stroke:#181818;stroke-width:0.5;" x1="237.33" x2="402.373" y1="325.285" y2="325.285"/><line style="stroke:#181818;stroke-width:0.5;" x1="237.33" x2="402.373" y1="333.285" y2="333.285"/><g data-visibility-modifier="PUBLIC_METHOD"><ellipse cx="247.33" cy="345.1873" fill="#84BE84" rx="3" ry="3" style="stroke:#038048;stroke-width:1;"/></g><text fill="#000000" font-family="Helvetica" font-size="11" lengthAdjust="spacing" textLength="138.2627" x="254.33" y="347.4954">aceptar(c : Contratacion)</text><g data-visibility-modifier="PUBLIC_METHOD"><ellipse cx="247.33" cy="357.992" fill="#84BE84" rx="3" ry="3" style="stroke:#038048;stroke-width:1;"/></g><text fill="#000000" font-family="Helvetica" font-size="11" lengthAdjust="spacing" textLength="129.5991" x="254.33" y="360.3001">iniciar(c : Contratacion)</text><g data-visibility-modifier="PUBLIC_METHOD"><ellipse cx="247.33" cy="370.7967" fill="#84BE84" rx="3" ry="3" style="stroke:#038048;stroke-width:1;"/></g><text fill="#000000" font-family="Helvetica" font-size="11" lengthAdjust="spacing" textLength="139.9385" x="254.33" y="373.1048">finalizar(c : Contratacion)</text><g data-visibility-modifier="PUBLIC_METHOD"><ellipse cx="247.33" cy="383.6014" fill="#84BE84" rx="3" ry="3" style="stroke:#038048;stroke-width:1;"/></g><text fill="#000000" font-family="Helvetica" font-size="11" lengthAdjust="spacing" textLength="143.043" x="254.33" y="385.9095">cancelar(c : Contratacion)</text></g><!--class Solicitada--><g class="entity" data-qualified-name="Solicitada" data-source-line="31" id="ent0003"><rect fill="#F1F1F1" height="44" rx="7" ry="7" style="stroke:#181818;stroke-width:0.5;" width="81.7056" x="7" y="433.505"/><ellipse cx="20" cy="447.505" fill="#ADD1B2" rx="9" ry="9" style="stroke:#181818;stroke-width:1;"/><path d="M21.3125,451.2706 Q20.9375,451.4738 20.5156,451.5675 Q20.1094,451.6613 19.6406,451.6613 Q18.0313,451.6613 17.1719,450.5988 Q16.3125,449.5206 16.3125,447.505 Q16.3125,445.4738 17.1719,444.4113 Q18.0313,443.3331 19.6406,443.3331 Q20.1094,443.3331 20.5156,443.4425 Q20.9375,443.5363 21.3125,443.7238 L21.3125,445.4894 Q20.8906,445.1144 20.5,444.9425 Q20.125,444.7706 19.7188,444.7706 Q18.8594,444.7706 18.4063,445.4581 Q17.9688,446.1456 17.9688,447.505 Q17.9688,448.8644 18.4063,449.5519 Q18.8594,450.2394 19.7188,450.2394 Q20.125,450.2394 20.5,450.0675 Q20.8906,449.8956 21.3125,449.505 L21.3125,451.2706 Z " fill="#000000"/><text fill="#000000" font-family="Helvetica" font-size="11" lengthAdjust="spacing" textLength="53.7056" x="32" y="451.3131">Solicitada</text><line style="stroke:#181818;stroke-width:0.5;" x1="8" x2="87.7056" y1="461.505" y2="461.505"/><line style="stroke:#181818;stroke-width:0.5;" x1="8" x2="87.7056" y1="469.505" y2="469.505"/></g><!--class Confirmada--><g class="entity" data-qualified-name="Confirmada" data-source-line="32" id="ent0004"><rect fill="#F1F1F1" height="44" rx="7" ry="7" style="stroke:#181818;stroke-width:0.5;" width="92.0127" x="113.85" y="433.505"/><ellipse cx="126.85" cy="447.505" fill="#ADD1B2" rx="9" ry="9" style="stroke:#181818;stroke-width:1;"/><path d="M128.1625,451.2706 Q127.7875,451.4738 127.3656,451.5675 Q126.9594,451.6613 126.4906,451.6613 Q124.8813,451.6613 124.0219,450.5988 Q123.1625,449.5206 123.1625,447.505 Q123.1625,445.4738 124.0219,444.4113 Q124.8813,443.3331 126.4906,443.3331 Q126.9594,443.3331 127.3656,443.4425 Q127.7875,443.5363 128.1625,443.7238 L128.1625,445.4894 Q127.7406,445.1144 127.35,444.9425 Q126.975,444.7706 126.5688,444.7706 Q125.7094,444.7706 125.2563,445.4581 Q124.8188,446.1456 124.8188,447.505 Q124.8188,448.8644 125.2563,449.5519 Q125.7094,450.2394 126.5688,450.2394 Q126.975,450.2394 127.35,450.0675 Q127.7406,449.8956 128.1625,449.505 L128.1625,451.2706 Z " fill="#000000"/><text fill="#000000" font-family="Helvetica" font-size="11" lengthAdjust="spacing" textLength="64.0127" x="138.85" y="451.3131">Confirmada</text><line style="stroke:#181818;stroke-width:0.5;" x1="114.85" x2="204.8627" y1="461.505" y2="461.505"/><line style="stroke:#181818;stroke-width:0.5;" x1="114.85" x2="204.8627" y1="469.505" y2="469.505"/></g><!--class EnCurso--><g class="entity" data-qualified-name="EnCurso" data-source-line="33" id="ent0005"><rect fill="#F1F1F1" height="44" rx="7" ry="7" style="stroke:#181818;stroke-width:0.5;" width="73.5576" x="231.07" y="433.505"/><ellipse cx="244.07" cy="447.505" fill="#ADD1B2" rx="9" ry="9" style="stroke:#181818;stroke-width:1;"/><path d="M245.3825,451.2706 Q245.0075,451.4738 244.5856,451.5675 Q244.1794,451.6613 243.7106,451.6613 Q242.1013,451.6613 241.2419,450.5988 Q240.3825,449.5206 240.3825,447.505 Q240.3825,445.4738 241.2419,444.4113 Q242.1013,443.3331 243.7106,443.3331 Q244.1794,443.3331 244.5856,443.4425 Q245.0075,443.5363 245.3825,443.7238 L245.3825,445.4894 Q244.9606,445.1144 244.57,444.9425 Q244.195,444.7706 243.7888,444.7706 Q242.9294,444.7706 242.4763,445.4581 Q242.0388,446.1456 242.0388,447.505 Q242.0388,448.8644 242.4763,449.5519 Q242.9294,450.2394 243.7888,450.2394 Q244.195,450.2394 244.57,450.0675 Q244.9606,449.8956 245.3825,449.505 L245.3825,451.2706 Z " fill="#000000"/><text fill="#000000" font-family="Helvetica" font-size="11" lengthAdjust="spacing" textLength="45.5576" x="256.07" y="451.3131">EnCurso</text><line style="stroke:#181818;stroke-width:0.5;" x1="232.07" x2="303.6276" y1="461.505" y2="461.505"/><line style="stroke:#181818;stroke-width:0.5;" x1="232.07" x2="303.6276" y1="469.505" y2="469.505"/></g><!--class Finalizada--><g class="entity" data-qualified-name="Finalizada" data-source-line="34" id="ent0006"><rect fill="#F1F1F1" height="44" rx="7" ry="7" style="stroke:#181818;stroke-width:0.5;" width="83.4458" x="330.13" y="433.505"/><ellipse cx="343.13" cy="447.505" fill="#ADD1B2" rx="9" ry="9" style="stroke:#181818;stroke-width:1;"/><path d="M344.4425,451.2706 Q344.0675,451.4738 343.6456,451.5675 Q343.2394,451.6613 342.7706,451.6613 Q341.1613,451.6613 340.3019,450.5988 Q339.4425,449.5206 339.4425,447.505 Q339.4425,445.4738 340.3019,444.4113 Q341.1613,443.3331 342.7706,443.3331 Q343.2394,443.3331 343.6456,443.4425 Q344.0675,443.5363 344.4425,443.7238 L344.4425,445.4894 Q344.0206,445.1144 343.63,444.9425 Q343.255,444.7706 342.8488,444.7706 Q341.9894,444.7706 341.5363,445.4581 Q341.0988,446.1456 341.0988,447.505 Q341.0988,448.8644 341.5363,449.5519 Q341.9894,450.2394 342.8488,450.2394 Q343.255,450.2394 343.63,450.0675 Q344.0206,449.8956 344.4425,449.505 L344.4425,451.2706 Z " fill="#000000"/><text fill="#000000" font-family="Helvetica" font-size="11" lengthAdjust="spacing" textLength="55.4458" x="355.13" y="451.3131">Finalizada</text><line style="stroke:#181818;stroke-width:0.5;" x1="331.13" x2="412.5758" y1="461.505" y2="461.505"/><line style="stroke:#181818;stroke-width:0.5;" x1="331.13" x2="412.5758" y1="469.505" y2="469.505"/></g><!--class Cancelada--><g class="entity" data-qualified-name="Cancelada" data-source-line="35" id="ent0007"><rect fill="#F1F1F1" height="44" rx="7" ry="7" style="stroke:#181818;stroke-width:0.5;" width="85.7285" x="438.99" y="433.505"/><ellipse cx="451.99" cy="447.505" fill="#ADD1B2" rx="9" ry="9" style="stroke:#181818;stroke-width:1;"/><path d="M453.3025,451.2706 Q452.9275,451.4738 452.5056,451.5675 Q452.0994,451.6613 451.6306,451.6613 Q450.0213,451.6613 449.1619,450.5988 Q448.3025,449.5206 448.3025,447.505 Q448.3025,445.4738 449.1619,444.4113 Q450.0213,443.3331 451.6306,443.3331 Q452.0994,443.3331 452.5056,443.4425 Q452.9275,443.5363 453.3025,443.7238 L453.3025,445.4894 Q452.8806,445.1144 452.49,444.9425 Q452.115,444.7706 451.7088,444.7706 Q450.8494,444.7706 450.3963,445.4581 Q449.9588,446.1456 449.9588,447.505 Q449.9588,448.8644 450.3963,449.5519 Q450.8494,450.2394 451.7088,450.2394 Q452.115,450.2394 452.49,450.0675 Q452.8806,449.8956 453.3025,449.505 L453.3025,451.2706 Z " fill="#000000"/><text fill="#000000" font-family="Helvetica" font-size="11" lengthAdjust="spacing" textLength="57.7285" x="463.99" y="451.3131">Cancelada</text><line style="stroke:#181818;stroke-width:0.5;" x1="439.99" x2="523.7185" y1="461.505" y2="461.505"/><line style="stroke:#181818;stroke-width:0.5;" x1="439.99" x2="523.7185" y1="469.505" y2="469.505"/></g><!--class Observador--><g class="entity" data-qualified-name="Observador" data-source-line="37" id="ent0008"><rect fill="#F1F1F1" height="56.8047" rx="7" ry="7" style="stroke:#181818;stroke-width:0.5;" width="174.1113" x="525.8" y="316.495"/><ellipse cx="577.0322" cy="330.495" fill="#B4A7E5" rx="9" ry="9" style="stroke:#181818;stroke-width:1;"/><path d="M573.9541,327.87 L573.9541,326.4794 L578.7353,326.4794 L578.7353,327.87 L577.1416,327.87 L577.1416,333.1044 L578.7353,333.1044 L578.7353,334.495 L573.9541,334.495 L573.9541,333.1044 L575.5478,333.1044 L575.5478,327.87 L573.9541,327.87 Z " fill="#000000"/><text fill="#000000" font-family="Helvetica" font-size="11" font-style="italic" lengthAdjust="spacing" textLength="64.147" x="594.5322" y="334.3031">Observador</text><line style="stroke:#181818;stroke-width:0.5;" x1="526.8" x2="698.9113" y1="344.495" y2="344.495"/><line style="stroke:#181818;stroke-width:0.5;" x1="526.8" x2="698.9113" y1="352.495" y2="352.495"/><g data-visibility-modifier="PUBLIC_METHOD"><ellipse cx="536.8" cy="364.3973" fill="#84BE84" rx="3" ry="3" style="stroke:#038048;stroke-width:1;"/></g><text fill="#000000" font-family="Helvetica" font-size="11" lengthAdjust="spacing" textLength="150.1113" x="543.8" y="366.7054">actualizar(c : Contratacion)</text></g><!--class NotificadorCliente--><g class="entity" data-qualified-name="NotificadorCliente" data-source-line="41" id="ent0009"><rect fill="#F1F1F1" height="44" rx="7" ry="7" style="stroke:#181818;stroke-width:0.5;" width="126.8926" x="549.41" y="433.505"/><ellipse cx="562.41" cy="447.505" fill="#ADD1B2" rx="9" ry="9" style="stroke:#181818;stroke-width:1;"/><path d="M563.7225,451.2706 Q563.3475,451.4738 562.9256,451.5675 Q562.5194,451.6613 562.0506,451.6613 Q560.4413,451.6613 559.5819,450.5988 Q558.7225,449.5206 558.7225,447.505 Q558.7225,445.4738 559.5819,444.4113 Q560.4413,443.3331 562.0506,443.3331 Q562.5194,443.3331 562.9256,443.4425 Q563.3475,443.5363 563.7225,443.7238 L563.7225,445.4894 Q563.3006,445.1144 562.91,444.9425 Q562.535,444.7706 562.1288,444.7706 Q561.2694,444.7706 560.8163,445.4581 Q560.3788,446.1456 560.3788,447.505 Q560.3788,448.8644 560.8163,449.5519 Q561.2694,450.2394 562.1288,450.2394 Q562.535,450.2394 562.91,450.0675 Q563.3006,449.8956 563.7225,449.505 L563.7225,451.2706 Z " fill="#000000"/><text fill="#000000" font-family="Helvetica" font-size="11" lengthAdjust="spacing" textLength="98.8926" x="574.41" y="451.3131">NotificadorCliente</text><line style="stroke:#181818;stroke-width:0.5;" x1="550.41" x2="675.3026" y1="461.505" y2="461.505"/><line style="stroke:#181818;stroke-width:0.5;" x1="550.41" x2="675.3026" y1="469.505" y2="469.505"/></g><!--class NotificadorPrestador--><g class="entity" data-qualified-name="NotificadorPrestador" data-source-line="42" id="ent0010"><rect fill="#F1F1F1" height="44" rx="7" ry="7" style="stroke:#181818;stroke-width:0.5;" width="141.2227" x="701.24" y="433.505"/><ellipse cx="714.24" cy="447.505" fill="#ADD1B2" rx="9" ry="9" style="stroke:#181818;stroke-width:1;"/><path d="M715.5525,451.2706 Q715.1775,451.4738 714.7556,451.5675 Q714.3494,451.6613 713.8806,451.6613 Q712.2713,451.6613 711.4119,450.5988 Q710.5525,449.5206 710.5525,447.505 Q710.5525,445.4738 711.4119,444.4113 Q712.2713,443.3331 713.8806,443.3331 Q714.3494,443.3331 714.7556,443.4425 Q715.1775,443.5363 715.5525,443.7238 L715.5525,445.4894 Q715.1306,445.1144 714.74,444.9425 Q714.365,444.7706 713.9588,444.7706 Q713.0994,444.7706 712.6463,445.4581 Q712.2088,446.1456 712.2088,447.505 Q712.2088,448.8644 712.6463,449.5519 Q713.0994,450.2394 713.9588,450.2394 Q714.365,450.2394 714.74,450.0675 Q715.1306,449.8956 715.5525,449.505 L715.5525,451.2706 Z " fill="#000000"/><text fill="#000000" font-family="Helvetica" font-size="11" lengthAdjust="spacing" textLength="113.2227" x="726.24" y="451.3131">NotificadorPrestador</text><line style="stroke:#181818;stroke-width:0.5;" x1="702.24" x2="841.4627" y1="461.505" y2="461.505"/><line style="stroke:#181818;stroke-width:0.5;" x1="702.24" x2="841.4627" y1="469.505" y2="469.505"/></g><!--reverse link EstadoContratacion to Solicitada--><g class="link" data-entity-1="ent0002" data-entity-2="ent0003" data-link-type="extension" data-source-line="44" id="lnk11"><path codeLine="44" d="M219.3039,386.0412 C170.4539,405.5512 127.72,422.615 88.89,438.115" fill="none" id="EstadoContratacion-backto-Solicitada" style="stroke:#090D10;stroke-width:1;"/><polygon fill="none" points="236.02,379.365,217.0785,380.4691,221.5293,391.6132,236.02,379.365" style="stroke:#090D10;stroke-width:1;stroke-linejoin:miter;stroke-miterlimit:10;"/></g><!--reverse link EstadoContratacion to Confirmada--><g class="link" data-entity-1="ent0002" data-entity-2="ent0004" data-link-type="extension" data-source-line="45" id="lnk12"><path codeLine="45" d="M235.717,403.0143 C215.107,417.0043 208.42,421.535 191.48,433.035" fill="none" id="EstadoContratacion-backto-Confirmada" style="stroke:#090D10;stroke-width:1;"/><polygon fill="none" points="250.61,392.905,232.3472,398.05,239.0868,407.9787,250.61,392.905" style="stroke:#090D10;stroke-width:1;stroke-linejoin:miter;stroke-miterlimit:10;"/></g><!--reverse link EstadoContratacion to EnCurso--><g class="link" data-entity-1="ent0002" data-entity-2="ent0005" data-link-type="extension" data-source-line="46" id="lnk13"><path codeLine="46" d="M289.5752,409.1393 C282.8752,423.1293 283.64,421.535 278.13,433.035" fill="none" id="EstadoContratacion-backto-EnCurso" style="stroke:#090D10;stroke-width:1;"/><polygon fill="none" points="297.35,392.905,284.1637,406.5477,294.9866,411.7309,297.35,392.905" style="stroke:#090D10;stroke-width:1;stroke-linejoin:miter;stroke-miterlimit:10;"/></g><!--reverse link EstadoContratacion to Finalizada--><g class="link" data-entity-1="ent0002" data-entity-2="ent0006" data-link-type="extension" data-source-line="47" id="lnk14"><path codeLine="47" d="M350.1348,409.1393 C356.8348,423.1293 356.07,421.535 361.57,433.035" fill="none" id="EstadoContratacion-backto-Finalizada" style="stroke:#090D10;stroke-width:1;"/><polygon fill="none" points="342.36,392.905,344.7234,411.7309,355.5463,406.5477,342.36,392.905" style="stroke:#090D10;stroke-width:1;stroke-linejoin:miter;stroke-miterlimit:10;"/></g><!--reverse link EstadoContratacion to Cancelada--><g class="link" data-entity-1="ent0002" data-entity-2="ent0007" data-link-type="extension" data-source-line="48" id="lnk15"><path codeLine="48" d="M404.9193,402.9309 C425.7793,416.9209 432.68,421.535 449.83,433.035" fill="none" id="EstadoContratacion-backto-Cancelada" style="stroke:#090D10;stroke-width:1;"/><polygon fill="none" points="389.97,392.905,401.5773,407.914,408.2613,397.9478,389.97,392.905" style="stroke:#090D10;stroke-width:1;stroke-linejoin:miter;stroke-miterlimit:10;"/></g><!--reverse link Observador to NotificadorCliente--><g class="link" data-entity-1="ent0008" data-entity-2="ent0009" data-link-type="extension" data-source-line="50" id="lnk16"><path codeLine="50" d="M612.85,391.585 C612.85,410.065 612.85,416.005 612.85,433.035" fill="none" id="Observador-backto-NotificadorCliente" style="stroke:#090D10;stroke-width:1;stroke-dasharray:7,7;"/><polygon fill="none" points="612.85,373.585,606.85,391.585,618.85,391.585,612.85,373.585" style="stroke:#090D10;stroke-width:1;stroke-linejoin:miter;stroke-miterlimit:10;"/></g><!--reverse link Observador to NotificadorPrestador--><g class="link" data-entity-1="ent0008" data-entity-2="ent0010" data-link-type="extension" data-source-line="51" id="lnk17"><path codeLine="51" d="M668.2527,383.7389 C695.3027,402.2189 715.48,416.005 740.42,433.035" fill="none" id="Observador-backto-NotificadorPrestador" style="stroke:#090D10;stroke-width:1;stroke-dasharray:7,7;"/><polygon fill="none" points="653.39,373.585,664.868,388.6931,671.6373,378.7846,653.39,373.585" style="stroke:#090D10;stroke-width:1;stroke-linejoin:miter;stroke-miterlimit:10;"/></g><!--link Contratacion to EstadoContratacion--><g class="link" data-entity-1="ent0001" data-entity-2="ent0002" data-link-type="aggregation" data-source-line="53" id="lnk18"><path codeLine="53" d="M373.9723,254.8525 C362.9223,273.0525 360.6679,276.7429 351.0779,292.5129" fill="none" id="Contratacion-EstadoContratacion" style="stroke:#090D10;stroke-width:1;"/><polygon fill="none" points="380.2,244.595,373.667,247.6478,373.9723,254.8525,380.5053,251.7996,380.2,244.595" style="stroke:#090D10;stroke-width:1;stroke-linejoin:miter;stroke-miterlimit:10;"/><polygon fill="#090D10" points="348.48,296.785,356.5739,291.1736,351.0779,292.5129,349.7386,287.0169,348.48,296.785" style="stroke:#090D10;stroke-width:1;stroke-linejoin:miter;stroke-miterlimit:10;"/><text fill="#090D10" font-family="Helvetica" font-size="10" lengthAdjust="spacing" textLength="81.2354" x="366.58" y="274.5672">&#171;State&#187; Context</text><text fill="#090D10" font-family="Helvetica" font-size="10" lengthAdjust="spacing" textLength="67.8467" x="280.7989" y="286.9073">estado actual</text></g><!--link Contratacion to Observador--><g class="link" data-entity-1="ent0001" data-entity-2="ent0008" data-link-type="aggregation" data-source-line="54" id="lnk19"><path codeLine="54" d="M533.7562,253.6223 C556.8162,279.9523 568.7344,293.5448 585.3344,312.4848" fill="none" id="Contratacion-Observador" style="stroke:#090D10;stroke-width:1;"/><polygon fill="none" points="525.85,244.595,526.794,251.744,533.7562,253.6223,532.8122,246.4733,525.85,244.595" style="stroke:#090D10;stroke-width:1;stroke-linejoin:miter;stroke-miterlimit:10;"/><polygon fill="#090D10" points="588.63,316.245,585.706,306.8402,585.3344,312.4848,579.6898,312.1132,588.63,316.245" style="stroke:#090D10;stroke-width:1;stroke-linejoin:miter;stroke-miterlimit:10;"/><text fill="#090D10" font-family="Helvetica" font-size="10" lengthAdjust="spacing" textLength="98.6719" x="552.96" y="274.5672">&#171;Observer&#187; Subject</text><ellipse cx="499.7096" cy="301.1391" fill="#090D10" rx="2.5" ry="2.5"/><text fill="#090D10" font-family="Helvetica" font-size="10" lengthAdjust="spacing" textLength="67.9248" x="506.2096" y="306.2807">observadores</text></g><?plantuml-src VLJDZjCm4BxxAOPUQ1Sbj4UgRYzHES9A5IU4LXDtoWvoxCfs43-x4W_1Yo0EtDatsIV1STmaLLFQAiruxE_FJZnxHR1Ov1AUVlo4Gg4Z1pk27Jjw_6NWxn-uGM-D3iDRZvxWAxmj7TdFPC6PqX8KHdkB7YK__jP2F6CjLHqWylnb-CtdjuMfQXrkyldjndbMfXt9kQwK4C_Xklb4cW2GM9P02iXvt9b6Zi9J6lXeIYQh4LmDqbG7OprMJDgR5kuCjXEzX5g3nAhaY9mujF6yPuaGlbM93WveVV0yVLSiNiq04ggG8I4tq68qV1S06V0k_kr9tk7MA9RiwtOeCInX4s-6QsFVH6MXOmFVCWbjolTN7ve9MRYy25b7JBJJMQnHqg6lM8TcL-rPe-9lNIrHIr9TwSYtKgOqgYhDgfsqNBATcXDLioZwc5U3-I04bYuibnxQVCunOqgzQXaWpocFBiQxlQlnVkVolFrmtBYqCxZ3VYVtRAj-OAEBsZgJgjU9iv_VaeHQiFPazy7H89pEfgylQkt4l4aPXdM5QiukdJTkR7jyh10ZeQxkispewTAKWSjBKuw-B_K7ILnawRCP9BAwp_Cng_-PCZ1zmcAoR0sJz3or6K_6pjeILglu6bclO_RqnOy1NPqyUfFXDZO8npT60DdMvIUI_Xy0?></g></svg>