<svg xmlns="http://www.w3.org/2000/svg" xmlns:xlink="http://www.w3.org/1999/xlink" contentStyleType="text/css" data-diagram-type="CLASS" height="338px" preserveAspectRatio="none" style="width:728px;height:338px;background:#FAFAFA;" version="1.1" viewBox="0 0 728 338" width="728px" zoomAndPan="magnify"><?plantuml 1.2026.4?><defs/><g><rect fill="#FAFAFA" height="338" style="stroke:none;stroke-width:1;" width="728" x="0" y="0"/><g class="title" data-source-line="1"><text fill="#000000" font-family="Helvetica" font-size="16" font-weight="700" lengthAdjust="spacing" textLength="701.0391" x="10" y="24.8516">11.c &#8212; Clases de dise&#241;o &#183; Patr&#243;n Strategy (orden de resultados de b&#250;squeda)</text></g><!--class BuscadorPrestadores--><g class="entity" data-qualified-name="BuscadorPrestadores" data-source-line="8" id="ent0001"><rect fill="#F1F1F1" height="82.4141" rx="7" ry="7" style="stroke:#181818;stroke-width:0.5;" width="223.8315" x="255.2951" y="46.625"/><ellipse cx="305.1039" cy="60.625" fill="#ADD1B2" rx="9" ry="9" style="stroke:#181818;stroke-width:1;"/><path d="M306.4164,64.3906 Q306.0414,64.5938 305.6195,64.6875 Q305.2133,64.7813 304.7445,64.7813 Q303.1352,64.7813 302.2758,63.7188 Q301.4164,62.6406 301.4164,60.625 Q301.4164,58.5938 302.2758,57.5313 Q303.1352,56.4531 304.7445,56.4531 Q305.2133,56.4531 305.6195,56.5625 Q306.0414,56.6563 306.4164,56.8438 L306.4164,58.6094 Q305.9945,58.2344 305.6039,58.0625 Q305.2289,57.8906 304.8227,57.8906 Q303.9633,57.8906 303.5102,58.5781 Q303.0727,59.2656 303.0727,60.625 Q303.0727,61.9844 303.5102,62.6719 Q303.9633,63.3594 304.8227,63.3594 Q305.2289,63.3594 305.6039,63.1875 Q305.9945,63.0156 306.4164,62.625 L306.4164,64.3906 Z " fill="#000000"/><text fill="#000000" font-family="Helvetica" font-size="11" lengthAdjust="spacing" textLength="116.7139" x="322.6039" y="64.4331">BuscadorPrestadores</text><line style="stroke:#181818;stroke-width:0.5;" x1="256.2951" x2="478.1266" y1="74.625" y2="74.625"/><g data-visibility-modifier="PRIVATE_FIELD"><rect fill="none" height="6" style="stroke:#C82930;stroke-width:1;" width="6" x="263.2951" y="83.5273"/></g><text fill="#000000" font-family="Helvetica" font-size="11" lengthAdjust="spacing" textLength="167.4868" x="273.2951" y="88.8354">estrategia : EstrategiaRanking</text><line style="stroke:#181818;stroke-width:0.5;" x1="256.2951" x2="478.1266" y1="95.4297" y2="95.4297"/><g data-visibility-modifier="PUBLIC_METHOD"><ellipse cx="266.2951" cy="107.332" fill="#84BE84" rx="3" ry="3" style="stroke:#038048;stroke-width:1;"/></g><text fill="#000000" font-family="Helvetica" font-size="11" lengthAdjust="spacing" textLength="199.8315" x="273.2951" y="109.6401">setEstrategia(e : EstrategiaRanking)</text><g data-visibility-modifier="PUBLIC_METHOD"><ellipse cx="266.2951" cy="120.1367" fill="#84BE84" rx="3" ry="3" style="stroke:#038048;stroke-width:1;"/></g><text fill="#000000" font-family="Helvetica" font-size="11" lengthAdjust="spacing" textLength="168.0508" x="273.2951" y="122.4448">buscar(criterios) : Prestador[*]</text></g><!--class EstrategiaRanking--><g class="entity" data-qualified-name="EstrategiaRanking" data-source-line="14" id="ent0002"><rect fill="#F1F1F1" height="56.8047" rx="7" ry="7" style="stroke:#181818;stroke-width:0.5;" width="297.061" x="218.6751" y="182.045"/><ellipse cx="313.0291" cy="196.045" fill="#B4A7E5" rx="9" ry="9" style="stroke:#181818;stroke-width:1;"/><path d="M309.951,193.42 L309.951,192.0294 L314.7322,192.0294 L314.7322,193.42 L313.1385,193.42 L313.1385,198.6544 L314.7322,198.6544 L314.7322,200.045 L309.951,200.045 L309.951,198.6544 L311.5447,198.6544 L311.5447,193.42 L309.951,193.42 Z " fill="#000000"/><text fill="#000000" font-family="Helvetica" font-size="11" font-style="italic" lengthAdjust="spacing" textLength="100.853" x="330.5291" y="199.8531">EstrategiaRanking</text><line style="stroke:#181818;stroke-width:0.5;" x1="219.6751" x2="514.7361" y1="210.045" y2="210.045"/><line style="stroke:#181818;stroke-width:0.5;" x1="219.6751" x2="514.7361" y1="218.045" y2="218.045"/><g data-visibility-modifier="PUBLIC_METHOD"><ellipse cx="229.6751" cy="229.9473" fill="#84BE84" rx="3" ry="3" style="stroke:#038048;stroke-width:1;"/></g><text fill="#000000" font-family="Helvetica" font-size="11" lengthAdjust="spacing" textLength="273.061" x="236.6751" y="232.2554">ordenar(prestadores : Prestador[*]) : Prestador[*]</text></g><!--class RankingPorCercania--><g class="entity" data-qualified-name="RankingPorCercania" data-source-line="18" id="ent0003"><rect fill="#F1F1F1" height="44" rx="7" ry="7" style="stroke:#181818;stroke-width:0.5;" width="139.1494" x="126.6351" y="279.845"/><ellipse cx="139.6351" cy="293.845" fill="#ADD1B2" rx="9" ry="9" style="stroke:#181818;stroke-width:1;"/><path d="M140.9476,297.6106 Q140.5726,297.8138 140.1507,297.9075 Q139.7445,298.0013 139.2757,298.0013 Q137.6663,298.0013 136.807,296.9388 Q135.9476,295.8606 135.9476,293.845 Q135.9476,291.8138 136.807,290.7513 Q137.6663,289.6731 139.2757,289.6731 Q139.7445,289.6731 140.1507,289.7825 Q140.5726,289.8763 140.9476,290.0638 L140.9476,291.8294 Q140.5257,291.4544 140.1351,291.2825 Q139.7601,291.1106 139.3538,291.1106 Q138.4945,291.1106 138.0413,291.7981 Q137.6038,292.4856 137.6038,293.845 Q137.6038,295.2044 138.0413,295.8919 Q138.4945,296.5794 139.3538,296.5794 Q139.7601,296.5794 140.1351,296.4075 Q140.5257,296.2356 140.9476,295.845 L140.9476,297.6106 Z " fill="#000000"/><text fill="#000000" font-family="Helvetica" font-size="11" lengthAdjust="spacing" textLength="111.1494" x="151.6351" y="297.6531">RankingPorCercania</text><line style="stroke:#181818;stroke-width:0.5;" x1="127.6351" x2="264.7845" y1="307.845" y2="307.845"/><line style="stroke:#181818;stroke-width:0.5;" x1="127.6351" x2="264.7845" y1="315.845" y2="315.845"/></g><!--class RankingPorReputacion--><g class="entity" data-qualified-name="RankingPorReputacion" data-source-line="19" id="ent0004"><rect fill="#F1F1F1" height="44" rx="7" ry="7" style="stroke:#181818;stroke-width:0.5;" width="152.8457" x="290.7851" y="279.845"/><ellipse cx="303.7851" cy="293.845" fill="#ADD1B2" rx="9" ry="9" style="stroke:#181818;stroke-width:1;"/><path d="M305.0976,297.6106 Q304.7226,297.8138 304.3007,297.9075 Q303.8945,298.0013 303.4257,298.0013 Q301.8163,298.0013 300.957,296.9388 Q300.0976,295.8606 300.0976,293.845 Q300.0976,291.8138 300.957,290.7513 Q301.8163,289.6731 303.4257,289.6731 Q303.8945,289.6731 304.3007,289.7825 Q304.7226,289.8763 305.0976,290.0638 L305.0976,291.8294 Q304.6757,291.4544 304.2851,291.2825 Q303.9101,291.1106 303.5038,291.1106 Q302.6445,291.1106 302.1913,291.7981 Q301.7538,292.4856 301.7538,293.845 Q301.7538,295.2044 302.1913,295.8919 Q302.6445,296.5794 303.5038,296.5794 Q303.9101,296.5794 304.2851,296.4075 Q304.6757,296.2356 305.0976,295.845 L305.0976,297.6106 Z " fill="#000000"/><text fill="#000000" font-family="Helvetica" font-size="11" lengthAdjust="spacing" textLength="124.8457" x="315.7851" y="297.6531">RankingPorReputacion</text><line style="stroke:#181818;stroke-width:0.5;" x1="291.7851" x2="442.6308" y1="307.845" y2="307.845"/><line style="stroke:#181818;stroke-width:0.5;" x1="291.7851" x2="442.6308" y1="315.845" y2="315.845"/></g><!--class RankingPorPrecio--><g class="entity" data-qualified-name="RankingPorPrecio" data-source-line="20" id="ent0005"><rect fill="#F1F1F1" height="44" rx="7" ry="7" style="stroke:#181818;stroke-width:0.5;" width="124.3789" x="469.0251" y="279.845"/><ellipse cx="482.0251" cy="293.845" fill="#ADD1B2" rx="9" ry="9" style="stroke:#181818;stroke-width:1;"/><path d="M483.3376,297.6106 Q482.9626,297.8138 482.5407,297.9075 Q482.1345,298.0013 481.6657,298.0013 Q480.0563,298.0013 479.197,296.9388 Q478.3376,295.8606 478.3376,293.845 Q478.3376,291.8138 479.197,290.7513 Q480.0563,289.6731 481.6657,289.6731 Q482.1345,289.6731 482.5407,289.7825 Q482.9626,289.8763 483.3376,290.0638 L483.3376,291.8294 Q482.9157,291.4544 482.5251,291.2825 Q482.1501,291.1106 481.7438,291.1106 Q480.8845,291.1106 480.4313,291.7981 Q479.9938,292.4856 479.9938,293.845 Q479.9938,295.2044 480.4313,295.8919 Q480.8845,296.5794 481.7438,296.5794 Q482.1501,296.5794 482.5251,296.4075 Q482.9157,296.2356 483.3376,295.845 L483.3376,297.6106 Z " fill="#000000"/><text fill="#000000" font-family="Helvetica" font-size="11" lengthAdjust="spacing" textLength="96.3789" x="494.0251" y="297.6531">RankingPorPrecio</text><line style="stroke:#181818;stroke-width:0.5;" x1="470.0251" x2="592.404" y1="307.845" y2="307.845"/><line style="stroke:#181818;stroke-width:0.5;" x1="470.0251" x2="592.404" y1="315.845" y2="315.845"/></g><!--reverse link EstrategiaRanking to RankingPorCercania--><g class="link" data-entity-1="ent0002" data-entity-2="ent0003" data-link-type="extension" data-source-line="22" id="lnk6"><path codeLine="22" d="M298.0907,247.5791 C273.2807,260.5391 260.1751,267.405 237.1151,279.455" fill="none" id="EstrategiaRanking-backto-RankingPorCercania" style="stroke:#090D10;stroke-width:1;stroke-dasharray:7,7;"/><polygon fill="none" points="314.0451,239.245,295.3126,242.261,300.8687,252.8972,314.0451,239.245" style="stroke:#090D10;stroke-width:1;stroke-linejoin:miter;stroke-miterlimit:10;"/></g><!--reverse link EstrategiaRanking to RankingPorReputacion--><g class="link" data-entity-1="ent0002" data-entity-2="ent0004" data-link-type="extension" data-source-line="23" id="lnk7"><path codeLine="23" d="M367.2051,257.245 C367.2051,270.255 367.2051,267.525 367.2051,279.595" fill="none" id="EstrategiaRanking-backto-RankingPorReputacion" style="stroke:#090D10;stroke-width:1;stroke-dasharray:7,7;"/><polygon fill="none" points="367.2051,239.245,361.2051,257.245,373.2051,257.245,367.2051,239.245" style="stroke:#090D10;stroke-width:1;stroke-linejoin:miter;stroke-miterlimit:10;"/></g><!--reverse link EstrategiaRanking to RankingPorPrecio--><g class="link" data-entity-1="ent0002" data-entity-2="ent0005" data-link-type="extension" data-source-line="24" id="lnk8"><path codeLine="24" d="M434.0118,247.856 C457.8018,260.816 469.8651,267.405 491.9751,279.455" fill="none" id="EstrategiaRanking-backto-RankingPorPrecio" style="stroke:#090D10;stroke-width:1;stroke-dasharray:7,7;"/><polygon fill="none" points="418.2051,239.245,431.1414,253.1249,436.8821,242.5871,418.2051,239.245" style="stroke:#090D10;stroke-width:1;stroke-linejoin:miter;stroke-miterlimit:10;"/></g><!--link BuscadorPrestadores to EstrategiaRanking--><g class="link" data-entity-1="ent0001" data-entity-2="ent0002" data-link-type="aggregation" data-source-line="26" id="lnk9"><path codeLine="26" d="M367.2051,141.325 C367.2051,158.575 367.2051,161.255 367.2051,176.785" fill="none" id="BuscadorPrestadores-EstrategiaRanking" style="stroke:#090D10;stroke-width:1;"/><polygon fill="none" points="367.2051,129.325,363.2051,135.325,367.2051,141.325,371.2051,135.325,367.2051,129.325" style="stroke:#090D10;stroke-width:1;stroke-linejoin:miter;stroke-miterlimit:10;"/><polygon fill="#090D10" points="367.2051,181.785,371.2051,172.785,367.2051,176.785,363.2051,172.785,367.2051,181.785" style="stroke:#090D10;stroke-width:1;stroke-linejoin:miter;stroke-miterlimit:10;"/><text fill="#090D10" font-family="Helvetica" font-size="10" lengthAdjust="spacing" textLength="97.6123" x="368.2051" y="159.3272">&#171;Strategy&#187; Context</text></g><?plantuml-src XLBDQjj04BxlKqnEjHEyTQx6-52JOy6anr32U3KnGrUxwkuiD4qBVOY-G1yWXv138CVeJV8a6SdvSR4W890qy-dxMmcB9pW-jWuU__o5fSTC6Ig2YZErDn4Uxc25ajhR05yaeT3c4aOnLHGwLA9Sl60L-s_MxNt-NgZ2iJ4779mlEhJserxJwVaorYNeWvsUdsHX7xSJowNsndpOeNUnRc8Ih9c2nF4CBlJHCtOQw3SniTIgo44eEQpNZ6klhjLIAa6u9gjqdpdN29Gb5ISbeNejgie_Ep0qg1FN_lEk-BXDqXH1nrtGIsYYRw-5NI_fC3Zosvqrncb76JwLx3HtMca5NG5wWoi3CEabko3gTmOdho-d6Bvns2Za23B9ss94GxXn3rntAcdaD34bZdciq5V5iyElvhSnVGqNw6YVf7Tq1FrnAKspu_L_dY7URSvdfbLCowximBYtE7skBeQzbNBgt9XzP_DVrWwHlulSKNiN-o8_T5XnCbaCD3Q3-VpbJrmiO1crtH_o1000?></g></svg>