<svg xmlns="http://www.w3.org/2000/svg" xmlns:xlink="http://www.w3.org/1999/xlink" contentStyleType="text/css" data-diagram-type="CLASS" height="645px" preserveAspectRatio="none" style="width:740px;height:645px;background:#FAFAFA;" version="1.1" viewBox="0 0 740 645" width="740px" zoomAndPan="magnify"><?plantuml 1.2026.4?><defs/><g><rect fill="#FAFAFA" height="645" style="stroke:none;stroke-width:1;" width="740" x="0" y="0"/><g class="title" data-source-line="1"><text fill="#000000" font-family="Helvetica" font-size="16" font-weight="700" lengthAdjust="spacing" textLength="713.1641" x="10" y="24.8516">11.c &#8212; Clases de dise&#241;o &#183; Patr&#243;n Adapter (+ Factory) en la capa de integraci&#243;n</text></g><!--class ModuloPagos--><g class="entity" data-qualified-name="ModuloPagos" data-source-line="8" id="ent0001"><rect fill="#F1F1F1" height="69.6094" rx="7" ry="7" style="stroke:#181818;stroke-width:0.5;" width="155.7959" x="208.8955" y="46.625"/><ellipse cx="246.6543" cy="60.625" fill="#ADD1B2" rx="9" ry="9" style="stroke:#181818;stroke-width:1;"/><path d="M247.9668,64.3906 Q247.5918,64.5938 247.17,64.6875 Q246.7637,64.7813 246.295,64.7813 Q244.6856,64.7813 243.8262,63.7188 Q242.9668,62.6406 242.9668,60.625 Q242.9668,58.5938 243.8262,57.5313 Q244.6856,56.4531 246.295,56.4531 Q246.7637,56.4531 247.17,56.5625 Q247.5918,56.6563 247.9668,56.8438 L247.9668,58.6094 Q247.545,58.2344 247.1543,58.0625 Q246.7793,57.8906 246.3731,57.8906 Q245.5137,57.8906 245.0606,58.5781 Q244.6231,59.2656 244.6231,60.625 Q244.6231,61.9844 245.0606,62.6719 Q245.5137,63.3594 246.3731,63.3594 Q246.7793,63.3594 247.1543,63.1875 Q247.545,63.0156 247.9668,62.625 L247.9668,64.3906 Z " fill="#000000"/><text fill="#000000" font-family="Helvetica" font-size="11" lengthAdjust="spacing" textLength="72.7783" x="264.1543" y="64.4331">ModuloPagos</text><line style="stroke:#181818;stroke-width:0.5;" x1="209.8955" x2="363.6914" y1="74.625" y2="74.625"/><line style="stroke:#181818;stroke-width:0.5;" x1="209.8955" x2="363.6914" y1="82.625" y2="82.625"/><g data-visibility-modifier="PUBLIC_METHOD"><ellipse cx="219.8955" cy="94.5273" fill="#84BE84" rx="3" ry="3" style="stroke:#038048;stroke-width:1;"/></g><text fill="#000000" font-family="Helvetica" font-size="11" lengthAdjust="spacing" textLength="128.1167" x="226.8955" y="96.8354">pagar(c : Contratacion)</text><g data-visibility-modifier="PUBLIC_METHOD"><ellipse cx="219.8955" cy="107.332" fill="#84BE84" rx="3" ry="3" style="stroke:#038048;stroke-width:1;"/></g><text fill="#000000" font-family="Helvetica" font-size="11" lengthAdjust="spacing" textLength="131.7959" x="226.8955" y="109.6401">liberar(c : Contratacion)</text></g><!--class PasarelaPago--><g class="entity" data-qualified-name="PasarelaPago" data-source-line="13" id="ent0002"><rect fill="#F1F1F1" height="90.0234" rx="7" ry="7" style="stroke:#181818;stroke-width:0.5;" width="184.4238" x="194.5855" y="286.645"/><ellipse cx="246.0379" cy="304.4497" fill="#B4A7E5" rx="9" ry="9" style="stroke:#181818;stroke-width:1;"/><path d="M242.9598,301.8247 L242.9598,300.4341 L247.7411,300.4341 L247.7411,301.8247 L246.1473,301.8247 L246.1473,307.0591 L247.7411,307.0591 L247.7411,308.4497 L242.9598,308.4497 L242.9598,307.0591 L244.5536,307.0591 L244.5536,301.8247 L242.9598,301.8247 Z " fill="#000000"/><text fill="#000000" font-family="Helvetica" font-size="11" font-style="italic" lengthAdjust="spacing" textLength="49.8652" x="275.6148" y="301.8554">&#171;puerto&#187;</text><text fill="#000000" font-family="Helvetica" font-size="11" font-style="italic" lengthAdjust="spacing" textLength="74.019" x="263.5379" y="314.6601">PasarelaPago</text><line style="stroke:#181818;stroke-width:0.5;" x1="195.5855" x2="378.0094" y1="322.2544" y2="322.2544"/><line style="stroke:#181818;stroke-width:0.5;" x1="195.5855" x2="378.0094" y1="330.2544" y2="330.2544"/><g data-visibility-modifier="PUBLIC_METHOD"><ellipse cx="205.5855" cy="342.1567" fill="#84BE84" rx="3" ry="3" style="stroke:#038048;stroke-width:1;"/></g><text fill="#000000" font-family="Helvetica" font-size="11" lengthAdjust="spacing" textLength="145.2236" x="212.5855" y="344.4648">cobrar(monto) : Resultado</text><g data-visibility-modifier="PUBLIC_METHOD"><ellipse cx="205.5855" cy="354.9614" fill="#84BE84" rx="3" ry="3" style="stroke:#038048;stroke-width:1;"/></g><text fill="#000000" font-family="Helvetica" font-size="11" lengthAdjust="spacing" textLength="145.3257" x="212.5855" y="357.2695">liberar(monto) : Resultado</text><g data-visibility-modifier="PUBLIC_METHOD"><ellipse cx="205.5855" cy="367.7661" fill="#84BE84" rx="3" ry="3" style="stroke:#038048;stroke-width:1;"/></g><text fill="#000000" font-family="Helvetica" font-size="11" lengthAdjust="spacing" textLength="160.4238" x="212.5855" y="370.0742">consultarEstado(ref) : Estado</text></g><!--class AdaptadorMercadoPago--><g class="entity" data-qualified-name="AdaptadorMercadoPago" data-source-line="19" id="ent0003"><rect fill="#F1F1F1" height="82.4141" rx="7" ry="7" style="stroke:#181818;stroke-width:0.5;" width="184.4238" x="194.5855" y="417.675"/><ellipse cx="218.627" cy="431.675" fill="#ADD1B2" rx="9" ry="9" style="stroke:#181818;stroke-width:1;"/><path d="M219.9395,435.4406 Q219.5645,435.6437 219.1426,435.7375 Q218.7364,435.8312 218.2676,435.8312 Q216.6583,435.8312 215.7989,434.7687 Q214.9395,433.6906 214.9395,431.675 Q214.9395,429.6437 215.7989,428.5812 Q216.6583,427.5031 218.2676,427.5031 Q218.7364,427.5031 219.1426,427.6125 Q219.5645,427.7062 219.9395,427.8937 L219.9395,429.6594 Q219.5176,429.2844 219.127,429.1125 Q218.752,428.9406 218.3458,428.9406 Q217.4864,428.9406 217.0333,429.6281 Q216.5958,430.3156 216.5958,431.675 Q216.5958,433.0344 217.0333,433.7219 Q217.4864,434.4094 218.3458,434.4094 Q218.752,434.4094 219.127,434.2375 Q219.5176,434.0656 219.9395,433.675 L219.9395,435.4406 Z " fill="#000000"/><text fill="#000000" font-family="Helvetica" font-size="11" lengthAdjust="spacing" textLength="131.8872" x="233.0807" y="435.4831">AdaptadorMercadoPago</text><line style="stroke:#181818;stroke-width:0.5;" x1="195.5855" x2="378.0094" y1="445.675" y2="445.675"/><line style="stroke:#181818;stroke-width:0.5;" x1="195.5855" x2="378.0094" y1="453.675" y2="453.675"/><g data-visibility-modifier="PUBLIC_METHOD"><ellipse cx="205.5855" cy="465.5773" fill="#84BE84" rx="3" ry="3" style="stroke:#038048;stroke-width:1;"/></g><text fill="#000000" font-family="Helvetica" font-size="11" lengthAdjust="spacing" textLength="145.2236" x="212.5855" y="467.8854">cobrar(monto) : Resultado</text><g data-visibility-modifier="PUBLIC_METHOD"><ellipse cx="205.5855" cy="478.382" fill="#84BE84" rx="3" ry="3" style="stroke:#038048;stroke-width:1;"/></g><text fill="#000000" font-family="Helvetica" font-size="11" lengthAdjust="spacing" textLength="145.3257" x="212.5855" y="480.6901">liberar(monto) : Resultado</text><g data-visibility-modifier="PUBLIC_METHOD"><ellipse cx="205.5855" cy="491.1867" fill="#84BE84" rx="3" ry="3" style="stroke:#038048;stroke-width:1;"/></g><text fill="#000000" font-family="Helvetica" font-size="11" lengthAdjust="spacing" textLength="160.4238" x="212.5855" y="493.4948">consultarEstado(ref) : Estado</text></g><!--class FabricaPasarela--><g class="entity" data-qualified-name="FabricaPasarela" data-source-line="25" id="ent0004"><rect fill="#F1F1F1" height="64.4141" rx="7" ry="7" style="stroke:#181818;stroke-width:0.5;" width="179.563" x="358.0155" y="169.235"/><ellipse cx="400.372" cy="187.0397" fill="#ADD1B2" rx="9" ry="9" style="stroke:#181818;stroke-width:1;"/><path d="M401.6845,190.8053 Q401.3095,191.0084 400.8876,191.1022 Q400.4814,191.1959 400.0126,191.1959 Q398.4032,191.1959 397.5439,190.1334 Q396.6845,189.0553 396.6845,187.0397 Q396.6845,185.0084 397.5439,183.9459 Q398.4032,182.8678 400.0126,182.8678 Q400.4814,182.8678 400.8876,182.9772 Q401.3095,183.0709 401.6845,183.2584 L401.6845,185.0241 Q401.2626,184.6491 400.872,184.4772 Q400.497,184.3053 400.0907,184.3053 Q399.2314,184.3053 398.7782,184.9928 Q398.3407,185.6803 398.3407,187.0397 Q398.3407,188.3991 398.7782,189.0866 Q399.2314,189.7741 400.0907,189.7741 Q400.497,189.7741 400.872,189.6022 Q401.2626,189.4303 401.6845,189.0397 L401.6845,190.8053 Z " fill="#000000"/><text fill="#000000" font-family="Helvetica" font-size="11" font-style="italic" lengthAdjust="spacing" textLength="54.769" x="434.1625" y="184.4454">&#171;Factory&#187;</text><text fill="#000000" font-family="Helvetica" font-size="11" lengthAdjust="spacing" textLength="87.3501" x="417.872" y="197.2501">FabricaPasarela</text><line style="stroke:#181818;stroke-width:0.5;" x1="359.0155" x2="536.5785" y1="204.8444" y2="204.8444"/><line style="stroke:#181818;stroke-width:0.5;" x1="359.0155" x2="536.5785" y1="212.8444" y2="212.8444"/><g data-visibility-modifier="PUBLIC_METHOD"><ellipse cx="369.0155" cy="224.7467" fill="#84BE84" rx="3" ry="3" style="stroke:#038048;stroke-width:1;"/></g><text fill="#000000" font-family="Helvetica" font-size="11" lengthAdjust="spacing" textLength="155.563" x="376.0155" y="227.0548">crear(config) : PasarelaPago</text></g><!--class SDKMP--><g class="entity" data-qualified-name="SDKMP" data-source-line="29" id="ent0005"><rect fill="#F1F1F1" height="77.2188" rx="7" ry="7" style="stroke:#181818;stroke-width:0.5;" width="132.0273" x="220.7855" y="553.085"/><ellipse cx="233.7855" cy="570.8897" fill="#ADD1B2" rx="9" ry="9" style="stroke:#181818;stroke-width:1;"/><path d="M235.098,574.6553 Q234.723,574.8584 234.3012,574.9522 Q233.8949,575.0459 233.4262,575.0459 Q231.8168,575.0459 230.9574,573.9834 Q230.098,572.9053 230.098,570.8897 Q230.098,568.8584 230.9574,567.7959 Q231.8168,566.7178 233.4262,566.7178 Q233.8949,566.7178 234.3012,566.8272 Q234.723,566.9209 235.098,567.1084 L235.098,568.8741 Q234.6762,568.4991 234.2855,568.3272 Q233.9105,568.1553 233.5043,568.1553 Q232.6449,568.1553 232.1918,568.8428 Q231.7543,569.5303 231.7543,570.8897 Q231.7543,572.2491 232.1918,572.9366 Q232.6449,573.6241 233.5043,573.6241 Q233.9105,573.6241 234.2855,573.4522 Q234.6762,573.2803 235.098,572.8897 L235.098,574.6553 Z " fill="#000000"/><text fill="#000000" font-family="Helvetica" font-size="11" font-style="italic" lengthAdjust="spacing" textLength="102.7114" x="246.4435" y="568.2954">&#171;sistema externo&#187;</text><text fill="#000000" font-family="Helvetica" font-size="11" lengthAdjust="spacing" textLength="104.0273" x="245.7855" y="581.1001">SDK Mercado Pago</text><line style="stroke:#181818;stroke-width:0.5;" x1="221.7855" x2="351.8129" y1="588.6944" y2="588.6944"/><line style="stroke:#181818;stroke-width:0.5;" x1="221.7855" x2="351.8129" y1="596.6944" y2="596.6944"/><g data-visibility-modifier="PUBLIC_METHOD"><ellipse cx="231.7855" cy="608.5967" fill="#84BE84" rx="3" ry="3" style="stroke:#038048;stroke-width:1;"/></g><text fill="#000000" font-family="Helvetica" font-size="11" lengthAdjust="spacing" textLength="92.3936" x="238.7855" y="610.9048">createPayment()</text><g data-visibility-modifier="PUBLIC_METHOD"><ellipse cx="231.7855" cy="621.4014" fill="#84BE84" rx="3" ry="3" style="stroke:#038048;stroke-width:1;"/></g><text fill="#000000" font-family="Helvetica" font-size="11" lengthAdjust="spacing" textLength="44.6714" x="238.7855" y="623.7095">refund()</text></g><!--link ModuloPagos to PasarelaPago--><g class="link" data-entity-1="ent0001" data-entity-2="ent0002" data-link-type="dependency" data-source-line="34" id="lnk6"><path codeLine="34" d="M282.9155,116.595 C281.2955,132.565 279.5955,151.845 278.7955,169.235 C277.4855,197.835 277.6155,205.045 278.7955,233.645 C279.5055,250.875 280.4778,264.7942 281.9278,281.2942" fill="none" id="ModuloPagos-to-PasarelaPago" style="stroke:#090D10;stroke-width:1;"/><polygon fill="#090D10" points="282.3655,286.275,285.5623,276.9594,281.9278,281.2942,277.593,277.6597,282.3655,286.275" style="stroke:#090D10;stroke-width:1;stroke-linejoin:miter;stroke-miterlimit:10;"/><text fill="#090D10" font-family="Helvetica" font-size="10" lengthAdjust="spacing" textLength="65.9521" x="279.7955" y="205.2272">usa el puerto</text></g><!--link ModuloPagos to FabricaPasarela--><g class="link" data-entity-1="ent0001" data-entity-2="ent0004" data-link-type="dependency" data-source-line="35" id="lnk7"><path codeLine="35" d="M333.3655,116.565 C355.8355,133.035 378.6026,149.7195 400.6126,165.8495" fill="none" id="ModuloPagos-to-FabricaPasarela" style="stroke:#090D10;stroke-width:1;stroke-dasharray:7,7;"/><polygon fill="#090D10" points="404.6455,168.805,399.7507,160.2586,400.6126,165.8495,395.0218,166.7114,404.6455,168.805" style="stroke:#090D10;stroke-width:1;stroke-linejoin:miter;stroke-miterlimit:10;"/><text fill="#090D10" font-family="Helvetica" font-size="10" lengthAdjust="spacing" textLength="83.5059" x="377.9355" y="146.5172">solicita instancia</text></g><!--link FabricaPasarela to PasarelaPago--><g class="link" data-entity-1="ent0004" data-entity-2="ent0002" data-link-type="dependency" data-source-line="36" id="lnk8"><path codeLine="36" d="M407.9955,234.135 C388.2555,249.855 367.9961,265.9893 346.4461,283.1593" fill="none" id="FabricaPasarela-to-PasarelaPago" style="stroke:#090D10;stroke-width:1;stroke-dasharray:7,7;"/><polygon fill="#090D10" points="342.5355,286.275,352.0671,283.7951,346.4461,283.1593,347.0819,277.5383,342.5355,286.275" style="stroke:#090D10;stroke-width:1;stroke-linejoin:miter;stroke-miterlimit:10;"/><text fill="#090D10" font-family="Helvetica" font-size="10" lengthAdjust="spacing" textLength="44.1992" x="382.7155" y="263.9272">&#171;create&#187;</text></g><!--reverse link PasarelaPago to AdaptadorMercadoPago--><g class="link" data-entity-1="ent0002" data-entity-2="ent0003" data-link-type="extension" data-source-line="37" id="lnk9"><path codeLine="37" d="M286.7955,395.165 C286.7955,408.235 286.7955,404.465 286.7955,417.285" fill="none" id="PasarelaPago-backto-AdaptadorMercadoPago" style="stroke:#090D10;stroke-width:1;stroke-dasharray:7,7;"/><polygon fill="none" points="286.7955,377.165,280.7955,395.165,292.7955,395.165,286.7955,377.165" style="stroke:#090D10;stroke-width:1;stroke-linejoin:miter;stroke-miterlimit:10;"/></g><!--link AdaptadorMercadoPago to SDKMP--><g class="link" data-entity-1="ent0003" data-entity-2="ent0005" data-link-type="dependency" data-source-line="38" id="lnk10"><path codeLine="38" d="M286.7955,500.555 C286.7955,517.205 286.7955,531.365 286.7955,547.725" fill="none" id="AdaptadorMercadoPago-to-SDKMP" style="stroke:#090D10;stroke-width:1;"/><polygon fill="#090D10" points="286.7955,552.725,290.7955,543.725,286.7955,547.725,282.7955,543.725,286.7955,552.725" style="stroke:#090D10;stroke-width:1;stroke-linejoin:miter;stroke-miterlimit:10;"/><text fill="#090D10" font-family="Helvetica" font-size="10" lengthAdjust="spacing" textLength="87.8711" x="287.7955" y="530.3672">adapta (Adaptee)</text></g><?plantuml-src lLFDYjim4BxhAQPxgSrYRRRq588XpJPGIaf87s0PovCWAaj6aalJ7-X3z0Nw03sK7dfltgHFqf6Tx6vsq-k2GTRyV3FpVQEeeo6ul9GA_dxz1ZE3WGBK1BKEjFlfuCzlM6BqkryMfZMsaJnavp175PtVva0M38B25bEIjf4s7fNcS26UQAjCnsOfB_WRZQvdhkai_yZHzSiGjN63HUgkCK8ylQdW2Ot-Y3VGBxnxn-OBQ3loqOLYMs0AnThveTtfrQeOFOEC9wdoCKFXxaSmFS9q-OeZ3BJUlIVY3A0FNCGwjl9Wt_lypkwnWKB4YZd9Lc_cnK8-pwKGYca9i71rPzmIDox09m5m3Yrkq6SAnZ1pDdgCFBgpUUypkY9_qlj5Y4IKNwCY9ZUW9uC95YQJeOcot1TGhaeO3UUxd85M53gJnZugyH-tShQ_UkQQRPcdTGeQRgcBOQpfWSa5USLdtydZbPzZvRN20m_CmNwvRadWTM0UdLthJKAuIzajpjdRgzUm7m6Iwmmm01iNIyOCEaHgy23z4NQa9MuRiZ4RbED6ErjdlL1tDI-AybYkCNI18Sr-TOw2fImVZ3Q6u8nMEYA_5AR1AetYVb1Al5TbCXdQB4jnl2wVfJmfdpYfQUf_u6CCm_E1R7XnbFy3?></g></svg>