<svg xmlns="http://www.w3.org/2000/svg" xmlns:xlink="http://www.w3.org/1999/xlink" contentStyleType="text/css" data-diagram-type="ACTIVITY" height="254px" preserveAspectRatio="none" style="width:577px;height:254px;background:#FAFAFA;" version="1.1" viewBox="0 0 577 254" width="577px" zoomAndPan="magnify"><?plantuml 1.2026.4?><defs/><g><rect fill="#FAFAFA" height="254" style="stroke:none;stroke-width:1;" width="577" x="0" y="0"/><g class="title" data-source-line="1"><text fill="#000000" font-family="Helvetica" font-size="16" font-weight="700" lengthAdjust="spacing" textLength="182.8359" x="196.5105" y="34.8516">Disciplina de Dise&#241;o</text></g><ellipse cx="290.4243" cy="64.625" fill="#000000" rx="10" ry="10" style="stroke:#222222;stroke-width:1;"/><rect fill="#000000" height="6" rx="2.5" ry="2.5" style="stroke:#000000;stroke-width:1;" width="541.8569" x="16" y="94.625"/><rect fill="#C9DFEE" height="45.6094" rx="7" ry="7" style="stroke:#000000;stroke-width:0.5;" width="138.6689" x="28" y="120.625"/><text fill="#000000" font-family="Helvetica" font-size="11" lengthAdjust="spacing" textLength="118.6689" x="38" y="140.8354">Evaluar arquitecturas</text><text fill="#000000" font-family="Helvetica" font-size="11" lengthAdjust="spacing" textLength="64.9204" x="64.8743" y="153.6401">de software</text><rect fill="#C9DFEE" height="45.6094" rx="7" ry="7" style="stroke:#000000;stroke-width:0.5;" width="113.7471" x="176.6689" y="120.625"/><text fill="#000000" font-family="Helvetica" font-size="11" lengthAdjust="spacing" textLength="93.7471" x="186.6689" y="140.8354">Evaluar patrones</text><text fill="#000000" font-family="Helvetica" font-size="11" lengthAdjust="spacing" textLength="53.4854" x="206.7998" y="153.6401">de dise&#241;o</text><rect fill="#C9DFEE" height="45.6094" rx="7" ry="7" style="stroke:#000000;stroke-width:0.5;" width="112.2163" x="311.4243" y="120.625"/><text fill="#000000" font-family="Helvetica" font-size="11" lengthAdjust="spacing" textLength="92.2163" x="321.4243" y="140.8354">Dise&#241;ar y refinar</text><text fill="#000000" font-family="Helvetica" font-size="11" lengthAdjust="spacing" textLength="54.7905" x="340.1372" y="153.6401">interfaces</text><rect fill="#C9DFEE" height="45.6094" rx="7" ry="7" style="stroke:#000000;stroke-width:0.5;" width="112.2163" x="433.6406" y="120.625"/><text fill="#000000" font-family="Helvetica" font-size="11" lengthAdjust="spacing" textLength="92.2163" x="443.6406" y="140.8354">Dise&#241;ar y refinar</text><text fill="#000000" font-family="Helvetica" font-size="11" lengthAdjust="spacing" textLength="77.4619" x="451.0178" y="153.6401">base de datos</text><rect fill="#000000" height="6" rx="2.5" ry="2.5" style="stroke:#000000;stroke-width:1;" width="541.8569" x="16" y="186.2344"/><ellipse cx="290.4243" cy="223.2344" fill="none" rx="11" ry="11" style="stroke:#222222;stroke-width:1;"/><ellipse cx="290.4243" cy="223.2344" fill="#222222" rx="6" ry="6" style="stroke:#222222;stroke-width:1;"/><line style="stroke:#090D10;stroke-width:1;" x1="97.3345" x2="97.3345" y1="100.625" y2="120.625"/><polygon fill="#090D10" points="93.3345,110.625,97.3345,120.625,101.3345,110.625,97.3345,114.625" style="stroke:#090D10;stroke-width:1;stroke-linejoin:miter;stroke-miterlimit:10;"/><line style="stroke:#090D10;stroke-width:1;" x1="233.5425" x2="233.5425" y1="100.625" y2="120.625"/><polygon fill="#090D10" points="229.5425,110.625,233.5425,120.625,237.5425,110.625,233.5425,114.625" style="stroke:#090D10;stroke-width:1;stroke-linejoin:miter;stroke-miterlimit:10;"/><line style="stroke:#090D10;stroke-width:1;" x1="367.5325" x2="367.5325" y1="100.625" y2="120.625"/><polygon fill="#090D10" points="363.5325,110.625,367.5325,120.625,371.5325,110.625,367.5325,114.625" style="stroke:#090D10;stroke-width:1;stroke-linejoin:miter;stroke-miterlimit:10;"/><line style="stroke:#090D10;stroke-width:1;" x1="489.7488" x2="489.7488" y1="100.625" y2="120.625"/><polygon fill="#090D10" points="485.7488,110.625,489.7488,120.625,493.7488,110.625,489.7488,114.625" style="stroke:#090D10;stroke-width:1;stroke-linejoin:miter;stroke-miterlimit:10;"/><line style="stroke:#090D10;stroke-width:1;" x1="97.3345" x2="97.3345" y1="166.2344" y2="186.2344"/><polygon fill="#090D10" points="93.3345,176.2344,97.3345,186.2344,101.3345,176.2344,97.3345,180.2344" style="stroke:#090D10;stroke-width:1;stroke-linejoin:miter;stroke-miterlimit:10;"/><line style="stroke:#090D10;stroke-width:1;" x1="233.5425" x2="233.5425" y1="166.2344" y2="186.2344"/><polygon fill="#090D10" points="229.5425,176.2344,233.5425,186.2344,237.5425,176.2344,233.5425,180.2344" style="stroke:#090D10;stroke-width:1;stroke-linejoin:miter;stroke-miterlimit:10;"/><line style="stroke:#090D10;stroke-width:1;" x1="367.5325" x2="367.5325" y1="166.2344" y2="186.2344"/><polygon fill="#090D10" points="363.5325,176.2344,367.5325,186.2344,371.5325,176.2344,367.5325,180.2344" style="stroke:#090D10;stroke-width:1;stroke-linejoin:miter;stroke-miterlimit:10;"/><line style="stroke:#090D10;stroke-width:1;" x1="489.7488" x2="489.7488" y1="166.2344" y2="186.2344"/><polygon fill="#090D10" points="485.7488,176.2344,489.7488,186.2344,493.7488,176.2344,489.7488,180.2344" style="stroke:#090D10;stroke-width:1;stroke-linejoin:miter;stroke-miterlimit:10;"/><line style="stroke:#090D10;stroke-width:1;" x1="290.4243" x2="290.4243" y1="74.625" y2="94.625"/><polygon fill="#090D10" points="286.4243,84.625,290.4243,94.625,294.4243,84.625,290.4243,88.625" style="stroke:#090D10;stroke-width:1;stroke-linejoin:miter;stroke-miterlimit:10;"/><line style="stroke:#090D10;stroke-width:1;" x1="290.4243" x2="290.4243" y1="192.2344" y2="212.2344"/><polygon fill="#090D10" points="286.4243,202.2344,290.4243,212.2344,294.4243,202.2344,290.4243,206.2344" style="stroke:#090D10;stroke-width:1;stroke-linejoin:miter;stroke-miterlimit:10;"/><?plantuml-src bP0n3i8m34Ntd29Se7G6n0AzHILaKWTPf4vn7137uWnSZBHPOS2J_Qrd_Myb3MYFb1nDWHZii4puVaLZLiGkvA8qpRfjJuSuPYvDqvwwf1HYLHhAOp0cAOWQ7-LgRAdDpY4hohwxGyWW5kIMIT5f5aWzbwifUds0u7QXB5o0-3ixWKfahDXGxVscgl-2FQsWBw6aPvet7Xoc_xWp99n_Ce36WY8FTecOD4uV?></g></svg>