<svg xmlns="http://www.w3.org/2000/svg" xmlns:xlink="http://www.w3.org/1999/xlink" contentStyleType="text/css" data-diagram-type="DESCRIPTION" height="327px" preserveAspectRatio="none" style="width:516px;height:327px;background:#FAFAFA;" version="1.1" viewBox="0 0 516 327" width="516px" zoomAndPan="magnify"><?plantuml 1.2026.4?><defs/><g><rect fill="#FAFAFA" height="327" style="stroke:none;stroke-width:1;" width="516" x="0" y="0"/><g class="title" data-source-line="1"><text fill="#000000" font-family="Helvetica" font-size="16" font-weight="700" lengthAdjust="spacing" textLength="464.0547" x="22.8977" y="24.8516">Casos de Uso &#8212; Acceso y gesti&#243;n de cuentas (RF-1)</text></g><!--cluster Plataforma de Econom?a Colaborativa Basada en Oficios--><g class="cluster" data-qualified-name="Plataforma de Econom.a Colaborativa Basada en Oficios" data-source-line="10" id="ent0004"><rect fill="#FFFFFF" height="229" rx="7" ry="7" style="stroke:#C9C9BE;stroke-width:1;" width="395" x="107.85" y="64.525"/><text fill="#4A4A48" font-family="Helvetica" font-size="12" font-weight="700" lengthAdjust="spacing" textLength="379.5586" x="115.5707" y="77.6637">Plataforma de Econom&#237;a Colaborativa Basada en Oficios</text></g><!--entity UC01--><g class="entity" data-qualified-name="Plataforma de Econom.a Colaborativa Basada en Oficios.UC01" data-source-line="11" id="ent0005"><ellipse cx="304.8463" cy="115.5216" fill="#C9DFEE" rx="43.3163" ry="19.4466" style="stroke:#000000;stroke-width:0.5;"/><text fill="#000000" font-family="Helvetica" font-size="11" lengthAdjust="spacing" textLength="29.729" x="289.9818" y="109.5384">UC01</text><text fill="#000000" font-family="Helvetica" font-size="11" lengthAdjust="spacing" textLength="62.7773" x="273.4576" y="122.343">Registrarse</text></g><!--entity UC03--><g class="entity" data-qualified-name="Plataforma de Econom.a Colaborativa Basada en Oficios.UC03" data-source-line="12" id="ent0006"><ellipse cx="304.8528" cy="179.5282" fill="#C9DFEE" rx="56.9828" ry="19.2432" style="stroke:#000000;stroke-width:0.5;"/><text fill="#000000" font-family="Helvetica" font-size="11" lengthAdjust="spacing" textLength="29.729" x="289.9883" y="173.2176">UC03</text><text fill="#000000" font-family="Helvetica" font-size="11" lengthAdjust="spacing" textLength="85.1104" x="262.2976" y="186.0223">Gestionar perfil</text></g><!--entity UC17--><g class="entity" data-qualified-name="Plataforma de Econom.a Colaborativa Basada en Oficios.UC17" data-source-line="13" id="ent0007"><ellipse cx="304.849" cy="250.5292" fill="#C9DFEE" rx="68.919" ry="27.2442" style="stroke:#000000;stroke-width:0.5;"/><text fill="#000000" font-family="Helvetica" font-size="11" lengthAdjust="spacing" textLength="29.729" x="289.9845" y="236.2141">UC17</text><text fill="#000000" font-family="Helvetica" font-size="11" lengthAdjust="spacing" textLength="97.6089" x="256.0446" y="249.0188">Gestionar perfiles</text><text fill="#000000" font-family="Helvetica" font-size="11" lengthAdjust="spacing" textLength="104.4463" x="252.6259" y="261.8235">(suspensi&#243;n / baja)</text></g><!--entity C--><g class="entity" data-qualified-name="C" data-source-line="6" id="ent0001"><ellipse cx="44.9264" cy="53.625" fill="#C9DFEE" rx="8" ry="8" style="stroke:#000000;stroke-width:0.5;"/><path d="M44.9264,61.625 L44.9264,88.625 M31.9264,69.625 L57.9264,69.625 M44.9264,88.625 L31.9264,103.625 M44.9264,88.625 L57.9264,103.625" fill="none" style="stroke:#000000;stroke-width:0.5;"/><text fill="#000000" font-family="Helvetica" font-size="11" lengthAdjust="spacing" textLength="38.6128" x="25.62" y="115.3354">Cliente</text></g><!--entity P--><g class="entity" data-qualified-name="P" data-source-line="7" id="ent0002"><ellipse cx="44.9214" cy="151.625" fill="#C9DFEE" rx="8" ry="8" style="stroke:#000000;stroke-width:0.5;"/><path d="M44.9214,159.625 L44.9214,186.625 M31.9214,167.625 L57.9214,167.625 M44.9214,186.625 L31.9214,201.625 M44.9214,186.625 L57.9214,201.625" fill="none" style="stroke:#000000;stroke-width:0.5;"/><text fill="#000000" font-family="Helvetica" font-size="11" lengthAdjust="spacing" textLength="52.9429" x="18.45" y="213.3354">Prestador</text></g><!--entity A--><g class="entity" data-qualified-name="A" data-source-line="8" id="ent0003"><ellipse cx="44.9243" cy="249.625" fill="#C9DFEE" rx="8" ry="8" style="stroke:#000000;stroke-width:0.5;"/><path d="M44.9243,257.625 L44.9243,284.625 M31.9243,265.625 L57.9243,265.625 M44.9243,284.625 L31.9243,299.625 M44.9243,284.625 L57.9243,299.625" fill="none" style="stroke:#000000;stroke-width:0.5;"/><text fill="#000000" font-family="Helvetica" font-size="11" lengthAdjust="spacing" textLength="77.8486" x="6" y="311.3354">Administrador</text></g><!--link C to UC01--><g class="link" data-entity-1="ent0001" data-entity-2="ent0005" data-link-type="dependency" data-source-line="16" id="lnk8"><path d="M64.47,83.965 C105.83,89.415 201.4229,102.0216 258.1729,109.5016" fill="none" id="C-to-UC01" style="stroke:#090D10;stroke-width:1;"/><polygon fill="#090D10" points="263.13,110.155,254.7299,105.0132,258.1729,109.5016,253.6845,112.9446,263.13,110.155" style="stroke:#090D10;stroke-width:1;stroke-linejoin:miter;stroke-miterlimit:10;"/></g><!--link P to UC01--><g class="link" data-entity-1="ent0002" data-entity-2="ent0005" data-link-type="dependency" data-source-line="17" id="lnk9"><path d="M71.81,161.465 C80.39,156.225 90.22,150.985 99.85,147.525 C153.48,128.215 214.203,120.9052 256.293,117.8652" fill="none" id="P-to-UC01" style="stroke:#090D10;stroke-width:1;"/><polygon fill="#090D10" points="261.28,117.505,252.0152,114.1637,256.293,117.8652,252.5915,122.143,261.28,117.505" style="stroke:#090D10;stroke-width:1;stroke-linejoin:miter;stroke-miterlimit:10;"/></g><!--link C to UC03--><g class="link" data-entity-1="ent0001" data-entity-2="ent0006" data-link-type="dependency" data-source-line="18" id="lnk10"><path d="M64.64,106.115 C78.28,123.745 95.16,144.835 99.85,147.525 C145.1,173.475 199.8114,180.1468 242.9314,181.1668" fill="none" id="C-to-UC03" style="stroke:#090D10;stroke-width:1;"/><polygon fill="#090D10" points="247.93,181.285,239.0271,177.0733,242.9314,181.1668,238.8379,185.071,247.93,181.285" style="stroke:#090D10;stroke-width:1;stroke-linejoin:miter;stroke-miterlimit:10;"/></g><!--link P to UC03--><g class="link" data-entity-1="ent0002" data-entity-2="ent0006" data-link-type="dependency" data-source-line="19" id="lnk11"><path d="M71.6,179.525 C112.37,179.525 187.9,179.525 242.56,179.525" fill="none" id="P-to-UC03" style="stroke:#090D10;stroke-width:1;"/><polygon fill="#090D10" points="247.56,179.525,238.56,175.525,242.56,179.525,238.56,183.525,247.56,179.525" style="stroke:#090D10;stroke-width:1;stroke-linejoin:miter;stroke-miterlimit:10;"/></g><!--link A to UC17--><g class="link" data-entity-1="ent0003" data-entity-2="ent0007" data-link-type="dependency" data-source-line="20" id="lnk12"><path d="M84.26,273.505 C124.68,269.275 184.1272,263.0554 232.7672,257.9654" fill="none" id="A-to-UC17" style="stroke:#090D10;stroke-width:1;"/><polygon fill="#090D10" points="237.74,257.445,228.3726,254.4034,232.7672,257.9654,229.2052,262.36,237.74,257.445" style="stroke:#090D10;stroke-width:1;stroke-linejoin:miter;stroke-miterlimit:10;"/></g><?plantuml-src PLB1IWD13BtFLyHUR0zTMtiGF0Zhejwq5BmL99rDryZiJ9sP5KG4FyA_44_Uz6R_n2ynqsujAimXl2Jl9IyJEHg20eCBK19S1WTVJy-GQqqItaD58VBopQQaRiX63D2TdFQ7FMLe7Y4wy5nTHoZPauxih58xRBLff27BzkGD1bU5gnihGJQuEX4-uzP8narjb48TdOV2iD0JY43HGcClwbXA9E2u1VEoPiiX-aqYLof9ewraayxOOCIvypMcaK-qiwvUlY8Kpk3CUOnyXt2C0Ki4id0nPyqkTE110JI1D0OXkIm6mwcTKBNIyO4wIIYXVwf6KtkM778MFIp8pzbiIaU_IuS7_qifJ6qtD651DgnCteCPtc2lfHWUg4Ub2kZtZzRQustuWuwsw4ZbRIYTQZVP9-kNic3YrkB3kuMkTI0JbOoLnnfxXwjEkNJg0a-t3PCNOpvV1D-7l8bo5TR9XC-FJ5ZFNKJefY6aj_qdY-NxpB1U_nqHsD28qdenkPXciJpx1W00?></g></svg>