<svg xmlns="http://www.w3.org/2000/svg" xmlns:xlink="http://www.w3.org/1999/xlink" contentStyleType="text/css" data-diagram-type="DESCRIPTION" height="231px" preserveAspectRatio="none" style="width:621px;height:231px;background:#FAFAFA;" version="1.1" viewBox="0 0 621 231" width="621px" zoomAndPan="magnify"><?plantuml 1.2026.4?><defs/><g><rect fill="#FAFAFA" height="231" style="stroke:none;stroke-width:1;" width="621" x="0" y="0"/><g class="title" data-source-line="1"><text fill="#000000" font-family="Helvetica" font-size="16" font-weight="700" lengthAdjust="spacing" textLength="373.2656" x="120.6929" y="24.8516">Casos de Uso &#8212; Pagos y liberaci&#243;n (RF-7)</text></g><!--cluster Plataforma de Econom?a Colaborativa Basada en Oficios--><g class="cluster" data-qualified-name="Plataforma de Econom.a Colaborativa Basada en Oficios" data-source-line="10" id="ent0004"><rect fill="#FFFFFF" height="160" rx="7" ry="7" style="stroke:#C9C9BE;stroke-width:1;" width="395" x="82.94" y="46.625"/><text fill="#4A4A48" font-family="Helvetica" font-size="12" font-weight="700" lengthAdjust="spacing" textLength="379.5586" x="90.6607" y="59.7637">Plataforma de Econom&#237;a Colaborativa Basada en Oficios</text></g><!--entity UC12--><g class="entity" data-qualified-name="Plataforma de Econom.a Colaborativa Basada en Oficios.UC12" data-source-line="11" id="ent0005"><ellipse cx="279.9388" cy="97.6276" fill="#C9DFEE" rx="52.3288" ry="19.2926" style="stroke:#000000;stroke-width:0.5;"/><text fill="#000000" font-family="Helvetica" font-size="11" lengthAdjust="spacing" textLength="29.729" x="265.0743" y="91.397">UC12</text><text fill="#000000" font-family="Helvetica" font-size="11" lengthAdjust="spacing" textLength="77.5371" x="241.1702" y="104.2017">Pagar servicio</text></g><!--entity UC13--><g class="entity" data-qualified-name="Plataforma de Econom.a Colaborativa Basada en Oficios.UC13" data-source-line="12" id="ent0006"><ellipse cx="279.9428" cy="166.6252" fill="#C9DFEE" rx="70.0328" ry="24.3902" style="stroke:#000000;stroke-width:0.5;"/><text fill="#000000" font-family="Helvetica" font-size="11" lengthAdjust="spacing" textLength="29.729" x="265.0783" y="155.0722">UC13</text><text fill="#000000" font-family="Helvetica" font-size="11" lengthAdjust="spacing" textLength="120.3823" x="219.7516" y="167.8769">Confirmar finalizaci&#243;n</text><text fill="#000000" font-family="Helvetica" font-size="11" lengthAdjust="spacing" textLength="76.5864" x="241.6496" y="180.6816">y liberar pago</text></g><!--entity C--><g class="entity" data-qualified-name="C" data-source-line="6" id="ent0001"><ellipse cx="32.4764" cy="55.725" fill="#C9DFEE" rx="8" ry="8" style="stroke:#000000;stroke-width:0.5;"/><path d="M32.4764,63.725 L32.4764,90.725 M19.4764,71.725 L45.4764,71.725 M32.4764,90.725 L19.4764,105.725 M32.4764,90.725 L45.4764,105.725" fill="none" style="stroke:#000000;stroke-width:0.5;"/><text fill="#000000" font-family="Helvetica" font-size="11" lengthAdjust="spacing" textLength="38.6128" x="13.17" y="117.4354">Cliente</text></g><!--entity P--><g class="entity" data-qualified-name="P" data-source-line="7" id="ent0002"><ellipse cx="32.4714" cy="153.725" fill="#C9DFEE" rx="8" ry="8" style="stroke:#000000;stroke-width:0.5;"/><path d="M32.4714,161.725 L32.4714,188.725 M19.4714,169.725 L45.4714,169.725 M32.4714,188.725 L19.4714,203.725 M32.4714,188.725 L45.4714,203.725" fill="none" style="stroke:#000000;stroke-width:0.5;"/><text fill="#000000" font-family="Helvetica" font-size="11" lengthAdjust="spacing" textLength="52.9429" x="6" y="215.4354">Prestador</text></g><!--entity PP--><g class="entity" data-qualified-name="PP" data-source-line="8" id="ent0003"><ellipse cx="554.2957" cy="104.7197" fill="#EFE3C8" rx="8" ry="8" style="stroke:#000000;stroke-width:0.5;"/><path d="M554.2957,112.7197 L554.2957,139.7197 M541.2957,120.7197 L567.2957,120.7197 M554.2957,139.7197 L541.2957,154.7197 M554.2957,139.7197 L567.2957,154.7197" fill="none" style="stroke:#000000;stroke-width:0.5;"/><text fill="#000000" font-family="Helvetica" font-size="11" lengthAdjust="spacing" textLength="46.9326" x="529.2637" y="166.4301">Pasarela</text><text fill="#000000" font-family="Helvetica" font-size="11" lengthAdjust="spacing" textLength="50.064" x="529.2637" y="179.2348">de Pagos</text><text fill="#000000" font-family="Helvetica" font-size="11" font-style="italic" lengthAdjust="spacing" textLength="102.7114" x="502.94" y="93.6254">&#171;sistema externo&#187;</text></g><!--link C to UC12--><g class="link" data-entity-1="ent0001" data-entity-2="ent0005" data-link-type="dependency" data-source-line="15" id="lnk7"><path d="M51.92,84.675 C88.83,86.785 167.9081,91.29 222.7281,94.42" fill="none" id="C-to-UC12" style="stroke:#090D10;stroke-width:1;"/><polygon fill="#090D10" points="227.72,94.705,218.9626,90.1985,222.7281,94.42,218.5066,98.1855,227.72,94.705" style="stroke:#090D10;stroke-width:1;stroke-linejoin:miter;stroke-miterlimit:10;"/></g><!--link P to UC13--><g class="link" data-entity-1="ent0002" data-entity-2="ent0006" data-link-type="dependency" data-source-line="16" id="lnk8"><path d="M59.28,180.045 C94.85,177.875 155.2593,174.1801 205.4793,171.1101" fill="none" id="P-to-UC13" style="stroke:#090D10;stroke-width:1;"/><polygon fill="#090D10" points="210.47,170.805,201.2427,167.3616,205.4793,171.1101,201.7308,175.3467,210.47,170.805" style="stroke:#090D10;stroke-width:1;stroke-linejoin:miter;stroke-miterlimit:10;"/></g><!--link UC12 to PP--><g class="link" data-entity-1="ent0005" data-entity-2="ent0003" data-link-type="dependency" data-source-line="19" id="lnk9"><path d="M329.95,103.925 C378.5,110.165 447.5909,119.037 496.9509,125.387" fill="none" id="UC12-to-PP" style="stroke:#090D10;stroke-width:1;"/><polygon fill="#090D10" points="501.91,126.025,493.4939,120.9093,496.9509,125.387,492.4732,128.8439,501.91,126.025" style="stroke:#090D10;stroke-width:1;stroke-linejoin:miter;stroke-miterlimit:10;"/></g><!--link UC13 to PP--><g class="link" data-entity-1="ent0006" data-entity-2="ent0003" data-link-type="dependency" data-source-line="20" id="lnk10"><path d="M346.53,158.435 C394.06,152.505 452.4985,145.2039 496.5085,139.7139" fill="none" id="UC13-to-PP" style="stroke:#090D10;stroke-width:1;"/><polygon fill="#090D10" points="501.47,139.095,492.0441,136.2398,496.5085,139.7139,493.0344,144.1783,501.47,139.095" style="stroke:#090D10;stroke-width:1;stroke-linejoin:miter;stroke-miterlimit:10;"/></g><?plantuml-src NL7BIYH14BpNL-JEHJrCEpg71P41BSQhnSBS1YIjpXuJggiqgthmmO8ViN-nUFAsUzC_yKlCxdOkGXsIgCZ8oCZ29H1Op2b3JR3A2JwU_u33ZG8F4FYQ13s_lqRO_tKn_NbW0ZK5IWBXpKs1ceLyuHID-S7HXqv5gkfGtsnsPLFRHIsgsTKo5mvfH2hksc0C-f84R62AXG0ps2_82UM2jLOAkYzmuZ2ZKC1rr163lydmx-3qD7Ckr2BGVI69QR4mfhU5SQFBJLp0WaqI9MZhqgUOslSN19i2NYV1mbk4SvMlLI72PSEUU_Kd0z1byfXLP6MFZjTHvw909jdsdC50__6DE5z7csB3Eb6WuOY17ySGrt6NgS2jxh1Jc9lVnbYOJXUZdjkLSsFs-a3KTCtZ7Row_wVdY4cDw05m8zZYmSdGgJVhkq3ehcCINUVjxyhEZk6iAvepUvHCR_yhCv3x8SwPeMEiFm40?></g></svg>