<svg xmlns="http://www.w3.org/2000/svg" xmlns:xlink="http://www.w3.org/1999/xlink" contentStyleType="text/css" data-diagram-type="DESCRIPTION" height="1372px" preserveAspectRatio="none" style="width:696px;height:1372px;background:#FAFAFA;" version="1.1" viewBox="0 0 696 1372" width="696px" zoomAndPan="magnify"><?plantuml 1.2026.4?><defs/><g><rect fill="#FAFAFA" height="1372" style="stroke:none;stroke-width:1;" width="696" x="0" y="0"/><g class="title" data-source-line="1"><text fill="#000000" font-family="Helvetica" font-size="16" font-weight="700" lengthAdjust="spacing" textLength="493.2422" x="98.3596" y="24.8516">Casos de Uso &#8212; Vista general (modelo del documento)</text></g><!--cluster Plataforma de Econom?a Colaborativa Basada en Oficios--><g class="cluster" data-qualified-name="Plataforma de Econom.a Colaborativa Basada en Oficios" data-source-line="12" id="ent0006"><rect fill="#FFFFFF" height="1312" rx="7" ry="7" style="stroke:#C9C9BE;stroke-width:1;" width="419.4" x="120.85" y="46.625"/><text fill="#4A4A48" font-family="Helvetica" font-size="12" font-weight="700" lengthAdjust="spacing" textLength="379.5586" x="140.7707" y="59.7637">Plataforma de Econom&#237;a Colaborativa Basada en Oficios</text></g><!--entity UC04--><g class="entity" data-qualified-name="Plataforma de Econom.a Colaborativa Basada en Oficios.UC04" data-source-line="14" id="ent0007"><ellipse cx="219.5049" cy="97.6208" fill="#C9DFEE" rx="70.4049" ry="19.1558" style="stroke:#000000;stroke-width:0.5;"/><text fill="#000000" font-family="Helvetica" font-size="11" lengthAdjust="spacing" textLength="29.729" x="204.6404" y="91.1674">UC04</text><text fill="#000000" font-family="Helvetica" font-size="11" lengthAdjust="spacing" textLength="106.8472" x="166.0814" y="103.9721">Buscar prestadores</text></g><!--entity UC07--><g class="entity" data-qualified-name="Plataforma de Econom.a Colaborativa Basada en Oficios.UC07" data-source-line="15" id="ent0008"><ellipse cx="219.5011" cy="233.6253" fill="#C9DFEE" rx="76.8111" ry="19.1303" style="stroke:#000000;stroke-width:0.5;"/><text fill="#000000" font-family="Helvetica" font-size="11" lengthAdjust="spacing" textLength="29.729" x="204.6366" y="227.1302">UC07</text><text fill="#000000" font-family="Helvetica" font-size="11" lengthAdjust="spacing" textLength="117.1865" x="160.9078" y="239.9349">Solicitar contrataci&#243;n</text></g><!--entity UC12--><g class="entity" data-qualified-name="Plataforma de Econom.a Colaborativa Basada en Oficios.UC12" data-source-line="16" id="ent0009"><ellipse cx="219.4988" cy="296.6276" fill="#C9DFEE" rx="52.3288" ry="19.2926" style="stroke:#000000;stroke-width:0.5;"/><text fill="#000000" font-family="Helvetica" font-size="11" lengthAdjust="spacing" textLength="29.729" x="204.6343" y="290.397">UC12</text><text fill="#000000" font-family="Helvetica" font-size="11" lengthAdjust="spacing" textLength="77.5371" x="180.7302" y="303.2017">Pagar servicio</text></g><!--entity UC14--><g class="entity" data-qualified-name="Plataforma de Econom.a Colaborativa Basada en Oficios.UC14" data-source-line="17" id="ent0010"><ellipse cx="219.5048" cy="359.6269" fill="#C9DFEE" rx="67.1348" ry="19.1719" style="stroke:#000000;stroke-width:0.5;"/><text fill="#000000" font-family="Helvetica" font-size="11" lengthAdjust="spacing" textLength="29.729" x="204.6403" y="353.2">UC14</text><text fill="#000000" font-family="Helvetica" font-size="11" lengthAdjust="spacing" textLength="101.562" x="168.7238" y="366.0047">Calificar prestador</text></g><!--entity UC21--><g class="entity" data-qualified-name="Plataforma de Econom.a Colaborativa Basada en Oficios.UC21" data-source-line="18" id="ent0011"><ellipse cx="219.4971" cy="165.6225" fill="#C9DFEE" rx="68.2071" ry="24.1675" style="stroke:#000000;stroke-width:0.5;"/><text fill="#000000" font-family="Helvetica" font-size="11" lengthAdjust="spacing" textLength="29.729" x="204.6326" y="154.317">UC21</text><text fill="#000000" font-family="Helvetica" font-size="11" lengthAdjust="spacing" textLength="118.3359" x="160.3292" y="167.1217">Responder propuesta</text><text fill="#000000" font-family="Helvetica" font-size="11" lengthAdjust="spacing" textLength="70.5386" x="184.2278" y="179.9264">de prestador</text></g><!--entity UC01--><g class="entity" data-qualified-name="Plataforma de Econom.a Colaborativa Basada en Oficios.UC01" data-source-line="21" id="ent0012"><ellipse cx="219.4963" cy="423.6216" fill="#C9DFEE" rx="43.3163" ry="19.4466" style="stroke:#000000;stroke-width:0.5;"/><text fill="#000000" font-family="Helvetica" font-size="11" lengthAdjust="spacing" textLength="29.729" x="204.6318" y="417.6384">UC01</text><text fill="#000000" font-family="Helvetica" font-size="11" lengthAdjust="spacing" textLength="62.7773" x="188.1076" y="430.443">Registrarse</text></g><!--entity UC03--><g class="entity" data-qualified-name="Plataforma de Econom.a Colaborativa Basada en Oficios.UC03" data-source-line="22" id="ent0013"><ellipse cx="219.5028" cy="487.6282" fill="#C9DFEE" rx="56.9828" ry="19.2432" style="stroke:#000000;stroke-width:0.5;"/><text fill="#000000" font-family="Helvetica" font-size="11" lengthAdjust="spacing" textLength="29.729" x="204.6383" y="481.3176">UC03</text><text fill="#000000" font-family="Helvetica" font-size="11" lengthAdjust="spacing" textLength="85.1104" x="176.9476" y="494.1223">Gestionar perfil</text></g><!--entity UC10--><g class="entity" data-qualified-name="Plataforma de Econom.a Colaborativa Basada en Oficios.UC10" data-source-line="23" id="ent0014"><ellipse cx="219.4963" cy="550.6271" fill="#C9DFEE" rx="79.3063" ry="19.1221" style="stroke:#000000;stroke-width:0.5;"/><text fill="#000000" font-family="Helvetica" font-size="11" lengthAdjust="spacing" textLength="29.729" x="204.6318" y="544.1185">UC10</text><text fill="#000000" font-family="Helvetica" font-size="11" lengthAdjust="spacing" textLength="121.2095" x="158.8915" y="556.9232">Cancelar contrataci&#243;n</text></g><!--entity UC11--><g class="entity" data-qualified-name="Plataforma de Econom.a Colaborativa Basada en Oficios.UC11" data-source-line="24" id="ent0015"><ellipse cx="219.5029" cy="613.6274" fill="#C9DFEE" rx="82.6529" ry="19.1124" style="stroke:#000000;stroke-width:0.5;"/><text fill="#000000" font-family="Helvetica" font-size="11" lengthAdjust="spacing" textLength="29.729" x="204.6384" y="607.1027">UC11</text><text fill="#000000" font-family="Helvetica" font-size="11" lengthAdjust="spacing" textLength="126.6021" x="156.2019" y="619.9074">Intercambiar mensajes</text></g><!--entity UC05--><g class="entity" data-qualified-name="Plataforma de Econom.a Colaborativa Basada en Oficios.UC05" data-source-line="27" id="ent0016"><ellipse cx="219.497" cy="1033.6283" fill="#C9DFEE" rx="63.487" ry="19.1933" style="stroke:#000000;stroke-width:0.5;"/><text fill="#000000" font-family="Helvetica" font-size="11" lengthAdjust="spacing" textLength="29.729" x="204.6325" y="1027.2363">UC05</text><text fill="#000000" font-family="Helvetica" font-size="11" lengthAdjust="spacing" textLength="95.6592" x="171.6674" y="1040.041">Publicar servicios</text></g><!--entity UC06--><g class="entity" data-qualified-name="Plataforma de Econom.a Colaborativa Basada en Oficios.UC06" data-source-line="28" id="ent0017"><ellipse cx="219.4976" cy="683.6293" fill="#C9DFEE" rx="62.2976" ry="26.2343" style="stroke:#000000;stroke-width:0.5;"/><text fill="#000000" font-family="Helvetica" font-size="11" lengthAdjust="spacing" textLength="29.729" x="204.6331" y="670.4415">UC06</text><text fill="#000000" font-family="Helvetica" font-size="11" lengthAdjust="spacing" textLength="98.0386" x="170.4783" y="683.2462">Gestionar agenda</text><text fill="#000000" font-family="Helvetica" font-size="11" lengthAdjust="spacing" textLength="86.3726" x="176.3113" y="696.0509">y disponibilidad</text></g><!--entity UC08--><g class="entity" data-qualified-name="Plataforma de Econom.a Colaborativa Basada en Oficios.UC08" data-source-line="29" id="ent0018"><ellipse cx="219.4969" cy="761.6249" fill="#C9DFEE" rx="70.9669" ry="27.2299" style="stroke:#000000;stroke-width:0.5;"/><text fill="#000000" font-family="Helvetica" font-size="11" lengthAdjust="spacing" textLength="29.729" x="204.6324" y="747.2863">UC08</text><text fill="#000000" font-family="Helvetica" font-size="11" lengthAdjust="spacing" textLength="93.9888" x="172.5025" y="760.0909">Enviar propuesta</text><text fill="#000000" font-family="Helvetica" font-size="11" lengthAdjust="spacing" textLength="107.7549" x="165.6195" y="772.8956">o rechazar solicitud</text></g><!--entity UC13--><g class="entity" data-qualified-name="Plataforma de Econom.a Colaborativa Basada en Oficios.UC13" data-source-line="30" id="ent0019"><ellipse cx="219.5028" cy="838.6252" fill="#C9DFEE" rx="70.0328" ry="24.3902" style="stroke:#000000;stroke-width:0.5;"/><text fill="#000000" font-family="Helvetica" font-size="11" lengthAdjust="spacing" textLength="29.729" x="204.6383" y="827.0722">UC13</text><text fill="#000000" font-family="Helvetica" font-size="11" lengthAdjust="spacing" textLength="120.3823" x="159.3116" y="839.8769">Confirmar finalizaci&#243;n</text><text fill="#000000" font-family="Helvetica" font-size="11" lengthAdjust="spacing" textLength="76.5864" x="181.2096" y="852.6816">y liberar pago</text></g><!--entity UC15--><g class="entity" data-qualified-name="Plataforma de Econom.a Colaborativa Basada en Oficios.UC15" data-source-line="31" id="ent0020"><ellipse cx="219.4982" cy="907.6219" fill="#C9DFEE" rx="66.2282" ry="19.1769" style="stroke:#000000;stroke-width:0.5;"/><text fill="#000000" font-family="Helvetica" font-size="11" lengthAdjust="spacing" textLength="29.729" x="204.6337" y="901.2031">UC15</text><text fill="#000000" font-family="Helvetica" font-size="11" lengthAdjust="spacing" textLength="100.0957" x="169.4504" y="914.0078">Responder rese&#241;a</text></g><!--entity UC20--><g class="entity" data-qualified-name="Plataforma de Econom.a Colaborativa Basada en Oficios.UC20" data-source-line="32" id="ent0021"><ellipse cx="219.4983" cy="970.623" fill="#C9DFEE" rx="53.5683" ry="19.278" style="stroke:#000000;stroke-width:0.5;"/><text fill="#000000" font-family="Helvetica" font-size="11" lengthAdjust="spacing" textLength="29.729" x="204.6338" y="964.3688">UC20</text><text fill="#000000" font-family="Helvetica" font-size="11" lengthAdjust="spacing" textLength="79.5566" x="179.72" y="977.1735">Iniciar servicio</text></g><!--entity UC16--><g class="entity" data-qualified-name="Plataforma de Econom.a Colaborativa Basada en Oficios.UC16" data-source-line="35" id="ent0022"><ellipse cx="219.4976" cy="1323.6215" fill="#C9DFEE" rx="61.5276" ry="19.2065" style="stroke:#000000;stroke-width:0.5;"/><text fill="#000000" font-family="Helvetica" font-size="11" lengthAdjust="spacing" textLength="29.729" x="204.6331" y="1317.2511">UC16</text><text fill="#000000" font-family="Helvetica" font-size="11" lengthAdjust="spacing" textLength="92.4849" x="173.2551" y="1330.0558">Moderar rese&#241;as</text></g><!--entity UC17--><g class="entity" data-qualified-name="Plataforma de Econom.a Colaborativa Basada en Oficios.UC17" data-source-line="36" id="ent0023"><ellipse cx="219.499" cy="1179.6292" fill="#C9DFEE" rx="68.919" ry="27.2442" style="stroke:#000000;stroke-width:0.5;"/><text fill="#000000" font-family="Helvetica" font-size="11" lengthAdjust="spacing" textLength="29.729" x="204.6345" y="1165.3141">UC17</text><text fill="#000000" font-family="Helvetica" font-size="11" lengthAdjust="spacing" textLength="97.6089" x="170.6946" y="1178.1188">Gestionar perfiles</text><text fill="#000000" font-family="Helvetica" font-size="11" lengthAdjust="spacing" textLength="104.4463" x="167.2759" y="1190.9235">(suspensi&#243;n / baja)</text></g><!--entity UC18--><g class="entity" data-qualified-name="Plataforma de Econom.a Colaborativa Basada en Oficios.UC18" data-source-line="37" id="ent0024"><ellipse cx="219.4953" cy="1255.6238" fill="#C9DFEE" rx="72.0453" ry="24.0788" style="stroke:#000000;stroke-width:0.5;"/><text fill="#000000" font-family="Helvetica" font-size="11" lengthAdjust="spacing" textLength="29.729" x="204.6308" y="1244.344">UC18</text><text fill="#000000" font-family="Helvetica" font-size="11" lengthAdjust="spacing" textLength="125.8286" x="156.581" y="1257.1487">Verificar habilitaciones</text><text fill="#000000" font-family="Helvetica" font-size="11" lengthAdjust="spacing" textLength="73.6592" x="182.6657" y="1269.9533">profesionales</text></g><!--entity UC09--><g class="entity" data-qualified-name="Plataforma de Econom.a Colaborativa Basada en Oficios.UC09" data-source-line="40" id="ent0025"><ellipse cx="458.1955" cy="1102.62" fill="#C9DFEE" rx="66.0455" ry="27.255" style="stroke:#000000;stroke-width:0.5;"/><text fill="#000000" font-family="Helvetica" font-size="11" lengthAdjust="spacing" textLength="29.729" x="443.331" y="1088.3535">UC09</text><text fill="#000000" font-family="Helvetica" font-size="11" lengthAdjust="spacing" textLength="99.8486" x="408.2712" y="1101.1582">Gestionar estados</text><text fill="#000000" font-family="Helvetica" font-size="11" lengthAdjust="spacing" textLength="99.7251" x="408.3329" y="1113.9629">de la contrataci&#243;n</text></g><!--entity UC19--><g class="entity" data-qualified-name="Plataforma de Econom.a Colaborativa Basada en Oficios.UC19" data-source-line="41" id="ent0026"><ellipse cx="219.5033" cy="1102.6256" fill="#C9DFEE" rx="53.3033" ry="24.3906" style="stroke:#000000;stroke-width:0.5;"/><text fill="#000000" font-family="Helvetica" font-size="11" lengthAdjust="spacing" textLength="29.729" x="204.6388" y="1091.4949">UC19</text><text fill="#000000" font-family="Helvetica" font-size="11" lengthAdjust="spacing" textLength="90.3364" x="174.3351" y="1104.2996">Notificar cambio</text><text fill="#000000" font-family="Helvetica" font-size="11" lengthAdjust="spacing" textLength="54.5112" x="192.2477" y="1117.1043">de estado</text></g><!--entity C--><g class="entity" data-qualified-name="C" data-source-line="6" id="ent0001"><ellipse cx="44.9264" cy="331.725" fill="#C9DFEE" rx="8" ry="8" style="stroke:#000000;stroke-width:0.5;"/><path d="M44.9264,339.725 L44.9264,366.725 M31.9264,347.725 L57.9264,347.725 M44.9264,366.725 L31.9264,381.725 M44.9264,366.725 L57.9264,381.725" fill="none" style="stroke:#000000;stroke-width:0.5;"/><text fill="#000000" font-family="Helvetica" font-size="11" lengthAdjust="spacing" textLength="38.6128" x="25.62" y="393.4354">Cliente</text></g><!--entity P--><g class="entity" data-qualified-name="P" data-source-line="7" id="ent0002"><ellipse cx="44.9214" cy="706.725" fill="#C9DFEE" rx="8" ry="8" style="stroke:#000000;stroke-width:0.5;"/><path d="M44.9214,714.725 L44.9214,741.725 M31.9214,722.725 L57.9214,722.725 M44.9214,741.725 L31.9214,756.725 M44.9214,741.725 L57.9214,756.725" fill="none" style="stroke:#000000;stroke-width:0.5;"/><text fill="#000000" font-family="Helvetica" font-size="11" lengthAdjust="spacing" textLength="52.9429" x="18.45" y="768.4354">Prestador</text></g><!--entity A--><g class="entity" data-qualified-name="A" data-source-line="8" id="ent0003"><ellipse cx="44.9243" cy="1227.725" fill="#C9DFEE" rx="8" ry="8" style="stroke:#000000;stroke-width:0.5;"/><path d="M44.9243,1235.725 L44.9243,1262.725 M31.9243,1243.725 L57.9243,1243.725 M44.9243,1262.725 L31.9243,1277.725 M44.9243,1262.725 L57.9243,1277.725" fill="none" style="stroke:#000000;stroke-width:0.5;"/><text fill="#000000" font-family="Helvetica" font-size="11" lengthAdjust="spacing" textLength="77.8486" x="6" y="1289.4354">Administrador</text></g><!--entity PP--><g class="entity" data-qualified-name="PP" data-source-line="9" id="ent0004"><ellipse cx="629.6057" cy="810.7197" fill="#EFE3C8" rx="8" ry="8" style="stroke:#000000;stroke-width:0.5;"/><path d="M629.6057,818.7197 L629.6057,845.7197 M616.6057,826.7197 L642.6057,826.7197 M629.6057,845.7197 L616.6057,860.7197 M629.6057,845.7197 L642.6057,860.7197" fill="none" style="stroke:#000000;stroke-width:0.5;"/><text fill="#000000" font-family="Helvetica" font-size="11" lengthAdjust="spacing" textLength="46.9326" x="604.5737" y="872.4301">Pasarela</text><text fill="#000000" font-family="Helvetica" font-size="11" lengthAdjust="spacing" textLength="50.064" x="604.5737" y="885.2348">de Pagos</text><text fill="#000000" font-family="Helvetica" font-size="11" font-style="italic" lengthAdjust="spacing" textLength="102.7114" x="578.25" y="799.6254">&#171;sistema externo&#187;</text></g><!--entity OR--><g class="entity" data-qualified-name="OR" data-source-line="10" id="ent0005"><ellipse cx="629.6057" cy="1128.7197" fill="#EFE3C8" rx="8" ry="8" style="stroke:#000000;stroke-width:0.5;"/><path d="M629.6057,1136.7197 L629.6057,1163.7197 M616.6057,1144.7197 L642.6057,1144.7197 M629.6057,1163.7197 L616.6057,1178.7197 M629.6057,1163.7197 L642.6057,1178.7197" fill="none" style="stroke:#000000;stroke-width:0.5;"/><text fill="#000000" font-family="Helvetica" font-size="11" lengthAdjust="spacing" textLength="60.1079" x="599.5518" y="1190.4301">Organismo</text><text fill="#000000" font-family="Helvetica" font-size="11" lengthAdjust="spacing" textLength="56.3965" x="599.5518" y="1203.2348">Regulador</text><text fill="#000000" font-family="Helvetica" font-size="11" font-style="italic" lengthAdjust="spacing" textLength="102.7114" x="578.25" y="1117.6254">&#171;sistema externo&#187;</text></g><!--link C to UC01--><g class="link" data-entity-1="ent0001" data-entity-2="ent0012" data-link-type="dependency" data-source-line="44" id="lnk27"><path d="M64.63,369.515 C77.86,376.275 96.16,385.155 112.85,391.625 C135.18,400.285 156.0859,406.7744 176.5459,412.5144" fill="none" id="C-to-UC01" style="stroke:#090D10;stroke-width:1;"/><polygon fill="#090D10" points="181.36,413.865,173.775,407.5826,176.5459,412.5144,171.6141,415.2852,181.36,413.865" style="stroke:#090D10;stroke-width:1;stroke-linejoin:miter;stroke-miterlimit:10;"/></g><!--link C to UC03--><g class="link" data-entity-1="ent0001" data-entity-2="ent0013" data-link-type="dependency" data-source-line="45" id="lnk28"><path d="M63.6,396.165 C75.07,416.345 91.81,440.345 112.85,455.625 C128.82,467.225 144.2084,473.4166 162.6684,478.1766" fill="none" id="C-to-UC03" style="stroke:#090D10;stroke-width:1;"/><polygon fill="#090D10" points="167.51,479.425,159.7938,473.3045,162.6684,478.1766,157.7963,481.0511,167.51,479.425" style="stroke:#090D10;stroke-width:1;stroke-linejoin:miter;stroke-miterlimit:10;"/></g><!--link C to UC04--><g class="link" data-entity-1="ent0001" data-entity-2="ent0007" data-link-type="dependency" data-source-line="46" id="lnk29"><path d="M46.17,323.015 C48.52,272.385 60.39,181.265 112.85,128.625 C124.12,117.315 134.4823,111.5366 149.7923,106.9266" fill="none" id="C-to-UC04" style="stroke:#090D10;stroke-width:1;"/><polygon fill="#090D10" points="154.58,105.485,144.8089,104.2498,149.7923,106.9266,147.1155,111.91,154.58,105.485" style="stroke:#090D10;stroke-width:1;stroke-linejoin:miter;stroke-miterlimit:10;"/></g><!--link C to UC07--><g class="link" data-entity-1="ent0001" data-entity-2="ent0008" data-link-type="dependency" data-source-line="47" id="lnk30"><path d="M63.91,322.925 C75.38,303.035 92.01,279.535 112.85,264.625 C125.44,255.615 135.8589,250.6682 150.7589,246.1082" fill="none" id="C-to-UC07" style="stroke:#090D10;stroke-width:1;"/><polygon fill="#090D10" points="155.54,244.645,145.7634,243.4539,150.7589,246.1082,148.1046,251.1037,155.54,244.645" style="stroke:#090D10;stroke-width:1;stroke-linejoin:miter;stroke-miterlimit:10;"/></g><!--link C to UC21--><g class="link" data-entity-1="ent0001" data-entity-2="ent0011" data-link-type="dependency" data-source-line="48" id="lnk31"><path d="M52.45,322.995 C60.64,287.355 78.06,233.985 112.85,201.625 C125.41,189.945 137.1608,183.5986 153.3808,178.2586" fill="none" id="C-to-UC21" style="stroke:#090D10;stroke-width:1;"/><polygon fill="#090D10" points="158.13,176.695,148.3305,175.71,153.3808,178.2586,150.8322,183.3088,158.13,176.695" style="stroke:#090D10;stroke-width:1;stroke-linejoin:miter;stroke-miterlimit:10;"/></g><!--link C to UC10--><g class="link" data-entity-1="ent0001" data-entity-2="ent0014" data-link-type="dependency" data-source-line="49" id="lnk32"><path d="M51.88,396.355 C59.68,432.685 76.84,487.395 112.85,519.625 C123.67,529.315 132.6301,534.4233 146.5601,539.0033" fill="none" id="C-to-UC10" style="stroke:#090D10;stroke-width:1;"/><polygon fill="#090D10" points="151.31,540.565,144.0096,533.9541,146.5601,539.0033,141.5109,541.5538,151.31,540.565" style="stroke:#090D10;stroke-width:1;stroke-linejoin:miter;stroke-miterlimit:10;"/></g><!--link C to UC11--><g class="link" data-entity-1="ent0001" data-entity-2="ent0015" data-link-type="dependency" data-source-line="50" id="lnk33"><path d="M46.64,396.235 C49.61,445.385 62.25,532.335 112.85,582.625 C122.61,592.325 130.5231,597.3664 143.6331,601.9764" fill="none" id="C-to-UC11" style="stroke:#090D10;stroke-width:1;"/><polygon fill="#090D10" points="148.35,603.635,141.1865,596.8759,143.6331,601.9764,138.5327,604.4229,148.35,603.635" style="stroke:#090D10;stroke-width:1;stroke-linejoin:miter;stroke-miterlimit:10;"/></g><!--link C to UC12--><g class="link" data-entity-1="ent0001" data-entity-2="ent0009" data-link-type="dependency" data-source-line="51" id="lnk34"><path d="M64.61,349.695 C77.84,342.915 96.13,334.025 112.85,327.625 C133.11,319.865 151.3506,314.2266 170.7506,308.8666" fill="none" id="C-to-UC12" style="stroke:#090D10;stroke-width:1;"/><polygon fill="#090D10" points="175.57,307.535,165.8298,306.0763,170.7506,308.8666,167.9603,313.7873,175.57,307.535" style="stroke:#090D10;stroke-width:1;stroke-linejoin:miter;stroke-miterlimit:10;"/></g><!--link C to UC14--><g class="link" data-entity-1="ent0001" data-entity-2="ent0010" data-link-type="dependency" data-source-line="52" id="lnk35"><path d="M64.72,359.625 C85.69,359.625 115.79,359.625 147.16,359.625" fill="none" id="C-to-UC14" style="stroke:#090D10;stroke-width:1;"/><polygon fill="#090D10" points="152.16,359.625,143.16,355.625,147.16,359.625,143.16,363.625,152.16,359.625" style="stroke:#090D10;stroke-width:1;stroke-linejoin:miter;stroke-miterlimit:10;"/></g><!--link P to UC01--><g class="link" data-entity-1="ent0002" data-entity-2="ent0012" data-link-type="dependency" data-source-line="54" id="lnk36"><path d="M50.2,697.815 C58.74,630.325 80,490.465 112.85,455.625 C129.15,438.335 149.5208,431.1235 171.2708,427.4235" fill="none" id="P-to-UC01" style="stroke:#090D10;stroke-width:1;"/><polygon fill="#090D10" points="176.2,426.585,166.6566,424.151,171.2708,427.4235,167.9983,432.0377,176.2,426.585" style="stroke:#090D10;stroke-width:1;stroke-linejoin:miter;stroke-miterlimit:10;"/></g><!--link P to UC03--><g class="link" data-entity-1="ent0002" data-entity-2="ent0013" data-link-type="dependency" data-source-line="55" id="lnk37"><path d="M62.01,697.825 C75.37,665.845 93.9,617.965 104.85,574.625 C107.93,562.435 104.62,528.125 112.85,518.625 C125.55,503.955 139.9129,497.1469 158.5029,492.9469" fill="none" id="P-to-UC03" style="stroke:#090D10;stroke-width:1;"/><polygon fill="#090D10" points="163.38,491.845,153.7198,489.9267,158.5029,492.9469,155.4828,497.73,163.38,491.845" style="stroke:#090D10;stroke-width:1;stroke-linejoin:miter;stroke-miterlimit:10;"/></g><!--link P to UC05--><g class="link" data-entity-1="ent0002" data-entity-2="ent0016" data-link-type="dependency" data-source-line="56" id="lnk38"><path d="M50.54,771.295 C59.49,836.665 81.13,969.585 112.85,1002.625 C125.03,1015.315 137.2682,1021.599 154.1382,1026.089" fill="none" id="P-to-UC05" style="stroke:#090D10;stroke-width:1;"/><polygon fill="#090D10" points="158.97,1027.375,151.3016,1021.1948,154.1382,1026.089,149.244,1028.9256,158.97,1027.375" style="stroke:#090D10;stroke-width:1;stroke-linejoin:miter;stroke-miterlimit:10;"/></g><!--link P to UC06--><g class="link" data-entity-1="ent0002" data-entity-2="ent0017" data-link-type="dependency" data-source-line="57" id="lnk39"><path d="M71.76,726.985 C97.05,719.515 131.4851,709.3423 163.0151,700.0223" fill="none" id="P-to-UC06" style="stroke:#090D10;stroke-width:1;"/><polygon fill="#090D10" points="167.81,698.605,158.0453,697.3203,163.0151,700.0223,160.313,704.9921,167.81,698.605" style="stroke:#090D10;stroke-width:1;stroke-linejoin:miter;stroke-miterlimit:10;"/></g><!--link P to UC08--><g class="link" data-entity-1="ent0002" data-entity-2="ent0018" data-link-type="dependency" data-source-line="58" id="lnk40"><path d="M71.76,738.665 C93.29,742.035 119.9801,746.2122 148.3601,750.6522" fill="none" id="P-to-UC08" style="stroke:#090D10;stroke-width:1;"/><polygon fill="#090D10" points="153.3,751.425,145.0264,746.082,148.3601,750.6522,143.7899,753.9858,153.3,751.425" style="stroke:#090D10;stroke-width:1;stroke-linejoin:miter;stroke-miterlimit:10;"/></g><!--link P to UC10--><g class="link" data-entity-1="ent0002" data-entity-2="ent0014" data-link-type="dependency" data-source-line="59" id="lnk41"><path d="M64.95,697.765 C77.29,672.975 93.19,639.335 104.85,608.625 C109.29,596.925 103.99,590.465 112.85,581.625 C122.93,571.565 131.3557,566.3433 144.9557,561.7233" fill="none" id="P-to-UC10" style="stroke:#090D10;stroke-width:1;"/><polygon fill="#090D10" points="149.69,560.115,139.8817,559.2224,144.9557,561.7233,142.4549,566.7973,149.69,560.115" style="stroke:#090D10;stroke-width:1;stroke-linejoin:miter;stroke-miterlimit:10;"/></g><!--link P to UC11--><g class="link" data-entity-1="ent0002" data-entity-2="ent0015" data-link-type="dependency" data-source-line="60" id="lnk42"><path d="M65.43,698.075 C76.98,679.625 93.2,658.315 112.85,644.625 C125.01,636.155 134.7109,631.4768 149.0009,626.9768" fill="none" id="P-to-UC11" style="stroke:#090D10;stroke-width:1;"/><polygon fill="#090D10" points="153.77,625.475,143.9841,624.363,149.0009,626.9768,146.387,631.9936,153.77,625.475" style="stroke:#090D10;stroke-width:1;stroke-linejoin:miter;stroke-miterlimit:10;"/></g><!--link P to UC13--><g class="link" data-entity-1="ent0002" data-entity-2="ent0019" data-link-type="dependency" data-source-line="61" id="lnk43"><path d="M71.78,766.095 C83.29,778.525 97.68,792.085 112.85,801.625 C127.9,811.095 140.9543,816.9108 157.6043,822.5508" fill="none" id="P-to-UC13" style="stroke:#090D10;stroke-width:1;"/><polygon fill="#090D10" points="162.34,824.155,155.0991,817.479,157.6043,822.5508,152.5324,825.0561,162.34,824.155" style="stroke:#090D10;stroke-width:1;stroke-linejoin:miter;stroke-miterlimit:10;"/></g><!--link P to UC15--><g class="link" data-entity-1="ent0002" data-entity-2="ent0020" data-link-type="dependency" data-source-line="62" id="lnk44"><path d="M54.36,771.285 C63.55,803.195 81.33,848.485 112.85,875.625 C125.99,886.945 138.2425,892.881 154.7925,897.611" fill="none" id="P-to-UC15" style="stroke:#090D10;stroke-width:1;"/><polygon fill="#090D10" points="159.6,898.985,152.0457,892.6658,154.7925,897.611,149.8473,900.3578,159.6,898.985" style="stroke:#090D10;stroke-width:1;stroke-linejoin:miter;stroke-miterlimit:10;"/></g><!--link P to UC20--><g class="link" data-entity-1="ent0002" data-entity-2="ent0021" data-link-type="dependency" data-source-line="63" id="lnk45"><path d="M47.85,771.475 C52.23,817.205 66.5,894.655 112.85,939.625 C127.39,953.735 143.1175,960.3976 162.2875,964.6276" fill="none" id="P-to-UC20" style="stroke:#090D10;stroke-width:1;"/><polygon fill="#090D10" points="167.17,965.705,159.2433,959.8597,162.2875,964.6276,157.5195,967.6718,167.17,965.705" style="stroke:#090D10;stroke-width:1;stroke-linejoin:miter;stroke-miterlimit:10;"/></g><!--link A to UC16--><g class="link" data-entity-1="ent0003" data-entity-2="ent0022" data-link-type="dependency" data-source-line="65" id="lnk46"><path d="M84.13,1278.635 C93.35,1283.645 103.29,1288.635 112.85,1292.625 C131.11,1300.245 147.0523,1305.4273 165.3123,1310.4973" fill="none" id="A-to-UC16" style="stroke:#090D10;stroke-width:1;"/><polygon fill="#090D10" points="170.13,1311.835,162.5282,1305.573,165.3123,1310.4973,160.3879,1313.2814,170.13,1311.835" style="stroke:#090D10;stroke-width:1;stroke-linejoin:miter;stroke-miterlimit:10;"/></g><!--link A to UC17--><g class="link" data-entity-1="ent0003" data-entity-2="ent0023" data-link-type="dependency" data-source-line="66" id="lnk47"><path d="M84.34,1233.085 C93.54,1228.055 103.43,1222.935 112.85,1218.625 C129.83,1210.855 144.1398,1205.1604 161.3098,1198.9304" fill="none" id="A-to-UC17" style="stroke:#090D10;stroke-width:1;"/><polygon fill="#090D10" points="166.01,1197.225,156.1854,1196.5346,161.3098,1198.9304,158.914,1204.0549,166.01,1197.225" style="stroke:#090D10;stroke-width:1;stroke-linejoin:miter;stroke-miterlimit:10;"/></g><!--link A to UC18--><g class="link" data-entity-1="ent0003" data-entity-2="ent0024" data-link-type="dependency" data-source-line="67" id="lnk48"><path d="M84.22,1255.625 C102.69,1255.625 120.47,1255.625 141.98,1255.625" fill="none" id="A-to-UC18" style="stroke:#090D10;stroke-width:1;"/><polygon fill="#090D10" points="146.98,1255.625,137.98,1251.625,141.98,1255.625,137.98,1259.625,146.98,1255.625" style="stroke:#090D10;stroke-width:1;stroke-linejoin:miter;stroke-miterlimit:10;"/></g><!--reverse link UC19 to UC09--><g class="link" data-entity-1="ent0026" data-entity-2="ent0025" data-link-type="dependency" data-source-line="71" id="lnk49"><path d="M278.03,1102.625 C313.04,1102.625 354.3,1102.625 391.7,1102.625" fill="none" id="UC19-backto-UC09" style="stroke:#090D10;stroke-width:1;stroke-dasharray:7,7;"/><polygon fill="#090D10" points="273.03,1102.625,282.03,1106.625,278.03,1102.625,282.03,1098.625,273.03,1102.625" style="stroke:#090D10;stroke-width:1;stroke-linejoin:miter;stroke-miterlimit:10;"/><text fill="#090D10" font-family="Helvetica" font-size="10" lengthAdjust="spacing" textLength="48.4668" x="323.15" y="1099.9072">&#171;include&#187;</text></g><!--link UC09 to PP--><!--link UC09 to OR--><!--link UC12 to PP--><g class="link" data-entity-1="ent0009" data-entity-2="ent0004" data-link-type="dependency" data-source-line="77" id="lnk52"><path d="M263.5,307.205 C276.85,311.925 290.98,318.535 302.15,327.625 C462.26,457.785 566.6758,683.5436 607.7058,784.3936" fill="none" id="UC12-to-PP" style="stroke:#090D10;stroke-width:1;"/><polygon fill="#090D10" points="609.59,789.025,609.9035,779.1811,607.7058,784.3936,602.4933,782.1959,609.59,789.025" style="stroke:#090D10;stroke-width:1;stroke-linejoin:miter;stroke-miterlimit:10;"/></g><!--link UC13 to PP--><g class="link" data-entity-1="ent0019" data-entity-2="ent0004" data-link-type="dependency" data-source-line="78" id="lnk53"><path d="M289.73,838.625 C371.03,838.625 499.01,838.625 571.86,838.625" fill="none" id="UC13-to-PP" style="stroke:#090D10;stroke-width:1;"/><polygon fill="#090D10" points="576.86,838.625,567.86,834.625,571.86,838.625,567.86,842.625,576.86,838.625" style="stroke:#090D10;stroke-width:1;stroke-linejoin:miter;stroke-miterlimit:10;"/></g><!--link UC18 to OR--><g class="link" data-entity-1="ent0024" data-entity-2="ent0005" data-link-type="dependency" data-source-line="79" id="lnk54"><path d="M278.54,1241.545 C358.31,1222.195 495.7409,1188.8538 572.0409,1170.3438" fill="none" id="UC18-to-OR" style="stroke:#090D10;stroke-width:1;"/><polygon fill="#090D10" points="576.9,1169.165,567.2107,1167.3996,572.0409,1170.3438,569.0967,1175.1741,576.9,1169.165" style="stroke:#090D10;stroke-width:1;stroke-linejoin:miter;stroke-miterlimit:10;"/></g><?plantuml-src TLLBRkD64Dtp51rlHiP06f6sFZOC0nx12R98H2ZmRA9WK29RSW-QtKftKt0c2913p0Mo3cOHP9VPMJV9IVAQNvbI02uANVzNhufEECdPZAosBENimMhsx--Vs3jX7R4DLzoGPBrCfrng64YMwYJFk7BwF91yxPZJp8ZDesEfC3nnGgiW-4geHEO8DnYymJSSlf_fB5SG1iFtzzO9gSkNWSWp6GIKE6tOJ0h4vOmicrLFiU6e8uM4nxXwl4ipeL2VgHLtbU8i9ak6Iregv8vfe-rPuHYpcniB3vuHuq-E6wLlRskdkTaGmcLwgHPyaqiVjN2RBqww1RvDKXl0TXPBShJM1WR8U9zefRFzPs8pBMcb3Jcn8_OMLQM8eDXyBHBXY_erOEmLw_VxxFu9I5cnA-6l8O065hdb2LcaUPWDBvVgRMuJCcnROyBBxhooOpnPgX-qH2u7UnG5g1mbOl-tgZqcBpt2QAc05wmjDpjVP6KOHXr3r34ZAT38OIcrTQUGAFIOsgt6FBortkRUeHXFrpSAWmOKS6DBneaKgDIGl3uWGmzOWefo_paJK45lG9jifUtv2UYA8ZO5OOpbDG9Xn-fYgRv1VF3NDyRDMiZQzAA3mT1Ze18GxJIwuR3ZW0g-HGycGOq2JjWVIn-Q-OK7hR_aGzloSLiZZ2nVoM8GzTGQHemwnkF3xWXxdM8Als1d_N34IaYHKbexZplEqwMwLpj1BqQ8jUV98ttqsKkkvKs0QQT_O3lJQYsm9uQjXGA1FfQ8-IAaME7A83WMjaQa2_dea4W0XU__ejgsqsiqz6YZe6CsHyF_0_hbJJa2EmH-t-46-ZAhxCtmEcY5asCYSRjKFPlRBURkksPls8e-q7aTehkD0FmTDzMIFP8VZsUOLZuGPh3creUNBOEcRMDt-HFiSGSjwrcXM7dcokkihq7ORAkDeyolbMP25NUjEEtLhJkrGrU7JPMSjCKQIpfzOAuwBI70zzfLBHLxe0l_CbRTnbNmMn3CaF-sND56l6Z5orQSD6BKscBx6l7WDMh5oo28snnncwCHHwquRiLf8o97tEPen3P2s4RmfBkhdyUjE6b5JE-LttKWcOe2HZ-c_J-AzJ0Q89WAsXZ2QAwPz3VnmOCEHSacmt_E1JSuYiz_eim8570OheVQykSl0mJt4u6s-Yy_Vod0liRF6pyc30-qBDFkzd_uKy1KDIj6_gvYEFuUys9LojyT8fN5UXwotkBh_dWmEXy4FYwx6GpAZDVuWrOv_PypA1xxFpwADENg9pGVnyTlyuKt3AC2dS8Wl3YGfuKyN_m7?></g></svg>