<svg xmlns="http://www.w3.org/2000/svg" xmlns:xlink="http://www.w3.org/1999/xlink" contentStyleType="text/css" data-diagram-type="ACTIVITY" height="902px" preserveAspectRatio="none" style="width:693px;height:902px;background:#FAFAFA;" version="1.1" viewBox="0 0 693 902" width="693px" zoomAndPan="magnify"><?plantuml 1.2026.4?><defs/><g><rect fill="#FAFAFA" height="902" style="stroke:none;stroke-width:1;" width="693" x="0" y="0"/><g class="title" data-source-line="1"><text fill="#000000" font-family="Helvetica" font-size="16" font-weight="700" lengthAdjust="spacing" textLength="228" x="231.6758" y="34.8516">Disciplina de Verificaci&#243;n</text></g><rect fill="none" height="12.8047" style="stroke:none;stroke-width:1;" width="646.3516" x="20" y="55.7192"/><ellipse cx="161.1548" cy="83.5239" fill="#000000" rx="10" ry="10" style="stroke:#222222;stroke-width:1;"/><rect fill="#C9DFEE" height="32.8047" rx="7" ry="7" style="stroke:#000000;stroke-width:0.5;" width="110.9756" x="105.667" y="157.5239"/><text fill="#000000" font-family="Helvetica" font-size="11" lengthAdjust="spacing" textLength="90.9756" x="115.667" y="177.7344">Comenzar sprint</text><rect fill="#C9DFEE" height="32.8047" rx="7" ry="7" style="stroke:#000000;stroke-width:0.5;" width="144.2227" x="89.0435" y="254.3286"/><text fill="#000000" font-family="Helvetica" font-size="11" lengthAdjust="spacing" textLength="124.2227" x="99.0435" y="274.5391">Seleccionar Work Item</text><rect fill="#C9DFEE" height="32.8047" rx="7" ry="7" style="stroke:#000000;stroke-width:0.5;" width="165.7017" x="78.304" y="351.1333"/><text fill="#000000" font-family="Helvetica" font-size="11" lengthAdjust="spacing" textLength="145.7017" x="88.304" y="371.3438">Realizar micro-incremento</text><polygon fill="#D9C2E3" points="161.1548,307.1333,173.1548,319.1333,161.1548,331.1333,149.1548,319.1333,161.1548,307.1333" style="stroke:#000000;stroke-width:0.5;stroke-linejoin:miter;stroke-miterlimit:10;"/><polygon fill="#D9C2E3" points="71.7073,484.2427,250.6023,484.2427,262.6023,496.2427,250.6023,508.2427,71.7073,508.2427,59.7073,496.2427,71.7073,484.2427" style="stroke:#000000;stroke-width:0.5;stroke-linejoin:miter;stroke-miterlimit:10;"/><text fill="#090D10" font-family="Helvetica" font-size="10" lengthAdjust="spacing" textLength="13.5986" x="165.1548" y="517.5249">No</text><text fill="#000000" font-family="Helvetica" font-size="11" lengthAdjust="spacing" textLength="178.895" x="71.7073" y="500.0508">&#191;Micro-incrementos pendientes?</text><text fill="#090D10" font-family="Helvetica" font-size="10" lengthAdjust="spacing" textLength="9.126" x="262.6023" y="493.8843">Si</text><rect fill="#C9DFEE" height="32.8047" rx="7" ry="7" style="stroke:#000000;stroke-width:0.5;" width="138.0405" x="92.1345" y="539.0249"/><text fill="#000000" font-family="Helvetica" font-size="11" lengthAdjust="spacing" textLength="118.0405" x="102.1345" y="559.2354">Completar Work Item</text><polygon fill="#D9C2E3" points="161.1548,210.3286,173.1548,222.3286,161.1548,234.3286,149.1548,222.3286,161.1548,210.3286" style="stroke:#000000;stroke-width:0.5;stroke-linejoin:miter;stroke-miterlimit:10;"/><polygon fill="#D9C2E3" points="91.5293,644.6343,230.7803,644.6343,242.7803,656.6343,230.7803,668.6343,91.5293,668.6343,79.5293,656.6343,91.5293,644.6343" style="stroke:#000000;stroke-width:0.5;stroke-linejoin:miter;stroke-miterlimit:10;"/><text fill="#090D10" font-family="Helvetica" font-size="10" lengthAdjust="spacing" textLength="13.5986" x="165.1548" y="677.9165">No</text><text fill="#000000" font-family="Helvetica" font-size="11" lengthAdjust="spacing" textLength="139.251" x="91.5293" y="660.4424">&#191;Work Items pendientes?</text><text fill="#090D10" font-family="Helvetica" font-size="10" lengthAdjust="spacing" textLength="9.126" x="242.7803" y="654.2759">Si</text><rect fill="#C9DFEE" height="32.8047" rx="7" ry="7" style="stroke:#000000;stroke-width:0.5;" width="220.3096" x="51" y="699.4165"/><text fill="#000000" font-family="Helvetica" font-size="11" lengthAdjust="spacing" textLength="200.3096" x="61" y="719.627">Integraci&#243;n continua del incremento</text><polygon fill="#D9C2E3" points="161.1548,113.5239,173.1548,125.5239,161.1548,137.5239,149.1548,125.5239,161.1548,113.5239" style="stroke:#000000;stroke-width:0.5;stroke-linejoin:miter;stroke-miterlimit:10;"/><polygon fill="#D9C2E3" points="103.6331,805.0259,218.6765,805.0259,230.6765,817.0259,218.6765,829.0259,103.6331,829.0259,91.6331,817.0259,103.6331,805.0259" style="stroke:#000000;stroke-width:0.5;stroke-linejoin:miter;stroke-miterlimit:10;"/><text fill="#090D10" font-family="Helvetica" font-size="10" lengthAdjust="spacing" textLength="13.5986" x="165.1548" y="838.3081">No</text><text fill="#000000" font-family="Helvetica" font-size="11" lengthAdjust="spacing" textLength="115.0435" x="103.6331" y="820.834">&#191;Sprints pendientes?</text><text fill="#090D10" font-family="Helvetica" font-size="10" lengthAdjust="spacing" textLength="9.126" x="230.6765" y="814.6675">Si</text><ellipse cx="161.1548" cy="870.8081" fill="none" rx="11" ry="11" style="stroke:#222222;stroke-width:1;"/><ellipse cx="161.1548" cy="870.8081" fill="#222222" rx="6" ry="6" style="stroke:#222222;stroke-width:1;"/><line style="stroke:#000000;stroke-width:1.5;" x1="20" x2="20" y1="55.7192" y2="881.8081"/><rect fill="#C9DFEE" height="32.8047" rx="7" ry="7" style="stroke:#000000;stroke-width:0.5;" width="90.4688" x="299.7676" y="411.438"/><text fill="#000000" font-family="Helvetica" font-size="11" lengthAdjust="spacing" textLength="70.4688" x="309.7676" y="431.6484">Test Unitario</text><line style="stroke:#000000;stroke-width:1.5;" x1="277.6023" x2="277.6023" y1="55.7192" y2="881.8081"/><rect fill="#C9DFEE" height="32.8047" rx="7" ry="7" style="stroke:#000000;stroke-width:0.5;" width="126.6216" x="416.4016" y="591.8296"/><text fill="#000000" font-family="Helvetica" font-size="11" lengthAdjust="spacing" textLength="106.6216" x="426.4016" y="612.04">Test de Integraci&#243;n</text><line style="stroke:#000000;stroke-width:1.5;" x1="410.4016" x2="410.4016" y1="55.7192" y2="881.8081"/><rect fill="#C9DFEE" height="32.8047" rx="7" ry="7" style="stroke:#000000;stroke-width:0.5;" width="108.5801" x="553.0232" y="752.2212"/><text fill="#000000" font-family="Helvetica" font-size="11" lengthAdjust="spacing" textLength="88.5801" x="563.0232" y="772.4316">Test de Sistema</text><line style="stroke:#000000;stroke-width:1.5;" x1="547.0232" x2="547.0232" y1="55.7192" y2="881.8081"/><line style="stroke:#000000;stroke-width:1.5;" x1="665.6033" x2="665.6033" y1="55.7192" y2="881.8081"/><line style="stroke:#090D10;stroke-width:1;" x1="161.1548" x2="161.1548" y1="331.1333" y2="351.1333"/><polygon fill="#090D10" points="157.1548,341.1333,161.1548,351.1333,165.1548,341.1333,161.1548,345.1333" style="stroke:#090D10;stroke-width:1;stroke-linejoin:miter;stroke-miterlimit:10;"/><line style="stroke:#090D10;stroke-width:1;" x1="59.7073" x2="47.7073" y1="496.2427" y2="496.2427"/><polygon fill="#090D10" points="43.7073,403.938,47.7073,393.938,51.7073,403.938,47.7073,399.938" style="stroke:#090D10;stroke-width:1;stroke-linejoin:miter;stroke-miterlimit:10;"/><line style="stroke:#090D10;stroke-width:1;" x1="47.7073" x2="47.7073" y1="319.1333" y2="496.2427"/><line style="stroke:#090D10;stroke-width:1;" x1="47.7073" x2="149.1548" y1="319.1333" y2="319.1333"/><polygon fill="#090D10" points="139.1548,315.1333,149.1548,319.1333,139.1548,323.1333,143.1548,319.1333" style="stroke:#090D10;stroke-width:1;stroke-linejoin:miter;stroke-miterlimit:10;"/><line style="stroke:#090D10;stroke-width:1;" x1="161.1548" x2="161.1548" y1="287.1333" y2="307.1333"/><polygon fill="#090D10" points="157.1548,297.1333,161.1548,307.1333,165.1548,297.1333,161.1548,301.1333" style="stroke:#090D10;stroke-width:1;stroke-linejoin:miter;stroke-miterlimit:10;"/><line style="stroke:#090D10;stroke-width:1;" x1="161.1548" x2="161.1548" y1="508.2427" y2="539.0249"/><polygon fill="#090D10" points="157.1548,529.0249,161.1548,539.0249,165.1548,529.0249,161.1548,533.0249" style="stroke:#090D10;stroke-width:1;stroke-linejoin:miter;stroke-miterlimit:10;"/><line style="stroke:#090D10;stroke-width:1;" x1="161.1548" x2="161.1548" y1="234.3286" y2="254.3286"/><polygon fill="#090D10" points="157.1548,244.3286,161.1548,254.3286,165.1548,244.3286,161.1548,248.3286" style="stroke:#090D10;stroke-width:1;stroke-linejoin:miter;stroke-miterlimit:10;"/><line style="stroke:#090D10;stroke-width:1;" x1="79.5293" x2="47.7073" y1="656.6343" y2="656.6343"/><polygon fill="#090D10" points="43.7073,437.8403,47.7073,427.8403,51.7073,437.8403,47.7073,433.8403" style="stroke:#090D10;stroke-width:1;stroke-linejoin:miter;stroke-miterlimit:10;"/><line style="stroke:#090D10;stroke-width:1;" x1="47.7073" x2="47.7073" y1="222.3286" y2="656.6343"/><line style="stroke:#090D10;stroke-width:1;" x1="47.7073" x2="149.1548" y1="222.3286" y2="222.3286"/><polygon fill="#090D10" points="139.1548,218.3286,149.1548,222.3286,139.1548,226.3286,143.1548,222.3286" style="stroke:#090D10;stroke-width:1;stroke-linejoin:miter;stroke-miterlimit:10;"/><line style="stroke:#090D10;stroke-width:1;" x1="161.1548" x2="161.1548" y1="190.3286" y2="210.3286"/><polygon fill="#090D10" points="157.1548,200.3286,161.1548,210.3286,165.1548,200.3286,161.1548,204.3286" style="stroke:#090D10;stroke-width:1;stroke-linejoin:miter;stroke-miterlimit:10;"/><line style="stroke:#090D10;stroke-width:1;" x1="161.1548" x2="161.1548" y1="668.6343" y2="699.4165"/><polygon fill="#090D10" points="157.1548,689.4165,161.1548,699.4165,165.1548,689.4165,161.1548,693.4165" style="stroke:#090D10;stroke-width:1;stroke-linejoin:miter;stroke-miterlimit:10;"/><line style="stroke:#090D10;stroke-width:1;" x1="161.1548" x2="161.1548" y1="137.5239" y2="157.5239"/><polygon fill="#090D10" points="157.1548,147.5239,161.1548,157.5239,165.1548,147.5239,161.1548,151.5239" style="stroke:#090D10;stroke-width:1;stroke-linejoin:miter;stroke-miterlimit:10;"/><line style="stroke:#090D10;stroke-width:1;" x1="91.6331" x2="39" y1="817.0259" y2="817.0259"/><polygon fill="#090D10" points="35,464.2427,39,454.2427,43,464.2427,39,460.2427" style="stroke:#090D10;stroke-width:1;stroke-linejoin:miter;stroke-miterlimit:10;"/><line style="stroke:#090D10;stroke-width:1;" x1="39" x2="39" y1="125.5239" y2="817.0259"/><line style="stroke:#090D10;stroke-width:1;" x1="39" x2="149.1548" y1="125.5239" y2="125.5239"/><polygon fill="#090D10" points="139.1548,121.5239,149.1548,125.5239,139.1548,129.5239,143.1548,125.5239" style="stroke:#090D10;stroke-width:1;stroke-linejoin:miter;stroke-miterlimit:10;"/><line style="stroke:#090D10;stroke-width:1;" x1="161.1548" x2="161.1548" y1="93.5239" y2="113.5239"/><polygon fill="#090D10" points="157.1548,103.5239,161.1548,113.5239,165.1548,103.5239,161.1548,107.5239" style="stroke:#090D10;stroke-width:1;stroke-linejoin:miter;stroke-miterlimit:10;"/><line style="stroke:#090D10;stroke-width:1;" x1="161.1548" x2="161.1548" y1="829.0259" y2="859.8081"/><polygon fill="#090D10" points="157.1548,849.8081,161.1548,859.8081,165.1548,849.8081,161.1548,853.8081" style="stroke:#090D10;stroke-width:1;stroke-linejoin:miter;stroke-miterlimit:10;"/><line style="stroke:#090D10;stroke-width:1;" x1="161.1548" x2="161.1548" y1="383.938" y2="393.938"/><line style="stroke:#090D10;stroke-width:1;" x1="161.1548" x2="345.002" y1="393.938" y2="393.938"/><line style="stroke:#090D10;stroke-width:1;" x1="345.002" x2="345.002" y1="393.938" y2="411.438"/><polygon fill="#090D10" points="341.002,401.438,345.002,411.438,349.002,401.438,345.002,405.438" style="stroke:#090D10;stroke-width:1;stroke-linejoin:miter;stroke-miterlimit:10;"/><line style="stroke:#090D10;stroke-width:1;" x1="345.002" x2="345.002" y1="444.2427" y2="460.7427"/><line style="stroke:#090D10;stroke-width:1;" x1="345.002" x2="161.1548" y1="460.7427" y2="460.7427"/><line style="stroke:#090D10;stroke-width:1;" x1="161.1548" x2="161.1548" y1="460.7427" y2="484.2427"/><polygon fill="#090D10" points="157.1548,474.2427,161.1548,484.2427,165.1548,474.2427,161.1548,478.2427" style="stroke:#090D10;stroke-width:1;stroke-linejoin:miter;stroke-miterlimit:10;"/><line style="stroke:#090D10;stroke-width:1;" x1="161.1548" x2="161.1548" y1="571.8296" y2="576.8296"/><line style="stroke:#090D10;stroke-width:1;" x1="161.1548" x2="479.7124" y1="576.8296" y2="576.8296"/><line style="stroke:#090D10;stroke-width:1;" x1="479.7124" x2="479.7124" y1="576.8296" y2="591.8296"/><polygon fill="#090D10" points="475.7124,581.8296,479.7124,591.8296,483.7124,581.8296,479.7124,585.8296" style="stroke:#090D10;stroke-width:1;stroke-linejoin:miter;stroke-miterlimit:10;"/><line style="stroke:#090D10;stroke-width:1;" x1="479.7124" x2="479.7124" y1="624.6343" y2="629.6343"/><line style="stroke:#090D10;stroke-width:1;" x1="479.7124" x2="161.1548" y1="629.6343" y2="629.6343"/><line style="stroke:#090D10;stroke-width:1;" x1="161.1548" x2="161.1548" y1="629.6343" y2="644.6343"/><polygon fill="#090D10" points="157.1548,634.6343,161.1548,644.6343,165.1548,634.6343,161.1548,638.6343" style="stroke:#090D10;stroke-width:1;stroke-linejoin:miter;stroke-miterlimit:10;"/><line style="stroke:#090D10;stroke-width:1;" x1="161.1548" x2="161.1548" y1="732.2212" y2="737.2212"/><line style="stroke:#090D10;stroke-width:1;" x1="161.1548" x2="607.3132" y1="737.2212" y2="737.2212"/><line style="stroke:#090D10;stroke-width:1;" x1="607.3132" x2="607.3132" y1="737.2212" y2="752.2212"/><polygon fill="#090D10" points="603.3132,742.2212,607.3132,752.2212,611.3132,742.2212,607.3132,746.2212" style="stroke:#090D10;stroke-width:1;stroke-linejoin:miter;stroke-miterlimit:10;"/><line style="stroke:#090D10;stroke-width:1;" x1="607.3132" x2="607.3132" y1="785.0259" y2="790.0259"/><line style="stroke:#090D10;stroke-width:1;" x1="607.3132" x2="161.1548" y1="790.0259" y2="790.0259"/><line style="stroke:#090D10;stroke-width:1;" x1="161.1548" x2="161.1548" y1="790.0259" y2="805.0259"/><polygon fill="#090D10" points="157.1548,795.0259,161.1548,805.0259,165.1548,795.0259,161.1548,799.0259" style="stroke:#090D10;stroke-width:1;stroke-linejoin:miter;stroke-miterlimit:10;"/><text fill="#000000" font-family="Helvetica" font-size="11" lengthAdjust="spacing" textLength="120.2319" x="88.6852" y="65.9297">Proceso de Desarrollo</text><text fill="#000000" font-family="Helvetica" font-size="11" lengthAdjust="spacing" textLength="122.7993" x="282.6023" y="65.9297">Subagente Verificador</text><text fill="#000000" font-family="Helvetica" font-size="11" lengthAdjust="spacing" textLength="30.7817" x="463.3215" y="65.9297">CI/CD</text><text fill="#000000" font-family="Helvetica" font-size="11" lengthAdjust="spacing" textLength="34.8208" x="588.9028" y="65.9297">Tester</text><?plantuml-src XLBDJiCm3BxtASnjEx3jp10SEWuzW10TS9n2wWsBDAwIL4XeRyK38C6BuROiQokazP0wzXT_dty21OEm8g-fCcGL50XFw6XBMcdw-RH9SaPMcrhyizbyiTYaNDPMZDbYS-C36UuyCwfB8-02jsGHxXslqCEbHXlGNSbLe-SckxYLSsmCHt1UlmXd1CjLxHepAYdOHN2QHM2QpTDL3AnxV6BBBzbtClR9lgCG8ytaM3U-OzG7vKBYi48L4f3lGaf2-w4S-CgH3SlMsmEqe1mDQari1VVCxWsoWEKonaVmzia3AaDDtfAqutFfh4DX2hmSuABSmUEcA7Yq96ff_E1Gof0Stbz9nZlv_heTyNceq1RKTCjVJu4yJ7AQWkK0apkUmh5AQKLbCFnVOzlEeK0PSIPPTwxRdnwsht6iB-O-8QmRJvy0DDj0jcvMry2uezse1-foajqerL_y86eiA6y7VqgDh0vNlm00?></g></svg>