<svg id="my-svg" width="100%" xmlns="http://www.w3.org/2000/svg" xmlns:xlink="http://www.w3.org/1999/xlink" class="classDiagram" style="max-width: 849.875px; background-color: white;" viewBox="4 -48 849.875 828" role="graphics-document document" aria-roledescription="class"><style>#my-svg{font-family:"trebuchet ms",verdana,arial,sans-serif;font-size:16px;fill:#000000;}@keyframes edge-animation-frame{from{stroke-dashoffset:0;}}@keyframes dash{to{stroke-dashoffset:0;}}#my-svg .edge-animation-slow{stroke-dasharray:9,5!important;stroke-dashoffset:900;animation:dash 50s linear infinite;stroke-linecap:round;}#my-svg .edge-animation-fast{stroke-dasharray:9,5!important;stroke-dashoffset:900;animation:dash 20s linear infinite;stroke-linecap:round;}#my-svg .error-icon{fill:#552222;}#my-svg .error-text{fill:#552222;stroke:#552222;}#my-svg .edge-thickness-normal{stroke-width:1px;}#my-svg .edge-thickness-thick{stroke-width:3.5px;}#my-svg .edge-pattern-solid{stroke-dasharray:0;}#my-svg .edge-thickness-invisible{stroke-width:0;fill:none;}#my-svg .edge-pattern-dashed{stroke-dasharray:3;}#my-svg .edge-pattern-dotted{stroke-dasharray:2;}#my-svg .marker{fill:#666;stroke:#666;}#my-svg .marker.cross{stroke:#666;}#my-svg svg{font-family:"trebuchet ms",verdana,arial,sans-serif;font-size:16px;}#my-svg p{margin:0;}#my-svg g.classGroup text{fill:#999;stroke:none;font-family:"trebuchet ms",verdana,arial,sans-serif;font-size:10px;}#my-svg g.classGroup text .title{font-weight:bolder;}#my-svg .cluster-label text{fill:#333;}#my-svg .cluster-label span{color:#333;}#my-svg .cluster-label span p{background-color:transparent;}#my-svg .cluster rect{fill:hsl(0, 0%, 98.9215686275%);stroke:#707070;stroke-width:1px;}#my-svg .cluster text{fill:#333;}#my-svg .cluster span{color:#333;}#my-svg .nodeLabel,#my-svg .edgeLabel{color:#111111;}#my-svg .noteLabel .nodeLabel,#my-svg .noteLabel .edgeLabel{color:#fff;}#my-svg .edgeLabel .label rect{fill:#eee;}#my-svg .label text{fill:#111111;}#my-svg .labelBkg{background:#eee;}#my-svg .edgeLabel .label span{background:#eee;}#my-svg .classTitle{font-weight:bolder;}#my-svg .node rect,#my-svg .node circle,#my-svg .node ellipse,#my-svg .node polygon,#my-svg .node path{fill:#eee;stroke:#999;stroke-width:1;}#my-svg .divider{stroke:#999;stroke-width:1;}#my-svg g.clickable{cursor:pointer;}#my-svg g.classGroup rect{fill:#eee;stroke:#999;}#my-svg g.classGroup line{stroke:#999;stroke-width:1;}#my-svg .classLabel .box{stroke:none;stroke-width:0;fill:#eee;opacity:0.5;}#my-svg .classLabel .label{fill:#999;font-size:10px;}#my-svg .relation{stroke:#666;stroke-width:1;fill:none;}#my-svg .dashed-line{stroke-dasharray:3;}#my-svg .dotted-line{stroke-dasharray:1 2;}#my-svg [id$="-compositionStart"],#my-svg .composition{fill:#666!important;stroke:#666!important;stroke-width:1;}#my-svg [id$="-compositionEnd"],#my-svg .composition{fill:#666!important;stroke:#666!important;stroke-width:1;}#my-svg [id$="-dependencyStart"],#my-svg .dependency{fill:#666!important;stroke:#666!important;stroke-width:1;}#my-svg [id$="-dependencyEnd"],#my-svg .dependency{fill:#666!important;stroke:#666!important;stroke-width:1;}#my-svg [id$="-extensionStart"],#my-svg .extension{fill:transparent!important;stroke:#666!important;stroke-width:1;}#my-svg [id$="-extensionEnd"],#my-svg .extension{fill:transparent!important;stroke:#666!important;stroke-width:1;}#my-svg [id$="-aggregationStart"],#my-svg .aggregation{fill:transparent!important;stroke:#666!important;stroke-width:1;}#my-svg [id$="-aggregationEnd"],#my-svg .aggregation{fill:transparent!important;stroke:#666!important;stroke-width:1;}#my-svg [id$="-lollipopStart"],#my-svg .lollipop{fill:#eee!important;stroke:#666!important;stroke-width:1;}#my-svg [id$="-lollipopEnd"],#my-svg .lollipop{fill:#eee!important;stroke:#666!important;stroke-width:1;}#my-svg .edgeTerminals{font-size:11px;line-height:initial;}#my-svg .classTitleText{text-anchor:middle;font-size:18px;fill:#000000;}#my-svg .edgeLabel[data-look="neo"]{background-color:white;text-align:center;}#my-svg .edgeLabel[data-look="neo"] p{background-color:white;}#my-svg .edgeLabel[data-look="neo"] rect{opacity:0.5;background-color:white;fill:white;}#my-svg .label-icon{display:inline-block;height:1em;overflow:visible;vertical-align:-0.125em;}#my-svg .node .label-icon path{fill:currentColor;stroke:revert;stroke-width:revert;}#my-svg .node .neo-node{stroke:#999;}#my-svg [data-look="neo"].node rect,#my-svg [data-look="neo"].cluster rect,#my-svg [data-look="neo"].node polygon{stroke:url(#my-svg-gradient);filter:drop-shadow( 1px 2px 2px rgba(185,185,185,1));}#my-svg [data-look="neo"].node path{stroke:url(#my-svg-gradient);stroke-width:1px;}#my-svg [data-look="neo"].node .outer-path{filter:drop-shadow( 1px 2px 2px rgba(185,185,185,1));}#my-svg [data-look="neo"].node .neo-line path{stroke:#999;filter:none;}#my-svg [data-look="neo"].node circle{stroke:url(#my-svg-gradient);filter:drop-shadow( 1px 2px 2px rgba(185,185,185,1));}#my-svg [data-look="neo"].node circle .state-start{fill:#000000;}#my-svg [data-look="neo"].icon-shape .icon{fill:url(#my-svg-gradient);filter:drop-shadow( 1px 2px 2px rgba(185,185,185,1));}#my-svg [data-look="neo"].icon-shape .icon-neo path{stroke:url(#my-svg-gradient);filter:drop-shadow( 1px 2px 2px rgba(185,185,185,1));}#my-svg :root{--mermaid-font-family:"trebuchet ms",verdana,arial,sans-serif;}#my-svg .CoordinadorIA&gt;*{fill:rgb(225, 205, 233)!important;stroke:rgb(44, 37, 112)!important;color:rgb(0, 26, 30)!important;}#my-svg .CoordinadorIA span{fill:rgb(225, 205, 233)!important;stroke:rgb(44, 37, 112)!important;color:rgb(0, 26, 30)!important;}#my-svg .SubVer&gt;*{fill:rgb(225, 205, 233)!important;stroke:rgb(44, 37, 112)!important;color:rgb(0, 26, 30)!important;}#my-svg .SubVer span{fill:rgb(225, 205, 233)!important;stroke:rgb(44, 37, 112)!important;color:rgb(0, 26, 30)!important;}#my-svg .Tester&gt;*{fill:rgb(225, 205, 233)!important;stroke:rgb(44, 37, 112)!important;color:rgb(0, 26, 30)!important;}#my-svg .Tester span{fill:rgb(225, 205, 233)!important;stroke:rgb(44, 37, 112)!important;color:rgb(0, 26, 30)!important;}#my-svg .Desarrollador&gt;*{fill:rgb(225, 205, 233)!important;stroke:rgb(44, 37, 112)!important;color:rgb(0, 26, 30)!important;}#my-svg .Desarrollador span{fill:rgb(225, 205, 233)!important;stroke:rgb(44, 37, 112)!important;color:rgb(0, 26, 30)!important;}#my-svg .TestUnitario&gt;*{fill:rgb(155, 205, 237)!important;stroke:rgb(33, 97, 140)!important;color:rgb(0, 26, 30)!important;}#my-svg .TestUnitario span{fill:rgb(155, 205, 237)!important;stroke:rgb(33, 97, 140)!important;color:rgb(0, 26, 30)!important;}#my-svg .MicroIncremento&gt;*{fill:rgb(155, 205, 237)!important;stroke:rgb(33, 97, 140)!important;color:rgb(0, 26, 30)!important;}#my-svg .MicroIncremento span{fill:rgb(155, 205, 237)!important;stroke:rgb(33, 97, 140)!important;color:rgb(0, 26, 30)!important;}#my-svg .TestIntegracion&gt;*{fill:rgb(155, 205, 237)!important;stroke:rgb(33, 97, 140)!important;color:rgb(0, 26, 30)!important;}#my-svg .TestIntegracion span{fill:rgb(155, 205, 237)!important;stroke:rgb(33, 97, 140)!important;color:rgb(0, 26, 30)!important;}#my-svg .WorkItem&gt;*{fill:rgb(155, 205, 237)!important;stroke:rgb(33, 97, 140)!important;color:rgb(0, 26, 30)!important;}#my-svg .WorkItem span{fill:rgb(155, 205, 237)!important;stroke:rgb(33, 97, 140)!important;color:rgb(0, 26, 30)!important;}#my-svg .TestSistema&gt;*{fill:rgb(155, 205, 237)!important;stroke:rgb(33, 97, 140)!important;color:rgb(0, 26, 30)!important;}#my-svg .TestSistema span{fill:rgb(155, 205, 237)!important;stroke:rgb(33, 97, 140)!important;color:rgb(0, 26, 30)!important;}#my-svg .ProductoSoftware&gt;*{fill:rgb(155, 205, 237)!important;stroke:rgb(33, 97, 140)!important;color:rgb(0, 26, 30)!important;}#my-svg .ProductoSoftware span{fill:rgb(155, 205, 237)!important;stroke:rgb(33, 97, 140)!important;color:rgb(0, 26, 30)!important;}#my-svg .TestAutomatizado&gt;*{fill:rgb(155, 205, 237)!important;stroke:rgb(33, 97, 140)!important;color:rgb(0, 26, 30)!important;}#my-svg .TestAutomatizado span{fill:rgb(155, 205, 237)!important;stroke:rgb(33, 97, 140)!important;color:rgb(0, 26, 30)!important;}#my-svg .TestManual&gt;*{fill:rgb(155, 205, 237)!important;stroke:rgb(33, 97, 140)!important;color:rgb(0, 26, 30)!important;}#my-svg .TestManual span{fill:rgb(155, 205, 237)!important;stroke:rgb(33, 97, 140)!important;color:rgb(0, 26, 30)!important;}</style><g><defs><marker id="my-svg_class-aggregationStart" class="marker aggregation class" refX="18" refY="7" markerWidth="190" markerHeight="240" orient="auto"><path d="M 18,7 L9,13 L1,7 L9,1 Z"/></marker></defs><defs><marker id="my-svg_class-aggregationEnd" class="marker aggregation class" refX="1" refY="7" markerWidth="20" markerHeight="28" orient="auto"><path d="M 18,7 L9,13 L1,7 L9,1 Z"/></marker></defs><defs><marker id="my-svg_class-aggregationStart-margin" class="marker aggregation class" refX="15" refY="7" markerWidth="190" markerHeight="240" orient="auto" markerUnits="userSpaceOnUse"><path d="M 18,7 L9,13 L1,7 L9,1 Z" style="stroke-width: 2;"/></marker></defs><defs><marker id="my-svg_class-aggregationEnd-margin" class="marker aggregation class" refX="1" refY="7" markerWidth="20" markerHeight="28" orient="auto" markerUnits="userSpaceOnUse"><path d="M 18,7 L9,13 L1,7 L9,1 Z" style="stroke-width: 2;"/></marker></defs><defs><marker id="my-svg_class-extensionStart" class="marker extension class" refX="18" refY="7" markerWidth="20" markerHeight="28" orient="auto" markerUnits="userSpaceOnUse"><path d="M 1,7 L18,13 V 1 Z"/></marker></defs><defs><marker id="my-svg_class-extensionEnd" class="marker extension class" refX="1" refY="7" markerWidth="20" markerHeight="28" orient="auto"><path d="M 1,1 V 13 L18,7 Z"/></marker></defs><marker id="my-svg_class-extensionStart-margin" class="marker extension class" refX="18" refY="7" markerWidth="20" markerHeight="28" orient="auto" markerUnits="userSpaceOnUse" viewBox="0 0 20 14"><polygon points="10,7 18,13 18,1" style="stroke-width: 2; stroke-dasharray: 0;"/></marker><defs><marker id="my-svg_class-extensionEnd-margin" class="marker extension class" refX="9" refY="7" markerWidth="20" markerHeight="28" orient="auto" markerUnits="userSpaceOnUse" viewBox="0 0 20 14"><polygon points="10,1 10,13 18,7" style="stroke-width: 2; stroke-dasharray: 0;"/></marker></defs><defs><marker id="my-svg_class-compositionStart" class="marker composition class" refX="18" refY="7" markerWidth="190" markerHeight="240" orient="auto"><path d="M 18,7 L9,13 L1,7 L9,1 Z"/></marker></defs><defs><marker id="my-svg_class-compositionEnd" class="marker composition class" refX="1" refY="7" markerWidth="20" markerHeight="28" orient="auto"><path d="M 18,7 L9,13 L1,7 L9,1 Z"/></marker></defs><defs><marker id="my-svg_class-compositionStart-margin" class="marker composition class" refX="15" refY="7" markerWidth="190" markerHeight="240" orient="auto" markerUnits="userSpaceOnUse"><path viewBox="0 0 15 15" d="M 18,7 L9,13 L1,7 L9,1 Z" style="stroke-width: 0;"/></marker></defs><defs><marker id="my-svg_class-compositionEnd-margin" class="marker composition class" refX="3.5" refY="7" markerWidth="20" markerHeight="28" orient="auto" markerUnits="userSpaceOnUse"><path d="M 18,7 L9,13 L1,7 L9,1 Z" style="stroke-width: 0;"/></marker></defs><defs><marker id="my-svg_class-dependencyStart" class="marker dependency class" refX="6" refY="7" markerWidth="190" markerHeight="240" orient="auto"><path d="M 5,7 L9,13 L1,7 L9,1 Z"/></marker></defs><defs><marker id="my-svg_class-dependencyEnd" class="marker dependency class" refX="13" refY="7" markerWidth="20" markerHeight="28" orient="auto"><path d="M 18,7 L9,13 L14,7 L9,1 Z"/></marker></defs><defs><marker id="my-svg_class-dependencyStart-margin" class="marker dependency class" refX="4" refY="7" markerWidth="190" markerHeight="240" orient="auto" markerUnits="userSpaceOnUse"><path d="M 5,7 L9,13 L1,7 L9,1 Z" style="stroke-width: 0;"/></marker></defs><defs><marker id="my-svg_class-dependencyEnd-margin" class="marker dependency class" refX="16" refY="7" markerWidth="20" markerHeight="28" orient="auto" markerUnits="userSpaceOnUse"><path d="M 18,7 L9,13 L14,7 L9,1 Z" style="stroke-width: 0;"/></marker></defs><defs><marker id="my-svg_class-lollipopStart" class="marker lollipop class" refX="13" refY="7" markerWidth="190" markerHeight="240" orient="auto"><circle fill="transparent" cx="7" cy="7" r="6"/></marker></defs><defs><marker id="my-svg_class-lollipopEnd" class="marker lollipop class" refX="1" refY="7" markerWidth="190" markerHeight="240" orient="auto"><circle fill="transparent" cx="7" cy="7" r="6"/></marker></defs><defs><marker id="my-svg_class-lollipopStart-margin" class="marker lollipop class" refX="13" refY="7" markerWidth="190" markerHeight="240" orient="auto" markerUnits="userSpaceOnUse"><circle fill="transparent" cx="7" cy="7" r="6" stroke-width="2"/></marker></defs><defs><marker id="my-svg_class-lollipopEnd-margin" class="marker lollipop class" refX="1" refY="7" markerWidth="190" markerHeight="240" orient="auto" markerUnits="userSpaceOnUse"><circle fill="transparent" cx="7" cy="7" r="6" stroke-width="2"/></marker></defs></g><defs><filter id="my-svg-drop-shadow" height="130%" width="130%"><feDropShadow dx="4" dy="4" stdDeviation="0" flood-opacity="0.06" flood-color="#000000"/></filter></defs><defs><filter id="my-svg-drop-shadow-small" height="150%" width="150%"><feDropShadow dx="2" dy="2" stdDeviation="0" flood-opacity="0.06" flood-color="#000000"/></filter></defs><linearGradient id="my-svg-gradient" gradientUnits="objectBoundingBox" x1="0%" y1="0%" x2="100%" y2="0%"><stop offset="0%" stop-color="hsl(0, 0%, 83.3333333333%)" stop-opacity="1"/><stop offset="100%" stop-color="hsl(0, 0%, 88.9215686275%)" stop-opacity="1"/></linearGradient><g class="subgraphs"/><g class="nodes"><g class="node default rol" id="my-svg-classId-CoordinadorIA-0" data-look="classic" transform="translate(124.5703125, 48)"><g class="basic label-container outer-path"><path d="M-93.4296875 -36 L93.4296875 -36 L93.4296875 36 L-93.4296875 36" stroke="none" stroke-width="0" fill="#E1CDE9" style="fill:#E1CDE9;stroke:#2c2570;color:#001a1e"/><path d="M-93.4296875 -36 C-23.327558088950383 -36, 46.774571322099234 -36, 93.4296875 -36 M-93.4296875 -36 C-53.17281124161511 -36, -12.915934983230215 -36, 93.4296875 -36 M93.4296875 -36 C93.4296875 -7.756417360910788, 93.4296875 20.487165278178423, 93.4296875 36 M93.4296875 -36 C93.4296875 -11.782414968008947, 93.4296875 12.435170063982106, 93.4296875 36 M93.4296875 36 C19.07636661556913 36, -55.27695426886174 36, -93.4296875 36 M93.4296875 36 C47.28941774521925 36, 1.1491479904384931 36, -93.4296875 36 M-93.4296875 36 C-93.4296875 12.478294278823313, -93.4296875 -11.043411442353374, -93.4296875 -36 M-93.4296875 36 C-93.4296875 17.77991680872712, -93.4296875 -0.4401663825457618, -93.4296875 -36" stroke="#2c2570" stroke-width="1.3" fill="none" stroke-dasharray="0 0" style="fill:#E1CDE9;stroke:#2c2570;color:#001a1e"/></g><g class="annotation-group text" transform="translate(-22.109375, -12)"><g class="label" style="" transform="translate(0,-12)"><foreignObject width="44.21875" height="24"><div xmlns="http://www.w3.org/1999/xhtml" style="display: table-cell; white-space: nowrap; line-height: 1.5; max-width: 94px; text-align: center;"><span class="nodeLabel markdown-node-label" style="fill:#E1CDE9;stroke:#2c2570;color:#001a1e"><p>«Rol»</p></span></div></foreignObject></g></g><g class="label-group text" transform="translate(-81.4296875, 12)"><g class="label" style="font-weight: bolder" transform="translate(0,-12)"><foreignObject width="162.859375" height="24"><div xmlns="http://www.w3.org/1999/xhtml" style="display: table-cell; white-space: nowrap; line-height: 1.5; max-width: 195px; text-align: center;"><span class="nodeLabel markdown-node-label" style="fill:#E1CDE9;stroke:#2c2570;color:#001a1e"><p>Coordinador de IA</p></span></div></foreignObject></g></g><g class="members-group text" transform="translate(-81.4296875, 60)"/><g class="methods-group text" transform="translate(-81.4296875, 90)"/></g><g class="node default rol" id="my-svg-classId-SubVer-1" data-look="classic" transform="translate(124.5703125, 224)"><g class="basic label-container outer-path"><path d="M-112.5703125 -36 L112.5703125 -36 L112.5703125 36 L-112.5703125 36" stroke="none" stroke-width="0" fill="#E1CDE9" style="fill:#E1CDE9;stroke:#2c2570;color:#001a1e"/><path d="M-112.5703125 -36 C-34.5246451074143 -36, 43.5210222851714 -36, 112.5703125 -36 M-112.5703125 -36 C-37.008037870098704 -36, 38.55423675980259 -36, 112.5703125 -36 M112.5703125 -36 C112.5703125 -17.2262470087495, 112.5703125 1.5475059825010007, 112.5703125 36 M112.5703125 -36 C112.5703125 -9.276209310790286, 112.5703125 17.44758137841943, 112.5703125 36 M112.5703125 36 C54.700897207709495 36, -3.1685180845810095 36, -112.5703125 36 M112.5703125 36 C34.28097630370952 36, -44.008359892580955 36, -112.5703125 36 M-112.5703125 36 C-112.5703125 10.518927927876327, -112.5703125 -14.962144144247347, -112.5703125 -36 M-112.5703125 36 C-112.5703125 14.88703334838932, -112.5703125 -6.22593330322136, -112.5703125 -36" stroke="#2c2570" stroke-width="1.3" fill="none" stroke-dasharray="0 0" style="fill:#E1CDE9;stroke:#2c2570;color:#001a1e"/></g><g class="annotation-group text" transform="translate(-22.109375, -12)"><g class="label" style="" transform="translate(0,-12)"><foreignObject width="44.21875" height="24"><div xmlns="http://www.w3.org/1999/xhtml" style="display: table-cell; white-space: nowrap; line-height: 1.5; max-width: 94px; text-align: center;"><span class="nodeLabel markdown-node-label" style="fill:#E1CDE9;stroke:#2c2570;color:#001a1e"><p>«Rol»</p></span></div></foreignObject></g></g><g class="label-group text" transform="translate(-100.5703125, 12)"><g class="label" style="font-weight: bolder" transform="translate(0,-12)"><foreignObject width="201.140625" height="24"><div xmlns="http://www.w3.org/1999/xhtml" style="display: table-cell; white-space: nowrap; line-height: 1.5; max-width: 228px; text-align: center;"><span class="nodeLabel markdown-node-label" style="fill:#E1CDE9;stroke:#2c2570;color:#001a1e"><p>Subagente Verificador</p></span></div></foreignObject></g></g><g class="members-group text" transform="translate(-100.5703125, 60)"/><g class="methods-group text" transform="translate(-100.5703125, 90)"/></g><g class="node default rol" id="my-svg-classId-Tester-2" data-look="classic" transform="translate(535.4895833333333, 48)"><g class="basic label-container outer-path"><path d="M-39.78125 -36 L39.78125 -36 L39.78125 36 L-39.78125 36" stroke="none" stroke-width="0" fill="#E1CDE9" style="fill:#E1CDE9;stroke:#2c2570;color:#001a1e"/><path d="M-39.78125 -36 C-17.523487718786136 -36, 4.7342745624277285 -36, 39.78125 -36 M-39.78125 -36 C-10.740517508663793 -36, 18.300214982672415 -36, 39.78125 -36 M39.78125 -36 C39.78125 -9.499666881307089, 39.78125 17.000666237385822, 39.78125 36 M39.78125 -36 C39.78125 -7.941905162717653, 39.78125 20.116189674564694, 39.78125 36 M39.78125 36 C22.11191835684408 36, 4.442586713688158 36, -39.78125 36 M39.78125 36 C19.56249113879464 36, -0.6562677224107176 36, -39.78125 36 M-39.78125 36 C-39.78125 17.202372522229382, -39.78125 -1.595254955541236, -39.78125 -36 M-39.78125 36 C-39.78125 11.803609285410847, -39.78125 -12.392781429178306, -39.78125 -36" stroke="#2c2570" stroke-width="1.3" fill="none" stroke-dasharray="0 0" style="fill:#E1CDE9;stroke:#2c2570;color:#001a1e"/></g><g class="annotation-group text" transform="translate(-22.109375, -12)"><g class="label" style="" transform="translate(0,-12)"><foreignObject width="44.21875" height="24"><div xmlns="http://www.w3.org/1999/xhtml" style="display: table-cell; white-space: nowrap; line-height: 1.5; max-width: 94px; text-align: center;"><span class="nodeLabel markdown-node-label" style="fill:#E1CDE9;stroke:#2c2570;color:#001a1e"><p>«Rol»</p></span></div></foreignObject></g></g><g class="label-group text" transform="translate(-27.78125, 12)"><g class="label" style="font-weight: bolder" transform="translate(0,-12)"><foreignObject width="55.5625" height="24"><div xmlns="http://www.w3.org/1999/xhtml" style="display: table-cell; white-space: nowrap; line-height: 1.5; max-width: 99px; text-align: center;"><span class="nodeLabel markdown-node-label" style="fill:#E1CDE9;stroke:#2c2570;color:#001a1e"><p>Tester</p></span></div></foreignObject></g></g><g class="members-group text" transform="translate(-27.78125, 60)"/><g class="methods-group text" transform="translate(-27.78125, 90)"/></g><g class="node default rol" id="my-svg-classId-Desarrollador-3" data-look="classic" transform="translate(350.8046875, 224)"><g class="basic label-container outer-path"><path d="M-73.6640625 -36 L73.6640625 -36 L73.6640625 36 L-73.6640625 36" stroke="none" stroke-width="0" fill="#E1CDE9" style="fill:#E1CDE9;stroke:#2c2570;color:#001a1e"/><path d="M-73.6640625 -36 C-16.58780930422236 -36, 40.48844389155528 -36, 73.6640625 -36 M-73.6640625 -36 C-21.1395646683116 -36, 31.3849331633768 -36, 73.6640625 -36 M73.6640625 -36 C73.6640625 -16.168706459240145, 73.6640625 3.6625870815197104, 73.6640625 36 M73.6640625 -36 C73.6640625 -20.82009617452218, 73.6640625 -5.640192349044362, 73.6640625 36 M73.6640625 36 C30.576016996239808 36, -12.512028507520384 36, -73.6640625 36 M73.6640625 36 C16.91191988234118 36, -39.84022273531764 36, -73.6640625 36 M-73.6640625 36 C-73.6640625 8.55629767366133, -73.6640625 -18.88740465267734, -73.6640625 -36 M-73.6640625 36 C-73.6640625 21.008322228168932, -73.6640625 6.016644456337865, -73.6640625 -36" stroke="#2c2570" stroke-width="1.3" fill="none" stroke-dasharray="0 0" style="fill:#E1CDE9;stroke:#2c2570;color:#001a1e"/></g><g class="annotation-group text" transform="translate(-22.109375, -12)"><g class="label" style="" transform="translate(0,-12)"><foreignObject width="44.21875" height="24"><div xmlns="http://www.w3.org/1999/xhtml" style="display: table-cell; white-space: nowrap; line-height: 1.5; max-width: 94px; text-align: center;"><span class="nodeLabel markdown-node-label" style="fill:#E1CDE9;stroke:#2c2570;color:#001a1e"><p>«Rol»</p></span></div></foreignObject></g></g><g class="label-group text" transform="translate(-61.6640625, 12)"><g class="label" style="font-weight: bolder" transform="translate(0,-12)"><foreignObject width="123.328125" height="24"><div xmlns="http://www.w3.org/1999/xhtml" style="display: table-cell; white-space: nowrap; line-height: 1.5; max-width: 159px; text-align: center;"><span class="nodeLabel markdown-node-label" style="fill:#E1CDE9;stroke:#2c2570;color:#001a1e"><p>Desarrollador</p></span></div></foreignObject></g></g><g class="members-group text" transform="translate(-61.6640625, 60)"/><g class="methods-group text" transform="translate(-61.6640625, 90)"/></g><g class="node default artefacto" id="my-svg-classId-TestUnitario-4" data-look="classic" transform="translate(156.5625, 560)"><g class="basic label-container outer-path"><path d="M-69.53125 -36 L69.53125 -36 L69.53125 36 L-69.53125 36" stroke="none" stroke-width="0" fill="#9BCDED" style="fill: #9BCDED;stroke:#21618C;color:#001a1e"/><path d="M-69.53125 -36 C-37.90173139000679 -36, -6.272212780013568 -36, 69.53125 -36 M-69.53125 -36 C-40.160996226256216 -36, -10.790742452512426 -36, 69.53125 -36 M69.53125 -36 C69.53125 -7.546578429025239, 69.53125 20.906843141949523, 69.53125 36 M69.53125 -36 C69.53125 -12.97279106496692, 69.53125 10.05441787006616, 69.53125 36 M69.53125 36 C28.538829628039622 36, -12.453590743920756 36, -69.53125 36 M69.53125 36 C19.067797198742063 36, -31.395655602515873 36, -69.53125 36 M-69.53125 36 C-69.53125 9.803122393817283, -69.53125 -16.393755212365434, -69.53125 -36 M-69.53125 36 C-69.53125 10.80368090485171, -69.53125 -14.39263819029658, -69.53125 -36" stroke="#21618C" stroke-width="1.3" fill="none" stroke-dasharray="0 0" style="fill: #9BCDED;stroke:#21618C;color:#001a1e"/></g><g class="annotation-group text" transform="translate(-46.7578125, -12)"><g class="label" style="" transform="translate(0,-12)"><foreignObject width="93.515625" height="24"><div xmlns="http://www.w3.org/1999/xhtml" style="display: table-cell; white-space: nowrap; line-height: 1.5; max-width: 145px; text-align: center;"><span class="nodeLabel markdown-node-label" style="fill: #9BCDED;stroke:#21618C;color:#001a1e"><p>«Artefacto»</p></span></div></foreignObject></g></g><g class="label-group text" transform="translate(-57.53125, 12)"><g class="label" style="font-weight: bolder" transform="translate(0,-12)"><foreignObject width="115.0625" height="24"><div xmlns="http://www.w3.org/1999/xhtml" style="display: table-cell; white-space: nowrap; line-height: 1.5; max-width: 150px; text-align: center;"><span class="nodeLabel markdown-node-label" style="fill: #9BCDED;stroke:#21618C;color:#001a1e"><p>Test Unitario</p></span></div></foreignObject></g></g><g class="members-group text" transform="translate(-57.53125, 60)"/><g class="methods-group text" transform="translate(-57.53125, 90)"/></g><g class="node default artefacto" id="my-svg-classId-MicroIncremento-5" data-look="classic" transform="translate(156.5625, 736)"><g class="basic label-container outer-path"><path d="M-91.5390625 -36 L91.5390625 -36 L91.5390625 36 L-91.5390625 36" stroke="none" stroke-width="0" fill="#9BCDED" style="fill: #9BCDED;stroke:#21618C;color:#001a1e"/><path d="M-91.5390625 -36 C-29.376384054962664 -36, 32.78629439007467 -36, 91.5390625 -36 M-91.5390625 -36 C-36.30331161698503 -36, 18.932439266029945 -36, 91.5390625 -36 M91.5390625 -36 C91.5390625 -9.264007935864054, 91.5390625 17.47198412827189, 91.5390625 36 M91.5390625 -36 C91.5390625 -16.803594275159416, 91.5390625 2.3928114496811688, 91.5390625 36 M91.5390625 36 C47.766347558684245 36, 3.9936326173684904 36, -91.5390625 36 M91.5390625 36 C54.541314736632735 36, 17.54356697326547 36, -91.5390625 36 M-91.5390625 36 C-91.5390625 17.55639222264672, -91.5390625 -0.8872155547065574, -91.5390625 -36 M-91.5390625 36 C-91.5390625 7.302172393610366, -91.5390625 -21.395655212779268, -91.5390625 -36" stroke="#21618C" stroke-width="1.3" fill="none" stroke-dasharray="0 0" style="fill: #9BCDED;stroke:#21618C;color:#001a1e"/></g><g class="annotation-group text" transform="translate(-46.7578125, -12)"><g class="label" style="" transform="translate(0,-12)"><foreignObject width="93.515625" height="24"><div xmlns="http://www.w3.org/1999/xhtml" style="display: table-cell; white-space: nowrap; line-height: 1.5; max-width: 145px; text-align: center;"><span class="nodeLabel markdown-node-label" style="fill: #9BCDED;stroke:#21618C;color:#001a1e"><p>«Artefacto»</p></span></div></foreignObject></g></g><g class="label-group text" transform="translate(-79.5390625, 12)"><g class="label" style="font-weight: bolder" transform="translate(0,-12)"><foreignObject width="159.078125" height="24"><div xmlns="http://www.w3.org/1999/xhtml" style="display: table-cell; white-space: nowrap; line-height: 1.5; max-width: 192px; text-align: center;"><span class="nodeLabel markdown-node-label" style="fill: #9BCDED;stroke:#21618C;color:#001a1e"><p>Micro-incremento</p></span></div></foreignObject></g></g><g class="members-group text" transform="translate(-79.5390625, 60)"/><g class="methods-group text" transform="translate(-79.5390625, 90)"/></g><g class="node default artefacto" id="my-svg-classId-TestIntegracion-6" data-look="classic" transform="translate(513.4609375, 336)"><g class="basic label-container outer-path"><path d="M-98.796875 -36 L98.796875 -36 L98.796875 36 L-98.796875 36" stroke="none" stroke-width="0" fill="#9BCDED" style="fill: #9BCDED;stroke:#21618C;color:#001a1e"/><path d="M-98.796875 -36 C-40.89548471628291 -36, 17.005905567434183 -36, 98.796875 -36 M-98.796875 -36 C-24.088678822528593 -36, 50.619517354942815 -36, 98.796875 -36 M98.796875 -36 C98.796875 -21.05960069833494, 98.796875 -6.1192013966698795, 98.796875 36 M98.796875 -36 C98.796875 -9.093345788463786, 98.796875 17.813308423072428, 98.796875 36 M98.796875 36 C45.72842421445988 36, -7.340026571080244 36, -98.796875 36 M98.796875 36 C29.59551595087754 36, -39.60584309824492 36, -98.796875 36 M-98.796875 36 C-98.796875 9.046800846685432, -98.796875 -17.906398306629136, -98.796875 -36 M-98.796875 36 C-98.796875 14.392281166942283, -98.796875 -7.2154376661154345, -98.796875 -36" stroke="#21618C" stroke-width="1.3" fill="none" stroke-dasharray="0 0" style="fill: #9BCDED;stroke:#21618C;color:#001a1e"/></g><g class="annotation-group text" transform="translate(-46.7578125, -12)"><g class="label" style="" transform="translate(0,-12)"><foreignObject width="93.515625" height="24"><div xmlns="http://www.w3.org/1999/xhtml" style="display: table-cell; white-space: nowrap; line-height: 1.5; max-width: 145px; text-align: center;"><span class="nodeLabel markdown-node-label" style="fill: #9BCDED;stroke:#21618C;color:#001a1e"><p>«Artefacto»</p></span></div></foreignObject></g></g><g class="label-group text" transform="translate(-86.796875, 12)"><g class="label" style="font-weight: bolder" transform="translate(0,-12)"><foreignObject width="173.59375" height="24"><div xmlns="http://www.w3.org/1999/xhtml" style="display: table-cell; white-space: nowrap; line-height: 1.5; max-width: 203px; text-align: center;"><span class="nodeLabel markdown-node-label" style="fill: #9BCDED;stroke:#21618C;color:#001a1e"><p>Test de Integración</p></span></div></foreignObject></g></g><g class="members-group text" transform="translate(-86.796875, 60)"/><g class="methods-group text" transform="translate(-86.796875, 90)"/></g><g class="node default artefacto" id="my-svg-classId-WorkItem-7" data-look="classic" transform="translate(513.4609375, 560)"><g class="basic label-container outer-path"><path d="M-58.7578125 -36 L58.7578125 -36 L58.7578125 36 L-58.7578125 36" stroke="none" stroke-width="0" fill="#9BCDED" style="fill: #9BCDED;stroke:#21618C;color:#001a1e"/><path d="M-58.7578125 -36 C-29.05950215316149 -36, 0.638808193677022 -36, 58.7578125 -36 M-58.7578125 -36 C-15.652866773702208 -36, 27.452078952595585 -36, 58.7578125 -36 M58.7578125 -36 C58.7578125 -13.693337725408782, 58.7578125 8.613324549182437, 58.7578125 36 M58.7578125 -36 C58.7578125 -8.422443482726479, 58.7578125 19.155113034547043, 58.7578125 36 M58.7578125 36 C13.534275619789135 36, -31.68926126042173 36, -58.7578125 36 M58.7578125 36 C14.78264440134555 36, -29.1925236973089 36, -58.7578125 36 M-58.7578125 36 C-58.7578125 16.096106978431983, -58.7578125 -3.8077860431360335, -58.7578125 -36 M-58.7578125 36 C-58.7578125 14.071107321547483, -58.7578125 -7.857785356905033, -58.7578125 -36" stroke="#21618C" stroke-width="1.3" fill="none" stroke-dasharray="0 0" style="fill: #9BCDED;stroke:#21618C;color:#001a1e"/></g><g class="annotation-group text" transform="translate(-46.7578125, -12)"><g class="label" style="" transform="translate(0,-12)"><foreignObject width="93.515625" height="24"><div xmlns="http://www.w3.org/1999/xhtml" style="display: table-cell; white-space: nowrap; line-height: 1.5; max-width: 145px; text-align: center;"><span class="nodeLabel markdown-node-label" style="fill: #9BCDED;stroke:#21618C;color:#001a1e"><p>«Artefacto»</p></span></div></foreignObject></g></g><g class="label-group text" transform="translate(-46.6484375, 12)"><g class="label" style="font-weight: bolder" transform="translate(0,-12)"><foreignObject width="93.296875" height="24"><div xmlns="http://www.w3.org/1999/xhtml" style="display: table-cell; white-space: nowrap; line-height: 1.5; max-width: 133px; text-align: center;"><span class="nodeLabel markdown-node-label" style="fill: #9BCDED;stroke:#21618C;color:#001a1e"><p>Work Item</p></span></div></foreignObject></g></g><g class="members-group text" transform="translate(-46.7578125, 60)"/><g class="methods-group text" transform="translate(-46.7578125, 90)"/></g><g class="node default artefacto" id="my-svg-classId-TestSistema-8" data-look="classic" transform="translate(735.640625, 336)"><g class="basic label-container outer-path"><path d="M-83.3828125 -36 L83.3828125 -36 L83.3828125 36 L-83.3828125 36" stroke="none" stroke-width="0" fill="#9BCDED" style="fill: #9BCDED;stroke:#21618C;color:#001a1e"/><path d="M-83.3828125 -36 C-31.4724946177818 -36, 20.437823264436403 -36, 83.3828125 -36 M-83.3828125 -36 C-23.689455354544947 -36, 36.003901790910106 -36, 83.3828125 -36 M83.3828125 -36 C83.3828125 -16.026250261676775, 83.3828125 3.947499476646449, 83.3828125 36 M83.3828125 -36 C83.3828125 -7.232374045225729, 83.3828125 21.535251909548542, 83.3828125 36 M83.3828125 36 C44.078342321438754 36, 4.773872142877508 36, -83.3828125 36 M83.3828125 36 C32.79282129733244 36, -17.797169905335124 36, -83.3828125 36 M-83.3828125 36 C-83.3828125 13.905319246567089, -83.3828125 -8.189361506865822, -83.3828125 -36 M-83.3828125 36 C-83.3828125 8.461295332831362, -83.3828125 -19.077409334337275, -83.3828125 -36" stroke="#21618C" stroke-width="1.3" fill="none" stroke-dasharray="0 0" style="fill: #9BCDED;stroke:#21618C;color:#001a1e"/></g><g class="annotation-group text" transform="translate(-46.7578125, -12)"><g class="label" style="" transform="translate(0,-12)"><foreignObject width="93.515625" height="24"><div xmlns="http://www.w3.org/1999/xhtml" style="display: table-cell; white-space: nowrap; line-height: 1.5; max-width: 145px; text-align: center;"><span class="nodeLabel markdown-node-label" style="fill: #9BCDED;stroke:#21618C;color:#001a1e"><p>«Artefacto»</p></span></div></foreignObject></g></g><g class="label-group text" transform="translate(-71.3828125, 12)"><g class="label" style="font-weight: bolder" transform="translate(0,-12)"><foreignObject width="142.765625" height="24"><div xmlns="http://www.w3.org/1999/xhtml" style="display: table-cell; white-space: nowrap; line-height: 1.5; max-width: 176px; text-align: center;"><span class="nodeLabel markdown-node-label" style="fill: #9BCDED;stroke:#21618C;color:#001a1e"><p>Test de Sistema</p></span></div></foreignObject></g></g><g class="members-group text" transform="translate(-71.3828125, 60)"/><g class="methods-group text" transform="translate(-71.3828125, 90)"/></g><g class="node default artefacto" id="my-svg-classId-ProductoSoftware-9" data-look="classic" transform="translate(735.640625, 560)"><g class="basic label-container outer-path"><path d="M-110.234375 -36 L110.234375 -36 L110.234375 36 L-110.234375 36" stroke="none" stroke-width="0" fill="#9BCDED" style="fill: #9BCDED;stroke:#21618C;color:#001a1e"/><path d="M-110.234375 -36 C-26.154898976932017 -36, 57.924577046135965 -36, 110.234375 -36 M-110.234375 -36 C-28.376466698228327 -36, 53.481441603543345 -36, 110.234375 -36 M110.234375 -36 C110.234375 -14.701961598356501, 110.234375 6.596076803286998, 110.234375 36 M110.234375 -36 C110.234375 -7.386611723589684, 110.234375 21.22677655282063, 110.234375 36 M110.234375 36 C61.84436486275051 36, 13.45435472550102 36, -110.234375 36 M110.234375 36 C60.372971621711024 36, 10.511568243422047 36, -110.234375 36 M-110.234375 36 C-110.234375 15.652149116581281, -110.234375 -4.695701766837438, -110.234375 -36 M-110.234375 36 C-110.234375 7.790102130517109, -110.234375 -20.41979573896578, -110.234375 -36" stroke="#21618C" stroke-width="1.3" fill="none" stroke-dasharray="0 0" style="fill: #9BCDED;stroke:#21618C;color:#001a1e"/></g><g class="annotation-group text" transform="translate(-46.7578125, -12)"><g class="label" style="" transform="translate(0,-12)"><foreignObject width="93.515625" height="24"><div xmlns="http://www.w3.org/1999/xhtml" style="display: table-cell; white-space: nowrap; line-height: 1.5; max-width: 145px; text-align: center;"><span class="nodeLabel markdown-node-label" style="fill: #9BCDED;stroke:#21618C;color:#001a1e"><p>«Artefacto»</p></span></div></foreignObject></g></g><g class="label-group text" transform="translate(-98.234375, 12)"><g class="label" style="font-weight: bolder" transform="translate(0,-12)"><foreignObject width="196.46875" height="24"><div xmlns="http://www.w3.org/1999/xhtml" style="display: table-cell; white-space: nowrap; line-height: 1.5; max-width: 224px; text-align: center;"><span class="nodeLabel markdown-node-label" style="fill: #9BCDED;stroke:#21618C;color:#001a1e"><p>Producto de Software</p></span></div></foreignObject></g></g><g class="members-group text" transform="translate(-98.234375, 60)"/><g class="methods-group text" transform="translate(-98.234375, 90)"/></g><g class="node default artefacto" id="my-svg-classId-TestAutomatizado-10" data-look="classic" transform="translate(156.5625, 448)"><g class="basic label-container outer-path"><path d="M-95.9765625 -36 L95.9765625 -36 L95.9765625 36 L-95.9765625 36" stroke="none" stroke-width="0" fill="#9BCDED" style="fill: #9BCDED;stroke:#21618C;color:#001a1e"/><path d="M-95.9765625 -36 C-26.083549149212416 -36, 43.80946420157517 -36, 95.9765625 -36 M-95.9765625 -36 C-40.036612638711794 -36, 15.903337222576411 -36, 95.9765625 -36 M95.9765625 -36 C95.9765625 -18.63138883351083, 95.9765625 -1.262777667021659, 95.9765625 36 M95.9765625 -36 C95.9765625 -10.268100650675823, 95.9765625 15.463798698648354, 95.9765625 36 M95.9765625 36 C51.31282119942046 36, 6.649079898840924 36, -95.9765625 36 M95.9765625 36 C55.483639991101505 36, 14.99071748220301 36, -95.9765625 36 M-95.9765625 36 C-95.9765625 10.608928887124016, -95.9765625 -14.782142225751969, -95.9765625 -36 M-95.9765625 36 C-95.9765625 10.827331524671958, -95.9765625 -14.345336950656083, -95.9765625 -36" stroke="#21618C" stroke-width="1.3" fill="none" stroke-dasharray="0 0" style="fill: #9BCDED;stroke:#21618C;color:#001a1e"/></g><g class="annotation-group text" transform="translate(-46.7578125, -12)"><g class="label" style="" transform="translate(0,-12)"><foreignObject width="93.515625" height="24"><div xmlns="http://www.w3.org/1999/xhtml" style="display: table-cell; white-space: nowrap; line-height: 1.5; max-width: 145px; text-align: center;"><span class="nodeLabel markdown-node-label" style="fill: #9BCDED;stroke:#21618C;color:#001a1e"><p>«Artefacto»</p></span></div></foreignObject></g></g><g class="label-group text" transform="translate(-83.9765625, 12)"><g class="label" style="font-weight: bolder" transform="translate(0,-12)"><foreignObject width="167.953125" height="24"><div xmlns="http://www.w3.org/1999/xhtml" style="display: table-cell; white-space: nowrap; line-height: 1.5; max-width: 198px; text-align: center;"><span class="nodeLabel markdown-node-label" style="fill: #9BCDED;stroke:#21618C;color:#001a1e"><p>Test Automatizado</p></span></div></foreignObject></g></g><g class="members-group text" transform="translate(-83.9765625, 60)"/><g class="methods-group text" transform="translate(-83.9765625, 90)"/></g><g class="node default artefacto" id="my-svg-classId-TestManual-11" data-look="classic" transform="translate(535.4895833333333, 224)"><g class="basic label-container outer-path"><path d="M-66.0859375 -36 L66.0859375 -36 L66.0859375 36 L-66.0859375 36" stroke="none" stroke-width="0" fill="#9BCDED" style="fill: #9BCDED;stroke:#21618C;color:#001a1e"/><path d="M-66.0859375 -36 C-34.23374959467064 -36, -2.3815616893412823 -36, 66.0859375 -36 M-66.0859375 -36 C-38.621220046815736 -36, -11.15650259363148 -36, 66.0859375 -36 M66.0859375 -36 C66.0859375 -10.048363218922532, 66.0859375 15.903273562154936, 66.0859375 36 M66.0859375 -36 C66.0859375 -19.596353765953335, 66.0859375 -3.1927075319066702, 66.0859375 36 M66.0859375 36 C26.473877425765444 36, -13.138182648469112 36, -66.0859375 36 M66.0859375 36 C31.44013947405685 36, -3.2056585518863017 36, -66.0859375 36 M-66.0859375 36 C-66.0859375 12.310329864939867, -66.0859375 -11.379340270120267, -66.0859375 -36 M-66.0859375 36 C-66.0859375 16.89651744830903, -66.0859375 -2.2069651033819397, -66.0859375 -36" stroke="#21618C" stroke-width="1.3" fill="none" stroke-dasharray="0 0" style="fill: #9BCDED;stroke:#21618C;color:#001a1e"/></g><g class="annotation-group text" transform="translate(-46.7578125, -12)"><g class="label" style="" transform="translate(0,-12)"><foreignObject width="93.515625" height="24"><div xmlns="http://www.w3.org/1999/xhtml" style="display: table-cell; white-space: nowrap; line-height: 1.5; max-width: 145px; text-align: center;"><span class="nodeLabel markdown-node-label" style="fill: #9BCDED;stroke:#21618C;color:#001a1e"><p>«Artefacto»</p></span></div></foreignObject></g></g><g class="label-group text" transform="translate(-54.0859375, 12)"><g class="label" style="font-weight: bolder" transform="translate(0,-12)"><foreignObject width="108.171875" height="24"><div xmlns="http://www.w3.org/1999/xhtml" style="display: table-cell; white-space: nowrap; line-height: 1.5; max-width: 145px; text-align: center;"><span class="nodeLabel markdown-node-label" style="fill: #9BCDED;stroke:#21618C;color:#001a1e"><p>Test Manual</p></span></div></foreignObject></g></g><g class="members-group text" transform="translate(-54.0859375, 60)"/><g class="methods-group text" transform="translate(-54.0859375, 90)"/></g></g><g class="edges edgePaths"><path d="M156.5625,501.25L156.5625,524" id="my-svg-id_TestAutomatizado_TestUnitario_1" class="edge-thickness-normal edge-pattern-solid relation" style=";;;" data-edge="true" data-et="edge" data-id="id_TestAutomatizado_TestUnitario_1" data-points="W3sieCI6MTU2LjU2MjUsInkiOjQ4NH0seyJ4IjoxNTYuNTYyNSwieSI6NTI0fV0=" data-look="classic" marker-start="url(#my-svg_class-compositionStart)"/><path d="M513.4609375,277.25L513.4609375,300" id="my-svg-id_TestManual_TestIntegracion_2" class="edge-thickness-normal edge-pattern-solid relation" style=";;;" data-edge="true" data-et="edge" data-id="id_TestManual_TestIntegracion_2" data-points="W3sieCI6NTEzLjQ2MDkzNzUsInkiOjI2MH0seyJ4Ijo1MTMuNDYwOTM3NSwieSI6MzAwfV0=" data-look="classic" marker-start="url(#my-svg_class-compositionStart)"/><path d="M557.5182291666666,277.25L557.5182291666666,278.625Q557.5182291666666,280 558.8932291666666,280L728.5695571881345,280Q735.640625,280 735.640625,287.0710678118655L735.640625,300" id="my-svg-id_TestManual_TestSistema_3" class="edge-thickness-normal edge-pattern-solid relation" style=";;;" data-edge="true" data-et="edge" data-id="id_TestManual_TestSistema_3" data-points="W3sieCI6NTU3LjUxODIyOTE2NjY2NjYsInkiOjI2MH0seyJ4Ijo1NTcuNTE4MjI5MTY2NjY2NiwieSI6MjgwfSx7IngiOjczNS42NDA2MjUsInkiOjI4MH0seyJ4Ijo3MzUuNjQwNjI1LCJ5IjozMDB9XQ==" data-look="classic" marker-start="url(#my-svg_class-compositionStart)"/><path d="M535.4895833333333,84L535.4895833333333,182" id="my-svg-id_Tester_TestManual_4" class="edge-thickness-normal edge-pattern-solid relation" style=";;;" data-edge="true" data-et="edge" data-id="id_Tester_TestManual_4" data-points="W3sieCI6NTM1LjQ4OTU4MzMzMzMzMzMsInkiOjg0fSx7IngiOjUzNS40ODk1ODMzMzMzMzMzLCJ5IjoxODh9XQ==" data-look="classic" marker-end="url(#my-svg_class-dependencyEnd)"/><path d="M124.5703125,260L124.5703125,406" id="my-svg-id_SubVer_TestAutomatizado_5" class="edge-thickness-normal edge-pattern-solid relation" style=";;;" data-edge="true" data-et="edge" data-id="id_SubVer_TestAutomatizado_5" data-points="W3sieCI6MTI0LjU3MDMxMjUsInkiOjI2MH0seyJ4IjoxMjQuNTcwMzEyNSwieSI6NDEyfV0=" data-look="classic" marker-end="url(#my-svg_class-dependencyEnd)"/><path d="M350.8046875,260L350.8046875,384.9289321881345Q350.8046875,392 343.7336196881345,392L195.5546875,392Q188.5546875,392 188.5546875,399L188.5546875,406" id="my-svg-id_Desarrollador_TestAutomatizado_6" class="edge-thickness-normal edge-pattern-solid relation" style=";;;" data-edge="true" data-et="edge" data-id="id_Desarrollador_TestAutomatizado_6" data-points="W3sieCI6MzUwLjgwNDY4NzUsInkiOjI2MH0seyJ4IjozNTAuODA0Njg3NSwieSI6MzkyfSx7IngiOjE4OC41NTQ2ODc1LCJ5IjozOTJ9LHsieCI6MTg4LjU1NDY4NzUsInkiOjQxMn1d" data-look="classic" marker-end="url(#my-svg_class-dependencyEnd)"/><path d="M124.5703125,101.25L124.5703125,188" id="my-svg-id_CoordinadorIA_SubVer_7" class="edge-thickness-normal edge-pattern-solid relation" style=";;;" data-edge="true" data-et="edge" data-id="id_CoordinadorIA_SubVer_7" data-points="W3sieCI6MTI0LjU3MDMxMjUsInkiOjg0fSx7IngiOjEyNC41NzAzMTI1LCJ5IjoxODh9XQ==" data-look="classic" marker-start="url(#my-svg_class-compositionStart)"/><path d="M156.5625,596L156.5625,694" id="my-svg-id_TestUnitario_MicroIncremento_8" class="edge-thickness-normal edge-pattern-solid relation" style=";;;" data-edge="true" data-et="edge" data-id="id_TestUnitario_MicroIncremento_8" data-points="W3sieCI6MTU2LjU2MjUsInkiOjU5Nn0seyJ4IjoxNTYuNTYyNSwieSI6NzAwfV0=" data-look="classic" marker-end="url(#my-svg_class-dependencyEnd)"/><path d="M513.4609375,372L513.4609375,518" id="my-svg-id_TestIntegracion_WorkItem_9" class="edge-thickness-normal edge-pattern-solid relation" style=";;;" data-edge="true" data-et="edge" data-id="id_TestIntegracion_WorkItem_9" data-points="W3sieCI6NTEzLjQ2MDkzNzUsInkiOjM3Mn0seyJ4Ijo1MTMuNDYwOTM3NSwieSI6NTI0fV0=" data-look="classic" marker-end="url(#my-svg_class-dependencyEnd)"/><path d="M735.640625,372L735.640625,518" id="my-svg-id_TestSistema_ProductoSoftware_10" class="edge-thickness-normal edge-pattern-solid relation" style=";;;" data-edge="true" data-et="edge" data-id="id_TestSistema_ProductoSoftware_10" data-points="W3sieCI6NzM1LjY0MDYyNSwieSI6MzcyfSx7IngiOjczNS42NDA2MjUsInkiOjUyNH1d" data-look="classic" marker-end="url(#my-svg_class-dependencyEnd)"/></g><g class="edgeLabels"><g class="edgeLabel"><g class="label" data-id="id_TestAutomatizado_TestUnitario_1" transform="translate(0, 0)"><foreignObject width="0" height="0"><div xmlns="http://www.w3.org/1999/xhtml" class="labelBkg" style="display: table-cell; white-space: nowrap; line-height: 1.5; max-width: 200px; text-align: center;"><span class="edgeLabel"></span></div></foreignObject></g></g><g class="edgeLabel"><g class="label" data-id="id_TestManual_TestIntegracion_2" transform="translate(0, 0)"><foreignObject width="0" height="0"><div xmlns="http://www.w3.org/1999/xhtml" class="labelBkg" style="display: table-cell; white-space: nowrap; line-height: 1.5; max-width: 200px; text-align: center;"><span class="edgeLabel"></span></div></foreignObject></g></g><g class="edgeLabel"><g class="label" data-id="id_TestManual_TestSistema_3" transform="translate(0, 0)"><foreignObject width="0" height="0"><div xmlns="http://www.w3.org/1999/xhtml" class="labelBkg" style="display: table-cell; white-space: nowrap; line-height: 1.5; max-width: 200px; text-align: center;"><span class="edgeLabel"></span></div></foreignObject></g></g><g class="edgeLabel" transform="translate(535.1848958333333, 136)"><g class="label" data-id="id_Tester_TestManual_4" transform="translate(-67.6953125, -12)"><foreignObject width="135.390625" height="24"><div xmlns="http://www.w3.org/1999/xhtml" class="labelBkg" style="display: table-cell; white-space: nowrap; line-height: 1.5; max-width: 200px; text-align: center;"><span class="edgeLabel"><p>Genera y Realiza</p></span></div></foreignObject></g></g><g class="edgeLabel" transform="translate(124.265625, 336)"><g class="label" data-id="id_SubVer_TestAutomatizado_5" transform="translate(-67.6953125, -12)"><foreignObject width="135.390625" height="24"><div xmlns="http://www.w3.org/1999/xhtml" class="labelBkg" style="display: table-cell; white-space: nowrap; line-height: 1.5; max-width: 200px; text-align: center;"><span class="edgeLabel"><p>Genera y Realiza</p></span></div></foreignObject></g></g><g class="edgeLabel" transform="translate(350.484375, 336)"><g class="label" data-id="id_Desarrollador_TestAutomatizado_6" transform="translate(-24.1796875, -12)"><foreignObject width="48.359375" height="24"><div xmlns="http://www.w3.org/1999/xhtml" class="labelBkg" style="display: table-cell; white-space: nowrap; line-height: 1.5; max-width: 200px; text-align: center;"><span class="edgeLabel"><p>Valida</p></span></div></foreignObject></g></g><g class="edgeLabel" transform="translate(124.3671875, 136)"><g class="label" data-id="id_CoordinadorIA_SubVer_7" transform="translate(-35.796875, -12)"><foreignObject width="71.59375" height="24"><div xmlns="http://www.w3.org/1999/xhtml" class="labelBkg" style="display: table-cell; white-space: nowrap; line-height: 1.5; max-width: 200px; text-align: center;"><span class="edgeLabel"><p>Coordina</p></span></div></foreignObject></g></g><g class="edgeLabel" transform="translate(156.1875, 648)"><g class="label" data-id="id_TestUnitario_MicroIncremento_8" transform="translate(-29.625, -12)"><foreignObject width="59.25" height="24"><div xmlns="http://www.w3.org/1999/xhtml" class="labelBkg" style="display: table-cell; white-space: nowrap; line-height: 1.5; max-width: 200px; text-align: center;"><span class="edgeLabel"><p>Verifica</p></span></div></foreignObject></g></g><g class="edgeLabel" transform="translate(513.0859375, 448)"><g class="label" data-id="id_TestIntegracion_WorkItem_9" transform="translate(-29.625, -12)"><foreignObject width="59.25" height="24"><div xmlns="http://www.w3.org/1999/xhtml" class="labelBkg" style="display: table-cell; white-space: nowrap; line-height: 1.5; max-width: 200px; text-align: center;"><span class="edgeLabel"><p>Verifica</p></span></div></foreignObject></g></g><g class="edgeLabel" transform="translate(735.265625, 448)"><g class="label" data-id="id_TestSistema_ProductoSoftware_10" transform="translate(-29.625, -12)"><foreignObject width="59.25" height="24"><div xmlns="http://www.w3.org/1999/xhtml" class="labelBkg" style="display: table-cell; white-space: nowrap; line-height: 1.5; max-width: 200px; text-align: center;"><span class="edgeLabel"><p>Verifica</p></span></div></foreignObject></g></g></g><text text-anchor="middle" x="428.9375" y="-25" class="classDiagramTitleText">Meta-modelo de Verificacion</text></svg>