<svg id="my-svg" width="100%" xmlns="http://www.w3.org/2000/svg" xmlns:xlink="http://www.w3.org/1999/xlink" class="classDiagram" style="max-width: 849.875px; background-color: white;" viewBox="4 -48 849.875 828" role="graphics-document document" aria-roledescription="class"><style>#my-svg{font-family:"trebuchet ms",verdana,arial,sans-serif;font-size:16px;fill:#000000;}@keyframes edge-animation-frame{from{stroke-dashoffset:0;}}@keyframes dash{to{stroke-dashoffset:0;}}#my-svg .edge-animation-slow{stroke-dasharray:9,5!important;stroke-dashoffset:900;animation:dash 50s linear infinite;stroke-linecap:round;}#my-svg .edge-animation-fast{stroke-dasharray:9,5!important;stroke-dashoffset:900;animation:dash 20s linear infinite;stroke-linecap:round;}#my-svg .error-icon{fill:#552222;}#my-svg .error-text{fill:#552222;stroke:#552222;}#my-svg .edge-thickness-normal{stroke-width:1px;}#my-svg .edge-thickness-thick{stroke-width:3.5px;}#my-svg .edge-pattern-solid{stroke-dasharray:0;}#my-svg .edge-thickness-invisible{stroke-width:0;fill:none;}#my-svg .edge-pattern-dashed{stroke-dasharray:3;}#my-svg .edge-pattern-dotted{stroke-dasharray:2;}#my-svg .marker{fill:#666;stroke:#666;}#my-svg .marker.cross{stroke:#666;}#my-svg svg{font-family:"trebuchet ms",verdana,arial,sans-serif;font-size:16px;}#my-svg p{margin:0;}#my-svg g.classGroup text{fill:#999;stroke:none;font-family:"trebuchet ms",verdana,arial,sans-serif;font-size:10px;}#my-svg g.classGroup text .title{font-weight:bolder;}#my-svg .cluster-label text{fill:#333;}#my-svg .cluster-label span{color:#333;}#my-svg .cluster-label span p{background-color:transparent;}#my-svg .cluster rect{fill:hsl(0, 0%, 98.9215686275%);stroke:#707070;stroke-width:1px;}#my-svg .cluster text{fill:#333;}#my-svg .cluster span{color:#333;}#my-svg .nodeLabel,#my-svg .edgeLabel{color:#111111;}#my-svg .noteLabel .nodeLabel,#my-svg .noteLabel .edgeLabel{color:#fff;}#my-svg .edgeLabel .label rect{fill:#eee;}#my-svg .label text{fill:#111111;}#my-svg .labelBkg{background:#eee;}#my-svg .edgeLabel .label span{background:#eee;}#my-svg .classTitle{font-weight:bolder;}#my-svg .node rect,#my-svg .node circle,#my-svg .node ellipse,#my-svg .node polygon,#my-svg .node path{fill:#eee;stroke:#999;stroke-width:1;}#my-svg .divider{stroke:#999;stroke-width:1;}#my-svg g.clickable{cursor:pointer;}#my-svg g.classGroup rect{fill:#eee;stroke:#999;}#my-svg g.classGroup line{stroke:#999;stroke-width:1;}#my-svg .classLabel .box{stroke:none;stroke-width:0;fill:#eee;opacity:0.5;}#my-svg .classLabel .label{fill:#999;font-size:10px;}#my-svg .relation{stroke:#666;stroke-width:1;fill:none;}#my-svg .dashed-line{stroke-dasharray:3;}#my-svg .dotted-line{stroke-dasharray:1 2;}#my-svg [id$="-compositionStart"],#my-svg .composition{fill:#666!important;stroke:#666!important;stroke-width:1;}#my-svg [id$="-compositionEnd"],#my-svg .composition{fill:#666!important;stroke:#666!important;stroke-width:1;}#my-svg [id$="-dependencyStart"],#my-svg .dependency{fill:#666!important;stroke:#666!important;stroke-width:1;}#my-svg [id$="-dependencyEnd"],#my-svg .dependency{fill:#666!important;stroke:#666!important;stroke-width:1;}#my-svg [id$="-extensionStart"],#my-svg .extension{fill:transparent!important;stroke:#666!important;stroke-width:1;}#my-svg [id$="-extensionEnd"],#my-svg .extension{fill:transparent!important;stroke:#666!important;stroke-width:1;}#my-svg [id$="-aggregationStart"],#my-svg .aggregation{fill:transparent!important;stroke:#666!important;stroke-width:1;}#my-svg [id$="-aggregationEnd"],#my-svg .aggregation{fill:transparent!important;stroke:#666!important;stroke-width:1;}#my-svg [id$="-lollipopStart"],#my-svg .lollipop{fill:#eee!important;stroke:#666!important;stroke-width:1;}#my-svg [id$="-lollipopEnd"],#my-svg .lollipop{fill:#eee!important;stroke:#666!important;stroke-width:1;}#my-svg .edgeTerminals{font-size:11px;line-height:initial;}#my-svg .classTitleText{text-anchor:middle;font-size:18px;fill:#000000;}#my-svg .edgeLabel[data-look="neo"]{background-color:white;text-align:center;}#my-svg .edgeLabel[data-look="neo"] p{background-color:white;}#my-svg .edgeLabel[data-look="neo"] rect{opacity:0.5;background-color:white;fill:white;}#my-svg .label-icon{display:inline-block;height:1em;overflow:visible;vertical-align:-0.125em;}#my-svg .node .label-icon path{fill:currentColor;stroke:revert;stroke-width:revert;}#my-svg .node .neo-node{stroke:#999;}#my-svg [data-look="neo"].node rect,#my-svg [data-look="neo"].cluster rect,#my-svg [data-look="neo"].node polygon{stroke:url(#my-svg-gradient);filter:drop-shadow( 1px 2px 2px rgba(185,185,185,1));}#my-svg [data-look="neo"].node path{stroke:url(#my-svg-gradient);stroke-width:1px;}#my-svg [data-look="neo"].node .outer-path{filter:drop-shadow( 1px 2px 2px rgba(185,185,185,1));}#my-svg [data-look="neo"].node .neo-line path{stroke:#999;filter:none;}#my-svg [data-look="neo"].node circle{stroke:url(#my-svg-gradient);filter:drop-shadow( 1px 2px 2px rgba(185,185,185,1));}#my-svg [data-look="neo"].node circle .state-start{fill:#000000;}#my-svg [data-look="neo"].icon-shape .icon{fill:url(#my-svg-gradient);filter:drop-shadow( 1px 2px 2px rgba(185,185,185,1));}#my-svg [data-look="neo"].icon-shape .icon-neo path{stroke:url(#my-svg-gradient);filter:drop-shadow( 1px 2px 2px rgba(185,185,185,1));}#my-svg :root{--mermaid-font-family:"trebuchet ms",verdana,arial,sans-serif;}#my-svg .CoordinadorIA&gt;*{fill:rgb(225, 205, 233)!important;stroke:rgb(44, 37, 112)!important;color:rgb(0, 26, 30)!important;}#my-svg .CoordinadorIA span{fill:rgb(225, 205, 233)!important;stroke:rgb(44, 37, 112)!important;color:rgb(0, 26, 30)!important;}#my-svg .SubVer&gt;*{fill:rgb(225, 205, 233)!important;stroke:rgb(44, 37, 112)!important;color:rgb(0, 26, 30)!important;}#my-svg .SubVer span{fill:rgb(225, 205, 233)!important;stroke:rgb(44, 37, 112)!important;color:rgb(0, 26, 30)!important;}#my-svg .Tester&gt;*{fill:rgb(225, 205, 233)!important;stroke:rgb(44, 37, 112)!important;color:rgb(0, 26, 30)!important;}#my-svg .Tester span{fill:rgb(225, 205, 233)!important;stroke:rgb(44, 37, 112)!important;color:rgb(0, 26, 30)!important;}#my-svg .Desarrollador&gt;*{fill:rgb(225, 205, 233)!important;stroke:rgb(44, 37, 112)!important;color:rgb(0, 26, 30)!important;}#my-svg .Desarrollador span{fill:rgb(225, 205, 233)!important;stroke:rgb(44, 37, 112)!important;color:rgb(0, 26, 30)!important;}#my-svg .TestUnitario&gt;*{fill:rgb(155, 205, 237)!important;stroke:rgb(33, 97, 140)!important;color:rgb(0, 26, 30)!important;}#my-svg .TestUnitario span{fill:rgb(155, 205, 237)!important;stroke:rgb(33, 97, 140)!important;color:rgb(0, 26, 30)!important;}#my-svg .MicroIncremento&gt;*{fill:rgb(155, 205, 237)!important;stroke:rgb(33, 97, 140)!important;color:rgb(0, 26, 30)!important;}#my-svg .MicroIncremento span{fill:rgb(155, 205, 237)!important;stroke:rgb(33, 97, 140)!important;color:rgb(0, 26, 30)!important;}#my-svg .TestIntegracion&gt;*{fill:rgb(155, 205, 237)!important;stroke:rgb(33, 97, 140)!important;color:rgb(0, 26, 30)!important;}#my-svg .TestIntegracion span{fill:rgb(155, 205, 237)!important;stroke:rgb(33, 97, 140)!important;color:rgb(0, 26, 30)!important;}#my-svg .WorkItem&gt;*{fill:rgb(155, 205, 237)!important;stroke:rgb(33, 97, 140)!important;color:rgb(0, 26, 30)!important;}#my-svg .WorkItem span{fill:rgb(155, 205, 237)!important;stroke:rgb(33, 97, 140)!important;color:rgb(0, 26, 30)!important;}#my-svg .TestSistema&gt;*{fill:rgb(155, 205, 237)!important;stroke:rgb(33, 97, 140)!important;color:rgb(0, 26, 30)!important;}#my-svg .TestSistema span{fill:rgb(155, 205, 237)!important;stroke:rgb(33, 97, 140)!important;color:rgb(0, 26, 30)!important;}#my-svg .ProductoSoftware&gt;*{fill:rgb(155, 205, 237)!important;stroke:rgb(33, 97, 140)!important;color:rgb(0, 26, 30)!important;}#my-svg .ProductoSoftware span{fill:rgb(155, 205, 237)!important;stroke:rgb(33, 97, 140)!important;color:rgb(0, 26, 30)!important;}#my-svg .TestAutomatizado&gt;*{fill:rgb(155, 205, 237)!important;stroke:rgb(33, 97, 140)!important;color:rgb(0, 26, 30)!important;}#my-svg .TestAutomatizado span{fill:rgb(155, 205, 237)!important;stroke:rgb(33, 97, 140)!important;color:rgb(0, 26, 30)!important;}#my-svg .TestManual&gt;*{fill:rgb(155, 205, 237)!important;stroke:rgb(33, 97, 140)!important;color:rgb(0, 26, 30)!important;}#my-svg .TestManual span{fill:rgb(155, 205, 237)!important;stroke:rgb(33, 97, 140)!important;color:rgb(0, 26, 30)!important;}</style><g><defs><marker id="my-svg_class-aggregationStart" class="marker aggregation class" refX="18" refY="7" markerWidth="190" markerHeight="240" orient="auto"><path d="M 18,7 L9,13 L1,7 L9,1 Z"/></marker></defs><defs><marker id="my-svg_class-aggregationEnd" class="marker aggregation class" refX="1" refY="7" markerWidth="20" markerHeight="28" orient="auto"><path d="M 18,7 L9,13 L1,7 L9,1 Z"/></marker></defs><defs><marker id="my-svg_class-aggregationStart-margin" class="marker aggregation class" refX="15" refY="7" markerWidth="190" markerHeight="240" orient="auto" markerUnits="userSpaceOnUse"><path d="M 18,7 L9,13 L1,7 L9,1 Z" style="stroke-width: 2;"/></marker></defs><defs><marker id="my-svg_class-aggregationEnd-margin" class="marker aggregation class" refX="1" refY="7" markerWidth="20" markerHeight="28" orient="auto" markerUnits="userSpaceOnUse"><path d="M 18,7 L9,13 L1,7 L9,1 Z" style="stroke-width: 2;"/></marker></defs><defs><marker id="my-svg_class-extensionStart" class="marker extension class" refX="18" refY="7" markerWidth="20" markerHeight="28" orient="auto" markerUnits="userSpaceOnUse"><path d="M 1,7 L18,13 V 1 Z"/></marker></defs><defs><marker id="my-svg_class-extensionEnd" class="marker extension class" refX="1" refY="7" markerWidth="20" markerHeight="28" orient="auto"><path d="M 1,1 V 13 L18,7 Z"/></marker></defs><marker id="my-svg_class-extensionStart-margin" class="marker extension class" refX="18" refY="7" markerWidth="20" markerHeight="28" orient="auto" markerUnits="userSpaceOnUse" viewBox="0 0 20 14"><polygon points="10,7 18,13 18,1" style="stroke-width: 2; stroke-dasharray: 0;"/></marker><defs><marker id="my-svg_class-extensionEnd-margin" class="marker extension class" refX="9" refY="7" markerWidth="20" markerHeight="28" orient="auto" markerUnits="userSpaceOnUse" viewBox="0 0 20 14"><polygon points="10,1 10,13 18,7" style="stroke-width: 2; stroke-dasharray: 0;"/></marker></defs><defs><marker id="my-svg_class-compositionStart" class="marker composition class" refX="18" refY="7" markerWidth="190" markerHeight="240" orient="auto"><path d="M 18,7 L9,13 L1,7 L9,1 Z"/></marker></defs><defs><marker id="my-svg_class-compositionEnd" class="marker composition class" refX="1" refY="7" markerWidth="20" markerHeight="28" orient="auto"><path d="M 18,7 L9,13 L1,7 L9,1 Z"/></marker></defs><defs><marker id="my-svg_class-compositionStart-margin" class="marker composition class" refX="15" refY="7" markerWidth="190" markerHeight="240" orient="auto" markerUnits="userSpaceOnUse"><path viewBox="0 0 15 15" d="M 18,7 L9,13 L1,7 L9,1 Z" style="stroke-width: 0;"/></marker></defs><defs><marker id="my-svg_class-compositionEnd-margin" class="marker composition class" refX="3.5" refY="7" markerWidth="20" markerHeight="28" orient="auto" markerUnits="userSpaceOnUse"><path d="M 18,7 L9,13 L1,7 L9,1 Z" style="stroke-width: 0;"/></marker></defs><defs><marker id="my-svg_class-dependencyStart" class="marker dependency class" refX="6" refY="7" markerWidth="190" markerHeight="240" orient="auto"><path d="M 5,7 L9,13 L1,7 L9,1 Z"/></marker></defs><defs><marker id="my-svg_class-dependencyEnd" class="marker dependency class" refX="13" refY="7" markerWidth="20" markerHeight="28" orient="auto"><path d="M 18,7 L9,13 L14,7 L9,1 Z"/></marker></defs><defs><marker id="my-svg_class-dependencyStart-margin" class="marker dependency class" refX="4" refY="7" markerWidth="190" markerHeight="240" orient="auto" markerUnits="userSpaceOnUse"><path d="M 5,7 L9,13 L1,7 L9,1 Z" style="stroke-width: 0;"/></marker></defs><defs><marker id="my-svg_class-dependencyEnd-margin" class="marker dependency class" refX="16" refY="7" markerWidth="20" markerHeight="28" orient="auto" markerUnits="userSpaceOnUse"><path d="M 18,7 L9,13 L14,7 L9,1 Z" style="stroke-width: 0;"/></marker></defs><defs><marker id="my-svg_class-lollipopStart" class="marker lollipop class" refX="13" refY="7" markerWidth="190" markerHeight="240" orient="auto"><circle fill="transparent" cx="7" cy="7" r="6"/></marker></defs><defs><marker id="my-svg_class-lollipopEnd" class="marker lollipop class" refX="1" refY="7" markerWidth="190" markerHeight="240" orient="auto"><circle fill="transparent" cx="7" cy="7" r="6"/></marker></defs><defs><marker id="my-svg_class-lollipopStart-margin" class="marker lollipop class" refX="13" refY="7" markerWidth="190" markerHeight="240" orient="auto" markerUnits="userSpaceOnUse"><circle fill="transparent" cx="7" cy="7" r="6" stroke-width="2"/></marker></defs><defs><marker id="my-svg_class-lollipopEnd-margin" class="marker lollipop class" refX="1" refY="7" markerWidth="190" markerHeight="240" orient="auto" markerUnits="userSpaceOnUse"><circle fill="transparent" cx="7" cy="7" r="6" stroke-width="2"/></marker></defs></g><defs><filter id="my-svg-drop-shadow" height="130%" width="130%"><feDropShadow dx="4" dy="4" stdDeviation="0" flood-opacity="0.06" flood-color="#000000"/></filter></defs><defs><filter id="my-svg-drop-shadow-small" height="150%" width="150%"><feDropShadow dx="2" dy="2" stdDeviation="0" flood-opacity="0.06" flood-color="#000000"/></filter></defs><linearGradient id="my-svg-gradient" gradientUnits="objectBoundingBox" x1="0%" y1="0%" x2="100%" y2="0%"><stop offset="0%" stop-color="hsl(0, 0%, 83.3333333333%)" stop-opacity="1"/><stop offset="100%" stop-color="hsl(0, 0%, 88.9215686275%)" stop-opacity="1"/></linearGradient><g class="subgraphs"/><g class="nodes"><g class="node default rol" id="my-svg-classId-CoordinadorIA-0" data-look="classic" transform="translate(124.5703125, 48)"><g class="basic label-container outer-path"><path d="M-93.4296875 -36 L93.4296875 -36 L93.4296875 36 L-93.4296875 36" stroke="none" stroke-width="0" fill="#E1CDE9" style="fill:#E1CDE9;stroke:#2c2570;color:#001a1e"/><path d="M-93.4296875 -36 C-50.81679309954669 -36, -8.203898699093386 -36, 93.4296875 -36 M-93.4296875 -36 C-33.37268430825443 -36, 26.684318883491144 -36, 93.4296875 -36 M93.4296875 -36 C93.4296875 -10.829682714276785, 93.4296875 14.34063457144643, 93.4296875 36 M93.4296875 -36 C93.4296875 -8.295232489016772, 93.4296875 19.409535021966455, 93.4296875 36 M93.4296875 36 C36.161561477357566 36, -21.10656454528487 36, -93.4296875 36 M93.4296875 36 C41.18963160160904 36, -11.050424296781927 36, -93.4296875 36 M-93.4296875 36 C-93.4296875 12.803961109216491, -93.4296875 -10.392077781567018, -93.4296875 -36 M-93.4296875 36 C-93.4296875 11.848461324668996, -93.4296875 -12.303077350662008, -93.4296875 -36" stroke="#2c2570" stroke-width="1.3" fill="none" stroke-dasharray="0 0" style="fill:#E1CDE9;stroke:#2c2570;color:#001a1e"/></g><g class="annotation-group text" transform="translate(-22.109375, -12)"><g class="label" style="" transform="translate(0,-12)"><foreignObject width="44.21875" height="24"><div xmlns="http://www.w3.org/1999/xhtml" style="display: table-cell; white-space: nowrap; line-height: 1.5; max-width: 94px; text-align: center;"><span class="nodeLabel markdown-node-label" style="fill:#E1CDE9;stroke:#2c2570;color:#001a1e"><p>«Rol»</p></span></div></foreignObject></g></g><g class="label-group text" transform="translate(-81.4296875, 12)"><g class="label" style="font-weight: bolder" transform="translate(0,-12)"><foreignObject width="162.859375" height="24"><div xmlns="http://www.w3.org/1999/xhtml" style="display: table-cell; white-space: nowrap; line-height: 1.5; max-width: 195px; text-align: center;"><span class="nodeLabel markdown-node-label" style="fill:#E1CDE9;stroke:#2c2570;color:#001a1e"><p>Coordinador de IA</p></span></div></foreignObject></g></g><g class="members-group text" transform="translate(-81.4296875, 60)"/><g class="methods-group text" transform="translate(-81.4296875, 90)"/></g><g class="node default rol" id="my-svg-classId-SubVer-1" data-look="classic" transform="translate(124.5703125, 224)"><g class="basic label-container outer-path"><path d="M-112.5703125 -36 L112.5703125 -36 L112.5703125 36 L-112.5703125 36" stroke="none" stroke-width="0" fill="#E1CDE9" style="fill:#E1CDE9;stroke:#2c2570;color:#001a1e"/><path d="M-112.5703125 -36 C-42.21026538979595 -36, 28.1497817204081 -36, 112.5703125 -36 M-112.5703125 -36 C-54.54618074928668 -36, 3.4779510014266464 -36, 112.5703125 -36 M112.5703125 -36 C112.5703125 -13.316954004318376, 112.5703125 9.366091991363248, 112.5703125 36 M112.5703125 -36 C112.5703125 -21.37967798360578, 112.5703125 -6.759355967211562, 112.5703125 36 M112.5703125 36 C37.583675542018256 36, -37.40296141596349 36, -112.5703125 36 M112.5703125 36 C64.85319757720326 36, 17.136082654406522 36, -112.5703125 36 M-112.5703125 36 C-112.5703125 15.95241888907966, -112.5703125 -4.095162221840681, -112.5703125 -36 M-112.5703125 36 C-112.5703125 8.084320825299418, -112.5703125 -19.831358349401164, -112.5703125 -36" stroke="#2c2570" stroke-width="1.3" fill="none" stroke-dasharray="0 0" style="fill:#E1CDE9;stroke:#2c2570;color:#001a1e"/></g><g class="annotation-group text" transform="translate(-22.109375, -12)"><g class="label" style="" transform="translate(0,-12)"><foreignObject width="44.21875" height="24"><div xmlns="http://www.w3.org/1999/xhtml" style="display: table-cell; white-space: nowrap; line-height: 1.5; max-width: 94px; text-align: center;"><span class="nodeLabel markdown-node-label" style="fill:#E1CDE9;stroke:#2c2570;color:#001a1e"><p>«Rol»</p></span></div></foreignObject></g></g><g class="label-group text" transform="translate(-100.5703125, 12)"><g class="label" style="font-weight: bolder" transform="translate(0,-12)"><foreignObject width="201.140625" height="24"><div xmlns="http://www.w3.org/1999/xhtml" style="display: table-cell; white-space: nowrap; line-height: 1.5; max-width: 228px; text-align: center;"><span class="nodeLabel markdown-node-label" style="fill:#E1CDE9;stroke:#2c2570;color:#001a1e"><p>Subagente Verificador</p></span></div></foreignObject></g></g><g class="members-group text" transform="translate(-100.5703125, 60)"/><g class="methods-group text" transform="translate(-100.5703125, 90)"/></g><g class="node default rol" id="my-svg-classId-Tester-2" data-look="classic" transform="translate(535.4895833333333, 48)"><g class="basic label-container outer-path"><path d="M-39.78125 -36 L39.78125 -36 L39.78125 36 L-39.78125 36" stroke="none" stroke-width="0" fill="#E1CDE9" style="fill:#E1CDE9;stroke:#2c2570;color:#001a1e"/><path d="M-39.78125 -36 C-14.42358141505758 -36, 10.93408716988484 -36, 39.78125 -36 M-39.78125 -36 C-11.492578614004135 -36, 16.79609277199173 -36, 39.78125 -36 M39.78125 -36 C39.78125 -9.05302936617008, 39.78125 17.89394126765984, 39.78125 36 M39.78125 -36 C39.78125 -11.379804434972392, 39.78125 13.240391130055215, 39.78125 36 M39.78125 36 C16.2591182492747 36, -7.263013501450601 36, -39.78125 36 M39.78125 36 C13.338850016633025 36, -13.10354996673395 36, -39.78125 36 M-39.78125 36 C-39.78125 19.86485493203477, -39.78125 3.729709864069541, -39.78125 -36 M-39.78125 36 C-39.78125 19.40027754576617, -39.78125 2.8005550915323383, -39.78125 -36" stroke="#2c2570" stroke-width="1.3" fill="none" stroke-dasharray="0 0" style="fill:#E1CDE9;stroke:#2c2570;color:#001a1e"/></g><g class="annotation-group text" transform="translate(-22.109375, -12)"><g class="label" style="" transform="translate(0,-12)"><foreignObject width="44.21875" height="24"><div xmlns="http://www.w3.org/1999/xhtml" style="display: table-cell; white-space: nowrap; line-height: 1.5; max-width: 94px; text-align: center;"><span class="nodeLabel markdown-node-label" style="fill:#E1CDE9;stroke:#2c2570;color:#001a1e"><p>«Rol»</p></span></div></foreignObject></g></g><g class="label-group text" transform="translate(-27.78125, 12)"><g class="label" style="font-weight: bolder" transform="translate(0,-12)"><foreignObject width="55.5625" height="24"><div xmlns="http://www.w3.org/1999/xhtml" style="display: table-cell; white-space: nowrap; line-height: 1.5; max-width: 99px; text-align: center;"><span class="nodeLabel markdown-node-label" style="fill:#E1CDE9;stroke:#2c2570;color:#001a1e"><p>Tester</p></span></div></foreignObject></g></g><g class="members-group text" transform="translate(-27.78125, 60)"/><g class="methods-group text" transform="translate(-27.78125, 90)"/></g><g class="node default rol" id="my-svg-classId-Desarrollador-3" data-look="classic" transform="translate(350.8046875, 224)"><g class="basic label-container outer-path"><path d="M-73.6640625 -36 L73.6640625 -36 L73.6640625 36 L-73.6640625 36" stroke="none" stroke-width="0" fill="#E1CDE9" style="fill:#E1CDE9;stroke:#2c2570;color:#001a1e"/><path d="M-73.6640625 -36 C-23.38558672419159 -36, 26.89288905161682 -36, 73.6640625 -36 M-73.6640625 -36 C-38.54152300324566 -36, -3.4189835064913154 -36, 73.6640625 -36 M73.6640625 -36 C73.6640625 -10.473957717385606, 73.6640625 15.052084565228789, 73.6640625 36 M73.6640625 -36 C73.6640625 -15.846514117024604, 73.6640625 4.306971765950792, 73.6640625 36 M73.6640625 36 C33.22748817842885 36, -7.209086143142301 36, -73.6640625 36 M73.6640625 36 C35.22603845121397 36, -3.211985597572067 36, -73.6640625 36 M-73.6640625 36 C-73.6640625 18.63140791226605, -73.6640625 1.2628158245320975, -73.6640625 -36 M-73.6640625 36 C-73.6640625 10.365604691194175, -73.6640625 -15.26879061761165, -73.6640625 -36" stroke="#2c2570" stroke-width="1.3" fill="none" stroke-dasharray="0 0" style="fill:#E1CDE9;stroke:#2c2570;color:#001a1e"/></g><g class="annotation-group text" transform="translate(-22.109375, -12)"><g class="label" style="" transform="translate(0,-12)"><foreignObject width="44.21875" height="24"><div xmlns="http://www.w3.org/1999/xhtml" style="display: table-cell; white-space: nowrap; line-height: 1.5; max-width: 94px; text-align: center;"><span class="nodeLabel markdown-node-label" style="fill:#E1CDE9;stroke:#2c2570;color:#001a1e"><p>«Rol»</p></span></div></foreignObject></g></g><g class="label-group text" transform="translate(-61.6640625, 12)"><g class="label" style="font-weight: bolder" transform="translate(0,-12)"><foreignObject width="123.328125" height="24"><div xmlns="http://www.w3.org/1999/xhtml" style="display: table-cell; white-space: nowrap; line-height: 1.5; max-width: 159px; text-align: center;"><span class="nodeLabel markdown-node-label" style="fill:#E1CDE9;stroke:#2c2570;color:#001a1e"><p>Desarrollador</p></span></div></foreignObject></g></g><g class="members-group text" transform="translate(-61.6640625, 60)"/><g class="methods-group text" transform="translate(-61.6640625, 90)"/></g><g class="node default artefacto" id="my-svg-classId-TestUnitario-4" data-look="classic" transform="translate(156.5625, 560)"><g class="basic label-container outer-path"><path d="M-69.53125 -36 L69.53125 -36 L69.53125 36 L-69.53125 36" stroke="none" stroke-width="0" fill="#9BCDED" style="fill: #9BCDED;stroke:#21618C;color:#001a1e"/><path d="M-69.53125 -36 C-32.38985156706291 -36, 4.751546865874175 -36, 69.53125 -36 M-69.53125 -36 C-16.47673414745274 -36, 36.57778170509452 -36, 69.53125 -36 M69.53125 -36 C69.53125 -14.316988982517142, 69.53125 7.366022034965717, 69.53125 36 M69.53125 -36 C69.53125 -9.622587838385765, 69.53125 16.75482432322847, 69.53125 36 M69.53125 36 C32.77483445589729 36, -3.9815810882054166 36, -69.53125 36 M69.53125 36 C34.431289908817774 36, -0.6686701823644512 36, -69.53125 36 M-69.53125 36 C-69.53125 10.90266907999418, -69.53125 -14.19466184001164, -69.53125 -36 M-69.53125 36 C-69.53125 19.193331384292197, -69.53125 2.3866627685843937, -69.53125 -36" stroke="#21618C" stroke-width="1.3" fill="none" stroke-dasharray="0 0" style="fill: #9BCDED;stroke:#21618C;color:#001a1e"/></g><g class="annotation-group text" transform="translate(-46.7578125, -12)"><g class="label" style="" transform="translate(0,-12)"><foreignObject width="93.515625" height="24"><div xmlns="http://www.w3.org/1999/xhtml" style="display: table-cell; white-space: nowrap; line-height: 1.5; max-width: 145px; text-align: center;"><span class="nodeLabel markdown-node-label" style="fill: #9BCDED;stroke:#21618C;color:#001a1e"><p>«Artefacto»</p></span></div></foreignObject></g></g><g class="label-group text" transform="translate(-57.53125, 12)"><g class="label" style="font-weight: bolder" transform="translate(0,-12)"><foreignObject width="115.0625" height="24"><div xmlns="http://www.w3.org/1999/xhtml" style="display: table-cell; white-space: nowrap; line-height: 1.5; max-width: 150px; text-align: center;"><span class="nodeLabel markdown-node-label" style="fill: #9BCDED;stroke:#21618C;color:#001a1e"><p>Test Unitario</p></span></div></foreignObject></g></g><g class="members-group text" transform="translate(-57.53125, 60)"/><g class="methods-group text" transform="translate(-57.53125, 90)"/></g><g class="node default artefacto" id="my-svg-classId-MicroIncremento-5" data-look="classic" transform="translate(156.5625, 736)"><g class="basic label-container outer-path"><path d="M-91.5390625 -36 L91.5390625 -36 L91.5390625 36 L-91.5390625 36" stroke="none" stroke-width="0" fill="#9BCDED" style="fill: #9BCDED;stroke:#21618C;color:#001a1e"/><path d="M-91.5390625 -36 C-33.780271340450525 -36, 23.97851981909895 -36, 91.5390625 -36 M-91.5390625 -36 C-34.70885630818595 -36, 22.1213498836281 -36, 91.5390625 -36 M91.5390625 -36 C91.5390625 -13.412529276994952, 91.5390625 9.174941446010095, 91.5390625 36 M91.5390625 -36 C91.5390625 -18.465933243276275, 91.5390625 -0.9318664865525506, 91.5390625 36 M91.5390625 36 C29.196705050324553 36, -33.145652399350894 36, -91.5390625 36 M91.5390625 36 C24.928107097188004 36, -41.68284830562399 36, -91.5390625 36 M-91.5390625 36 C-91.5390625 16.075764917332517, -91.5390625 -3.848470165334966, -91.5390625 -36 M-91.5390625 36 C-91.5390625 11.41677669834321, -91.5390625 -13.166446603313581, -91.5390625 -36" stroke="#21618C" stroke-width="1.3" fill="none" stroke-dasharray="0 0" style="fill: #9BCDED;stroke:#21618C;color:#001a1e"/></g><g class="annotation-group text" transform="translate(-46.7578125, -12)"><g class="label" style="" transform="translate(0,-12)"><foreignObject width="93.515625" height="24"><div xmlns="http://www.w3.org/1999/xhtml" style="display: table-cell; white-space: nowrap; line-height: 1.5; max-width: 145px; text-align: center;"><span class="nodeLabel markdown-node-label" style="fill: #9BCDED;stroke:#21618C;color:#001a1e"><p>«Artefacto»</p></span></div></foreignObject></g></g><g class="label-group text" transform="translate(-79.5390625, 12)"><g class="label" style="font-weight: bolder" transform="translate(0,-12)"><foreignObject width="159.078125" height="24"><div xmlns="http://www.w3.org/1999/xhtml" style="display: table-cell; white-space: nowrap; line-height: 1.5; max-width: 192px; text-align: center;"><span class="nodeLabel markdown-node-label" style="fill: #9BCDED;stroke:#21618C;color:#001a1e"><p>Micro-incremento</p></span></div></foreignObject></g></g><g class="members-group text" transform="translate(-79.5390625, 60)"/><g class="methods-group text" transform="translate(-79.5390625, 90)"/></g><g class="node default artefacto" id="my-svg-classId-TestIntegracion-6" data-look="classic" transform="translate(513.4609375, 336)"><g class="basic label-container outer-path"><path d="M-98.796875 -36 L98.796875 -36 L98.796875 36 L-98.796875 36" stroke="none" stroke-width="0" fill="#9BCDED" style="fill: #9BCDED;stroke:#21618C;color:#001a1e"/><path d="M-98.796875 -36 C-55.091323520128526 -36, -11.385772040257052 -36, 98.796875 -36 M-98.796875 -36 C-32.620313360012446 -36, 33.55624827997511 -36, 98.796875 -36 M98.796875 -36 C98.796875 -15.055065577249849, 98.796875 5.8898688455003025, 98.796875 36 M98.796875 -36 C98.796875 -19.292623477099745, 98.796875 -2.5852469541994907, 98.796875 36 M98.796875 36 C49.768353687298635 36, 0.7398323745972704 36, -98.796875 36 M98.796875 36 C22.60144231733443 36, -53.59399036533114 36, -98.796875 36 M-98.796875 36 C-98.796875 11.829142777379403, -98.796875 -12.341714445241195, -98.796875 -36 M-98.796875 36 C-98.796875 16.23630815358194, -98.796875 -3.5273836928361177, -98.796875 -36" stroke="#21618C" stroke-width="1.3" fill="none" stroke-dasharray="0 0" style="fill: #9BCDED;stroke:#21618C;color:#001a1e"/></g><g class="annotation-group text" transform="translate(-46.7578125, -12)"><g class="label" style="" transform="translate(0,-12)"><foreignObject width="93.515625" height="24"><div xmlns="http://www.w3.org/1999/xhtml" style="display: table-cell; white-space: nowrap; line-height: 1.5; max-width: 145px; text-align: center;"><span class="nodeLabel markdown-node-label" style="fill: #9BCDED;stroke:#21618C;color:#001a1e"><p>«Artefacto»</p></span></div></foreignObject></g></g><g class="label-group text" transform="translate(-86.796875, 12)"><g class="label" style="font-weight: bolder" transform="translate(0,-12)"><foreignObject width="173.59375" height="24"><div xmlns="http://www.w3.org/1999/xhtml" style="display: table-cell; white-space: nowrap; line-height: 1.5; max-width: 203px; text-align: center;"><span class="nodeLabel markdown-node-label" style="fill: #9BCDED;stroke:#21618C;color:#001a1e"><p>Test de Integración</p></span></div></foreignObject></g></g><g class="members-group text" transform="translate(-86.796875, 60)"/><g class="methods-group text" transform="translate(-86.796875, 90)"/></g><g class="node default artefacto" id="my-svg-classId-WorkItem-7" data-look="classic" transform="translate(513.4609375, 560)"><g class="basic label-container outer-path"><path d="M-58.7578125 -36 L58.7578125 -36 L58.7578125 36 L-58.7578125 36" stroke="none" stroke-width="0" fill="#9BCDED" style="fill: #9BCDED;stroke:#21618C;color:#001a1e"/><path d="M-58.7578125 -36 C-21.839784735192076 -36, 15.078243029615848 -36, 58.7578125 -36 M-58.7578125 -36 C-28.92620397007769 -36, 0.9054045598446194 -36, 58.7578125 -36 M58.7578125 -36 C58.7578125 -20.46031125609521, 58.7578125 -4.920622512190416, 58.7578125 36 M58.7578125 -36 C58.7578125 -12.91892102629173, 58.7578125 10.162157947416539, 58.7578125 36 M58.7578125 36 C24.36404880267572 36, -10.029714894648563 36, -58.7578125 36 M58.7578125 36 C16.25081255265347 36, -26.256187394693058 36, -58.7578125 36 M-58.7578125 36 C-58.7578125 10.289580875594282, -58.7578125 -15.420838248811435, -58.7578125 -36 M-58.7578125 36 C-58.7578125 19.730972062301667, -58.7578125 3.4619441246033347, -58.7578125 -36" stroke="#21618C" stroke-width="1.3" fill="none" stroke-dasharray="0 0" style="fill: #9BCDED;stroke:#21618C;color:#001a1e"/></g><g class="annotation-group text" transform="translate(-46.7578125, -12)"><g class="label" style="" transform="translate(0,-12)"><foreignObject width="93.515625" height="24"><div xmlns="http://www.w3.org/1999/xhtml" style="display: table-cell; white-space: nowrap; line-height: 1.5; max-width: 145px; text-align: center;"><span class="nodeLabel markdown-node-label" style="fill: #9BCDED;stroke:#21618C;color:#001a1e"><p>«Artefacto»</p></span></div></foreignObject></g></g><g class="label-group text" transform="translate(-46.6484375, 12)"><g class="label" style="font-weight: bolder" transform="translate(0,-12)"><foreignObject width="93.296875" height="24"><div xmlns="http://www.w3.org/1999/xhtml" style="display: table-cell; white-space: nowrap; line-height: 1.5; max-width: 133px; text-align: center;"><span class="nodeLabel markdown-node-label" style="fill: #9BCDED;stroke:#21618C;color:#001a1e"><p>Work Item</p></span></div></foreignObject></g></g><g class="members-group text" transform="translate(-46.7578125, 60)"/><g class="methods-group text" transform="translate(-46.7578125, 90)"/></g><g class="node default artefacto" id="my-svg-classId-TestSistema-8" data-look="classic" transform="translate(735.640625, 336)"><g class="basic label-container outer-path"><path d="M-83.3828125 -36 L83.3828125 -36 L83.3828125 36 L-83.3828125 36" stroke="none" stroke-width="0" fill="#9BCDED" style="fill: #9BCDED;stroke:#21618C;color:#001a1e"/><path d="M-83.3828125 -36 C-31.266608534794223 -36, 20.849595430411554 -36, 83.3828125 -36 M-83.3828125 -36 C-40.501851230540076 -36, 2.3791100389198476 -36, 83.3828125 -36 M83.3828125 -36 C83.3828125 -16.139681088201584, 83.3828125 3.7206378235968316, 83.3828125 36 M83.3828125 -36 C83.3828125 -21.171304948744186, 83.3828125 -6.342609897488369, 83.3828125 36 M83.3828125 36 C46.59603219271777 36, 9.809251885435543 36, -83.3828125 36 M83.3828125 36 C44.881886514683586 36, 6.380960529367172 36, -83.3828125 36 M-83.3828125 36 C-83.3828125 10.983300390661594, -83.3828125 -14.033399218676813, -83.3828125 -36 M-83.3828125 36 C-83.3828125 15.371062193328498, -83.3828125 -5.257875613343003, -83.3828125 -36" stroke="#21618C" stroke-width="1.3" fill="none" stroke-dasharray="0 0" style="fill: #9BCDED;stroke:#21618C;color:#001a1e"/></g><g class="annotation-group text" transform="translate(-46.7578125, -12)"><g class="label" style="" transform="translate(0,-12)"><foreignObject width="93.515625" height="24"><div xmlns="http://www.w3.org/1999/xhtml" style="display: table-cell; white-space: nowrap; line-height: 1.5; max-width: 145px; text-align: center;"><span class="nodeLabel markdown-node-label" style="fill: #9BCDED;stroke:#21618C;color:#001a1e"><p>«Artefacto»</p></span></div></foreignObject></g></g><g class="label-group text" transform="translate(-71.3828125, 12)"><g class="label" style="font-weight: bolder" transform="translate(0,-12)"><foreignObject width="142.765625" height="24"><div xmlns="http://www.w3.org/1999/xhtml" style="display: table-cell; white-space: nowrap; line-height: 1.5; max-width: 176px; text-align: center;"><span class="nodeLabel markdown-node-label" style="fill: #9BCDED;stroke:#21618C;color:#001a1e"><p>Test de Sistema</p></span></div></foreignObject></g></g><g class="members-group text" transform="translate(-71.3828125, 60)"/><g class="methods-group text" transform="translate(-71.3828125, 90)"/></g><g class="node default artefacto" id="my-svg-classId-ProductoSoftware-9" data-look="classic" transform="translate(735.640625, 560)"><g class="basic label-container outer-path"><path d="M-110.234375 -36 L110.234375 -36 L110.234375 36 L-110.234375 36" stroke="none" stroke-width="0" fill="#9BCDED" style="fill: #9BCDED;stroke:#21618C;color:#001a1e"/><path d="M-110.234375 -36 C-48.70727822313237 -36, 12.81981855373526 -36, 110.234375 -36 M-110.234375 -36 C-23.408186654473 -36, 63.418001691054 -36, 110.234375 -36 M110.234375 -36 C110.234375 -12.668026567286379, 110.234375 10.663946865427242, 110.234375 36 M110.234375 -36 C110.234375 -17.213405823419293, 110.234375 1.573188353161413, 110.234375 36 M110.234375 36 C65.49072218369642 36, 20.74706936739284 36, -110.234375 36 M110.234375 36 C48.1500171013341 36, -13.9343407973318 36, -110.234375 36 M-110.234375 36 C-110.234375 12.069218808365747, -110.234375 -11.861562383268506, -110.234375 -36 M-110.234375 36 C-110.234375 18.023394883001842, -110.234375 0.04678976600368401, -110.234375 -36" stroke="#21618C" stroke-width="1.3" fill="none" stroke-dasharray="0 0" style="fill: #9BCDED;stroke:#21618C;color:#001a1e"/></g><g class="annotation-group text" transform="translate(-46.7578125, -12)"><g class="label" style="" transform="translate(0,-12)"><foreignObject width="93.515625" height="24"><div xmlns="http://www.w3.org/1999/xhtml" style="display: table-cell; white-space: nowrap; line-height: 1.5; max-width: 145px; text-align: center;"><span class="nodeLabel markdown-node-label" style="fill: #9BCDED;stroke:#21618C;color:#001a1e"><p>«Artefacto»</p></span></div></foreignObject></g></g><g class="label-group text" transform="translate(-98.234375, 12)"><g class="label" style="font-weight: bolder" transform="translate(0,-12)"><foreignObject width="196.46875" height="24"><div xmlns="http://www.w3.org/1999/xhtml" style="display: table-cell; white-space: nowrap; line-height: 1.5; max-width: 224px; text-align: center;"><span class="nodeLabel markdown-node-label" style="fill: #9BCDED;stroke:#21618C;color:#001a1e"><p>Producto de Software</p></span></div></foreignObject></g></g><g class="members-group text" transform="translate(-98.234375, 60)"/><g class="methods-group text" transform="translate(-98.234375, 90)"/></g><g class="node default artefacto" id="my-svg-classId-TestAutomatizado-10" data-look="classic" transform="translate(156.5625, 448)"><g class="basic label-container outer-path"><path d="M-95.9765625 -36 L95.9765625 -36 L95.9765625 36 L-95.9765625 36" stroke="none" stroke-width="0" fill="#9BCDED" style="fill: #9BCDED;stroke:#21618C;color:#001a1e"/><path d="M-95.9765625 -36 C-42.88643840703262 -36, 10.203685685934758 -36, 95.9765625 -36 M-95.9765625 -36 C-53.39727750713012 -36, -10.81799251426024 -36, 95.9765625 -36 M95.9765625 -36 C95.9765625 -12.833384849715074, 95.9765625 10.333230300569852, 95.9765625 36 M95.9765625 -36 C95.9765625 -11.475883937763342, 95.9765625 13.048232124473316, 95.9765625 36 M95.9765625 36 C31.32740039441201 36, -33.32176171117598 36, -95.9765625 36 M95.9765625 36 C22.54654195867988 36, -50.88347858264024 36, -95.9765625 36 M-95.9765625 36 C-95.9765625 9.578212512366626, -95.9765625 -16.843574975266748, -95.9765625 -36 M-95.9765625 36 C-95.9765625 7.661543433702626, -95.9765625 -20.67691313259475, -95.9765625 -36" stroke="#21618C" stroke-width="1.3" fill="none" stroke-dasharray="0 0" style="fill: #9BCDED;stroke:#21618C;color:#001a1e"/></g><g class="annotation-group text" transform="translate(-46.7578125, -12)"><g class="label" style="" transform="translate(0,-12)"><foreignObject width="93.515625" height="24"><div xmlns="http://www.w3.org/1999/xhtml" style="display: table-cell; white-space: nowrap; line-height: 1.5; max-width: 145px; text-align: center;"><span class="nodeLabel markdown-node-label" style="fill: #9BCDED;stroke:#21618C;color:#001a1e"><p>«Artefacto»</p></span></div></foreignObject></g></g><g class="label-group text" transform="translate(-83.9765625, 12)"><g class="label" style="font-weight: bolder" transform="translate(0,-12)"><foreignObject width="167.953125" height="24"><div xmlns="http://www.w3.org/1999/xhtml" style="display: table-cell; white-space: nowrap; line-height: 1.5; max-width: 198px; text-align: center;"><span class="nodeLabel markdown-node-label" style="fill: #9BCDED;stroke:#21618C;color:#001a1e"><p>Test Automatizado</p></span></div></foreignObject></g></g><g class="members-group text" transform="translate(-83.9765625, 60)"/><g class="methods-group text" transform="translate(-83.9765625, 90)"/></g><g class="node default artefacto" id="my-svg-classId-TestManual-11" data-look="classic" transform="translate(535.4895833333333, 224)"><g class="basic label-container outer-path"><path d="M-66.0859375 -36 L66.0859375 -36 L66.0859375 36 L-66.0859375 36" stroke="none" stroke-width="0" fill="#9BCDED" style="fill: #9BCDED;stroke:#21618C;color:#001a1e"/><path d="M-66.0859375 -36 C-30.82573808350707 -36, 4.434461332985862 -36, 66.0859375 -36 M-66.0859375 -36 C-36.14616569699748 -36, -6.206393893994957 -36, 66.0859375 -36 M66.0859375 -36 C66.0859375 -14.03997703701079, 66.0859375 7.920045925978421, 66.0859375 36 M66.0859375 -36 C66.0859375 -8.785914319811354, 66.0859375 18.42817136037729, 66.0859375 36 M66.0859375 36 C15.471541230569102 36, -35.142855038861796 36, -66.0859375 36 M66.0859375 36 C35.43344356115814 36, 4.780949622316285 36, -66.0859375 36 M-66.0859375 36 C-66.0859375 13.259386474231274, -66.0859375 -9.481227051537452, -66.0859375 -36 M-66.0859375 36 C-66.0859375 11.80641168477613, -66.0859375 -12.38717663044774, -66.0859375 -36" stroke="#21618C" stroke-width="1.3" fill="none" stroke-dasharray="0 0" style="fill: #9BCDED;stroke:#21618C;color:#001a1e"/></g><g class="annotation-group text" transform="translate(-46.7578125, -12)"><g class="label" style="" transform="translate(0,-12)"><foreignObject width="93.515625" height="24"><div xmlns="http://www.w3.org/1999/xhtml" style="display: table-cell; white-space: nowrap; line-height: 1.5; max-width: 145px; text-align: center;"><span class="nodeLabel markdown-node-label" style="fill: #9BCDED;stroke:#21618C;color:#001a1e"><p>«Artefacto»</p></span></div></foreignObject></g></g><g class="label-group text" transform="translate(-54.0859375, 12)"><g class="label" style="font-weight: bolder" transform="translate(0,-12)"><foreignObject width="108.171875" height="24"><div xmlns="http://www.w3.org/1999/xhtml" style="display: table-cell; white-space: nowrap; line-height: 1.5; max-width: 145px; text-align: center;"><span class="nodeLabel markdown-node-label" style="fill: #9BCDED;stroke:#21618C;color:#001a1e"><p>Test Manual</p></span></div></foreignObject></g></g><g class="members-group text" transform="translate(-54.0859375, 60)"/><g class="methods-group text" transform="translate(-54.0859375, 90)"/></g></g><g class="edges edgePaths"><path d="M156.5625,501.25L156.5625,524" id="my-svg-id_TestAutomatizado_TestUnitario_1" class="edge-thickness-normal edge-pattern-solid relation" style=";;;" data-edge="true" data-et="edge" data-id="id_TestAutomatizado_TestUnitario_1" data-points="W3sieCI6MTU2LjU2MjUsInkiOjQ4NH0seyJ4IjoxNTYuNTYyNSwieSI6NTI0fV0=" data-look="classic" marker-start="url(#my-svg_class-compositionStart)"/><path d="M513.4609375,277.25L513.4609375,300" id="my-svg-id_TestManual_TestIntegracion_2" class="edge-thickness-normal edge-pattern-solid relation" style=";;;" data-edge="true" data-et="edge" data-id="id_TestManual_TestIntegracion_2" data-points="W3sieCI6NTEzLjQ2MDkzNzUsInkiOjI2MH0seyJ4Ijo1MTMuNDYwOTM3NSwieSI6MzAwfV0=" data-look="classic" marker-start="url(#my-svg_class-compositionStart)"/><path d="M557.5182291666666,277.25L557.5182291666666,278.625Q557.5182291666666,280 558.8932291666666,280L728.5695571881345,280Q735.640625,280 735.640625,287.0710678118655L735.640625,300" id="my-svg-id_TestManual_TestSistema_3" class="edge-thickness-normal edge-pattern-solid relation" style=";;;" data-edge="true" data-et="edge" data-id="id_TestManual_TestSistema_3" data-points="W3sieCI6NTU3LjUxODIyOTE2NjY2NjYsInkiOjI2MH0seyJ4Ijo1NTcuNTE4MjI5MTY2NjY2NiwieSI6MjgwfSx7IngiOjczNS42NDA2MjUsInkiOjI4MH0seyJ4Ijo3MzUuNjQwNjI1LCJ5IjozMDB9XQ==" data-look="classic" marker-start="url(#my-svg_class-compositionStart)"/><path d="M535.4895833333333,84L535.4895833333333,182" id="my-svg-id_Tester_TestManual_4" class="edge-thickness-normal edge-pattern-solid relation" style=";;;" data-edge="true" data-et="edge" data-id="id_Tester_TestManual_4" data-points="W3sieCI6NTM1LjQ4OTU4MzMzMzMzMzMsInkiOjg0fSx7IngiOjUzNS40ODk1ODMzMzMzMzMzLCJ5IjoxODh9XQ==" data-look="classic" marker-end="url(#my-svg_class-dependencyEnd)"/><path d="M124.5703125,260L124.5703125,406" id="my-svg-id_SubVer_TestAutomatizado_5" class="edge-thickness-normal edge-pattern-solid relation" style=";;;" data-edge="true" data-et="edge" data-id="id_SubVer_TestAutomatizado_5" data-points="W3sieCI6MTI0LjU3MDMxMjUsInkiOjI2MH0seyJ4IjoxMjQuNTcwMzEyNSwieSI6NDEyfV0=" data-look="classic" marker-end="url(#my-svg_class-dependencyEnd)"/><path d="M350.8046875,260L350.8046875,384.9289321881345Q350.8046875,392 343.7336196881345,392L195.5546875,392Q188.5546875,392 188.5546875,399L188.5546875,406" id="my-svg-id_Desarrollador_TestAutomatizado_6" class="edge-thickness-normal edge-pattern-solid relation" style=";;;" data-edge="true" data-et="edge" data-id="id_Desarrollador_TestAutomatizado_6" data-points="W3sieCI6MzUwLjgwNDY4NzUsInkiOjI2MH0seyJ4IjozNTAuODA0Njg3NSwieSI6MzkyfSx7IngiOjE4OC41NTQ2ODc1LCJ5IjozOTJ9LHsieCI6MTg4LjU1NDY4NzUsInkiOjQxMn1d" data-look="classic" marker-end="url(#my-svg_class-dependencyEnd)"/><path d="M124.5703125,101.25L124.5703125,188" id="my-svg-id_CoordinadorIA_SubVer_7" class="edge-thickness-normal edge-pattern-solid relation" style=";;;" data-edge="true" data-et="edge" data-id="id_CoordinadorIA_SubVer_7" data-points="W3sieCI6MTI0LjU3MDMxMjUsInkiOjg0fSx7IngiOjEyNC41NzAzMTI1LCJ5IjoxODh9XQ==" data-look="classic" marker-start="url(#my-svg_class-compositionStart)"/><path d="M156.5625,596L156.5625,694" id="my-svg-id_TestUnitario_MicroIncremento_8" class="edge-thickness-normal edge-pattern-solid relation" style=";;;" data-edge="true" data-et="edge" data-id="id_TestUnitario_MicroIncremento_8" data-points="W3sieCI6MTU2LjU2MjUsInkiOjU5Nn0seyJ4IjoxNTYuNTYyNSwieSI6NzAwfV0=" data-look="classic" marker-end="url(#my-svg_class-dependencyEnd)"/><path d="M513.4609375,372L513.4609375,518" id="my-svg-id_TestIntegracion_WorkItem_9" class="edge-thickness-normal edge-pattern-solid relation" style=";;;" data-edge="true" data-et="edge" data-id="id_TestIntegracion_WorkItem_9" data-points="W3sieCI6NTEzLjQ2MDkzNzUsInkiOjM3Mn0seyJ4Ijo1MTMuNDYwOTM3NSwieSI6NTI0fV0=" data-look="classic" marker-end="url(#my-svg_class-dependencyEnd)"/><path d="M735.640625,372L735.640625,518" id="my-svg-id_TestSistema_ProductoSoftware_10" class="edge-thickness-normal edge-pattern-solid relation" style=";;;" data-edge="true" data-et="edge" data-id="id_TestSistema_ProductoSoftware_10" data-points="W3sieCI6NzM1LjY0MDYyNSwieSI6MzcyfSx7IngiOjczNS42NDA2MjUsInkiOjUyNH1d" data-look="classic" marker-end="url(#my-svg_class-dependencyEnd)"/></g><g class="edgeLabels"><g class="edgeLabel"><g class="label" data-id="id_TestAutomatizado_TestUnitario_1" transform="translate(0, 0)"><foreignObject width="0" height="0"><div xmlns="http://www.w3.org/1999/xhtml" class="labelBkg" style="display: table-cell; white-space: nowrap; line-height: 1.5; max-width: 200px; text-align: center;"><span class="edgeLabel"></span></div></foreignObject></g></g><g class="edgeLabel"><g class="label" data-id="id_TestManual_TestIntegracion_2" transform="translate(0, 0)"><foreignObject width="0" height="0"><div xmlns="http://www.w3.org/1999/xhtml" class="labelBkg" style="display: table-cell; white-space: nowrap; line-height: 1.5; max-width: 200px; text-align: center;"><span class="edgeLabel"></span></div></foreignObject></g></g><g class="edgeLabel"><g class="label" data-id="id_TestManual_TestSistema_3" transform="translate(0, 0)"><foreignObject width="0" height="0"><div xmlns="http://www.w3.org/1999/xhtml" class="labelBkg" style="display: table-cell; white-space: nowrap; line-height: 1.5; max-width: 200px; text-align: center;"><span class="edgeLabel"></span></div></foreignObject></g></g><g class="edgeLabel" transform="translate(535.1848958333333, 136)"><g class="label" data-id="id_Tester_TestManual_4" transform="translate(-67.6953125, -12)"><foreignObject width="135.390625" height="24"><div xmlns="http://www.w3.org/1999/xhtml" class="labelBkg" style="display: table-cell; white-space: nowrap; line-height: 1.5; max-width: 200px; text-align: center;"><span class="edgeLabel"><p>Genera y Realiza</p></span></div></foreignObject></g></g><g class="edgeLabel" transform="translate(124.265625, 336)"><g class="label" data-id="id_SubVer_TestAutomatizado_5" transform="translate(-67.6953125, -12)"><foreignObject width="135.390625" height="24"><div xmlns="http://www.w3.org/1999/xhtml" class="labelBkg" style="display: table-cell; white-space: nowrap; line-height: 1.5; max-width: 200px; text-align: center;"><span class="edgeLabel"><p>Genera y Realiza</p></span></div></foreignObject></g></g><g class="edgeLabel" transform="translate(350.484375, 336)"><g class="label" data-id="id_Desarrollador_TestAutomatizado_6" transform="translate(-24.1796875, -12)"><foreignObject width="48.359375" height="24"><div xmlns="http://www.w3.org/1999/xhtml" class="labelBkg" style="display: table-cell; white-space: nowrap; line-height: 1.5; max-width: 200px; text-align: center;"><span class="edgeLabel"><p>Valida</p></span></div></foreignObject></g></g><g class="edgeLabel" transform="translate(124.3671875, 136)"><g class="label" data-id="id_CoordinadorIA_SubVer_7" transform="translate(-35.796875, -12)"><foreignObject width="71.59375" height="24"><div xmlns="http://www.w3.org/1999/xhtml" class="labelBkg" style="display: table-cell; white-space: nowrap; line-height: 1.5; max-width: 200px; text-align: center;"><span class="edgeLabel"><p>Coordina</p></span></div></foreignObject></g></g><g class="edgeLabel" transform="translate(156.1875, 648)"><g class="label" data-id="id_TestUnitario_MicroIncremento_8" transform="translate(-29.625, -12)"><foreignObject width="59.25" height="24"><div xmlns="http://www.w3.org/1999/xhtml" class="labelBkg" style="display: table-cell; white-space: nowrap; line-height: 1.5; max-width: 200px; text-align: center;"><span class="edgeLabel"><p>Verifica</p></span></div></foreignObject></g></g><g class="edgeLabel" transform="translate(513.0859375, 448)"><g class="label" data-id="id_TestIntegracion_WorkItem_9" transform="translate(-29.625, -12)"><foreignObject width="59.25" height="24"><div xmlns="http://www.w3.org/1999/xhtml" class="labelBkg" style="display: table-cell; white-space: nowrap; line-height: 1.5; max-width: 200px; text-align: center;"><span class="edgeLabel"><p>Verifica</p></span></div></foreignObject></g></g><g class="edgeLabel" transform="translate(735.265625, 448)"><g class="label" data-id="id_TestSistema_ProductoSoftware_10" transform="translate(-29.625, -12)"><foreignObject width="59.25" height="24"><div xmlns="http://www.w3.org/1999/xhtml" class="labelBkg" style="display: table-cell; white-space: nowrap; line-height: 1.5; max-width: 200px; text-align: center;"><span class="edgeLabel"><p>Verifica</p></span></div></foreignObject></g></g></g><text text-anchor="middle" x="428.9375" y="-25" class="classDiagramTitleText">Meta-modelo de Verificacion</text></svg>