<svg id="my-svg" width="100%" xmlns="http://www.w3.org/2000/svg" xmlns:xlink="http://www.w3.org/1999/xlink" class="classDiagram" style="max-width: 1168.97px; background-color: white;" viewBox="4 -48 1168.96875 532" role="graphics-document document" aria-roledescription="class"><style>#my-svg{font-family:"trebuchet ms",verdana,arial,sans-serif;font-size:16px;fill:#000000;}@keyframes edge-animation-frame{from{stroke-dashoffset:0;}}@keyframes dash{to{stroke-dashoffset:0;}}#my-svg .edge-animation-slow{stroke-dasharray:9,5!important;stroke-dashoffset:900;animation:dash 50s linear infinite;stroke-linecap:round;}#my-svg .edge-animation-fast{stroke-dasharray:9,5!important;stroke-dashoffset:900;animation:dash 20s linear infinite;stroke-linecap:round;}#my-svg .error-icon{fill:#552222;}#my-svg .error-text{fill:#552222;stroke:#552222;}#my-svg .edge-thickness-normal{stroke-width:1px;}#my-svg .edge-thickness-thick{stroke-width:3.5px;}#my-svg .edge-pattern-solid{stroke-dasharray:0;}#my-svg .edge-thickness-invisible{stroke-width:0;fill:none;}#my-svg .edge-pattern-dashed{stroke-dasharray:3;}#my-svg .edge-pattern-dotted{stroke-dasharray:2;}#my-svg .marker{fill:#666;stroke:#666;}#my-svg .marker.cross{stroke:#666;}#my-svg svg{font-family:"trebuchet ms",verdana,arial,sans-serif;font-size:16px;}#my-svg p{margin:0;}#my-svg g.classGroup text{fill:#999;stroke:none;font-family:"trebuchet ms",verdana,arial,sans-serif;font-size:10px;}#my-svg g.classGroup text .title{font-weight:bolder;}#my-svg .cluster-label text{fill:#333;}#my-svg .cluster-label span{color:#333;}#my-svg .cluster-label span p{background-color:transparent;}#my-svg .cluster rect{fill:hsl(0, 0%, 98.9215686275%);stroke:#707070;stroke-width:1px;}#my-svg .cluster text{fill:#333;}#my-svg .cluster span{color:#333;}#my-svg .nodeLabel,#my-svg .edgeLabel{color:#111111;}#my-svg .noteLabel .nodeLabel,#my-svg .noteLabel .edgeLabel{color:#fff;}#my-svg .edgeLabel .label rect{fill:#eee;}#my-svg .label text{fill:#111111;}#my-svg .labelBkg{background:#eee;}#my-svg .edgeLabel .label span{background:#eee;}#my-svg .classTitle{font-weight:bolder;}#my-svg .node rect,#my-svg .node circle,#my-svg .node ellipse,#my-svg .node polygon,#my-svg .node path{fill:#eee;stroke:#999;stroke-width:1;}#my-svg .divider{stroke:#999;stroke-width:1;}#my-svg g.clickable{cursor:pointer;}#my-svg g.classGroup rect{fill:#eee;stroke:#999;}#my-svg g.classGroup line{stroke:#999;stroke-width:1;}#my-svg .classLabel .box{stroke:none;stroke-width:0;fill:#eee;opacity:0.5;}#my-svg .classLabel .label{fill:#999;font-size:10px;}#my-svg .relation{stroke:#666;stroke-width:1;fill:none;}#my-svg .dashed-line{stroke-dasharray:3;}#my-svg .dotted-line{stroke-dasharray:1 2;}#my-svg [id$="-compositionStart"],#my-svg .composition{fill:#666!important;stroke:#666!important;stroke-width:1;}#my-svg [id$="-compositionEnd"],#my-svg .composition{fill:#666!important;stroke:#666!important;stroke-width:1;}#my-svg [id$="-dependencyStart"],#my-svg .dependency{fill:#666!important;stroke:#666!important;stroke-width:1;}#my-svg [id$="-dependencyEnd"],#my-svg .dependency{fill:#666!important;stroke:#666!important;stroke-width:1;}#my-svg [id$="-extensionStart"],#my-svg .extension{fill:transparent!important;stroke:#666!important;stroke-width:1;}#my-svg [id$="-extensionEnd"],#my-svg .extension{fill:transparent!important;stroke:#666!important;stroke-width:1;}#my-svg [id$="-aggregationStart"],#my-svg .aggregation{fill:transparent!important;stroke:#666!important;stroke-width:1;}#my-svg [id$="-aggregationEnd"],#my-svg .aggregation{fill:transparent!important;stroke:#666!important;stroke-width:1;}#my-svg [id$="-lollipopStart"],#my-svg .lollipop{fill:#eee!important;stroke:#666!important;stroke-width:1;}#my-svg [id$="-lollipopEnd"],#my-svg .lollipop{fill:#eee!important;stroke:#666!important;stroke-width:1;}#my-svg .edgeTerminals{font-size:11px;line-height:initial;}#my-svg .classTitleText{text-anchor:middle;font-size:18px;fill:#000000;}#my-svg .edgeLabel[data-look="neo"]{background-color:white;text-align:center;}#my-svg .edgeLabel[data-look="neo"] p{background-color:white;}#my-svg .edgeLabel[data-look="neo"] rect{opacity:0.5;background-color:white;fill:white;}#my-svg .label-icon{display:inline-block;height:1em;overflow:visible;vertical-align:-0.125em;}#my-svg .node .label-icon path{fill:currentColor;stroke:revert;stroke-width:revert;}#my-svg .node .neo-node{stroke:#999;}#my-svg [data-look="neo"].node rect,#my-svg [data-look="neo"].cluster rect,#my-svg [data-look="neo"].node polygon{stroke:url(#my-svg-gradient);filter:drop-shadow( 1px 2px 2px rgba(185,185,185,1));}#my-svg [data-look="neo"].node path{stroke:url(#my-svg-gradient);stroke-width:1px;}#my-svg [data-look="neo"].node .outer-path{filter:drop-shadow( 1px 2px 2px rgba(185,185,185,1));}#my-svg [data-look="neo"].node .neo-line path{stroke:#999;filter:none;}#my-svg [data-look="neo"].node circle{stroke:url(#my-svg-gradient);filter:drop-shadow( 1px 2px 2px rgba(185,185,185,1));}#my-svg [data-look="neo"].node circle .state-start{fill:#000000;}#my-svg [data-look="neo"].icon-shape .icon{fill:url(#my-svg-gradient);filter:drop-shadow( 1px 2px 2px rgba(185,185,185,1));}#my-svg [data-look="neo"].icon-shape .icon-neo path{stroke:url(#my-svg-gradient);filter:drop-shadow( 1px 2px 2px rgba(185,185,185,1));}#my-svg :root{--mermaid-font-family:"trebuchet ms",verdana,arial,sans-serif;}#my-svg .Analista&gt;*{fill:rgb(225, 205, 233)!important;stroke:rgb(44, 37, 112)!important;color:rgb(0, 26, 30)!important;}#my-svg .Analista span{fill:rgb(225, 205, 233)!important;stroke:rgb(44, 37, 112)!important;color:rgb(0, 26, 30)!important;}#my-svg .AdministradorProyecto&gt;*{fill:rgb(225, 205, 233)!important;stroke:rgb(44, 37, 112)!important;color:rgb(0, 26, 30)!important;}#my-svg .AdministradorProyecto span{fill:rgb(225, 205, 233)!important;stroke:rgb(44, 37, 112)!important;color:rgb(0, 26, 30)!important;}#my-svg .DocumentoDeVision&gt;*{fill:rgb(155, 205, 237)!important;stroke:rgb(33, 97, 140)!important;color:rgb(0, 26, 30)!important;}#my-svg .DocumentoDeVision span{fill:rgb(155, 205, 237)!important;stroke:rgb(33, 97, 140)!important;color:rgb(0, 26, 30)!important;}#my-svg .GlosarioDominio&gt;*{fill:rgb(155, 205, 237)!important;stroke:rgb(33, 97, 140)!important;color:rgb(0, 26, 30)!important;}#my-svg .GlosarioDominio span{fill:rgb(155, 205, 237)!important;stroke:rgb(33, 97, 140)!important;color:rgb(0, 26, 30)!important;}#my-svg .CasoDeUso&gt;*{fill:rgb(155, 205, 237)!important;stroke:rgb(33, 97, 140)!important;color:rgb(0, 26, 30)!important;}#my-svg .CasoDeUso span{fill:rgb(155, 205, 237)!important;stroke:rgb(33, 97, 140)!important;color:rgb(0, 26, 30)!important;}#my-svg .ListaDeRiesgos&gt;*{fill:rgb(155, 205, 237)!important;stroke:rgb(33, 97, 140)!important;color:rgb(0, 26, 30)!important;}#my-svg .ListaDeRiesgos span{fill:rgb(155, 205, 237)!important;stroke:rgb(33, 97, 140)!important;color:rgb(0, 26, 30)!important;}#my-svg .WorkItemList&gt;*{fill:rgb(155, 205, 237)!important;stroke:rgb(33, 97, 140)!important;color:rgb(0, 26, 30)!important;}#my-svg .WorkItemList span{fill:rgb(155, 205, 237)!important;stroke:rgb(33, 97, 140)!important;color:rgb(0, 26, 30)!important;}#my-svg .MemoriaPersistente&gt;*{fill:rgb(155, 205, 237)!important;stroke:rgb(33, 97, 140)!important;color:rgb(0, 26, 30)!important;}#my-svg .MemoriaPersistente span{fill:rgb(155, 205, 237)!important;stroke:rgb(33, 97, 140)!important;color:rgb(0, 26, 30)!important;}</style><g><defs><marker id="my-svg_class-aggregationStart" class="marker aggregation class" refX="18" refY="7" markerWidth="190" markerHeight="240" orient="auto"><path d="M 18,7 L9,13 L1,7 L9,1 Z"/></marker></defs><defs><marker id="my-svg_class-aggregationEnd" class="marker aggregation class" refX="1" refY="7" markerWidth="20" markerHeight="28" orient="auto"><path d="M 18,7 L9,13 L1,7 L9,1 Z"/></marker></defs><defs><marker id="my-svg_class-aggregationStart-margin" class="marker aggregation class" refX="15" refY="7" markerWidth="190" markerHeight="240" orient="auto" markerUnits="userSpaceOnUse"><path d="M 18,7 L9,13 L1,7 L9,1 Z" style="stroke-width: 2;"/></marker></defs><defs><marker id="my-svg_class-aggregationEnd-margin" class="marker aggregation class" refX="1" refY="7" markerWidth="20" markerHeight="28" orient="auto" markerUnits="userSpaceOnUse"><path d="M 18,7 L9,13 L1,7 L9,1 Z" style="stroke-width: 2;"/></marker></defs><defs><marker id="my-svg_class-extensionStart" class="marker extension class" refX="18" refY="7" markerWidth="20" markerHeight="28" orient="auto" markerUnits="userSpaceOnUse"><path d="M 1,7 L18,13 V 1 Z"/></marker></defs><defs><marker id="my-svg_class-extensionEnd" class="marker extension class" refX="1" refY="7" markerWidth="20" markerHeight="28" orient="auto"><path d="M 1,1 V 13 L18,7 Z"/></marker></defs><marker id="my-svg_class-extensionStart-margin" class="marker extension class" refX="18" refY="7" markerWidth="20" markerHeight="28" orient="auto" markerUnits="userSpaceOnUse" viewBox="0 0 20 14"><polygon points="10,7 18,13 18,1" style="stroke-width: 2; stroke-dasharray: 0;"/></marker><defs><marker id="my-svg_class-extensionEnd-margin" class="marker extension class" refX="9" refY="7" markerWidth="20" markerHeight="28" orient="auto" markerUnits="userSpaceOnUse" viewBox="0 0 20 14"><polygon points="10,1 10,13 18,7" style="stroke-width: 2; stroke-dasharray: 0;"/></marker></defs><defs><marker id="my-svg_class-compositionStart" class="marker composition class" refX="18" refY="7" markerWidth="190" markerHeight="240" orient="auto"><path d="M 18,7 L9,13 L1,7 L9,1 Z"/></marker></defs><defs><marker id="my-svg_class-compositionEnd" class="marker composition class" refX="1" refY="7" markerWidth="20" markerHeight="28" orient="auto"><path d="M 18,7 L9,13 L1,7 L9,1 Z"/></marker></defs><defs><marker id="my-svg_class-compositionStart-margin" class="marker composition class" refX="15" refY="7" markerWidth="190" markerHeight="240" orient="auto" markerUnits="userSpaceOnUse"><path viewBox="0 0 15 15" d="M 18,7 L9,13 L1,7 L9,1 Z" style="stroke-width: 0;"/></marker></defs><defs><marker id="my-svg_class-compositionEnd-margin" class="marker composition class" refX="3.5" refY="7" markerWidth="20" markerHeight="28" orient="auto" markerUnits="userSpaceOnUse"><path d="M 18,7 L9,13 L1,7 L9,1 Z" style="stroke-width: 0;"/></marker></defs><defs><marker id="my-svg_class-dependencyStart" class="marker dependency class" refX="6" refY="7" markerWidth="190" markerHeight="240" orient="auto"><path d="M 5,7 L9,13 L1,7 L9,1 Z"/></marker></defs><defs><marker id="my-svg_class-dependencyEnd" class="marker dependency class" refX="13" refY="7" markerWidth="20" markerHeight="28" orient="auto"><path d="M 18,7 L9,13 L14,7 L9,1 Z"/></marker></defs><defs><marker id="my-svg_class-dependencyStart-margin" class="marker dependency class" refX="4" refY="7" markerWidth="190" markerHeight="240" orient="auto" markerUnits="userSpaceOnUse"><path d="M 5,7 L9,13 L1,7 L9,1 Z" style="stroke-width: 0;"/></marker></defs><defs><marker id="my-svg_class-dependencyEnd-margin" class="marker dependency class" refX="16" refY="7" markerWidth="20" markerHeight="28" orient="auto" markerUnits="userSpaceOnUse"><path d="M 18,7 L9,13 L14,7 L9,1 Z" style="stroke-width: 0;"/></marker></defs><defs><marker id="my-svg_class-lollipopStart" class="marker lollipop class" refX="13" refY="7" markerWidth="190" markerHeight="240" orient="auto"><circle fill="transparent" cx="7" cy="7" r="6"/></marker></defs><defs><marker id="my-svg_class-lollipopEnd" class="marker lollipop class" refX="1" refY="7" markerWidth="190" markerHeight="240" orient="auto"><circle fill="transparent" cx="7" cy="7" r="6"/></marker></defs><defs><marker id="my-svg_class-lollipopStart-margin" class="marker lollipop class" refX="13" refY="7" markerWidth="190" markerHeight="240" orient="auto" markerUnits="userSpaceOnUse"><circle fill="transparent" cx="7" cy="7" r="6" stroke-width="2"/></marker></defs><defs><marker id="my-svg_class-lollipopEnd-margin" class="marker lollipop class" refX="1" refY="7" markerWidth="190" markerHeight="240" orient="auto" markerUnits="userSpaceOnUse"><circle fill="transparent" cx="7" cy="7" r="6" stroke-width="2"/></marker></defs></g><defs><filter id="my-svg-drop-shadow" height="130%" width="130%"><feDropShadow dx="4" dy="4" stdDeviation="0" flood-opacity="0.06" flood-color="#000000"/></filter></defs><defs><filter id="my-svg-drop-shadow-small" height="150%" width="150%"><feDropShadow dx="2" dy="2" stdDeviation="0" flood-opacity="0.06" flood-color="#000000"/></filter></defs><linearGradient id="my-svg-gradient" gradientUnits="objectBoundingBox" x1="0%" y1="0%" x2="100%" y2="0%"><stop offset="0%" stop-color="hsl(0, 0%, 83.3333333333%)" stop-opacity="1"/><stop offset="100%" stop-color="hsl(0, 0%, 88.9215686275%)" stop-opacity="1"/></linearGradient><g class="subgraphs"/><g class="nodes"><g class="node default rol" id="my-svg-classId-Analista-0" data-look="classic" transform="translate(455.3484375, 48)"><g class="basic label-container outer-path"><path d="M-48.7578125 -36 L48.7578125 -36 L48.7578125 36 L-48.7578125 36" stroke="none" stroke-width="0" fill="#E1CDE9" style="fill:#E1CDE9;stroke:#2c2570;color:#001a1e"/><path d="M-48.7578125 -36 C-10.104197160802222 -36, 28.549418178395555 -36, 48.7578125 -36 M-48.7578125 -36 C-10.976265115542873 -36, 26.805282268914254 -36, 48.7578125 -36 M48.7578125 -36 C48.7578125 -14.974546376645684, 48.7578125 6.050907246708633, 48.7578125 36 M48.7578125 -36 C48.7578125 -14.244974732576381, 48.7578125 7.510050534847238, 48.7578125 36 M48.7578125 36 C11.457874780679873 36, -25.842062938640254 36, -48.7578125 36 M48.7578125 36 C16.246671894157465 36, -16.26446871168507 36, -48.7578125 36 M-48.7578125 36 C-48.7578125 17.060113912149912, -48.7578125 -1.8797721757001753, -48.7578125 -36 M-48.7578125 36 C-48.7578125 19.701442969358222, -48.7578125 3.4028859387164445, -48.7578125 -36" stroke="#2c2570" stroke-width="1.3" fill="none" stroke-dasharray="0 0" style="fill:#E1CDE9;stroke:#2c2570;color:#001a1e"/></g><g class="annotation-group text" transform="translate(-22.109375, -12)"><g class="label" style="" transform="translate(0,-12)"><foreignObject width="44.21875" height="24"><div xmlns="http://www.w3.org/1999/xhtml" style="display: table-cell; white-space: nowrap; line-height: 1.5; max-width: 94px; text-align: center;"><span class="nodeLabel markdown-node-label" style="fill:#E1CDE9;stroke:#2c2570;color:#001a1e"><p>«Rol»</p></span></div></foreignObject></g></g><g class="label-group text" transform="translate(-36.7578125, 12)"><g class="label" style="font-weight: bolder" transform="translate(0,-12)"><foreignObject width="73.515625" height="24"><div xmlns="http://www.w3.org/1999/xhtml" style="display: table-cell; white-space: nowrap; line-height: 1.5; max-width: 113px; text-align: center;"><span class="nodeLabel markdown-node-label" style="fill:#E1CDE9;stroke:#2c2570;color:#001a1e"><p>Analista</p></span></div></foreignObject></g></g><g class="members-group text" transform="translate(-36.7578125, 60)"/><g class="methods-group text" transform="translate(-36.7578125, 90)"/></g><g class="node default rol" id="my-svg-classId-AdministradorProyecto-1" data-look="classic" transform="translate(145.265625, 264)"><g class="basic label-container outer-path"><path d="M-133.265625 -36 L133.265625 -36 L133.265625 36 L-133.265625 36" stroke="none" stroke-width="0" fill="#E1CDE9" style="fill:#E1CDE9;stroke:#2c2570;color:#001a1e"/><path d="M-133.265625 -36 C-59.995982516785645 -36, 13.27365996642871 -36, 133.265625 -36 M-133.265625 -36 C-27.00498408590404 -36, 79.25565682819192 -36, 133.265625 -36 M133.265625 -36 C133.265625 -10.724362662218414, 133.265625 14.551274675563171, 133.265625 36 M133.265625 -36 C133.265625 -9.170474443010924, 133.265625 17.65905111397815, 133.265625 36 M133.265625 36 C42.27468148835685 36, -48.716262023286305 36, -133.265625 36 M133.265625 36 C63.56574642994234 36, -6.134132140115327 36, -133.265625 36 M-133.265625 36 C-133.265625 11.92456665282035, -133.265625 -12.150866694359301, -133.265625 -36 M-133.265625 36 C-133.265625 20.986546818996672, -133.265625 5.97309363799334, -133.265625 -36" stroke="#2c2570" stroke-width="1.3" fill="none" stroke-dasharray="0 0" style="fill:#E1CDE9;stroke:#2c2570;color:#001a1e"/></g><g class="annotation-group text" transform="translate(-22.109375, -12)"><g class="label" style="" transform="translate(0,-12)"><foreignObject width="44.21875" height="24"><div xmlns="http://www.w3.org/1999/xhtml" style="display: table-cell; white-space: nowrap; line-height: 1.5; max-width: 94px; text-align: center;"><span class="nodeLabel markdown-node-label" style="fill:#E1CDE9;stroke:#2c2570;color:#001a1e"><p>«Rol»</p></span></div></foreignObject></g></g><g class="label-group text" transform="translate(-121.265625, 12)"><g class="label" style="font-weight: bolder" transform="translate(0,-12)"><foreignObject width="242.53125" height="24"><div xmlns="http://www.w3.org/1999/xhtml" style="display: table-cell; white-space: nowrap; line-height: 1.5; max-width: 264px; text-align: center;"><span class="nodeLabel markdown-node-label" style="fill:#E1CDE9;stroke:#2c2570;color:#001a1e"><p>Administrador de Proyecto</p></span></div></foreignObject></g></g><g class="members-group text" transform="translate(-121.265625, 60)"/><g class="methods-group text" transform="translate(-121.265625, 90)"/></g><g class="node default artefacto" id="my-svg-classId-DocumentoDeVision-2" data-look="classic" transform="translate(426.09375, 264)"><g class="basic label-container outer-path"><path d="M-107.5625 -36 L107.5625 -36 L107.5625 36 L-107.5625 36" stroke="none" stroke-width="0" fill="#9BCDED" style="fill: #9BCDED;stroke:#21618C;color:#001a1e"/><path d="M-107.5625 -36 C-31.154460995152675 -36, 45.25357800969465 -36, 107.5625 -36 M-107.5625 -36 C-54.80680464268155 -36, -2.051109285363097 -36, 107.5625 -36 M107.5625 -36 C107.5625 -10.379307728179505, 107.5625 15.24138454364099, 107.5625 36 M107.5625 -36 C107.5625 -17.241993025399413, 107.5625 1.5160139492011737, 107.5625 36 M107.5625 36 C47.93167748961306 36, -11.699145020773884 36, -107.5625 36 M107.5625 36 C51.57572482594819 36, -4.411050348103615 36, -107.5625 36 M-107.5625 36 C-107.5625 12.391752415466865, -107.5625 -11.21649516906627, -107.5625 -36 M-107.5625 36 C-107.5625 7.667576271793049, -107.5625 -20.664847456413902, -107.5625 -36" stroke="#21618C" stroke-width="1.3" fill="none" stroke-dasharray="0 0" style="fill: #9BCDED;stroke:#21618C;color:#001a1e"/></g><g class="annotation-group text" transform="translate(-46.7578125, -12)"><g class="label" style="" transform="translate(0,-12)"><foreignObject width="93.515625" height="24"><div xmlns="http://www.w3.org/1999/xhtml" style="display: table-cell; white-space: nowrap; line-height: 1.5; max-width: 145px; text-align: center;"><span class="nodeLabel markdown-node-label" style="fill: #9BCDED;stroke:#21618C;color:#001a1e"><p>«Artefacto»</p></span></div></foreignObject></g></g><g class="label-group text" transform="translate(-95.5625, 12)"><g class="label" style="font-weight: bolder" transform="translate(0,-12)"><foreignObject width="191.125" height="24"><div xmlns="http://www.w3.org/1999/xhtml" style="display: table-cell; white-space: nowrap; line-height: 1.5; max-width: 220px; text-align: center;"><span class="nodeLabel markdown-node-label" style="fill: #9BCDED;stroke:#21618C;color:#001a1e"><p>Documento de Visión</p></span></div></foreignObject></g></g><g class="members-group text" transform="translate(-95.5625, 60)"/><g class="methods-group text" transform="translate(-95.5625, 90)"/></g><g class="node default artefacto" id="my-svg-classId-GlosarioDominio-3" data-look="classic" transform="translate(676.6796875, 264)"><g class="basic label-container outer-path"><path d="M-103.0234375 -36 L103.0234375 -36 L103.0234375 36 L-103.0234375 36" stroke="none" stroke-width="0" fill="#9BCDED" style="fill: #9BCDED;stroke:#21618C;color:#001a1e"/><path d="M-103.0234375 -36 C-52.87464058971377 -36, -2.725843679427541 -36, 103.0234375 -36 M-103.0234375 -36 C-37.082912085393474 -36, 28.857613329213052 -36, 103.0234375 -36 M103.0234375 -36 C103.0234375 -10.730278466729306, 103.0234375 14.539443066541388, 103.0234375 36 M103.0234375 -36 C103.0234375 -10.14299673013733, 103.0234375 15.71400653972534, 103.0234375 36 M103.0234375 36 C34.172092322693786 36, -34.67925285461243 36, -103.0234375 36 M103.0234375 36 C20.960137771310215 36, -61.10316195737957 36, -103.0234375 36 M-103.0234375 36 C-103.0234375 12.348000988810966, -103.0234375 -11.303998022378067, -103.0234375 -36 M-103.0234375 36 C-103.0234375 9.453423281629846, -103.0234375 -17.09315343674031, -103.0234375 -36" stroke="#21618C" stroke-width="1.3" fill="none" stroke-dasharray="0 0" style="fill: #9BCDED;stroke:#21618C;color:#001a1e"/></g><g class="annotation-group text" transform="translate(-46.7578125, -12)"><g class="label" style="" transform="translate(0,-12)"><foreignObject width="93.515625" height="24"><div xmlns="http://www.w3.org/1999/xhtml" style="display: table-cell; white-space: nowrap; line-height: 1.5; max-width: 145px; text-align: center;"><span class="nodeLabel markdown-node-label" style="fill: #9BCDED;stroke:#21618C;color:#001a1e"><p>«Artefacto»</p></span></div></foreignObject></g></g><g class="label-group text" transform="translate(-91.0234375, 12)"><g class="label" style="font-weight: bolder" transform="translate(0,-12)"><foreignObject width="182.046875" height="24"><div xmlns="http://www.w3.org/1999/xhtml" style="display: table-cell; white-space: nowrap; line-height: 1.5; max-width: 211px; text-align: center;"><span class="nodeLabel markdown-node-label" style="fill: #9BCDED;stroke:#21618C;color:#001a1e"><p>Glosario de Dominio</p></span></div></foreignObject></g></g><g class="members-group text" transform="translate(-91.0234375, 60)"/><g class="methods-group text" transform="translate(-91.0234375, 90)"/></g><g class="node default artefacto" id="my-svg-classId-CasoDeUso-4" data-look="classic" transform="translate(886.7109375, 264)"><g class="basic label-container outer-path"><path d="M-67.0078125 -36 L67.0078125 -36 L67.0078125 36 L-67.0078125 36" stroke="none" stroke-width="0" fill="#9BCDED" style="fill: #9BCDED;stroke:#21618C;color:#001a1e"/><path d="M-67.0078125 -36 C-16.000099944881953 -36, 35.007612610236094 -36, 67.0078125 -36 M-67.0078125 -36 C-15.636272523213464 -36, 35.73526745357307 -36, 67.0078125 -36 M67.0078125 -36 C67.0078125 -13.590007498245711, 67.0078125 8.819985003508577, 67.0078125 36 M67.0078125 -36 C67.0078125 -7.571345273798052, 67.0078125 20.857309452403896, 67.0078125 36 M67.0078125 36 C37.75977948358593 36, 8.51174646717186 36, -67.0078125 36 M67.0078125 36 C37.87476190814386 36, 8.74171131628772 36, -67.0078125 36 M-67.0078125 36 C-67.0078125 13.137388932100546, -67.0078125 -9.725222135798909, -67.0078125 -36 M-67.0078125 36 C-67.0078125 17.34902349894557, -67.0078125 -1.30195300210886, -67.0078125 -36" stroke="#21618C" stroke-width="1.3" fill="none" stroke-dasharray="0 0" style="fill: #9BCDED;stroke:#21618C;color:#001a1e"/></g><g class="annotation-group text" transform="translate(-46.7578125, -12)"><g class="label" style="" transform="translate(0,-12)"><foreignObject width="93.515625" height="24"><div xmlns="http://www.w3.org/1999/xhtml" style="display: table-cell; white-space: nowrap; line-height: 1.5; max-width: 145px; text-align: center;"><span class="nodeLabel markdown-node-label" style="fill: #9BCDED;stroke:#21618C;color:#001a1e"><p>«Artefacto»</p></span></div></foreignObject></g></g><g class="label-group text" transform="translate(-55.0078125, 12)"><g class="label" style="font-weight: bolder" transform="translate(0,-12)"><foreignObject width="110.015625" height="24"><div xmlns="http://www.w3.org/1999/xhtml" style="display: table-cell; white-space: nowrap; line-height: 1.5; max-width: 149px; text-align: center;"><span class="nodeLabel markdown-node-label" style="fill: #9BCDED;stroke:#21618C;color:#001a1e"><p>Caso de Uso</p></span></div></foreignObject></g></g><g class="members-group text" transform="translate(-55.0078125, 60)"/><g class="methods-group text" transform="translate(-55.0078125, 90)"/></g><g class="node default artefacto" id="my-svg-classId-ListaDeRiesgos-5" data-look="classic" transform="translate(1079.34375, 264)"><g class="basic label-container outer-path"><path d="M-85.625 -36 L85.625 -36 L85.625 36 L-85.625 36" stroke="none" stroke-width="0" fill="#9BCDED" style="fill: #9BCDED;stroke:#21618C;color:#001a1e"/><path d="M-85.625 -36 C-23.180953253879153 -36, 39.263093492241694 -36, 85.625 -36 M-85.625 -36 C-18.264491737372936 -36, 49.09601652525413 -36, 85.625 -36 M85.625 -36 C85.625 -19.828837947437457, 85.625 -3.657675894874913, 85.625 36 M85.625 -36 C85.625 -8.232693970982446, 85.625 19.53461205803511, 85.625 36 M85.625 36 C40.752944943944826 36, -4.119110112110349 36, -85.625 36 M85.625 36 C23.15830236910479 36, -39.30839526179042 36, -85.625 36 M-85.625 36 C-85.625 16.957065293520728, -85.625 -2.0858694129585444, -85.625 -36 M-85.625 36 C-85.625 19.103116723502882, -85.625 2.206233447005765, -85.625 -36" stroke="#21618C" stroke-width="1.3" fill="none" stroke-dasharray="0 0" style="fill: #9BCDED;stroke:#21618C;color:#001a1e"/></g><g class="annotation-group text" transform="translate(-46.7578125, -12)"><g class="label" style="" transform="translate(0,-12)"><foreignObject width="93.515625" height="24"><div xmlns="http://www.w3.org/1999/xhtml" style="display: table-cell; white-space: nowrap; line-height: 1.5; max-width: 145px; text-align: center;"><span class="nodeLabel markdown-node-label" style="fill: #9BCDED;stroke:#21618C;color:#001a1e"><p>«Artefacto»</p></span></div></foreignObject></g></g><g class="label-group text" transform="translate(-73.625, 12)"><g class="label" style="font-weight: bolder" transform="translate(0,-12)"><foreignObject width="147.25" height="24"><div xmlns="http://www.w3.org/1999/xhtml" style="display: table-cell; white-space: nowrap; line-height: 1.5; max-width: 178px; text-align: center;"><span class="nodeLabel markdown-node-label" style="fill: #9BCDED;stroke:#21618C;color:#001a1e"><p>Lista de Riesgos</p></span></div></foreignObject></g></g><g class="members-group text" transform="translate(-73.625, 60)"/><g class="methods-group text" transform="translate(-73.625, 90)"/></g><g class="node default artefacto" id="my-svg-classId-WorkItemList-6" data-look="classic" transform="translate(171.21875, 440)"><g class="basic label-container outer-path"><path d="M-77.859375 -36 L77.859375 -36 L77.859375 36 L-77.859375 36" stroke="none" stroke-width="0" fill="#9BCDED" style="fill: #9BCDED;stroke:#21618C;color:#001a1e"/><path d="M-77.859375 -36 C-38.70678497648382 -36, 0.44580504703236556 -36, 77.859375 -36 M-77.859375 -36 C-44.545029105742174 -36, -11.230683211484347 -36, 77.859375 -36 M77.859375 -36 C77.859375 -19.717977623353917, 77.859375 -3.4359552467078345, 77.859375 36 M77.859375 -36 C77.859375 -13.992660194593729, 77.859375 8.014679610812543, 77.859375 36 M77.859375 36 C23.8909687056559 36, -30.0774375886882 36, -77.859375 36 M77.859375 36 C39.71451370383053 36, 1.569652407661053 36, -77.859375 36 M-77.859375 36 C-77.859375 10.896310611776151, -77.859375 -14.207378776447698, -77.859375 -36 M-77.859375 36 C-77.859375 7.816605973398616, -77.859375 -20.366788053202768, -77.859375 -36" stroke="#21618C" stroke-width="1.3" fill="none" stroke-dasharray="0 0" style="fill: #9BCDED;stroke:#21618C;color:#001a1e"/></g><g class="annotation-group text" transform="translate(-46.7578125, -12)"><g class="label" style="" transform="translate(0,-12)"><foreignObject width="93.515625" height="24"><div xmlns="http://www.w3.org/1999/xhtml" style="display: table-cell; white-space: nowrap; line-height: 1.5; max-width: 145px; text-align: center;"><span class="nodeLabel markdown-node-label" style="fill: #9BCDED;stroke:#21618C;color:#001a1e"><p>«Artefacto»</p></span></div></foreignObject></g></g><g class="label-group text" transform="translate(-65.859375, 12)"><g class="label" style="font-weight: bolder" transform="translate(0,-12)"><foreignObject width="131.71875" height="24"><div xmlns="http://www.w3.org/1999/xhtml" style="display: table-cell; white-space: nowrap; line-height: 1.5; max-width: 165px; text-align: center;"><span class="nodeLabel markdown-node-label" style="fill: #9BCDED;stroke:#21618C;color:#001a1e"><p>Work Item List</p></span></div></foreignObject></g></g><g class="members-group text" transform="translate(-65.859375, 60)"/><g class="methods-group text" transform="translate(-65.859375, 90)"/></g><g class="node default artefacto" id="my-svg-classId-MemoriaPersistente-7" data-look="classic" transform="translate(1005.875, 440)"><g class="basic label-container outer-path"><path d="M-105.7890625 -36 L105.7890625 -36 L105.7890625 36 L-105.7890625 36" stroke="none" stroke-width="0" fill="#9BCDED" style="fill: #9BCDED;stroke:#21618C;color:#001a1e"/><path d="M-105.7890625 -36 C-45.196078057884804 -36, 15.396906384230391 -36, 105.7890625 -36 M-105.7890625 -36 C-23.969401335880775 -36, 57.85025982823845 -36, 105.7890625 -36 M105.7890625 -36 C105.7890625 -18.514935152006025, 105.7890625 -1.02987030401205, 105.7890625 36 M105.7890625 -36 C105.7890625 -7.650627818832998, 105.7890625 20.698744362334004, 105.7890625 36 M105.7890625 36 C25.4789304836941 36, -54.8312015326118 36, -105.7890625 36 M105.7890625 36 C52.4030510934878 36, -0.9829603130244067 36, -105.7890625 36 M-105.7890625 36 C-105.7890625 10.976582824412528, -105.7890625 -14.046834351174944, -105.7890625 -36 M-105.7890625 36 C-105.7890625 15.356276374992206, -105.7890625 -5.287447250015589, -105.7890625 -36" stroke="#21618C" stroke-width="1.3" fill="none" stroke-dasharray="0 0" style="fill: #9BCDED;stroke:#21618C;color:#001a1e"/></g><g class="annotation-group text" transform="translate(-46.7578125, -12)"><g class="label" style="" transform="translate(0,-12)"><foreignObject width="93.515625" height="24"><div xmlns="http://www.w3.org/1999/xhtml" style="display: table-cell; white-space: nowrap; line-height: 1.5; max-width: 145px; text-align: center;"><span class="nodeLabel markdown-node-label" style="fill: #9BCDED;stroke:#21618C;color:#001a1e"><p>«Artefacto»</p></span></div></foreignObject></g></g><g class="label-group text" transform="translate(-93.7890625, 12)"><g class="label" style="font-weight: bolder" transform="translate(0,-12)"><foreignObject width="187.578125" height="24"><div xmlns="http://www.w3.org/1999/xhtml" style="display: table-cell; white-space: nowrap; line-height: 1.5; max-width: 214px; text-align: center;"><span class="nodeLabel markdown-node-label" style="fill: #9BCDED;stroke:#21618C;color:#001a1e"><p>Memoria Persistente</p></span></div></foreignObject></g></g><g class="members-group text" transform="translate(-93.7890625, 60)"/><g class="methods-group text" transform="translate(-93.7890625, 90)"/></g></g><g class="edges edgePaths"><path d="M426.09375,84L426.09375,222" id="my-svg-id_Analista_DocumentoDeVision_1" class="edge-thickness-normal edge-pattern-solid relation" style=";;;" data-edge="true" data-et="edge" data-id="id_Analista_DocumentoDeVision_1" data-points="W3sieCI6NDI2LjA5Mzc1LCJ5Ijo4NH0seyJ4Ijo0MjYuMDkzNzUsInkiOjIyOH1d" data-look="classic" marker-end="url(#my-svg_class-dependencyEnd)"/><path d="M445.596875,84L445.596875,136.92893218813452Q445.596875,144 452.6679428118655,144L669.6086196881345,144Q676.6796875,144 676.6796875,151.07106781186548L676.6796875,222" id="my-svg-id_Analista_GlosarioDominio_2" class="edge-thickness-normal edge-pattern-solid relation" style=";;;" data-edge="true" data-et="edge" data-id="id_Analista_GlosarioDominio_2" data-points="W3sieCI6NDQ1LjU5Njg3NSwieSI6ODR9LHsieCI6NDQ1LjU5Njg3NSwieSI6MTQ0fSx7IngiOjY3Ni42Nzk2ODc1LCJ5IjoxNDR9LHsieCI6Njc2LjY3OTY4NzUsInkiOjIyOH1d" data-look="classic" marker-end="url(#my-svg_class-dependencyEnd)"/><path d="M465.1,84L465.1,116.92893218813452Q465.1,124 472.1710678118655,124L879.6398696881345,124Q886.7109375,124 886.7109375,131.07106781186548L886.7109375,222" id="my-svg-id_Analista_CasoDeUso_3" class="edge-thickness-normal edge-pattern-solid relation" style=";;;" data-edge="true" data-et="edge" data-id="id_Analista_CasoDeUso_3" data-points="W3sieCI6NDY1LjEsInkiOjg0fSx7IngiOjQ2NS4xLCJ5IjoxMjR9LHsieCI6ODg2LjcxMDkzNzUsInkiOjEyNH0seyJ4Ijo4ODYuNzEwOTM3NSwieSI6MjI4fV0=" data-look="classic" marker-end="url(#my-svg_class-dependencyEnd)"/><path d="M484.603125,84L484.603125,96.92893218813452Q484.603125,104 491.67419281186545,104L1072.2726821881345,104Q1079.34375,104 1079.34375,111.07106781186548L1079.34375,222" id="my-svg-id_Analista_ListaDeRiesgos_4" class="edge-thickness-normal edge-pattern-solid relation" style=";;;" data-edge="true" data-et="edge" data-id="id_Analista_ListaDeRiesgos_4" data-points="W3sieCI6NDg0LjYwMzEyNSwieSI6ODR9LHsieCI6NDg0LjYwMzEyNSwieSI6MTA0fSx7IngiOjEwNzkuMzQzNzUsInkiOjEwNH0seyJ4IjoxMDc5LjM0Mzc1LCJ5IjoyMjh9XQ==" data-look="classic" marker-end="url(#my-svg_class-dependencyEnd)"/><path d="M145.265625,300L145.265625,398" id="my-svg-id_AdministradorProyecto_WorkItemList_5" class="edge-thickness-normal edge-pattern-solid relation" style=";;;" data-edge="true" data-et="edge" data-id="id_AdministradorProyecto_WorkItemList_5" data-points="W3sieCI6MTQ1LjI2NTYyNSwieSI6MzAwfSx7IngiOjE0NS4yNjU2MjUsInkiOjQwNH1d" data-look="classic" marker-end="url(#my-svg_class-dependencyEnd)"/><path d="M864.375,300L864.375,376.9289321881345Q864.375,384 857.3039321881345,384L204.171875,384Q197.171875,384 197.171875,391L197.171875,398" id="my-svg-id_CasoDeUso_WorkItemList_6" class="edge-thickness-normal edge-pattern-solid relation" style=";;;" data-edge="true" data-et="edge" data-id="id_CasoDeUso_WorkItemList_6" data-points="W3sieCI6ODY0LjM3NSwieSI6MzAwfSx7IngiOjg2NC4zNzUsInkiOjM4NH0seyJ4IjoxOTcuMTcxODc1LCJ5IjozODR9LHsieCI6MTk3LjE3MTg3NSwieSI6NDA0fV0=" data-look="classic" marker-end="url(#my-svg_class-dependencyEnd)"/><path d="M909.046875,300L909.046875,312.9289321881345Q909.046875,320 916.1179428118655,320L998.8039321881345,320Q1005.875,320 1005.875,327.0710678118655L1005.875,398" id="my-svg-id_CasoDeUso_MemoriaPersistente_7" class="edge-thickness-normal edge-pattern-solid relation" style=";;;" data-edge="true" data-et="edge" data-id="id_CasoDeUso_MemoriaPersistente_7" data-points="W3sieCI6OTA5LjA0Njg3NSwieSI6MzAwfSx7IngiOjkwOS4wNDY4NzUsInkiOjMyMH0seyJ4IjoxMDA1Ljg3NSwieSI6MzIwfSx7IngiOjEwMDUuODc1LCJ5Ijo0MDR9XQ==" data-look="classic" marker-end="url(#my-svg_class-dependencyEnd)"/></g><g class="edgeLabels"><g class="edgeLabel" transform="translate(425.8046875, 176)"><g class="label" data-id="id_Analista_DocumentoDeVision_1" transform="translate(-30.2109375, -12)"><foreignObject width="60.421875" height="24"><div xmlns="http://www.w3.org/1999/xhtml" class="labelBkg" style="display: table-cell; white-space: nowrap; line-height: 1.5; max-width: 200px; text-align: center;"><span class="edgeLabel"><p>elabora</p></span></div></foreignObject></g></g><g class="edgeLabel" transform="translate(676.21875, 176)"><g class="label" data-id="id_Analista_GlosarioDominio_2" transform="translate(-38.0390625, -12)"><foreignObject width="76.078125" height="24"><div xmlns="http://www.w3.org/1999/xhtml" class="labelBkg" style="display: table-cell; white-space: nowrap; line-height: 1.5; max-width: 200px; text-align: center;"><span class="edgeLabel"><p>mantiene</p></span></div></foreignObject></g></g><g class="edgeLabel" transform="translate(886.6328125, 176)"><g class="label" data-id="id_Analista_CasoDeUso_3" transform="translate(-67.421875, -12)"><foreignObject width="134.84375" height="24"><div xmlns="http://www.w3.org/1999/xhtml" class="labelBkg" style="display: table-cell; white-space: nowrap; line-height: 1.5; max-width: 200px; text-align: center;"><span class="edgeLabel"><p>elabora y detalla</p></span></div></foreignObject></g></g><g class="edgeLabel" transform="translate(1079.3046875, 176)"><g class="label" data-id="id_Analista_ListaDeRiesgos_4" transform="translate(-35.9609375, -12)"><foreignObject width="71.921875" height="24"><div xmlns="http://www.w3.org/1999/xhtml" class="labelBkg" style="display: table-cell; white-space: nowrap; line-height: 1.5; max-width: 200px; text-align: center;"><span class="edgeLabel"><p>actualiza</p></span></div></foreignObject></g></g><g class="edgeLabel" transform="translate(145.140625, 352)"><g class="label" data-id="id_AdministradorProyecto_WorkItemList_5" transform="translate(-75.875, -12)"><foreignObject width="151.75" height="24"><div xmlns="http://www.w3.org/1999/xhtml" class="labelBkg" style="display: table-cell; white-space: nowrap; line-height: 1.5; max-width: 200px; text-align: center;"><span class="edgeLabel"><p>prioriza y actualiza</p></span></div></foreignObject></g></g><g class="edgeLabel" transform="translate(864.375, 352)"><g class="label" data-id="id_CasoDeUso_WorkItemList_6" transform="translate(-65, -12)"><foreignObject width="130" height="24"><div xmlns="http://www.w3.org/1999/xhtml" class="labelBkg" style="display: table-cell; white-space: nowrap; line-height: 1.5; max-width: 200px; text-align: center;"><span class="edgeLabel"><p>origina items en</p></span></div></foreignObject></g></g><g class="edgeLabel" transform="translate(1005.453125, 352)"><g class="label" data-id="id_CasoDeUso_MemoriaPersistente_7" transform="translate(-56.078125, -12)"><foreignObject width="112.15625" height="24"><div xmlns="http://www.w3.org/1999/xhtml" class="labelBkg" style="display: table-cell; white-space: nowrap; line-height: 1.5; max-width: 200px; text-align: center;"><span class="edgeLabel"><p>se persiste en</p></span></div></foreignObject></g></g></g><text text-anchor="middle" x="588.484375" y="-25" class="classDiagramTitleText">Meta-modelo Ingeniería de Requerimientos</text></svg>