<svg id="my-svg" width="100%" xmlns="http://www.w3.org/2000/svg" xmlns:xlink="http://www.w3.org/1999/xlink" class="classDiagram" style="max-width: 1168.97px; background-color: white;" viewBox="4 -48 1168.96875 532" role="graphics-document document" aria-roledescription="class"><style>#my-svg{font-family:"trebuchet ms",verdana,arial,sans-serif;font-size:16px;fill:#000000;}@keyframes edge-animation-frame{from{stroke-dashoffset:0;}}@keyframes dash{to{stroke-dashoffset:0;}}#my-svg .edge-animation-slow{stroke-dasharray:9,5!important;stroke-dashoffset:900;animation:dash 50s linear infinite;stroke-linecap:round;}#my-svg .edge-animation-fast{stroke-dasharray:9,5!important;stroke-dashoffset:900;animation:dash 20s linear infinite;stroke-linecap:round;}#my-svg .error-icon{fill:#552222;}#my-svg .error-text{fill:#552222;stroke:#552222;}#my-svg .edge-thickness-normal{stroke-width:1px;}#my-svg .edge-thickness-thick{stroke-width:3.5px;}#my-svg .edge-pattern-solid{stroke-dasharray:0;}#my-svg .edge-thickness-invisible{stroke-width:0;fill:none;}#my-svg .edge-pattern-dashed{stroke-dasharray:3;}#my-svg .edge-pattern-dotted{stroke-dasharray:2;}#my-svg .marker{fill:#666;stroke:#666;}#my-svg .marker.cross{stroke:#666;}#my-svg svg{font-family:"trebuchet ms",verdana,arial,sans-serif;font-size:16px;}#my-svg p{margin:0;}#my-svg g.classGroup text{fill:#999;stroke:none;font-family:"trebuchet ms",verdana,arial,sans-serif;font-size:10px;}#my-svg g.classGroup text .title{font-weight:bolder;}#my-svg .cluster-label text{fill:#333;}#my-svg .cluster-label span{color:#333;}#my-svg .cluster-label span p{background-color:transparent;}#my-svg .cluster rect{fill:hsl(0, 0%, 98.9215686275%);stroke:#707070;stroke-width:1px;}#my-svg .cluster text{fill:#333;}#my-svg .cluster span{color:#333;}#my-svg .nodeLabel,#my-svg .edgeLabel{color:#111111;}#my-svg .noteLabel .nodeLabel,#my-svg .noteLabel .edgeLabel{color:#fff;}#my-svg .edgeLabel .label rect{fill:#eee;}#my-svg .label text{fill:#111111;}#my-svg .labelBkg{background:#eee;}#my-svg .edgeLabel .label span{background:#eee;}#my-svg .classTitle{font-weight:bolder;}#my-svg .node rect,#my-svg .node circle,#my-svg .node ellipse,#my-svg .node polygon,#my-svg .node path{fill:#eee;stroke:#999;stroke-width:1;}#my-svg .divider{stroke:#999;stroke-width:1;}#my-svg g.clickable{cursor:pointer;}#my-svg g.classGroup rect{fill:#eee;stroke:#999;}#my-svg g.classGroup line{stroke:#999;stroke-width:1;}#my-svg .classLabel .box{stroke:none;stroke-width:0;fill:#eee;opacity:0.5;}#my-svg .classLabel .label{fill:#999;font-size:10px;}#my-svg .relation{stroke:#666;stroke-width:1;fill:none;}#my-svg .dashed-line{stroke-dasharray:3;}#my-svg .dotted-line{stroke-dasharray:1 2;}#my-svg [id$="-compositionStart"],#my-svg .composition{fill:#666!important;stroke:#666!important;stroke-width:1;}#my-svg [id$="-compositionEnd"],#my-svg .composition{fill:#666!important;stroke:#666!important;stroke-width:1;}#my-svg [id$="-dependencyStart"],#my-svg .dependency{fill:#666!important;stroke:#666!important;stroke-width:1;}#my-svg [id$="-dependencyEnd"],#my-svg .dependency{fill:#666!important;stroke:#666!important;stroke-width:1;}#my-svg [id$="-extensionStart"],#my-svg .extension{fill:transparent!important;stroke:#666!important;stroke-width:1;}#my-svg [id$="-extensionEnd"],#my-svg .extension{fill:transparent!important;stroke:#666!important;stroke-width:1;}#my-svg [id$="-aggregationStart"],#my-svg .aggregation{fill:transparent!important;stroke:#666!important;stroke-width:1;}#my-svg [id$="-aggregationEnd"],#my-svg .aggregation{fill:transparent!important;stroke:#666!important;stroke-width:1;}#my-svg [id$="-lollipopStart"],#my-svg .lollipop{fill:#eee!important;stroke:#666!important;stroke-width:1;}#my-svg [id$="-lollipopEnd"],#my-svg .lollipop{fill:#eee!important;stroke:#666!important;stroke-width:1;}#my-svg .edgeTerminals{font-size:11px;line-height:initial;}#my-svg .classTitleText{text-anchor:middle;font-size:18px;fill:#000000;}#my-svg .edgeLabel[data-look="neo"]{background-color:white;text-align:center;}#my-svg .edgeLabel[data-look="neo"] p{background-color:white;}#my-svg .edgeLabel[data-look="neo"] rect{opacity:0.5;background-color:white;fill:white;}#my-svg .label-icon{display:inline-block;height:1em;overflow:visible;vertical-align:-0.125em;}#my-svg .node .label-icon path{fill:currentColor;stroke:revert;stroke-width:revert;}#my-svg .node .neo-node{stroke:#999;}#my-svg [data-look="neo"].node rect,#my-svg [data-look="neo"].cluster rect,#my-svg [data-look="neo"].node polygon{stroke:url(#my-svg-gradient);filter:drop-shadow( 1px 2px 2px rgba(185,185,185,1));}#my-svg [data-look="neo"].node path{stroke:url(#my-svg-gradient);stroke-width:1px;}#my-svg [data-look="neo"].node .outer-path{filter:drop-shadow( 1px 2px 2px rgba(185,185,185,1));}#my-svg [data-look="neo"].node .neo-line path{stroke:#999;filter:none;}#my-svg [data-look="neo"].node circle{stroke:url(#my-svg-gradient);filter:drop-shadow( 1px 2px 2px rgba(185,185,185,1));}#my-svg [data-look="neo"].node circle .state-start{fill:#000000;}#my-svg [data-look="neo"].icon-shape .icon{fill:url(#my-svg-gradient);filter:drop-shadow( 1px 2px 2px rgba(185,185,185,1));}#my-svg [data-look="neo"].icon-shape .icon-neo path{stroke:url(#my-svg-gradient);filter:drop-shadow( 1px 2px 2px rgba(185,185,185,1));}#my-svg :root{--mermaid-font-family:"trebuchet ms",verdana,arial,sans-serif;}#my-svg .Analista&gt;*{fill:rgb(225, 205, 233)!important;stroke:rgb(44, 37, 112)!important;color:rgb(0, 26, 30)!important;}#my-svg .Analista span{fill:rgb(225, 205, 233)!important;stroke:rgb(44, 37, 112)!important;color:rgb(0, 26, 30)!important;}#my-svg .AdministradorProyecto&gt;*{fill:rgb(225, 205, 233)!important;stroke:rgb(44, 37, 112)!important;color:rgb(0, 26, 30)!important;}#my-svg .AdministradorProyecto span{fill:rgb(225, 205, 233)!important;stroke:rgb(44, 37, 112)!important;color:rgb(0, 26, 30)!important;}#my-svg .DocumentoDeVision&gt;*{fill:rgb(155, 205, 237)!important;stroke:rgb(33, 97, 140)!important;color:rgb(0, 26, 30)!important;}#my-svg .DocumentoDeVision span{fill:rgb(155, 205, 237)!important;stroke:rgb(33, 97, 140)!important;color:rgb(0, 26, 30)!important;}#my-svg .GlosarioDominio&gt;*{fill:rgb(155, 205, 237)!important;stroke:rgb(33, 97, 140)!important;color:rgb(0, 26, 30)!important;}#my-svg .GlosarioDominio span{fill:rgb(155, 205, 237)!important;stroke:rgb(33, 97, 140)!important;color:rgb(0, 26, 30)!important;}#my-svg .CasoDeUso&gt;*{fill:rgb(155, 205, 237)!important;stroke:rgb(33, 97, 140)!important;color:rgb(0, 26, 30)!important;}#my-svg .CasoDeUso span{fill:rgb(155, 205, 237)!important;stroke:rgb(33, 97, 140)!important;color:rgb(0, 26, 30)!important;}#my-svg .ListaDeRiesgos&gt;*{fill:rgb(155, 205, 237)!important;stroke:rgb(33, 97, 140)!important;color:rgb(0, 26, 30)!important;}#my-svg .ListaDeRiesgos span{fill:rgb(155, 205, 237)!important;stroke:rgb(33, 97, 140)!important;color:rgb(0, 26, 30)!important;}#my-svg .WorkItemList&gt;*{fill:rgb(155, 205, 237)!important;stroke:rgb(33, 97, 140)!important;color:rgb(0, 26, 30)!important;}#my-svg .WorkItemList span{fill:rgb(155, 205, 237)!important;stroke:rgb(33, 97, 140)!important;color:rgb(0, 26, 30)!important;}#my-svg .MemoriaPersistente&gt;*{fill:rgb(155, 205, 237)!important;stroke:rgb(33, 97, 140)!important;color:rgb(0, 26, 30)!important;}#my-svg .MemoriaPersistente span{fill:rgb(155, 205, 237)!important;stroke:rgb(33, 97, 140)!important;color:rgb(0, 26, 30)!important;}</style><g><defs><marker id="my-svg_class-aggregationStart" class="marker aggregation class" refX="18" refY="7" markerWidth="190" markerHeight="240" orient="auto"><path d="M 18,7 L9,13 L1,7 L9,1 Z"/></marker></defs><defs><marker id="my-svg_class-aggregationEnd" class="marker aggregation class" refX="1" refY="7" markerWidth="20" markerHeight="28" orient="auto"><path d="M 18,7 L9,13 L1,7 L9,1 Z"/></marker></defs><defs><marker id="my-svg_class-aggregationStart-margin" class="marker aggregation class" refX="15" refY="7" markerWidth="190" markerHeight="240" orient="auto" markerUnits="userSpaceOnUse"><path d="M 18,7 L9,13 L1,7 L9,1 Z" style="stroke-width: 2;"/></marker></defs><defs><marker id="my-svg_class-aggregationEnd-margin" class="marker aggregation class" refX="1" refY="7" markerWidth="20" markerHeight="28" orient="auto" markerUnits="userSpaceOnUse"><path d="M 18,7 L9,13 L1,7 L9,1 Z" style="stroke-width: 2;"/></marker></defs><defs><marker id="my-svg_class-extensionStart" class="marker extension class" refX="18" refY="7" markerWidth="20" markerHeight="28" orient="auto" markerUnits="userSpaceOnUse"><path d="M 1,7 L18,13 V 1 Z"/></marker></defs><defs><marker id="my-svg_class-extensionEnd" class="marker extension class" refX="1" refY="7" markerWidth="20" markerHeight="28" orient="auto"><path d="M 1,1 V 13 L18,7 Z"/></marker></defs><marker id="my-svg_class-extensionStart-margin" class="marker extension class" refX="18" refY="7" markerWidth="20" markerHeight="28" orient="auto" markerUnits="userSpaceOnUse" viewBox="0 0 20 14"><polygon points="10,7 18,13 18,1" style="stroke-width: 2; stroke-dasharray: 0;"/></marker><defs><marker id="my-svg_class-extensionEnd-margin" class="marker extension class" refX="9" refY="7" markerWidth="20" markerHeight="28" orient="auto" markerUnits="userSpaceOnUse" viewBox="0 0 20 14"><polygon points="10,1 10,13 18,7" style="stroke-width: 2; stroke-dasharray: 0;"/></marker></defs><defs><marker id="my-svg_class-compositionStart" class="marker composition class" refX="18" refY="7" markerWidth="190" markerHeight="240" orient="auto"><path d="M 18,7 L9,13 L1,7 L9,1 Z"/></marker></defs><defs><marker id="my-svg_class-compositionEnd" class="marker composition class" refX="1" refY="7" markerWidth="20" markerHeight="28" orient="auto"><path d="M 18,7 L9,13 L1,7 L9,1 Z"/></marker></defs><defs><marker id="my-svg_class-compositionStart-margin" class="marker composition class" refX="15" refY="7" markerWidth="190" markerHeight="240" orient="auto" markerUnits="userSpaceOnUse"><path viewBox="0 0 15 15" d="M 18,7 L9,13 L1,7 L9,1 Z" style="stroke-width: 0;"/></marker></defs><defs><marker id="my-svg_class-compositionEnd-margin" class="marker composition class" refX="3.5" refY="7" markerWidth="20" markerHeight="28" orient="auto" markerUnits="userSpaceOnUse"><path d="M 18,7 L9,13 L1,7 L9,1 Z" style="stroke-width: 0;"/></marker></defs><defs><marker id="my-svg_class-dependencyStart" class="marker dependency class" refX="6" refY="7" markerWidth="190" markerHeight="240" orient="auto"><path d="M 5,7 L9,13 L1,7 L9,1 Z"/></marker></defs><defs><marker id="my-svg_class-dependencyEnd" class="marker dependency class" refX="13" refY="7" markerWidth="20" markerHeight="28" orient="auto"><path d="M 18,7 L9,13 L14,7 L9,1 Z"/></marker></defs><defs><marker id="my-svg_class-dependencyStart-margin" class="marker dependency class" refX="4" refY="7" markerWidth="190" markerHeight="240" orient="auto" markerUnits="userSpaceOnUse"><path d="M 5,7 L9,13 L1,7 L9,1 Z" style="stroke-width: 0;"/></marker></defs><defs><marker id="my-svg_class-dependencyEnd-margin" class="marker dependency class" refX="16" refY="7" markerWidth="20" markerHeight="28" orient="auto" markerUnits="userSpaceOnUse"><path d="M 18,7 L9,13 L14,7 L9,1 Z" style="stroke-width: 0;"/></marker></defs><defs><marker id="my-svg_class-lollipopStart" class="marker lollipop class" refX="13" refY="7" markerWidth="190" markerHeight="240" orient="auto"><circle fill="transparent" cx="7" cy="7" r="6"/></marker></defs><defs><marker id="my-svg_class-lollipopEnd" class="marker lollipop class" refX="1" refY="7" markerWidth="190" markerHeight="240" orient="auto"><circle fill="transparent" cx="7" cy="7" r="6"/></marker></defs><defs><marker id="my-svg_class-lollipopStart-margin" class="marker lollipop class" refX="13" refY="7" markerWidth="190" markerHeight="240" orient="auto" markerUnits="userSpaceOnUse"><circle fill="transparent" cx="7" cy="7" r="6" stroke-width="2"/></marker></defs><defs><marker id="my-svg_class-lollipopEnd-margin" class="marker lollipop class" refX="1" refY="7" markerWidth="190" markerHeight="240" orient="auto" markerUnits="userSpaceOnUse"><circle fill="transparent" cx="7" cy="7" r="6" stroke-width="2"/></marker></defs></g><defs><filter id="my-svg-drop-shadow" height="130%" width="130%"><feDropShadow dx="4" dy="4" stdDeviation="0" flood-opacity="0.06" flood-color="#000000"/></filter></defs><defs><filter id="my-svg-drop-shadow-small" height="150%" width="150%"><feDropShadow dx="2" dy="2" stdDeviation="0" flood-opacity="0.06" flood-color="#000000"/></filter></defs><linearGradient id="my-svg-gradient" gradientUnits="objectBoundingBox" x1="0%" y1="0%" x2="100%" y2="0%"><stop offset="0%" stop-color="hsl(0, 0%, 83.3333333333%)" stop-opacity="1"/><stop offset="100%" stop-color="hsl(0, 0%, 88.9215686275%)" stop-opacity="1"/></linearGradient><g class="subgraphs"/><g class="nodes"><g class="node default rol" id="my-svg-classId-Analista-0" data-look="classic" transform="translate(455.3484375, 48)"><g class="basic label-container outer-path"><path d="M-48.7578125 -36 L48.7578125 -36 L48.7578125 36 L-48.7578125 36" stroke="none" stroke-width="0" fill="#E1CDE9" style="fill:#E1CDE9;stroke:#2c2570;color:#001a1e"/><path d="M-48.7578125 -36 C-14.861548223224268 -36, 19.034716053551463 -36, 48.7578125 -36 M-48.7578125 -36 C-12.294114665264445 -36, 24.16958316947111 -36, 48.7578125 -36 M48.7578125 -36 C48.7578125 -18.444358660541578, 48.7578125 -0.8887173210831563, 48.7578125 36 M48.7578125 -36 C48.7578125 -10.260856420384293, 48.7578125 15.478287159231414, 48.7578125 36 M48.7578125 36 C25.492474785057677 36, 2.2271370701153543 36, -48.7578125 36 M48.7578125 36 C25.119002927807283 36, 1.480193355614567 36, -48.7578125 36 M-48.7578125 36 C-48.7578125 13.103638883578174, -48.7578125 -9.792722232843651, -48.7578125 -36 M-48.7578125 36 C-48.7578125 13.19289164857176, -48.7578125 -9.614216702856481, -48.7578125 -36" stroke="#2c2570" stroke-width="1.3" fill="none" stroke-dasharray="0 0" style="fill:#E1CDE9;stroke:#2c2570;color:#001a1e"/></g><g class="annotation-group text" transform="translate(-22.109375, -12)"><g class="label" style="" transform="translate(0,-12)"><foreignObject width="44.21875" height="24"><div xmlns="http://www.w3.org/1999/xhtml" style="display: table-cell; white-space: nowrap; line-height: 1.5; max-width: 94px; text-align: center;"><span class="nodeLabel markdown-node-label" style="fill:#E1CDE9;stroke:#2c2570;color:#001a1e"><p>«Rol»</p></span></div></foreignObject></g></g><g class="label-group text" transform="translate(-36.7578125, 12)"><g class="label" style="font-weight: bolder" transform="translate(0,-12)"><foreignObject width="73.515625" height="24"><div xmlns="http://www.w3.org/1999/xhtml" style="display: table-cell; white-space: nowrap; line-height: 1.5; max-width: 113px; text-align: center;"><span class="nodeLabel markdown-node-label" style="fill:#E1CDE9;stroke:#2c2570;color:#001a1e"><p>Analista</p></span></div></foreignObject></g></g><g class="members-group text" transform="translate(-36.7578125, 60)"/><g class="methods-group text" transform="translate(-36.7578125, 90)"/></g><g class="node default rol" id="my-svg-classId-AdministradorProyecto-1" data-look="classic" transform="translate(145.265625, 264)"><g class="basic label-container outer-path"><path d="M-133.265625 -36 L133.265625 -36 L133.265625 36 L-133.265625 36" stroke="none" stroke-width="0" fill="#E1CDE9" style="fill:#E1CDE9;stroke:#2c2570;color:#001a1e"/><path d="M-133.265625 -36 C-50.26904956960149 -36, 32.727525860797016 -36, 133.265625 -36 M-133.265625 -36 C-39.33066468080361 -36, 54.604295638392784 -36, 133.265625 -36 M133.265625 -36 C133.265625 -8.645855109886252, 133.265625 18.708289780227496, 133.265625 36 M133.265625 -36 C133.265625 -19.29384173027173, 133.265625 -2.5876834605434595, 133.265625 36 M133.265625 36 C79.95478116202446 36, 26.643937324048906 36, -133.265625 36 M133.265625 36 C54.416103091231236 36, -24.43341881753753 36, -133.265625 36 M-133.265625 36 C-133.265625 14.507652258090605, -133.265625 -6.98469548381879, -133.265625 -36 M-133.265625 36 C-133.265625 12.384493873844551, -133.265625 -11.231012252310897, -133.265625 -36" stroke="#2c2570" stroke-width="1.3" fill="none" stroke-dasharray="0 0" style="fill:#E1CDE9;stroke:#2c2570;color:#001a1e"/></g><g class="annotation-group text" transform="translate(-22.109375, -12)"><g class="label" style="" transform="translate(0,-12)"><foreignObject width="44.21875" height="24"><div xmlns="http://www.w3.org/1999/xhtml" style="display: table-cell; white-space: nowrap; line-height: 1.5; max-width: 94px; text-align: center;"><span class="nodeLabel markdown-node-label" style="fill:#E1CDE9;stroke:#2c2570;color:#001a1e"><p>«Rol»</p></span></div></foreignObject></g></g><g class="label-group text" transform="translate(-121.265625, 12)"><g class="label" style="font-weight: bolder" transform="translate(0,-12)"><foreignObject width="242.53125" height="24"><div xmlns="http://www.w3.org/1999/xhtml" style="display: table-cell; white-space: nowrap; line-height: 1.5; max-width: 264px; text-align: center;"><span class="nodeLabel markdown-node-label" style="fill:#E1CDE9;stroke:#2c2570;color:#001a1e"><p>Administrador de Proyecto</p></span></div></foreignObject></g></g><g class="members-group text" transform="translate(-121.265625, 60)"/><g class="methods-group text" transform="translate(-121.265625, 90)"/></g><g class="node default artefacto" id="my-svg-classId-DocumentoDeVision-2" data-look="classic" transform="translate(426.09375, 264)"><g class="basic label-container outer-path"><path d="M-107.5625 -36 L107.5625 -36 L107.5625 36 L-107.5625 36" stroke="none" stroke-width="0" fill="#9BCDED" style="fill: #9BCDED;stroke:#21618C;color:#001a1e"/><path d="M-107.5625 -36 C-34.504914191497946 -36, 38.55267161700411 -36, 107.5625 -36 M-107.5625 -36 C-28.39292295641073 -36, 50.77665408717854 -36, 107.5625 -36 M107.5625 -36 C107.5625 -7.809017307201767, 107.5625 20.381965385596466, 107.5625 36 M107.5625 -36 C107.5625 -17.164186912759593, 107.5625 1.6716261744808136, 107.5625 36 M107.5625 36 C37.97149807913078 36, -31.619503841738435 36, -107.5625 36 M107.5625 36 C56.05480454221456 36, 4.547109084429124 36, -107.5625 36 M-107.5625 36 C-107.5625 15.125458127308423, -107.5625 -5.749083745383153, -107.5625 -36 M-107.5625 36 C-107.5625 18.48620107151135, -107.5625 0.9724021430226983, -107.5625 -36" stroke="#21618C" stroke-width="1.3" fill="none" stroke-dasharray="0 0" style="fill: #9BCDED;stroke:#21618C;color:#001a1e"/></g><g class="annotation-group text" transform="translate(-46.7578125, -12)"><g class="label" style="" transform="translate(0,-12)"><foreignObject width="93.515625" height="24"><div xmlns="http://www.w3.org/1999/xhtml" style="display: table-cell; white-space: nowrap; line-height: 1.5; max-width: 145px; text-align: center;"><span class="nodeLabel markdown-node-label" style="fill: #9BCDED;stroke:#21618C;color:#001a1e"><p>«Artefacto»</p></span></div></foreignObject></g></g><g class="label-group text" transform="translate(-95.5625, 12)"><g class="label" style="font-weight: bolder" transform="translate(0,-12)"><foreignObject width="191.125" height="24"><div xmlns="http://www.w3.org/1999/xhtml" style="display: table-cell; white-space: nowrap; line-height: 1.5; max-width: 220px; text-align: center;"><span class="nodeLabel markdown-node-label" style="fill: #9BCDED;stroke:#21618C;color:#001a1e"><p>Documento de Visión</p></span></div></foreignObject></g></g><g class="members-group text" transform="translate(-95.5625, 60)"/><g class="methods-group text" transform="translate(-95.5625, 90)"/></g><g class="node default artefacto" id="my-svg-classId-GlosarioDominio-3" data-look="classic" transform="translate(676.6796875, 264)"><g class="basic label-container outer-path"><path d="M-103.0234375 -36 L103.0234375 -36 L103.0234375 36 L-103.0234375 36" stroke="none" stroke-width="0" fill="#9BCDED" style="fill: #9BCDED;stroke:#21618C;color:#001a1e"/><path d="M-103.0234375 -36 C-56.40551932432425 -36, -9.787601148648506 -36, 103.0234375 -36 M-103.0234375 -36 C-46.685247053064046 -36, 9.652943393871908 -36, 103.0234375 -36 M103.0234375 -36 C103.0234375 -8.290650098331106, 103.0234375 19.418699803337788, 103.0234375 36 M103.0234375 -36 C103.0234375 -12.140852779466762, 103.0234375 11.718294441066476, 103.0234375 36 M103.0234375 36 C22.846886080636025 36, -57.32966533872795 36, -103.0234375 36 M103.0234375 36 C28.903746097809176 36, -45.21594530438165 36, -103.0234375 36 M-103.0234375 36 C-103.0234375 14.703113348295048, -103.0234375 -6.593773303409904, -103.0234375 -36 M-103.0234375 36 C-103.0234375 11.912638046842684, -103.0234375 -12.174723906314632, -103.0234375 -36" stroke="#21618C" stroke-width="1.3" fill="none" stroke-dasharray="0 0" style="fill: #9BCDED;stroke:#21618C;color:#001a1e"/></g><g class="annotation-group text" transform="translate(-46.7578125, -12)"><g class="label" style="" transform="translate(0,-12)"><foreignObject width="93.515625" height="24"><div xmlns="http://www.w3.org/1999/xhtml" style="display: table-cell; white-space: nowrap; line-height: 1.5; max-width: 145px; text-align: center;"><span class="nodeLabel markdown-node-label" style="fill: #9BCDED;stroke:#21618C;color:#001a1e"><p>«Artefacto»</p></span></div></foreignObject></g></g><g class="label-group text" transform="translate(-91.0234375, 12)"><g class="label" style="font-weight: bolder" transform="translate(0,-12)"><foreignObject width="182.046875" height="24"><div xmlns="http://www.w3.org/1999/xhtml" style="display: table-cell; white-space: nowrap; line-height: 1.5; max-width: 211px; text-align: center;"><span class="nodeLabel markdown-node-label" style="fill: #9BCDED;stroke:#21618C;color:#001a1e"><p>Glosario de Dominio</p></span></div></foreignObject></g></g><g class="members-group text" transform="translate(-91.0234375, 60)"/><g class="methods-group text" transform="translate(-91.0234375, 90)"/></g><g class="node default artefacto" id="my-svg-classId-CasoDeUso-4" data-look="classic" transform="translate(886.7109375, 264)"><g class="basic label-container outer-path"><path d="M-67.0078125 -36 L67.0078125 -36 L67.0078125 36 L-67.0078125 36" stroke="none" stroke-width="0" fill="#9BCDED" style="fill: #9BCDED;stroke:#21618C;color:#001a1e"/><path d="M-67.0078125 -36 C-38.194952084689604 -36, -9.382091669379214 -36, 67.0078125 -36 M-67.0078125 -36 C-14.962724151542652 -36, 37.082364196914696 -36, 67.0078125 -36 M67.0078125 -36 C67.0078125 -13.434194543699473, 67.0078125 9.131610912601055, 67.0078125 36 M67.0078125 -36 C67.0078125 -17.80429576233315, 67.0078125 0.39140847533369794, 67.0078125 36 M67.0078125 36 C38.90974029463948 36, 10.811668089278953 36, -67.0078125 36 M67.0078125 36 C30.480757936825 36, -6.046296626349999 36, -67.0078125 36 M-67.0078125 36 C-67.0078125 19.156097276011938, -67.0078125 2.3121945520238754, -67.0078125 -36 M-67.0078125 36 C-67.0078125 8.389188361092657, -67.0078125 -19.221623277814686, -67.0078125 -36" stroke="#21618C" stroke-width="1.3" fill="none" stroke-dasharray="0 0" style="fill: #9BCDED;stroke:#21618C;color:#001a1e"/></g><g class="annotation-group text" transform="translate(-46.7578125, -12)"><g class="label" style="" transform="translate(0,-12)"><foreignObject width="93.515625" height="24"><div xmlns="http://www.w3.org/1999/xhtml" style="display: table-cell; white-space: nowrap; line-height: 1.5; max-width: 145px; text-align: center;"><span class="nodeLabel markdown-node-label" style="fill: #9BCDED;stroke:#21618C;color:#001a1e"><p>«Artefacto»</p></span></div></foreignObject></g></g><g class="label-group text" transform="translate(-55.0078125, 12)"><g class="label" style="font-weight: bolder" transform="translate(0,-12)"><foreignObject width="110.015625" height="24"><div xmlns="http://www.w3.org/1999/xhtml" style="display: table-cell; white-space: nowrap; line-height: 1.5; max-width: 149px; text-align: center;"><span class="nodeLabel markdown-node-label" style="fill: #9BCDED;stroke:#21618C;color:#001a1e"><p>Caso de Uso</p></span></div></foreignObject></g></g><g class="members-group text" transform="translate(-55.0078125, 60)"/><g class="methods-group text" transform="translate(-55.0078125, 90)"/></g><g class="node default artefacto" id="my-svg-classId-ListaDeRiesgos-5" data-look="classic" transform="translate(1079.34375, 264)"><g class="basic label-container outer-path"><path d="M-85.625 -36 L85.625 -36 L85.625 36 L-85.625 36" stroke="none" stroke-width="0" fill="#9BCDED" style="fill: #9BCDED;stroke:#21618C;color:#001a1e"/><path d="M-85.625 -36 C-34.79381154539429 -36, 16.037376909211417 -36, 85.625 -36 M-85.625 -36 C-49.06206147416164 -36, -12.499122948323276 -36, 85.625 -36 M85.625 -36 C85.625 -8.488446407555948, 85.625 19.023107184888104, 85.625 36 M85.625 -36 C85.625 -20.564513157767305, 85.625 -5.12902631553461, 85.625 36 M85.625 36 C28.05042704934015 36, -29.5241459013197 36, -85.625 36 M85.625 36 C46.71958723197779 36, 7.814174463955581 36, -85.625 36 M-85.625 36 C-85.625 15.456647830079593, -85.625 -5.086704339840814, -85.625 -36 M-85.625 36 C-85.625 12.616095106992386, -85.625 -10.767809786015228, -85.625 -36" stroke="#21618C" stroke-width="1.3" fill="none" stroke-dasharray="0 0" style="fill: #9BCDED;stroke:#21618C;color:#001a1e"/></g><g class="annotation-group text" transform="translate(-46.7578125, -12)"><g class="label" style="" transform="translate(0,-12)"><foreignObject width="93.515625" height="24"><div xmlns="http://www.w3.org/1999/xhtml" style="display: table-cell; white-space: nowrap; line-height: 1.5; max-width: 145px; text-align: center;"><span class="nodeLabel markdown-node-label" style="fill: #9BCDED;stroke:#21618C;color:#001a1e"><p>«Artefacto»</p></span></div></foreignObject></g></g><g class="label-group text" transform="translate(-73.625, 12)"><g class="label" style="font-weight: bolder" transform="translate(0,-12)"><foreignObject width="147.25" height="24"><div xmlns="http://www.w3.org/1999/xhtml" style="display: table-cell; white-space: nowrap; line-height: 1.5; max-width: 178px; text-align: center;"><span class="nodeLabel markdown-node-label" style="fill: #9BCDED;stroke:#21618C;color:#001a1e"><p>Lista de Riesgos</p></span></div></foreignObject></g></g><g class="members-group text" transform="translate(-73.625, 60)"/><g class="methods-group text" transform="translate(-73.625, 90)"/></g><g class="node default artefacto" id="my-svg-classId-WorkItemList-6" data-look="classic" transform="translate(171.21875, 440)"><g class="basic label-container outer-path"><path d="M-77.859375 -36 L77.859375 -36 L77.859375 36 L-77.859375 36" stroke="none" stroke-width="0" fill="#9BCDED" style="fill: #9BCDED;stroke:#21618C;color:#001a1e"/><path d="M-77.859375 -36 C-17.25168170896201 -36, 43.35601158207598 -36, 77.859375 -36 M-77.859375 -36 C-19.687424924585308 -36, 38.484525150829384 -36, 77.859375 -36 M77.859375 -36 C77.859375 -19.449406762180004, 77.859375 -2.8988135243600084, 77.859375 36 M77.859375 -36 C77.859375 -11.88197406091357, 77.859375 12.236051878172859, 77.859375 36 M77.859375 36 C16.381511992074763 36, -45.09635101585047 36, -77.859375 36 M77.859375 36 C23.04949550865362 36, -31.76038398269276 36, -77.859375 36 M-77.859375 36 C-77.859375 13.823583280828608, -77.859375 -8.352833438342785, -77.859375 -36 M-77.859375 36 C-77.859375 9.007072591329731, -77.859375 -17.985854817340538, -77.859375 -36" stroke="#21618C" stroke-width="1.3" fill="none" stroke-dasharray="0 0" style="fill: #9BCDED;stroke:#21618C;color:#001a1e"/></g><g class="annotation-group text" transform="translate(-46.7578125, -12)"><g class="label" style="" transform="translate(0,-12)"><foreignObject width="93.515625" height="24"><div xmlns="http://www.w3.org/1999/xhtml" style="display: table-cell; white-space: nowrap; line-height: 1.5; max-width: 145px; text-align: center;"><span class="nodeLabel markdown-node-label" style="fill: #9BCDED;stroke:#21618C;color:#001a1e"><p>«Artefacto»</p></span></div></foreignObject></g></g><g class="label-group text" transform="translate(-65.859375, 12)"><g class="label" style="font-weight: bolder" transform="translate(0,-12)"><foreignObject width="131.71875" height="24"><div xmlns="http://www.w3.org/1999/xhtml" style="display: table-cell; white-space: nowrap; line-height: 1.5; max-width: 165px; text-align: center;"><span class="nodeLabel markdown-node-label" style="fill: #9BCDED;stroke:#21618C;color:#001a1e"><p>Work Item List</p></span></div></foreignObject></g></g><g class="members-group text" transform="translate(-65.859375, 60)"/><g class="methods-group text" transform="translate(-65.859375, 90)"/></g><g class="node default artefacto" id="my-svg-classId-MemoriaPersistente-7" data-look="classic" transform="translate(1005.875, 440)"><g class="basic label-container outer-path"><path d="M-105.7890625 -36 L105.7890625 -36 L105.7890625 36 L-105.7890625 36" stroke="none" stroke-width="0" fill="#9BCDED" style="fill: #9BCDED;stroke:#21618C;color:#001a1e"/><path d="M-105.7890625 -36 C-24.713899827115767 -36, 56.361262845768465 -36, 105.7890625 -36 M-105.7890625 -36 C-61.211991743661436 -36, -16.63492098732287 -36, 105.7890625 -36 M105.7890625 -36 C105.7890625 -11.479716472978726, 105.7890625 13.040567054042548, 105.7890625 36 M105.7890625 -36 C105.7890625 -11.125369309890512, 105.7890625 13.749261380218975, 105.7890625 36 M105.7890625 36 C36.506650143904295 36, -32.77576221219141 36, -105.7890625 36 M105.7890625 36 C31.769619348546613 36, -42.249823802906775 36, -105.7890625 36 M-105.7890625 36 C-105.7890625 21.19424717545234, -105.7890625 6.388494350904679, -105.7890625 -36 M-105.7890625 36 C-105.7890625 18.19937663234343, -105.7890625 0.3987532646868601, -105.7890625 -36" stroke="#21618C" stroke-width="1.3" fill="none" stroke-dasharray="0 0" style="fill: #9BCDED;stroke:#21618C;color:#001a1e"/></g><g class="annotation-group text" transform="translate(-46.7578125, -12)"><g class="label" style="" transform="translate(0,-12)"><foreignObject width="93.515625" height="24"><div xmlns="http://www.w3.org/1999/xhtml" style="display: table-cell; white-space: nowrap; line-height: 1.5; max-width: 145px; text-align: center;"><span class="nodeLabel markdown-node-label" style="fill: #9BCDED;stroke:#21618C;color:#001a1e"><p>«Artefacto»</p></span></div></foreignObject></g></g><g class="label-group text" transform="translate(-93.7890625, 12)"><g class="label" style="font-weight: bolder" transform="translate(0,-12)"><foreignObject width="187.578125" height="24"><div xmlns="http://www.w3.org/1999/xhtml" style="display: table-cell; white-space: nowrap; line-height: 1.5; max-width: 214px; text-align: center;"><span class="nodeLabel markdown-node-label" style="fill: #9BCDED;stroke:#21618C;color:#001a1e"><p>Memoria Persistente</p></span></div></foreignObject></g></g><g class="members-group text" transform="translate(-93.7890625, 60)"/><g class="methods-group text" transform="translate(-93.7890625, 90)"/></g></g><g class="edges edgePaths"><path d="M426.09375,84L426.09375,222" id="my-svg-id_Analista_DocumentoDeVision_1" class="edge-thickness-normal edge-pattern-solid relation" style=";;;" data-edge="true" data-et="edge" data-id="id_Analista_DocumentoDeVision_1" data-points="W3sieCI6NDI2LjA5Mzc1LCJ5Ijo4NH0seyJ4Ijo0MjYuMDkzNzUsInkiOjIyOH1d" data-look="classic" marker-end="url(#my-svg_class-dependencyEnd)"/><path d="M445.596875,84L445.596875,136.92893218813452Q445.596875,144 452.6679428118655,144L669.6086196881345,144Q676.6796875,144 676.6796875,151.07106781186548L676.6796875,222" id="my-svg-id_Analista_GlosarioDominio_2" class="edge-thickness-normal edge-pattern-solid relation" style=";;;" data-edge="true" data-et="edge" data-id="id_Analista_GlosarioDominio_2" data-points="W3sieCI6NDQ1LjU5Njg3NSwieSI6ODR9LHsieCI6NDQ1LjU5Njg3NSwieSI6MTQ0fSx7IngiOjY3Ni42Nzk2ODc1LCJ5IjoxNDR9LHsieCI6Njc2LjY3OTY4NzUsInkiOjIyOH1d" data-look="classic" marker-end="url(#my-svg_class-dependencyEnd)"/><path d="M465.1,84L465.1,116.92893218813452Q465.1,124 472.1710678118655,124L879.6398696881345,124Q886.7109375,124 886.7109375,131.07106781186548L886.7109375,222" id="my-svg-id_Analista_CasoDeUso_3" class="edge-thickness-normal edge-pattern-solid relation" style=";;;" data-edge="true" data-et="edge" data-id="id_Analista_CasoDeUso_3" data-points="W3sieCI6NDY1LjEsInkiOjg0fSx7IngiOjQ2NS4xLCJ5IjoxMjR9LHsieCI6ODg2LjcxMDkzNzUsInkiOjEyNH0seyJ4Ijo4ODYuNzEwOTM3NSwieSI6MjI4fV0=" data-look="classic" marker-end="url(#my-svg_class-dependencyEnd)"/><path d="M484.603125,84L484.603125,96.92893218813452Q484.603125,104 491.67419281186545,104L1072.2726821881345,104Q1079.34375,104 1079.34375,111.07106781186548L1079.34375,222" id="my-svg-id_Analista_ListaDeRiesgos_4" class="edge-thickness-normal edge-pattern-solid relation" style=";;;" data-edge="true" data-et="edge" data-id="id_Analista_ListaDeRiesgos_4" data-points="W3sieCI6NDg0LjYwMzEyNSwieSI6ODR9LHsieCI6NDg0LjYwMzEyNSwieSI6MTA0fSx7IngiOjEwNzkuMzQzNzUsInkiOjEwNH0seyJ4IjoxMDc5LjM0Mzc1LCJ5IjoyMjh9XQ==" data-look="classic" marker-end="url(#my-svg_class-dependencyEnd)"/><path d="M145.265625,300L145.265625,398" id="my-svg-id_AdministradorProyecto_WorkItemList_5" class="edge-thickness-normal edge-pattern-solid relation" style=";;;" data-edge="true" data-et="edge" data-id="id_AdministradorProyecto_WorkItemList_5" data-points="W3sieCI6MTQ1LjI2NTYyNSwieSI6MzAwfSx7IngiOjE0NS4yNjU2MjUsInkiOjQwNH1d" data-look="classic" marker-end="url(#my-svg_class-dependencyEnd)"/><path d="M864.375,300L864.375,376.9289321881345Q864.375,384 857.3039321881345,384L204.171875,384Q197.171875,384 197.171875,391L197.171875,398" id="my-svg-id_CasoDeUso_WorkItemList_6" class="edge-thickness-normal edge-pattern-solid relation" style=";;;" data-edge="true" data-et="edge" data-id="id_CasoDeUso_WorkItemList_6" data-points="W3sieCI6ODY0LjM3NSwieSI6MzAwfSx7IngiOjg2NC4zNzUsInkiOjM4NH0seyJ4IjoxOTcuMTcxODc1LCJ5IjozODR9LHsieCI6MTk3LjE3MTg3NSwieSI6NDA0fV0=" data-look="classic" marker-end="url(#my-svg_class-dependencyEnd)"/><path d="M909.046875,300L909.046875,312.9289321881345Q909.046875,320 916.1179428118655,320L998.8039321881345,320Q1005.875,320 1005.875,327.0710678118655L1005.875,398" id="my-svg-id_CasoDeUso_MemoriaPersistente_7" class="edge-thickness-normal edge-pattern-solid relation" style=";;;" data-edge="true" data-et="edge" data-id="id_CasoDeUso_MemoriaPersistente_7" data-points="W3sieCI6OTA5LjA0Njg3NSwieSI6MzAwfSx7IngiOjkwOS4wNDY4NzUsInkiOjMyMH0seyJ4IjoxMDA1Ljg3NSwieSI6MzIwfSx7IngiOjEwMDUuODc1LCJ5Ijo0MDR9XQ==" data-look="classic" marker-end="url(#my-svg_class-dependencyEnd)"/></g><g class="edgeLabels"><g class="edgeLabel" transform="translate(425.8046875, 176)"><g class="label" data-id="id_Analista_DocumentoDeVision_1" transform="translate(-30.2109375, -12)"><foreignObject width="60.421875" height="24"><div xmlns="http://www.w3.org/1999/xhtml" class="labelBkg" style="display: table-cell; white-space: nowrap; line-height: 1.5; max-width: 200px; text-align: center;"><span class="edgeLabel"><p>elabora</p></span></div></foreignObject></g></g><g class="edgeLabel" transform="translate(676.21875, 176)"><g class="label" data-id="id_Analista_GlosarioDominio_2" transform="translate(-38.0390625, -12)"><foreignObject width="76.078125" height="24"><div xmlns="http://www.w3.org/1999/xhtml" class="labelBkg" style="display: table-cell; white-space: nowrap; line-height: 1.5; max-width: 200px; text-align: center;"><span class="edgeLabel"><p>mantiene</p></span></div></foreignObject></g></g><g class="edgeLabel" transform="translate(886.6328125, 176)"><g class="label" data-id="id_Analista_CasoDeUso_3" transform="translate(-67.421875, -12)"><foreignObject width="134.84375" height="24"><div xmlns="http://www.w3.org/1999/xhtml" class="labelBkg" style="display: table-cell; white-space: nowrap; line-height: 1.5; max-width: 200px; text-align: center;"><span class="edgeLabel"><p>elabora y detalla</p></span></div></foreignObject></g></g><g class="edgeLabel" transform="translate(1079.3046875, 176)"><g class="label" data-id="id_Analista_ListaDeRiesgos_4" transform="translate(-35.9609375, -12)"><foreignObject width="71.921875" height="24"><div xmlns="http://www.w3.org/1999/xhtml" class="labelBkg" style="display: table-cell; white-space: nowrap; line-height: 1.5; max-width: 200px; text-align: center;"><span class="edgeLabel"><p>actualiza</p></span></div></foreignObject></g></g><g class="edgeLabel" transform="translate(145.140625, 352)"><g class="label" data-id="id_AdministradorProyecto_WorkItemList_5" transform="translate(-75.875, -12)"><foreignObject width="151.75" height="24"><div xmlns="http://www.w3.org/1999/xhtml" class="labelBkg" style="display: table-cell; white-space: nowrap; line-height: 1.5; max-width: 200px; text-align: center;"><span class="edgeLabel"><p>prioriza y actualiza</p></span></div></foreignObject></g></g><g class="edgeLabel" transform="translate(864.375, 352)"><g class="label" data-id="id_CasoDeUso_WorkItemList_6" transform="translate(-65, -12)"><foreignObject width="130" height="24"><div xmlns="http://www.w3.org/1999/xhtml" class="labelBkg" style="display: table-cell; white-space: nowrap; line-height: 1.5; max-width: 200px; text-align: center;"><span class="edgeLabel"><p>origina items en</p></span></div></foreignObject></g></g><g class="edgeLabel" transform="translate(1005.453125, 352)"><g class="label" data-id="id_CasoDeUso_MemoriaPersistente_7" transform="translate(-56.078125, -12)"><foreignObject width="112.15625" height="24"><div xmlns="http://www.w3.org/1999/xhtml" class="labelBkg" style="display: table-cell; white-space: nowrap; line-height: 1.5; max-width: 200px; text-align: center;"><span class="edgeLabel"><p>se persiste en</p></span></div></foreignObject></g></g></g><text text-anchor="middle" x="588.484375" y="-25" class="classDiagramTitleText">Meta-modelo Ingeniería de Requerimientos</text></svg>